<?xml version="1.0" standalone="no"?>
<!DOCTYPE svg PUBLIC "-//W3C//DTD SVG 1.1//EN" "http://www.w3.org/Graphics/SVG/1.1/DTD/svg11.dtd" >
<svg xmlns="http://www.w3.org/2000/svg" xmlns:xlink="http://www.w3.org/1999/xlink" version="1.1">
<metadata>
Copyright c 2020 by Eduardo Manso. All rights reserved.
</metadata>
<defs>
<font id="ApproachMono-SemiBold" horiz-adv-x="620" >
  <font-face 
    font-family="Approach Mono"
    font-weight="600"
    font-stretch="normal"
    units-per-em="1000"
    panose-1="2 11 7 9 4 5 1 6 1 4"
    ascent="750"
    descent="-250"
    x-height="506"
    cap-height="700"
    bbox="-21 -250 711 991"
    underline-thickness="0"
    underline-position="-93"
    stemh="106"
    stemv="132"
    unicode-range="U+0020-1F78B"
  />
<missing-glyph horiz-adv-x="500" 
d="M50 -250v1000h400v-1000h-400zM100 -200h300v900h-300v-900z" />
    <glyph glyph-name="fi" unicode="fi" 
d="M110 0v401h-76v105h76v32c0 86 46 162 178 162h254v-108h-246c-46 0 -55 -32 -55 -65v-21h301v-506h-131v401h-170v-401h-131z" />
    <glyph glyph-name="fl" unicode="fl" 
d="M110 0v401h-76v105h76v32c0 86 46 162 178 162h254v-700h-131v592h-115c-46 0 -55 -32 -55 -65v-21h91v-105h-91v-401h-131z" />
    <glyph glyph-name=".notdef" horiz-adv-x="500" 
d="M50 -250v1000h400v-1000h-400zM100 -200h300v900h-300v-900z" />
    <glyph glyph-name="Eth" unicode="&#xd0;" 
d="M14 402h65v298h196c195 0 306 -136 306 -339c0 -210 -112 -361 -306 -361h-196v297h-65v105zM278 581h-59v-179h122v-105h-122v-178h59c105 0 161 100 161 242c0 131 -56 220 -161 220z" />
    <glyph glyph-name="eth" unicode="&#xf0;" 
d="M310 -12c-163 0 -257 108 -257 254c0 148 87 255 238 255c50 0 93 -18 125 -47c-19 44 -42 85 -69 124l-77 -32l-28 64l60 25c-20 23 -41 46 -64 69h147c11 -10 21 -21 31 -31l74 31l28 -65l-56 -23c89 -122 105 -243 105 -335c0 -174 -93 -289 -257 -289zM310 391
c-86 0 -124 -63 -124 -149c0 -84 38 -148 124 -148s124 64 124 148c0 86 -38 149 -124 149z" />
    <glyph glyph-name="Lslash" unicode="&#x141;" 
d="M15 316l101 59v325h139v-241l81 47l48 -83l-129 -76v-228h319v-119h-458v264l-52 -30z" />
    <glyph glyph-name="lslash" unicode="&#x142;" 
d="M92 106h170v170l-70 -42l-50 82l120 71v207h-170v106h301v-235l70 41l48 -82l-118 -70v-248h171v-106h-472v106z" />
    <glyph glyph-name="Scaron" unicode="&#x160;" 
d="M369 771h-122l-108 155h115l55 -80l55 80h113zM581 210c0 -113 -87 -222 -259 -222c-173 0 -280 89 -283 229l140 16c4 -92 58 -133 143 -133c91 0 116 54 116 96c0 52 -28 74 -92 87l-90 18c-91 18 -195 66 -195 205c0 98 78 206 247 206c174 0 250 -100 260 -204
l-142 -16c-11 83 -60 108 -118 108c-85 0 -108 -47 -108 -85c0 -53 30 -76 80 -86l106 -21c123 -24 195 -85 195 -198z" />
    <glyph glyph-name="scaron" unicode="&#x161;" 
d="M373 571h-122l-108 155h115l55 -80l55 80h113zM544 156c0 -98 -72 -168 -229 -168c-168 0 -232 82 -238 165l131 14c6 -54 43 -82 113 -82c72 0 93 28 93 61c0 30 -28 44 -76 52l-79 13c-77 13 -164 44 -164 150c0 84 72 157 219 157c157 0 210 -82 221 -156l-120 -14
c-10 41 -40 74 -106 74c-70 0 -89 -28 -89 -52c0 -32 25 -42 71 -50l86 -15c104 -18 167 -55 167 -149z" />
    <glyph glyph-name="Yacute" unicode="&#xdd;" 
d="M348 926h119l-99 -155h-113zM12 700h151l148 -294l151 294h146l-228 -428v-272h-139v265z" />
    <glyph glyph-name="yacute" unicode="&#xfd;" 
d="M352 726h119l-99 -155h-113zM44 506h138l131 -343l134 343h130l-214 -537c-47 -118 -94 -154 -201 -154h-85v107h86c44 0 64 15 75 46l11 30z" />
    <glyph glyph-name="Thorn" unicode="&#xde;" 
d="M69 700h137v-113h124c153 0 254 -104 254 -226c0 -134 -102 -247 -256 -247h-122v-114h-137v700zM307 477h-101v-252h101c84 0 138 57 138 134c0 68 -54 118 -138 118z" />
    <glyph glyph-name="thorn" unicode="&#xfe;" 
d="M349 518c139 0 226 -104 226 -261c0 -155 -86 -269 -226 -269c-67 0 -118 26 -152 70v-243h-131v885h131v-255c34 45 84 73 152 73zM320 409c-79 0 -125 -64 -125 -156c0 -88 47 -155 125 -155c79 0 121 66 121 155c0 90 -42 156 -121 156z" />
    <glyph glyph-name="Zcaron" unicode="&#x17d;" 
d="M373 771h-122l-108 155h115l55 -80l55 80h113zM582 118v-118h-535v103l343 479h-330v118h507v-103l-344 -479h359z" />
    <glyph glyph-name="zcaron" unicode="&#x17e;" 
d="M371 571h-122l-108 155h115l55 -80l55 80h113zM540 108v-108h-460v94l287 304h-274v108h436v-96l-285 -302h296z" />
    <glyph glyph-name="onehalf" unicode="&#xbd;" 
d="M348 399l164 301h90l-165 -301h-89zM44 436h92v149c-12 -4 -24 -5 -38 -5h-59v67h58c45 0 48 38 48 53h76v-264h77v-69h-254v69zM578 69v-69h-266v65l116 97c30 25 50 45 50 73c0 17 -13 34 -38 34s-52 -16 -47 -67l-84 11c-3 91 65 126 134 126c84 0 123 -47 123 -100
c0 -50 -37 -90 -82 -126l-55 -44h149zM18 0l165 301h89l-164 -301h-90z" />
    <glyph glyph-name="onequarter" unicode="&#xbc;" 
d="M44 436h92v149c-12 -4 -24 -5 -38 -5h-59v67h58c45 0 48 38 48 53h76v-264h77v-69h-254v69zM348 399l164 301h90l-165 -301h-89zM311 130l138 203h116v-197h47v-69h-47v-67h-85v67h-169v63zM18 0l165 301h89l-164 -301h-90zM480 136v123l-84 -123h84z" />
    <glyph glyph-name="onesuperior" unicode="&#xb9;" 
d="M162 546h108v176c-13 -5 -28 -7 -44 -7h-70v79h69c53 0 56 45 56 63h89v-311h91v-81h-299v81z" />
    <glyph glyph-name="threequarters" unicode="&#xbe;" 
d="M166 507h-28v60h22c29 0 39 20 39 38c0 22 -17 32 -40 32c-28 0 -55 -16 -53 -60l-77 16c1 77 63 114 136 114c78 0 121 -40 121 -91c0 -27 -12 -55 -43 -72c38 -14 54 -42 54 -76c0 -63 -52 -106 -132 -106c-68 0 -144 32 -142 113l84 14c-2 -44 25 -58 54 -58
c28 0 50 14 50 42c0 17 -11 34 -45 34zM348 399l164 301h90l-165 -301h-89zM311 130l138 203h116v-197h47v-69h-47v-67h-85v67h-169v63zM18 0l165 301h89l-164 -301h-90zM480 136v123l-84 -123h84z" />
    <glyph glyph-name="threesuperior" unicode="&#xb3;" 
d="M318 629h-33v70h26c34 0 45 24 45 45c0 26 -20 38 -47 38c-32 0 -64 -19 -62 -71l-91 19c2 90 75 134 160 134c92 0 143 -47 143 -107c0 -32 -14 -65 -51 -85c45 -16 64 -49 64 -89c0 -74 -61 -125 -156 -125c-80 0 -169 37 -167 133l99 16c-2 -52 30 -68 64 -68
c33 0 58 16 58 49c0 21 -12 41 -52 41z" />
    <glyph glyph-name="twosuperior" unicode="&#xb2;" 
d="M468 546v-81h-313v76l137 115c35 29 58 53 58 85c0 21 -15 40 -44 40s-61 -18 -55 -78l-99 13c-4 107 76 148 157 148c99 0 145 -56 145 -118c0 -59 -43 -105 -96 -148l-65 -52h175z" />
    <glyph glyph-name="brokenbar" unicode="&#xa6;" 
d="M367 405h-114v337h114v-337zM367 -132h-114v337h114v-337z" />
    <glyph glyph-name="minus" unicode="&#x2212;" 
d="M80 406h460v-112h-460v112z" />
    <glyph glyph-name="multiply" unicode="&#xd7;" 
d="M170 131l-80 78l141 141l-141 141l80 78l140 -140l141 140l79 -78l-141 -141l141 -141l-79 -78l-141 140z" />
    <glyph glyph-name="space" unicode=" " 
 />
    <glyph glyph-name="exclam" unicode="!" 
d="M236 700h147v-130l-24 -363h-98l-25 363v130zM236 150h148v-150h-148v150z" />
    <glyph glyph-name="quotedbl" unicode="&#x22;" 
d="M484 427h-127v273h127v-273zM264 427h-127v273h127v-273z" />
    <glyph glyph-name="numbersign" unicode="#" 
d="M230 0h-117l14 189h-89v94h96l9 134h-88v94h95l13 189h117l-13 -189h109l14 189h117l-13 -189h88v-94h-95l-9 -134h87v-94h-94l-14 -189h-117l14 189h-110zM251 283h109l10 134h-110z" />
    <glyph glyph-name="dollar" unicode="$" 
d="M354 -133h-75v123c-141 14 -226 100 -229 228l135 15c2 -78 38 -121 94 -135v202l-11 3c-88 24 -194 67 -194 210c0 88 62 186 205 198v122h75v-124c131 -17 193 -107 202 -202l-135 -15c-7 64 -32 95 -67 107v-187l13 -4c129 -40 203 -88 203 -207
c0 -102 -73 -199 -216 -212v-122zM202 520c0 -52 29 -71 77 -86v170c-59 -11 -77 -51 -77 -84zM433 189c0 51 -24 69 -79 87v-179c61 12 79 57 79 92z" />
    <glyph glyph-name="percent" unicode="%" 
d="M165 362c-95 0 -137 71 -137 173c0 101 45 172 137 172c94 0 138 -71 138 -172c0 -102 -46 -173 -138 -173zM348 399l164 301h90l-165 -301h-89zM165 431c41 0 53 38 53 104c0 65 -12 103 -53 103s-53 -38 -53 -103c0 -66 12 -104 53 -104zM454 -7
c-95 0 -137 71 -137 173c0 101 45 172 137 172c94 0 138 -71 138 -172c0 -102 -46 -173 -138 -173zM18 0l165 301h89l-164 -301h-90zM454 62c41 0 53 38 53 104c0 65 -12 103 -53 103s-53 -38 -53 -103c0 -66 12 -104 53 -104z" />
    <glyph glyph-name="ampersand" unicode="&#x26;" 
d="M32 180c0 95 63 150 129 189c-32 41 -71 100 -71 164c0 118 90 179 195 179c102 0 179 -56 179 -157c0 -89 -67 -144 -145 -189l119 -148c12 33 18 74 18 122l110 -12c0 -84 -19 -153 -51 -204l100 -124h-154l-34 41c-48 -36 -107 -53 -170 -53c-123 0 -225 59 -225 192z
M212 542c0 -40 20 -69 54 -112c56 38 85 73 85 118c0 43 -25 72 -67 72c-58 0 -72 -48 -72 -78zM166 200c0 -70 52 -103 110 -103c34 0 61 5 87 24l-146 179c-32 -25 -51 -53 -51 -100z" />
    <glyph glyph-name="quotesingle" unicode="'" 
d="M374 427h-127v273h127v-273z" />
    <glyph glyph-name="parenleft" unicode="(" 
d="M268 305c0 -179 102 -327 224 -437h-135c-127 111 -229 247 -229 437s102 327 229 437h134c-121 -110 -223 -258 -223 -437z" />
    <glyph glyph-name="parenright" unicode=")" 
d="M352 305c0 179 -102 327 -224 437h135c127 -111 229 -247 229 -437s-102 -327 -229 -437h-134c121 110 223 258 223 437z" />
    <glyph glyph-name="asterisk" unicode="*" 
d="M484 346l-77 -56l-95 128l-97 -128l-77 56l87 117l-125 37l26 93l134 -39v146h101v-146l133 39l26 -93l-123 -36z" />
    <glyph glyph-name="plus" unicode="+" 
d="M254 120v174h-174v112h174v174h113v-174h173v-112h-173v-174h-113z" />
    <glyph glyph-name="comma" unicode="," 
d="M336 -119h-132l59 285h144z" />
    <glyph glyph-name="hyphen" unicode="-" 
d="M127 330h366v-113h-366v113z" />
    <glyph glyph-name="period" unicode="." 
d="M228 166h165v-166h-165v166z" />
    <glyph glyph-name="slash" unicode="/" 
d="M190 -132h-112l356 874h108z" />
    <glyph glyph-name="zero" unicode="0" 
d="M309 -12c-182 0 -270 147 -270 362s90 362 271 362c185 0 271 -147 271 -362s-89 -362 -272 -362zM179 350c0 -74 8 -137 29 -180l152 416c-14 7 -31 11 -50 11c-99 0 -131 -100 -131 -247zM310 103c99 0 131 100 131 247c0 70 -7 130 -26 173l-150 -412
c13 -5 28 -8 45 -8z" />
    <glyph glyph-name="one" unicode="1" 
d="M73 117h189v376c-22 -13 -48 -19 -79 -19h-111v115h105c88 0 89 78 89 111h135v-583h174v-117h-502v117z" />
    <glyph glyph-name="two" unicode="2" 
d="M410 503c0 53 -36 90 -96 90s-125 -35 -114 -169l-137 19c-12 192 121 269 254 269c160 0 234 -99 234 -204c0 -106 -72 -190 -155 -263l-146 -128h324v-117h-512v113l246 216c64 56 102 107 102 174z" />
    <glyph glyph-name="three" unicode="3" 
d="M321 308h-65v103h56c75 0 98 48 98 97c0 60 -43 88 -100 88c-70 0 -122 -41 -124 -129l-127 27c1 141 120 218 257 218c151 0 234 -81 234 -188c0 -58 -25 -120 -92 -155c83 -29 115 -92 115 -162c0 -129 -97 -219 -257 -219c-135 0 -270 65 -275 214l141 23
c4 -85 57 -121 134 -121c68 0 117 36 117 110c0 48 -27 94 -112 94z" />
    <glyph glyph-name="four" unicode="4" 
d="M34 262l292 438h181v-425h80v-117h-80v-158h-139v158h-334v104zM368 275v289l-188 -289h188z" />
    <glyph glyph-name="five" unicode="5" 
d="M573 234c0 -136 -86 -246 -262 -246c-138 0 -248 67 -268 185l140 20c12 -58 55 -94 127 -94c78 0 124 46 124 129c0 77 -46 115 -116 115c-58 0 -103 -25 -136 -62l-106 48l55 371h390v-117h-284l-28 -174c33 23 78 42 136 42c152 0 228 -98 228 -217z" />
    <glyph glyph-name="six" unicode="6" 
d="M576 229c0 -136 -100 -241 -251 -241c-167 0 -276 108 -276 349c0 255 117 375 275 375c113 0 215 -54 239 -186l-136 -16c-17 59 -48 89 -106 89c-101 0 -132 -115 -137 -220c41 51 102 74 162 74c136 0 230 -85 230 -224zM320 95c72 0 119 55 119 126
c0 79 -44 125 -118 125c-76 0 -123 -54 -123 -126c0 -71 50 -125 122 -125z" />
    <glyph glyph-name="seven" unicode="7" 
d="M179 463h-122v237h534v-101c-163 -162 -221 -276 -221 -505v-94h-139v94c0 212 66 355 191 485h-243v-116z" />
    <glyph glyph-name="eight" unicode="8" 
d="M570 198c0 -119 -98 -210 -260 -210c-167 0 -260 91 -260 210c0 64 30 135 120 171c-77 34 -98 98 -98 155c0 103 84 188 238 188c157 0 238 -85 238 -188c0 -57 -21 -119 -95 -153c93 -36 117 -108 117 -173zM310 417c75 0 101 54 101 96c0 64 -44 95 -101 95
s-101 -31 -101 -95c0 -42 26 -96 101 -96zM310 316c-84 0 -122 -51 -122 -111c0 -62 38 -112 122 -112c83 0 122 50 122 112c0 60 -39 111 -122 111z" />
    <glyph glyph-name="nine" unicode="9" 
d="M44 471c0 136 100 241 251 241c167 0 276 -108 276 -349c0 -255 -117 -375 -275 -375c-113 0 -215 54 -239 186l136 16c17 -59 48 -89 106 -89c101 0 132 115 137 220c-41 -51 -102 -74 -162 -74c-136 0 -230 85 -230 224zM300 605c-72 0 -119 -55 -119 -126
c0 -79 44 -125 118 -125c76 0 123 54 123 126c0 71 -50 125 -122 125z" />
    <glyph glyph-name="colon" unicode=":" 
d="M228 506h165v-166h-165v166zM228 166h165v-166h-165v166z" />
    <glyph glyph-name="semicolon" unicode=";" 
d="M229 506h165v-166h-165v166zM312 -119h-132l59 285h144z" />
    <glyph glyph-name="less" unicode="&#x3c;" 
d="M85 403l450 205v-129l-292 -127l292 -127v-133l-450 205v106z" />
    <glyph glyph-name="equal" unicode="=" 
d="M80 519h460v-112h-460v112zM80 293h460v-112h-460v112z" />
    <glyph glyph-name="greater" unicode="&#x3e;" 
d="M535 403v-106l-450 -205v133l292 127l-292 127v129z" />
    <glyph glyph-name="question" unicode="?" 
d="M416 513c0 45 -29 84 -95 84s-127 -40 -131 -157l-130 20c1 156 116 252 267 252c166 0 234 -93 234 -193c0 -97 -68 -151 -125 -199c-56 -46 -65 -58 -66 -113h-125c-1 91 9 116 92 186c51 43 79 70 79 120zM234 150h148v-150h-148v150z" />
    <glyph glyph-name="at" unicode="@" 
d="M152 206c0 139 49 279 143 279c34 0 66 -20 77 -73l14 64h96l-57 -286c-11 -53 0 -77 28 -77c33 0 70 57 70 228c0 112 -19 300 -191 300c-163 0 -234 -180 -234 -394c0 -268 98 -372 246 -372c82 0 124 20 176 47l28 -65c-57 -31 -118 -54 -207 -54
c-205 0 -329 148 -329 442c0 231 90 467 320 467c180 0 275 -139 275 -370c0 -223 -80 -311 -164 -311c-48 0 -83 21 -102 74c-16 -47 -47 -73 -88 -73c-57 0 -101 62 -101 174zM253 213c0 -54 7 -86 31 -86c47 0 62 123 62 196c0 44 -11 69 -32 69c-41 0 -61 -104 -61 -179
z" />
    <glyph glyph-name="A" unicode="A" 
d="M157 0h-138l214 700h155l213 -700h-148l-35 131h-225zM307 539l-82 -293h161z" />
    <glyph glyph-name="B" unicode="B" 
d="M67 700h261c136 0 209 -77 209 -172c0 -65 -34 -122 -91 -157c81 -28 130 -93 130 -166c0 -113 -84 -205 -227 -205h-282v700zM303 589h-97v-177h94c59 0 95 42 95 95c0 45 -28 82 -92 82zM327 304h-121v-193h123c75 0 105 46 105 101c0 50 -37 92 -107 92z" />
    <glyph glyph-name="C" unicode="C" 
d="M572 455l-138 -19c-12 94 -43 156 -117 156c-94 0 -127 -98 -127 -242s33 -242 127 -242c71 0 104 67 116 146l135 -18c-23 -155 -111 -248 -252 -248c-184 0 -268 147 -268 362s88 362 269 362c147 0 235 -92 255 -257z" />
    <glyph glyph-name="D" unicode="D" 
d="M69 700h206c195 0 306 -136 306 -339c0 -210 -112 -361 -306 -361h-206v700zM278 581h-70v-462h70c105 0 161 100 161 242c0 131 -56 220 -161 220z" />
    <glyph glyph-name="E" unicode="E" 
d="M89 700h468v-118h-329v-169h289v-116h-289v-179h339v-118h-478v700z" />
    <glyph glyph-name="F" unicode="F" 
d="M89 700h489v-118h-350v-180h310v-119h-310v-283h-139v700z" />
    <glyph glyph-name="G" unicode="G" 
d="M39 346c0 217 94 366 275 366c134 0 214 -78 244 -221l-135 -24c-17 83 -48 126 -110 126c-95 0 -131 -101 -131 -247c0 -138 42 -237 134 -237c84 0 119 69 119 137v30h-107v107h232v-383h-121v61c-29 -46 -79 -73 -146 -73c-167 0 -254 149 -254 358z" />
    <glyph glyph-name="H" unicode="H" 
d="M69 700h139v-281h204v281h139v-700h-139v299h-204v-299h-139v700z" />
    <glyph glyph-name="I" unicode="I" 
d="M75 116h166v468h-166v116h470v-116h-165v-468h165v-116h-470v116z" />
    <glyph glyph-name="J" unicode="J" 
d="M214 700h328v-469c0 -156 -78 -243 -237 -243c-158 0 -238 88 -238 243v27l137 26v-53c0 -81 30 -126 100 -126s99 45 99 120v357h-189v118z" />
    <glyph glyph-name="K" unicode="K" 
d="M615 0h-163l-181 289l-63 -76v-213h-139v700h139v-305l236 305h162l-240 -307z" />
    <glyph glyph-name="L" unicode="L" 
d="M91 700h139v-581h344v-119h-483v700z" />
    <glyph glyph-name="M" unicode="M" 
d="M55 700h163l94 -295l97 295h156v-700h-122v516l-101 -303h-71l-95 296v-509h-121v700z" />
    <glyph glyph-name="N" unicode="N" 
d="M69 700h148l202 -412v412h132v-700h-120l-230 470v-470h-132v700z" />
    <glyph glyph-name="O" unicode="O" 
d="M309 -12c-182 0 -270 147 -270 362s90 362 271 362c185 0 271 -147 271 -362s-89 -362 -272 -362zM310 107c97 0 129 99 129 243c0 145 -32 243 -129 243s-129 -98 -129 -243c0 -144 32 -243 129 -243z" />
    <glyph glyph-name="P" unicode="P" 
d="M69 700h261c157 0 254 -100 254 -227c0 -128 -97 -241 -254 -241h-122v-232h-139v700zM319 583h-111v-235h111c81 0 124 55 124 125c0 61 -43 110 -124 110z" />
    <glyph glyph-name="Q" unicode="Q" 
d="M559 -181h-151c-89 0 -168 36 -168 143v34c-135 33 -201 168 -201 354c0 215 90 362 271 362c185 0 271 -147 271 -362c0 -185 -66 -320 -201 -354v-25c0 -36 22 -44 47 -44h132v-108zM310 107c97 0 129 99 129 243c0 145 -32 243 -129 243s-129 -98 -129 -243
c0 -144 32 -243 129 -243z" />
    <glyph glyph-name="R" unicode="R" 
d="M569 0h-139l-10 173c-3 57 -37 83 -109 83h-103v-256h-139v700h252c159 0 249 -89 249 -197c0 -76 -41 -145 -112 -182c63 -22 97 -69 101 -146zM310 583h-102v-213h102c77 0 119 51 119 116c0 52 -37 97 -119 97z" />
    <glyph glyph-name="S" unicode="S" 
d="M581 210c0 -113 -87 -222 -259 -222c-173 0 -280 89 -283 229l140 16c4 -92 58 -133 143 -133c91 0 116 54 116 96c0 52 -28 74 -92 87l-90 18c-91 18 -195 66 -195 205c0 98 78 206 247 206c174 0 250 -100 260 -204l-142 -16c-11 83 -60 108 -118 108
c-85 0 -108 -47 -108 -85c0 -53 30 -76 80 -86l106 -21c123 -24 195 -85 195 -198z" />
    <glyph glyph-name="T" unicode="T" 
d="M33 700h554v-119h-207v-581h-139v581h-208v119z" />
    <glyph glyph-name="U" unicode="U" 
d="M554 700v-474c0 -157 -109 -238 -243 -238s-245 81 -245 238v474h139v-474c0 -84 48 -119 106 -119c57 0 104 35 104 119v474h139z" />
    <glyph glyph-name="V" unicode="V" 
d="M18 700h147l149 -513l146 513h142l-219 -700h-145z" />
    <glyph glyph-name="W" unicode="W" 
d="M15 700h132l46 -457l68 317h106l69 -319l44 459h125l-85 -700h-130l-80 394l-79 -394h-130z" />
    <glyph glyph-name="X" unicode="X" 
d="M18 700h164l127 -230l134 230h158l-215 -346l219 -354h-166l-133 232l-131 -232h-160l212 352z" />
    <glyph glyph-name="Y" unicode="Y" 
d="M12 700h151l148 -294l151 294h146l-228 -428v-272h-139v265z" />
    <glyph glyph-name="Z" unicode="Z" 
d="M582 118v-118h-535v103l343 479h-330v118h507v-103l-344 -479h359z" />
    <glyph glyph-name="bracketleft" unicode="[" 
d="M155 -132v874h323v-104h-190v-666h190v-104h-323z" />
    <glyph glyph-name="backslash" unicode="\" 
d="M542 -132h-113l-351 874h113z" />
    <glyph glyph-name="bracketright" unicode="]" 
d="M465 -132h-323v104h190v666h-190v104h323v-874z" />
    <glyph glyph-name="asciicircum" unicode="^" 
d="M374 700l188 -419h-131l-121 280l-120 -280h-132l190 419h126z" />
    <glyph glyph-name="underscore" unicode="_" 
d="M60 0h500v-99h-500v99z" />
    <glyph glyph-name="grave" unicode="`" 
d="M321 726l93 -155h-115l-97 155h119z" />
    <glyph glyph-name="a" unicode="a" 
d="M573 0h-64c-35 0 -91 10 -107 62c-33 -47 -85 -74 -154 -74c-119 0 -178 73 -178 149c0 95 65 142 154 157l136 23c23 4 29 17 29 33c0 23 -15 68 -84 68c-73 0 -92 -45 -98 -75l-123 13c11 76 79 162 226 162c150 0 207 -90 207 -186v-187c0 -24 8 -37 36 -37h20v-108z
M199 149c0 -37 24 -61 75 -61c66 0 117 50 117 123v23l-125 -20c-51 -8 -67 -34 -67 -65z" />
    <glyph glyph-name="b" unicode="b" 
d="M349 518c139 0 226 -104 226 -261c0 -155 -86 -269 -226 -269c-71 0 -124 29 -158 78v-66h-125v700h131v-255c34 45 84 73 152 73zM320 409c-79 0 -125 -64 -125 -156c0 -88 47 -155 125 -155c79 0 121 66 121 155c0 90 -42 156 -121 156z" />
    <glyph glyph-name="c" unicode="c" 
d="M324 97c64 0 99 38 108 96l125 -16c-21 -118 -107 -189 -236 -189c-160 0 -249 112 -249 264c0 154 91 266 251 266c133 0 219 -70 237 -194l-128 -14c-11 61 -43 99 -109 99c-83 0 -117 -68 -117 -157c0 -88 34 -155 118 -155z" />
    <glyph glyph-name="d" unicode="d" 
d="M271 -12c-139 0 -226 105 -226 261s86 269 226 269c67 0 118 -26 152 -70v252h131v-700h-125v69c-34 -50 -86 -81 -158 -81zM300 98c79 0 125 64 125 155c0 89 -47 156 -125 156c-79 0 -121 -66 -121 -156c0 -89 42 -155 121 -155z" />
    <glyph glyph-name="e" unicode="e" 
d="M322 91c66 0 92 35 106 75l114 -27c-29 -107 -120 -151 -220 -151c-167 0 -255 100 -255 265c0 154 98 265 251 265c143 0 237 -99 237 -253v-47h-360c9 -84 51 -127 127 -127zM317 416c-65 0 -107 -36 -120 -111h227c-7 78 -47 111 -107 111z" />
    <glyph glyph-name="f" unicode="f" 
d="M90 106h131v295h-147v105h147v32c0 86 46 162 178 162h168v-108h-160c-46 0 -55 -32 -55 -65v-21h202v-105h-202v-295h157v-106h-419v106z" />
    <glyph glyph-name="g" unicode="g" 
d="M276 32c-136 0 -220 96 -220 241c0 141 83 245 220 245c67 0 117 -25 150 -67v55h125v-476c0 -117 -65 -227 -246 -227c-168 0 -234 88 -242 171l131 15c6 -31 24 -81 113 -81c100 0 113 74 113 123v66c-32 -40 -80 -65 -144 -65zM307 141c72 0 115 55 115 134
c0 76 -44 135 -115 135c-78 0 -117 -57 -117 -135s39 -134 117 -134z" />
    <glyph glyph-name="h" unicode="h" 
d="M544 0h-131v306c0 66 -35 102 -94 102c-68 0 -106 -43 -106 -123v-285h-131v700h131v-244c31 38 77 62 143 62c129 0 188 -86 188 -191v-327z" />
    <glyph glyph-name="i" unicode="i" 
d="M252 736h141v-155h-141v155zM92 106h170v295h-170v105h301v-400h171v-106h-472v106z" />
    <glyph glyph-name="j" unicode="j" 
d="M327 736h141v-155h-141v155zM468 506v-511c0 -101 -43 -180 -181 -180h-196v108h186c52 0 60 32 60 79v399h-237v105h368z" />
    <glyph glyph-name="k" unicode="k" 
d="M595 0h-157l-149 226l-78 -76v-150h-131v700h131v-397l201 203h161l-190 -190z" />
    <glyph glyph-name="l" unicode="l" 
d="M92 106h170v488h-170v106h301v-594h171v-106h-472v106z" />
    <glyph glyph-name="m" unicode="m" 
d="M367 0h-113v361c0 34 -17 53 -42 53c-33 0 -51 -23 -51 -66v-348h-113v506h106v-44c16 36 48 56 93 56c44 0 79 -22 94 -68c16 40 53 68 104 68c86 0 128 -63 128 -141v-377h-112v361c0 34 -16 53 -43 53c-33 0 -51 -23 -51 -66v-348z" />
    <glyph glyph-name="n" unicode="n" 
d="M544 0h-131v306c0 66 -35 102 -94 102c-68 0 -106 -43 -106 -123v-285h-131v506h125v-57c31 42 79 69 149 69c129 0 188 -86 188 -191v-327z" />
    <glyph glyph-name="o" unicode="o" 
d="M310 518c163 0 257 -112 257 -265c0 -152 -97 -265 -257 -265c-164 0 -257 113 -257 265c0 153 96 265 257 265zM310 412c-86 0 -124 -68 -124 -159c0 -90 38 -159 124 -159c87 0 124 69 124 159c0 91 -37 159 -124 159z" />
    <glyph glyph-name="p" unicode="p" 
d="M349 518c139 0 226 -104 226 -261c0 -155 -86 -269 -226 -269c-67 0 -118 26 -152 70v-243h-131v691h125v-69c34 50 86 81 158 81zM320 409c-79 0 -125 -64 -125 -156c0 -88 47 -155 125 -155c79 0 121 66 121 155c0 90 -42 156 -121 156z" />
    <glyph glyph-name="q" unicode="q" 
d="M272 -12c-140 0 -227 105 -227 261s86 269 227 269c70 0 123 -28 158 -77v65h124v-691h-131v246c-34 -45 -83 -73 -151 -73zM300 98c80 0 125 64 125 155c0 89 -46 156 -125 156c-78 0 -121 -66 -121 -156c0 -89 43 -155 121 -155z" />
    <glyph glyph-name="r" unicode="r" 
d="M76 106h140v295h-140v105h264v-78c31 50 76 78 135 78h93v-119h-98c-78 0 -123 -53 -123 -169v-112h180v-106h-451v106z" />
    <glyph glyph-name="s" unicode="s" 
d="M544 156c0 -98 -72 -168 -229 -168c-168 0 -232 82 -238 165l131 14c6 -54 43 -82 113 -82c72 0 93 28 93 61c0 30 -28 44 -76 52l-79 13c-77 13 -164 44 -164 150c0 84 72 157 219 157c157 0 210 -82 221 -156l-120 -14c-10 41 -40 74 -106 74c-70 0 -89 -28 -89 -52
c0 -32 25 -42 71 -50l86 -15c104 -18 167 -55 167 -149z" />
    <glyph glyph-name="t" unicode="t" 
d="M57 401v105h147v155h131v-155h210v-105h-210v-232c0 -42 10 -60 53 -60h162v-109h-187c-115 0 -159 56 -159 150v251h-147z" />
    <glyph glyph-name="u" unicode="u" 
d="M533 0h-125v56c-30 -41 -77 -68 -144 -68c-125 0 -183 87 -183 191v327h131v-306c0 -66 33 -102 89 -102c65 0 101 44 101 123v285h131v-506z" />
    <glyph glyph-name="v" unicode="v" 
d="M44 506h138l133 -353l132 353h130l-199 -506h-136z" />
    <glyph glyph-name="w" unicode="w" 
d="M17 506h119l49 -324l83 324h89l85 -320l51 320h110l-91 -506h-108l-90 338l-92 -338h-114z" />
    <glyph glyph-name="x" unicode="x" 
d="M48 506h152l113 -157l118 157h145l-187 -249l193 -257h-154l-122 163l-120 -163h-148l191 256z" />
    <glyph glyph-name="y" unicode="y" 
d="M44 506h138l131 -343l134 343h130l-214 -537c-47 -118 -94 -154 -201 -154h-85v107h86c44 0 64 15 75 46l11 30z" />
    <glyph glyph-name="z" unicode="z" 
d="M540 108v-108h-460v94l287 304h-274v108h436v-96l-285 -302h296z" />
    <glyph glyph-name="braceleft" unicode="{" 
d="M101 359h71c47 0 68 22 68 57c0 50 -20 110 -20 181c0 90 65 145 166 145h118v-103h-84c-39 0 -62 -18 -62 -53c0 -53 16 -114 16 -175c0 -59 -28 -89 -69 -106c42 -15 69 -47 69 -106c0 -61 -16 -122 -16 -175c0 -36 23 -53 62 -53h84v-103h-118
c-101 0 -166 55 -166 145c0 71 20 130 20 181c0 35 -21 57 -68 57h-71v108z" />
    <glyph glyph-name="bar" unicode="|" 
d="M367 -132h-114v874h114v-874z" />
    <glyph glyph-name="braceright" unicode="}" 
d="M519 359v-108h-71c-47 0 -68 -22 -68 -57c0 -51 20 -110 20 -181c0 -90 -65 -145 -166 -145h-118v103h84c39 0 62 17 62 53c0 53 -16 114 -16 175c0 59 27 91 69 106c-41 17 -69 47 -69 106c0 61 16 122 16 175c0 35 -23 53 -62 53h-84v103h118c101 0 166 -55 166 -145
c0 -71 -20 -131 -20 -181c0 -35 21 -57 68 -57h71z" />
    <glyph glyph-name="asciitilde" unicode="~" 
d="M422 269c-63 0 -143 52 -188 52c-35 0 -44 -27 -45 -56h-100c-4 96 41 170 132 170c68 0 134 -52 178 -52c30 0 33 22 33 52h99c6 -100 -32 -166 -109 -166z" />
    <glyph glyph-name="Adieresis" unicode="&#xc4;" 
d="M159 774v129h121v-129h-121zM340 774v129h121v-129h-121zM157 0h-138l214 700h155l213 -700h-148l-35 131h-225zM307 539l-82 -293h161z" />
    <glyph glyph-name="Aring" unicode="&#xc5;" 
d="M310 991c80 0 126 -52 126 -113c0 -60 -45 -112 -126 -112c-82 0 -126 52 -126 112c0 61 44 113 126 113zM310 931c-35 0 -50 -24 -50 -52c0 -30 15 -53 50 -53c34 0 50 23 50 53c0 28 -16 52 -50 52zM157 0h-138l214 700h155l213 -700h-148l-35 131h-225zM307 539
l-82 -293h161z" />
    <glyph glyph-name="Ccedilla" unicode="&#xc7;" 
d="M419 -136c0 -60 -41 -102 -117 -102c-69 0 -106 37 -111 89l77 2c2 -17 14 -27 34 -27c25 0 36 16 36 35c0 21 -13 36 -37 36c-12 0 -25 -5 -34 -17l-47 34l55 77c-156 20 -227 161 -227 359c0 215 88 362 269 362c147 0 235 -92 255 -257l-138 -19
c-12 94 -43 156 -117 156c-94 0 -127 -98 -127 -242s33 -242 127 -242c71 0 104 67 116 146l135 -18c-21 -143 -97 -233 -219 -246l-26 -35c61 -4 96 -41 96 -91z" />
    <glyph glyph-name="Eacute" unicode="&#xc9;" 
d="M359 926h119l-99 -155h-113zM89 700h468v-118h-329v-169h289v-116h-289v-179h339v-118h-478v700z" />
    <glyph glyph-name="Ntilde" unicode="&#xd1;" 
d="M359 882c16 0 22 6 22 30h85c1 -79 -17 -127 -81 -127c-51 0 -84 32 -119 32c-19 0 -27 -15 -28 -35h-86c2 70 23 129 94 129c51 0 87 -29 113 -29zM69 700h148l202 -412v412h132v-700h-120l-230 470v-470h-132v700z" />
    <glyph glyph-name="Odieresis" unicode="&#xd6;" 
d="M159 774v129h121v-129h-121zM340 774v129h121v-129h-121zM309 -12c-182 0 -270 147 -270 362s90 362 271 362c185 0 271 -147 271 -362s-89 -362 -272 -362zM310 107c97 0 129 99 129 243c0 145 -32 243 -129 243s-129 -98 -129 -243c0 -144 32 -243 129 -243z" />
    <glyph glyph-name="Udieresis" unicode="&#xdc;" 
d="M159 774v129h121v-129h-121zM340 774v129h121v-129h-121zM554 700v-474c0 -157 -109 -238 -243 -238s-245 81 -245 238v474h139v-474c0 -84 48 -119 106 -119c57 0 104 35 104 119v474h139z" />
    <glyph glyph-name="aacute" unicode="&#xe1;" 
d="M347 726h119l-99 -155h-113zM573 0h-64c-35 0 -91 10 -107 62c-33 -47 -85 -74 -154 -74c-119 0 -178 73 -178 149c0 95 65 142 154 157l136 23c23 4 29 17 29 33c0 23 -15 68 -84 68c-73 0 -92 -45 -98 -75l-123 13c11 76 79 162 226 162c150 0 207 -90 207 -186v-187
c0 -24 8 -37 36 -37h20v-108zM199 149c0 -37 24 -61 75 -61c66 0 117 50 117 123v23l-125 -20c-51 -8 -67 -34 -67 -65z" />
    <glyph glyph-name="agrave" unicode="&#xe0;" 
d="M270 726l93 -155h-115l-97 155h119zM573 0h-64c-35 0 -91 10 -107 62c-33 -47 -85 -74 -154 -74c-119 0 -178 73 -178 149c0 95 65 142 154 157l136 23c23 4 29 17 29 33c0 23 -15 68 -84 68c-73 0 -92 -45 -98 -75l-123 13c11 76 79 162 226 162c150 0 207 -90 207 -186
v-187c0 -24 8 -37 36 -37h20v-108zM199 149c0 -37 24 -61 75 -61c66 0 117 50 117 123v23l-125 -20c-51 -8 -67 -34 -67 -65z" />
    <glyph glyph-name="acircumflex" unicode="&#xe2;" 
d="M246 726h122l108 -155h-115l-55 80l-55 -80h-113zM573 0h-64c-35 0 -91 10 -107 62c-33 -47 -85 -74 -154 -74c-119 0 -178 73 -178 149c0 95 65 142 154 157l136 23c23 4 29 17 29 33c0 23 -15 68 -84 68c-73 0 -92 -45 -98 -75l-123 13c11 76 79 162 226 162
c150 0 207 -90 207 -186v-187c0 -24 8 -37 36 -37h20v-108zM199 149c0 -37 24 -61 75 -61c66 0 117 50 117 123v23l-125 -20c-51 -8 -67 -34 -67 -65z" />
    <glyph glyph-name="adieresis" unicode="&#xe4;" 
d="M157 574v129h121v-129h-121zM338 574v129h121v-129h-121zM573 0h-64c-35 0 -91 10 -107 62c-33 -47 -85 -74 -154 -74c-119 0 -178 73 -178 149c0 95 65 142 154 157l136 23c23 4 29 17 29 33c0 23 -15 68 -84 68c-73 0 -92 -45 -98 -75l-123 13c11 76 79 162 226 162
c150 0 207 -90 207 -186v-187c0 -24 8 -37 36 -37h20v-108zM199 149c0 -37 24 -61 75 -61c66 0 117 50 117 123v23l-125 -20c-51 -8 -67 -34 -67 -65z" />
    <glyph glyph-name="atilde" unicode="&#xe3;" 
d="M358 682c16 0 22 6 22 30h85c1 -79 -17 -127 -81 -127c-51 0 -84 32 -119 32c-19 0 -27 -15 -28 -35h-86c2 70 23 129 94 129c51 0 87 -29 113 -29zM573 0h-64c-35 0 -91 10 -107 62c-33 -47 -85 -74 -154 -74c-119 0 -178 73 -178 149c0 95 65 142 154 157l136 23
c23 4 29 17 29 33c0 23 -15 68 -84 68c-73 0 -92 -45 -98 -75l-123 13c11 76 79 162 226 162c150 0 207 -90 207 -186v-187c0 -24 8 -37 36 -37h20v-108zM199 149c0 -37 24 -61 75 -61c66 0 117 50 117 123v23l-125 -20c-51 -8 -67 -34 -67 -65z" />
    <glyph glyph-name="aring" unicode="&#xe5;" 
d="M307 791c80 0 126 -52 126 -113c0 -60 -45 -112 -126 -112c-82 0 -126 52 -126 112c0 61 44 113 126 113zM307 731c-35 0 -50 -24 -50 -52c0 -30 15 -53 50 -53c34 0 50 23 50 53c0 28 -16 52 -50 52zM573 0h-64c-35 0 -91 10 -107 62c-33 -47 -85 -74 -154 -74
c-119 0 -178 73 -178 149c0 95 65 142 154 157l136 23c23 4 29 17 29 33c0 23 -15 68 -84 68c-73 0 -92 -45 -98 -75l-123 13c11 76 79 162 226 162c150 0 207 -90 207 -186v-187c0 -24 8 -37 36 -37h20v-108zM199 149c0 -37 24 -61 75 -61c66 0 117 50 117 123v23l-125 -20
c-51 -8 -67 -34 -67 -65z" />
    <glyph glyph-name="ccedilla" unicode="&#xe7;" 
d="M324 97c64 0 99 38 108 96l125 -16c-19 -108 -94 -177 -206 -188l-25 -34c61 -4 96 -41 96 -91c0 -60 -41 -102 -117 -102c-69 0 -106 37 -111 89l77 2c2 -17 14 -27 34 -27c25 0 36 16 36 35c0 21 -13 36 -37 36c-12 0 -25 -5 -34 -17l-47 34l55 77
c-133 18 -206 123 -206 261c0 154 91 266 251 266c133 0 219 -70 237 -194l-128 -14c-11 61 -43 99 -109 99c-83 0 -117 -68 -117 -157c0 -88 34 -155 118 -155z" />
    <glyph glyph-name="eacute" unicode="&#xe9;" 
d="M357 726h119l-99 -155h-113zM322 91c66 0 92 35 106 75l114 -27c-29 -107 -120 -151 -220 -151c-167 0 -255 100 -255 265c0 154 98 265 251 265c143 0 237 -99 237 -253v-47h-360c9 -84 51 -127 127 -127zM317 416c-65 0 -107 -36 -120 -111h227c-7 78 -47 111 -107 111
z" />
    <glyph glyph-name="egrave" unicode="&#xe8;" 
d="M281 726l93 -155h-115l-97 155h119zM322 91c66 0 92 35 106 75l114 -27c-29 -107 -120 -151 -220 -151c-167 0 -255 100 -255 265c0 154 98 265 251 265c143 0 237 -99 237 -253v-47h-360c9 -84 51 -127 127 -127zM317 416c-65 0 -107 -36 -120 -111h227
c-7 78 -47 111 -107 111z" />
    <glyph glyph-name="ecircumflex" unicode="&#xea;" 
d="M257 726h122l108 -155h-115l-55 80l-55 -80h-113zM322 91c66 0 92 35 106 75l114 -27c-29 -107 -120 -151 -220 -151c-167 0 -255 100 -255 265c0 154 98 265 251 265c143 0 237 -99 237 -253v-47h-360c9 -84 51 -127 127 -127zM317 416c-65 0 -107 -36 -120 -111h227
c-7 78 -47 111 -107 111z" />
    <glyph glyph-name="edieresis" unicode="&#xeb;" 
d="M167 574v129h121v-129h-121zM348 574v129h121v-129h-121zM322 91c66 0 92 35 106 75l114 -27c-29 -107 -120 -151 -220 -151c-167 0 -255 100 -255 265c0 154 98 265 251 265c143 0 237 -99 237 -253v-47h-360c9 -84 51 -127 127 -127zM317 416c-65 0 -107 -36 -120 -111
h227c-7 78 -47 111 -107 111z" />
    <glyph glyph-name="iacute" unicode="&#xed;" 
d="M337 726h119l-99 -155h-113zM92 106h170v295h-170v105h301v-400h171v-106h-472v106z" />
    <glyph glyph-name="igrave" unicode="&#xec;" 
d="M261 726l93 -155h-115l-97 155h119zM92 106h170v295h-170v105h301v-400h171v-106h-472v106z" />
    <glyph glyph-name="icircumflex" unicode="&#xee;" 
d="M190 726h122l108 -155h-115l-55 80l-55 -80h-113zM92 106h170v295h-170v105h301v-400h171v-106h-472v106z" />
    <glyph glyph-name="idieresis" unicode="&#xef;" 
d="M110 574v129h121v-129h-121zM291 574v129h121v-129h-121zM92 106h170v295h-170v105h301v-400h171v-106h-472v106z" />
    <glyph glyph-name="ntilde" unicode="&#xf1;" 
d="M370 682c16 0 22 6 22 30h85c1 -79 -17 -127 -81 -127c-51 0 -84 32 -119 32c-19 0 -27 -15 -28 -35h-86c2 70 23 129 94 129c51 0 87 -29 113 -29zM544 0h-131v306c0 66 -35 102 -94 102c-68 0 -106 -43 -106 -123v-285h-131v506h125v-57c31 42 79 69 149 69
c129 0 188 -86 188 -191v-327z" />
    <glyph glyph-name="oacute" unicode="&#xf3;" 
d="M349 726h119l-99 -155h-113zM310 518c163 0 257 -112 257 -265c0 -152 -97 -265 -257 -265c-164 0 -257 113 -257 265c0 153 96 265 257 265zM310 412c-86 0 -124 -68 -124 -159c0 -90 38 -159 124 -159c87 0 124 69 124 159c0 91 -37 159 -124 159z" />
    <glyph glyph-name="ograve" unicode="&#xf2;" 
d="M273 726l93 -155h-115l-97 155h119zM310 518c163 0 257 -112 257 -265c0 -152 -97 -265 -257 -265c-164 0 -257 113 -257 265c0 153 96 265 257 265zM310 412c-86 0 -124 -68 -124 -159c0 -90 38 -159 124 -159c87 0 124 69 124 159c0 91 -37 159 -124 159z" />
    <glyph glyph-name="ocircumflex" unicode="&#xf4;" 
d="M249 726h122l108 -155h-115l-55 80l-55 -80h-113zM310 518c163 0 257 -112 257 -265c0 -152 -97 -265 -257 -265c-164 0 -257 113 -257 265c0 153 96 265 257 265zM310 412c-86 0 -124 -68 -124 -159c0 -90 38 -159 124 -159c87 0 124 69 124 159c0 91 -37 159 -124 159z
" />
    <glyph glyph-name="odieresis" unicode="&#xf6;" 
d="M159 574v129h121v-129h-121zM340 574v129h121v-129h-121zM310 518c163 0 257 -112 257 -265c0 -152 -97 -265 -257 -265c-164 0 -257 113 -257 265c0 153 96 265 257 265zM310 412c-86 0 -124 -68 -124 -159c0 -90 38 -159 124 -159c87 0 124 69 124 159
c0 91 -37 159 -124 159z" />
    <glyph glyph-name="otilde" unicode="&#xf5;" 
d="M360 682c16 0 22 6 22 30h85c1 -79 -17 -127 -81 -127c-51 0 -84 32 -119 32c-19 0 -27 -15 -28 -35h-86c2 70 23 129 94 129c51 0 87 -29 113 -29zM310 518c163 0 257 -112 257 -265c0 -152 -97 -265 -257 -265c-164 0 -257 113 -257 265c0 153 96 265 257 265zM310 412
c-86 0 -124 -68 -124 -159c0 -90 38 -159 124 -159c87 0 124 69 124 159c0 91 -37 159 -124 159z" />
    <glyph glyph-name="uacute" unicode="&#xfa;" 
d="M345 726h119l-99 -155h-113zM533 0h-125v56c-30 -41 -77 -68 -144 -68c-125 0 -183 87 -183 191v327h131v-306c0 -66 33 -102 89 -102c65 0 101 44 101 123v285h131v-506z" />
    <glyph glyph-name="ugrave" unicode="&#xf9;" 
d="M269 726l93 -155h-115l-97 155h119zM533 0h-125v56c-30 -41 -77 -68 -144 -68c-125 0 -183 87 -183 191v327h131v-306c0 -66 33 -102 89 -102c65 0 101 44 101 123v285h131v-506z" />
    <glyph glyph-name="ucircumflex" unicode="&#xfb;" 
d="M245 726h122l108 -155h-115l-55 80l-55 -80h-113zM533 0h-125v56c-30 -41 -77 -68 -144 -68c-125 0 -183 87 -183 191v327h131v-306c0 -66 33 -102 89 -102c65 0 101 44 101 123v285h131v-506z" />
    <glyph glyph-name="udieresis" unicode="&#xfc;" 
d="M155 574v129h121v-129h-121zM336 574v129h121v-129h-121zM533 0h-125v56c-30 -41 -77 -68 -144 -68c-125 0 -183 87 -183 191v327h131v-306c0 -66 33 -102 89 -102c65 0 101 44 101 123v285h131v-506z" />
    <glyph glyph-name="dagger" unicode="&#x2020;" 
d="M375 0h-130v401h-162v105h162v194h130v-194h162v-105h-162v-401z" />
    <glyph glyph-name="degree" unicode="&#xb0;" 
d="M311 706c95 0 170 -75 170 -170s-75 -171 -170 -171s-172 76 -172 171s77 170 172 170zM311 612c-42 0 -73 -33 -73 -76s32 -75 73 -75c42 0 74 33 74 75c0 43 -32 76 -74 76z" />
    <glyph glyph-name="cent" unicode="&#xa2;" 
d="M151 -83l38 103c-76 44 -117 129 -117 232c0 154 91 266 251 266c17 0 34 -1 50 -4l29 79h81l-37 -101c62 -30 102 -88 114 -168l-128 -14c-5 28 -14 51 -29 67l-103 -278c7 -1 15 -2 24 -2c64 0 99 38 108 96l125 -16c-21 -118 -107 -189 -236 -189c-21 0 -42 2 -60 6
l-29 -77h-81zM206 252c0 -44 9 -84 28 -111l100 268h-11c-83 0 -117 -68 -117 -157z" />
    <glyph glyph-name="sterling" unicode="&#xa3;" 
d="M48 280v92h62c-11 33 -25 70 -25 126c0 105 70 214 244 214c136 0 223 -75 241 -213l-133 -28c-10 92 -54 131 -114 131c-71 0 -103 -48 -103 -103c0 -38 9 -66 19 -101l8 -26h176v-92h-150l2 -6c20 -71 6 -123 -25 -159h322v-115h-512v91c55 13 117 61 92 144l-14 45
h-90z" />
    <glyph glyph-name="section" unicode="&#xa7;" 
d="M538 -3c0 -92 -71 -194 -235 -194c-159 0 -234 99 -244 202l141 18c10 -89 55 -114 109 -114c75 0 94 46 94 79c0 48 -29 66 -69 77l-127 34c-102 27 -161 74 -161 164c0 54 25 103 75 139c-23 28 -39 65 -39 116c0 92 74 194 239 194c158 0 230 -99 240 -202l-141 -18
c-10 89 -55 114 -109 114c-75 0 -94 -46 -94 -79c0 -48 29 -66 69 -77l127 -34c102 -27 161 -74 161 -164c0 -54 -25 -103 -75 -140c24 -27 39 -64 39 -115zM252 214l106 -28c19 -5 40 -12 59 -21c24 18 32 41 32 62c0 44 -27 60 -81 74l-106 28c-19 5 -40 12 -59 21
c-24 -18 -33 -41 -33 -62c0 -44 28 -60 82 -74z" />
    <glyph glyph-name="bullet" unicode="&#x2022;" 
d="M187 484h248v-249h-248v249z" />
    <glyph glyph-name="paragraph" unicode="&#xb6;" 
d="M364 700v-885h-108v406c-144 4 -220 119 -220 244c0 128 92 235 228 235h100zM553 700v-885h-108v885h108z" />
    <glyph glyph-name="germandbls" unicode="&#xdf;" 
d="M310 603c-89 0 -110 -74 -110 -134v-469h-131v475c0 115 66 237 243 237c143 0 218 -79 218 -174c0 -64 -36 -119 -93 -150c81 -27 129 -97 129 -176c0 -117 -85 -212 -244 -212h-46v107h40c78 0 117 52 117 115c0 52 -34 98 -110 98h-47v106h30c60 0 95 40 95 95
c0 45 -29 82 -91 82z" />
    <glyph glyph-name="registered" unicode="&#xae;" 
d="M310 712c181 0 279 -161 279 -361s-98 -363 -279 -363s-279 163 -279 363s98 361 279 361zM310 647c-135 0 -207 -133 -207 -296c0 -164 72 -297 207 -297s208 133 208 297c0 163 -73 296 -208 296zM446 178h-97l-5 83c-2 29 -16 40 -50 40h-18v-123h-96v350h148
c76 0 120 -45 120 -99c0 -38 -20 -72 -55 -91c30 -11 46 -35 48 -76zM307 453h-31v-79h31c31 0 44 19 44 43c0 21 -13 36 -44 36z" />
    <glyph glyph-name="copyright" unicode="&#xa9;" 
d="M310 712c181 0 279 -161 279 -361s-98 -363 -279 -363s-279 163 -279 363s98 361 279 361zM310 647c-135 0 -207 -133 -207 -296c0 -164 72 -297 207 -297s208 133 208 297c0 163 -73 296 -208 296zM312 250c32 0 47 22 53 58l100 -12c-14 -86 -70 -137 -155 -137
c-103 0 -161 81 -161 190c0 110 59 191 163 191c88 0 141 -51 155 -140l-101 -9c-7 36 -21 59 -54 59c-41 0 -58 -43 -58 -100c0 -58 17 -100 58 -100z" />
    <glyph glyph-name="trademark" unicode="&#x2122;" 
d="M291 700h101l47 -141l47 141h98v-350h-80v226l-39 -122h-54l-43 121v-225h-77v350zM28 700h226v-81h-63v-269h-100v269h-63v81z" />
    <glyph glyph-name="acute" unicode="&#xb4;" 
d="M299 726h119l-99 -155h-113z" />
    <glyph glyph-name="dieresis" unicode="&#xa8;" 
d="M159 574v129h121v-129h-121zM340 574v129h121v-129h-121z" />
    <glyph glyph-name="notequal" unicode="&#x2260;" 
d="M132 100l41 81h-92v112h148l57 114h-205v112h261l41 81h100l-41 -81h99v-112h-155l-57 -114h212v-112h-268l-41 -81h-100z" />
    <glyph glyph-name="AE" unicode="&#xc6;" 
d="M151 0h-144l201 700h377v-118h-141v-169h108v-116h-108v-179h151v-118h-290v140h-118zM217 252h88v333h-2z" />
    <glyph glyph-name="Oslash" unicode="&#xd8;" 
d="M31 -40l73 131c-43 63 -65 153 -65 259c0 215 90 362 271 362c49 0 91 -10 127 -30l32 58h120l-73 -130c44 -63 65 -153 65 -260c0 -215 -89 -362 -272 -362c-48 0 -90 10 -125 30l-33 -58h-120zM181 350c0 -44 3 -85 10 -119l189 337c-18 16 -41 25 -70 25
c-97 0 -129 -98 -129 -243zM310 107c97 0 129 99 129 243c0 44 -3 84 -10 118l-189 -337c18 -15 41 -24 70 -24z" />
    <glyph glyph-name="infinity" unicode="&#x221e;" 
d="M602 350c0 -105 -63 -171 -148 -171c-54 0 -104 36 -149 91c-42 -59 -88 -91 -139 -91c-85 0 -148 66 -148 171s63 171 148 171c52 0 104 -33 147 -90c42 57 90 90 141 90c85 0 148 -66 148 -171zM127 350c0 -42 23 -66 55 -66s59 29 84 63c-26 38 -52 69 -84 69
s-55 -24 -55 -66zM438 416c-32 0 -60 -27 -85 -62c25 -38 52 -70 85 -70c32 0 55 24 55 66s-23 66 -55 66z" />
    <glyph glyph-name="plusminus" unicode="&#xb1;" 
d="M254 228v167h-168v111h168v166h113v-166h167v-111h-167v-167h-113zM86 132h448v-106h-448v106z" />
    <glyph glyph-name="lessequal" unicode="&#x2264;" 
d="M86 492l448 184v-129l-275 -108l275 -106v-133l-448 183v109zM86 132h448v-106h-448v106z" />
    <glyph glyph-name="greaterequal" unicode="&#x2265;" 
d="M534 492v-109l-448 -183v133l275 106l-275 108v129zM534 132v-106h-448v106h448z" />
    <glyph glyph-name="yen" unicode="&#xa5;" 
d="M73 141v83h168v41l-9 17h-159v83h115l-176 335h151l148 -294l151 294h146l-178 -335h117v-83h-162l-5 -10v-48h167v-83h-167v-141h-139v141h-168z" />
    <glyph glyph-name="mu" unicode="&#xb5;" 
d="M536 0h-125v56c-30 -41 -77 -68 -144 -68c-25 0 -46 5 -63 15l11 -81v-107h-131v691h131v-306c0 -66 33 -102 89 -102c65 0 101 44 101 123v285h131v-506z" />
    <glyph glyph-name="partialdiff" unicode="&#x2202;" 
d="M59 205c0 126 86 217 214 217c51 0 111 -15 155 -61c-8 149 -43 242 -164 242c-60 0 -110 -29 -137 -47l-51 87c37 27 108 69 203 69c275 0 282 -301 282 -404c0 -203 -109 -320 -267 -320c-142 0 -235 88 -235 217zM303 92c67 0 114 51 114 116c0 69 -51 105 -109 105
c-76 0 -115 -47 -115 -111c0 -69 47 -110 110 -110z" />
    <glyph glyph-name="summation" unicode="&#x2211;" 
d="M51 0v83l181 280l-183 241v96h513v-115h-344l160 -221l-153 -249h347v-115h-521z" />
    <glyph glyph-name="product" unicode="&#x220f;" 
d="M588 700v-115h-77v-585h-137v585h-129v-585h-137v585h-75v115h555z" />
    <glyph glyph-name="pi" unicode="&#x3c0;" 
d="M586 506v-103h-70v-403h-131v403h-150v-403h-131v403h-70v103h552z" />
    <glyph glyph-name="integral" unicode="&#x222b;" 
d="M245 -5v543c0 86 46 162 178 162h105v-116h-97c-47 0 -55 -31 -55 -64v-543c0 -86 -47 -162 -179 -162h-105v116h97c47 0 56 31 56 64z" />
    <glyph glyph-name="ordfeminine" unicode="&#xaa;" 
d="M508 309h-52c-29 0 -74 7 -90 45c-24 -34 -63 -54 -115 -54c-92 0 -139 55 -139 115c0 73 51 107 119 119l99 17c16 3 22 12 22 24c0 16 -10 45 -54 45c-48 0 -61 -30 -65 -52l-109 11c9 60 63 127 177 127c121 0 165 -70 165 -145v-131c0 -17 5 -26 24 -26h18v-95z
M227 426c0 -24 16 -41 48 -41c42 0 79 30 79 81v16l-81 -13c-36 -6 -46 -22 -46 -43z" />
    <glyph glyph-name="ordmasculine" unicode="&#xba;" 
d="M310 706c130 0 203 -86 203 -203s-78 -203 -203 -203c-130 0 -203 86 -203 203s76 203 203 203zM310 615c-59 0 -84 -49 -84 -112c0 -64 25 -112 84 -112c60 0 84 48 84 112c0 63 -24 112 -84 112z" />
    <glyph glyph-name="Omega" unicode="&#x2126;" 
d="M39 105h115c-80 58 -120 151 -120 276c0 192 97 331 276 331c178 0 276 -139 276 -331c0 -125 -44 -217 -121 -276h116v-105h-227v134c63 35 95 120 95 241c0 132 -51 221 -139 221c-89 0 -139 -89 -139 -221c0 -120 32 -206 94 -240v-135h-226v105z" />
    <glyph glyph-name="ae" unicode="&#xe6;" 
d="M215 316c23 7 29 18 29 34c0 23 -8 68 -48 68c-45 0 -55 -45 -61 -75l-104 13c11 76 57 162 162 162c62 0 99 -30 119 -73c29 45 70 73 128 73c105 0 162 -95 162 -236v-64h-241c4 -84 26 -127 73 -127c36 0 55 42 60 75l99 -27c-20 -102 -78 -151 -159 -151
s-121 34 -150 95c-21 -60 -67 -95 -128 -95c-94 0 -140 72 -140 147c0 100 59 138 144 164zM431 416c-38 0 -62 -32 -69 -111h128c0 76 -21 111 -59 111zM127 148c0 -36 15 -60 49 -60c37 0 70 43 70 116v36l-66 -22c-40 -13 -53 -37 -53 -70z" />
    <glyph glyph-name="oslash" unicode="&#xf8;" 
d="M157 -43h-104l71 102c-46 48 -71 116 -71 194c0 153 96 265 257 265c44 0 83 -8 116 -23l37 54h105l-72 -103c46 -47 71 -115 71 -193c0 -152 -97 -265 -257 -265c-44 0 -83 8 -116 23zM310 412c-86 0 -124 -68 -124 -159c0 -34 5 -65 17 -90l163 237
c-16 8 -34 12 -56 12zM434 253c0 34 -5 65 -16 91l-164 -238c16 -8 34 -12 56 -12c87 0 124 69 124 159z" />
    <glyph glyph-name="questiondown" unicode="&#xbf;" 
d="M386 550h-148v150h148v-150zM204 187c0 -45 29 -84 95 -84s127 40 131 157l130 -20c-1 -156 -116 -252 -267 -252c-166 0 -234 93 -234 193c0 97 68 151 125 199c56 46 65 58 66 113h125c1 -91 -9 -116 -92 -186c-51 -43 -79 -70 -79 -120z" />
    <glyph glyph-name="exclamdown" unicode="&#xa1;" 
d="M236 550v150h148v-150h-148zM236 0v130l25 363h98l24 -363v-130h-147z" />
    <glyph glyph-name="logicalnot" unicode="&#xac;" 
d="M80 406h460v-286h-113v174h-347v112z" />
    <glyph glyph-name="radical" unicode="&#x221a;" 
d="M42 479h171l97 -319l141 540h134l-204 -700h-148l-119 361h-72v118z" />
    <glyph glyph-name="florin" unicode="&#x192;" 
d="M210 -7l43 342h-131v96h143l14 107c11 86 46 162 179 162h113v-109h-101c-51 0 -58 -34 -62 -69l-11 -91h144v-96h-156l-45 -358c-11 -86 -46 -162 -179 -162h-112v109h99c53 0 58 34 62 69z" />
    <glyph glyph-name="approxequal" unicode="&#x2248;" 
d="M424 381c-64 0 -146 53 -192 53c-35 0 -44 -27 -46 -57h-101c-4 98 41 173 134 173c69 0 137 -53 181 -53c31 0 34 23 34 53h101c6 -102 -33 -169 -111 -169zM424 154c-64 0 -146 53 -192 53c-35 0 -44 -27 -46 -57h-101c-4 98 41 173 134 173c69 0 137 -53 181 -53
c31 0 34 23 34 53h101c6 -102 -33 -169 -111 -169z" />
    <glyph glyph-name="Delta" unicode="&#x2206;" 
d="M31 100l204 600h150l204 -600v-100h-558v100zM173 112h266l-133 446z" />
    <glyph glyph-name="guillemotleft" unicode="&#xab;" 
d="M195 61l-134 213l134 213h138l-130 -213l130 -213h-138zM421 61l-134 213l134 213h138l-130 -213l130 -213h-138z" />
    <glyph glyph-name="guillemotright" unicode="&#xbb;" 
d="M425 487l134 -213l-134 -213h-138l130 213l-130 213h138zM199 487l134 -213l-134 -213h-138l130 213l-130 213h138z" />
    <glyph glyph-name="ellipsis" unicode="&#x2026;" 
d="M46 137h136v-137h-136v137zM243 137h135v-137h-135v137zM439 137h135v-137h-135v137z" />
    <glyph glyph-name="Agrave" unicode="&#xc0;" 
d="M270 926l93 -155h-115l-97 155h119zM157 0h-138l214 700h155l213 -700h-148l-35 131h-225zM307 539l-82 -293h161z" />
    <glyph glyph-name="Atilde" unicode="&#xc3;" 
d="M359 882c16 0 22 6 22 30h85c1 -79 -17 -127 -81 -127c-51 0 -84 32 -119 32c-19 0 -27 -15 -28 -35h-86c2 70 23 129 94 129c51 0 87 -29 113 -29zM157 0h-138l214 700h155l213 -700h-148l-35 131h-225zM307 539l-82 -293h161z" />
    <glyph glyph-name="Otilde" unicode="&#xd5;" 
d="M359 882c16 0 22 6 22 30h85c1 -79 -17 -127 -81 -127c-51 0 -84 32 -119 32c-19 0 -27 -15 -28 -35h-86c2 70 23 129 94 129c51 0 87 -29 113 -29zM309 -12c-182 0 -270 147 -270 362s90 362 271 362c185 0 271 -147 271 -362s-89 -362 -272 -362zM310 107
c97 0 129 99 129 243c0 145 -32 243 -129 243s-129 -98 -129 -243c0 -144 32 -243 129 -243z" />
    <glyph glyph-name="OE" unicode="&#x152;" 
d="M29 352c0 209 97 348 269 348h287v-118h-141v-169h117v-116h-117v-179h151v-118h-297c-171 0 -269 147 -269 352zM298 119h17v462h-17c-92 0 -137 -93 -137 -229c0 -137 45 -233 137 -233z" />
    <glyph glyph-name="oe" unicode="&#x153;" 
d="M592 139c-20 -102 -77 -151 -159 -151c-64 0 -100 26 -127 66c-31 -46 -69 -66 -116 -66c-115 0 -177 113 -177 265c0 153 65 265 177 265c50 0 90 -19 121 -69c31 45 69 69 128 69c105 0 162 -95 162 -236v-64h-241c4 -84 26 -127 73 -127c37 0 55 42 60 75zM431 416
c-39 0 -63 -32 -70 -111h129c0 76 -22 111 -59 111zM199 412c-46 0 -65 -58 -65 -159c0 -99 19 -159 65 -159c45 0 64 60 64 159c0 101 -19 159 -64 159z" />
    <glyph glyph-name="endash" unicode="&#x2013;" 
d="M86 326h448v-104h-448v104z" />
    <glyph glyph-name="emdash" unicode="&#x2014;" 
d="M11 326h598v-104h-598v104z" />
    <glyph glyph-name="quotedblleft" unicode="&#x201c;" 
d="M166 700h127l-56 -273h-139zM390 700h127l-56 -273h-139z" />
    <glyph glyph-name="quotedblright" unicode="&#x201d;" 
d="M454 427h-127l56 273h139zM230 427h-127l56 273h139z" />
    <glyph glyph-name="quoteleft" unicode="&#x2018;" 
d="M278 700h127l-56 -273h-139z" />
    <glyph glyph-name="quoteright" unicode="&#x2019;" 
d="M342 427h-127l56 273h139z" />
    <glyph glyph-name="divide" unicode="&#xf7;" 
d="M245 620h130v-132h-130v132zM80 406h461v-112h-461v112zM245 212h130v-132h-130v132z" />
    <glyph glyph-name="lozenge" unicode="&#x25ca;" 
d="M43 364l219 336h97l219 -336l-215 -364h-105zM191 363l119 -221l120 221l-120 198z" />
    <glyph glyph-name="ydieresis" unicode="&#xff;" 
d="M162 574v129h121v-129h-121zM343 574v129h121v-129h-121zM44 506h138l131 -343l134 343h130l-214 -537c-47 -118 -94 -154 -201 -154h-85v107h86c44 0 64 15 75 46l11 30z" />
    <glyph glyph-name="Ydieresis" unicode="&#x178;" 
d="M159 774v129h121v-129h-121zM340 774v129h121v-129h-121zM12 700h151l148 -294l151 294h146l-228 -428v-272h-139v265z" />
    <glyph glyph-name="fraction" unicode="&#x2044;" 
d="M348 399l164 301h90l-165 -301h-89zM18 0l165 301h89l-164 -301h-90z" />
    <glyph glyph-name="currency" unicode="&#xa4;" 
d="M47 167l94 95c-14 27 -22 57 -22 89s8 62 22 89l-94 94l76 75l93 -92c27 15 60 25 94 25s66 -10 93 -26l94 93l76 -75l-94 -95c14 -26 22 -56 22 -88s-8 -62 -23 -89l95 -95l-76 -75l-94 93c-27 -15 -59 -25 -93 -25s-66 9 -94 25l-93 -93zM395 351c0 48 -38 86 -85 86
c-48 0 -86 -38 -86 -86c0 -49 38 -87 86 -87c47 0 85 38 85 87z" />
    <glyph glyph-name="guilsinglleft" unicode="&#x2039;" 
d="M308 61l-134 213l134 213h138l-130 -213l130 -213h-138z" />
    <glyph glyph-name="guilsinglright" unicode="&#x203a;" 
d="M312 487l134 -213l-134 -213h-138l130 213l-130 213h138z" />
    <glyph glyph-name="daggerdbl" unicode="&#x2021;" 
d="M375 0h-130v195h-162v106h162v100h-162v105h162v194h130v-194h162v-105h-162v-100h162v-106h-162v-195z" />
    <glyph glyph-name="periodcentered" unicode="&#xb7;" 
d="M230 442h160v-161h-160v161z" />
    <glyph glyph-name="quotesinglbase" unicode="&#x201a;" 
d="M342 -107h-127l56 273h139z" />
    <glyph glyph-name="quotedblbase" unicode="&#x201e;" 
d="M454 -107h-127l56 273h139zM230 -107h-127l56 273h139z" />
    <glyph glyph-name="perthousand" unicode="&#x2030;" 
d="M164 414c-89 0 -127 70 -127 147c0 75 38 145 127 145c88 0 125 -70 125 -145c0 -77 -37 -147 -125 -147zM164 482c34 0 42 40 42 79c0 37 -8 77 -42 77c-36 0 -42 -40 -42 -77c0 -38 6 -79 42 -79zM52 350l516 156v-67l-516 -156v67zM164 -6c-89 0 -127 70 -127 146
s38 146 127 146c88 0 126 -70 126 -146s-38 -146 -126 -146zM456 -6c-87 0 -125 70 -125 146s38 146 125 146c89 0 127 -70 127 -146s-38 -146 -127 -146zM164 62c34 0 42 40 42 78c0 37 -8 78 -42 78c-36 0 -42 -41 -42 -78c0 -38 6 -78 42 -78zM456 62c36 0 43 40 43 78
c0 37 -7 78 -43 78c-34 0 -41 -41 -41 -78c0 -38 7 -78 41 -78z" />
    <glyph glyph-name="Acircumflex" unicode="&#xc2;" 
d="M249 926h122l108 -155h-115l-55 80l-55 -80h-113zM157 0h-138l214 700h155l213 -700h-148l-35 131h-225zM307 539l-82 -293h161z" />
    <glyph glyph-name="Ecircumflex" unicode="&#xca;" 
d="M262 926h122l108 -155h-115l-55 80l-55 -80h-113zM89 700h468v-118h-329v-169h289v-116h-289v-179h339v-118h-478v700z" />
    <glyph glyph-name="Aacute" unicode="&#xc1;" 
d="M346 926h119l-99 -155h-113zM157 0h-138l214 700h155l213 -700h-148l-35 131h-225zM307 539l-82 -293h161z" />
    <glyph glyph-name="Edieresis" unicode="&#xcb;" 
d="M172 774v129h121v-129h-121zM353 774v129h121v-129h-121zM89 700h468v-118h-329v-169h289v-116h-289v-179h339v-118h-478v700z" />
    <glyph glyph-name="Egrave" unicode="&#xc8;" 
d="M283 926l93 -155h-115l-97 155h119zM89 700h468v-118h-329v-169h289v-116h-289v-179h339v-118h-478v700z" />
    <glyph glyph-name="Iacute" unicode="&#xcd;" 
d="M346 926h119l-99 -155h-113zM75 116h166v468h-166v116h470v-116h-165v-468h165v-116h-470v116z" />
    <glyph glyph-name="Icircumflex" unicode="&#xce;" 
d="M249 926h122l108 -155h-115l-55 80l-55 -80h-113zM75 116h166v468h-166v116h470v-116h-165v-468h165v-116h-470v116z" />
    <glyph glyph-name="Idieresis" unicode="&#xcf;" 
d="M159 774v129h121v-129h-121zM340 774v129h121v-129h-121zM75 116h166v468h-166v116h470v-116h-165v-468h165v-116h-470v116z" />
    <glyph glyph-name="Igrave" unicode="&#xcc;" 
d="M270 926l93 -155h-115l-97 155h119zM75 116h166v468h-166v116h470v-116h-165v-468h165v-116h-470v116z" />
    <glyph glyph-name="Oacute" unicode="&#xd3;" 
d="M346 926h119l-99 -155h-113zM309 -12c-182 0 -270 147 -270 362s90 362 271 362c185 0 271 -147 271 -362s-89 -362 -272 -362zM310 107c97 0 129 99 129 243c0 145 -32 243 -129 243s-129 -98 -129 -243c0 -144 32 -243 129 -243z" />
    <glyph glyph-name="Ocircumflex" unicode="&#xd4;" 
d="M249 926h122l108 -155h-115l-55 80l-55 -80h-113zM309 -12c-182 0 -270 147 -270 362s90 362 271 362c185 0 271 -147 271 -362s-89 -362 -272 -362zM310 107c97 0 129 99 129 243c0 145 -32 243 -129 243s-129 -98 -129 -243c0 -144 32 -243 129 -243z" />
    <glyph glyph-name="Ograve" unicode="&#xd2;" 
d="M270 926l93 -155h-115l-97 155h119zM309 -12c-182 0 -270 147 -270 362s90 362 271 362c185 0 271 -147 271 -362s-89 -362 -272 -362zM310 107c97 0 129 99 129 243c0 145 -32 243 -129 243s-129 -98 -129 -243c0 -144 32 -243 129 -243z" />
    <glyph glyph-name="Uacute" unicode="&#xda;" 
d="M346 926h119l-99 -155h-113zM554 700v-474c0 -157 -109 -238 -243 -238s-245 81 -245 238v474h139v-474c0 -84 48 -119 106 -119c57 0 104 35 104 119v474h139z" />
    <glyph glyph-name="Ucircumflex" unicode="&#xdb;" 
d="M249 926h122l108 -155h-115l-55 80l-55 -80h-113zM554 700v-474c0 -157 -109 -238 -243 -238s-245 81 -245 238v474h139v-474c0 -84 48 -119 106 -119c57 0 104 35 104 119v474h139z" />
    <glyph glyph-name="Ugrave" unicode="&#xd9;" 
d="M270 926l93 -155h-115l-97 155h119zM554 700v-474c0 -157 -109 -238 -243 -238s-245 81 -245 238v474h139v-474c0 -84 48 -119 106 -119c57 0 104 35 104 119v474h139z" />
    <glyph glyph-name="dotlessi" unicode="&#x131;" 
d="M92 106h170v295h-170v105h301v-400h171v-106h-472v106z" />
    <glyph glyph-name="circumflex" unicode="&#x2c6;" 
d="M249 726h122l108 -155h-115l-55 80l-55 -80h-113z" />
    <glyph glyph-name="tilde" unicode="&#x2dc;" 
d="M360 682c16 0 22 6 22 30h85c1 -79 -17 -127 -81 -127c-51 0 -84 32 -119 32c-19 0 -27 -15 -28 -35h-86c2 70 23 129 94 129c51 0 87 -29 113 -29z" />
    <glyph glyph-name="macron" unicode="&#xaf;" 
d="M181 597v92h258v-92h-258z" />
    <glyph glyph-name="breve" unicode="&#x2d8;" 
d="M311 648c36 0 53 25 53 73h92c1 -71 -32 -155 -146 -155s-147 84 -146 155h94c0 -47 16 -73 53 -73z" />
    <glyph glyph-name="dotaccent" unicode="&#x2d9;" 
d="M241 574v129h138v-129h-138z" />
    <glyph glyph-name="ring" unicode="&#x2da;" 
d="M310 791c80 0 126 -52 126 -113c0 -60 -45 -112 -126 -112c-82 0 -126 52 -126 112c0 61 44 113 126 113zM310 731c-35 0 -50 -24 -50 -52c0 -30 15 -53 50 -53c34 0 50 23 50 53c0 28 -16 52 -50 52z" />
    <glyph glyph-name="cedilla" unicode="&#xb8;" 
d="M424 -136c0 -60 -41 -102 -117 -102c-69 0 -106 37 -111 89l77 2c2 -17 14 -27 34 -27c25 0 36 16 36 35c0 21 -13 36 -37 36c-12 0 -25 -5 -34 -17l-47 34l74 103l74 -1l-45 -61c61 -4 96 -41 96 -91z" />
    <glyph glyph-name="hungarumlaut" unicode="&#x2dd;" 
d="M214 726h115l-99 -155h-108zM389 726h114l-107 -155h-110z" />
    <glyph glyph-name="ogonek" unicode="&#x2db;" 
d="M327 -238c-68 0 -110 42 -110 93c0 67 46 109 116 163l70 -17c-57 -51 -90 -86 -90 -119c0 -26 18 -33 42 -33c13 0 26 2 40 7v-80c-16 -8 -36 -14 -68 -14z" />
    <glyph glyph-name="caron" unicode="&#x2c7;" 
d="M371 571h-122l-108 155h115l55 -80l55 80h113z" />
    <glyph glyph-name="uni00A0" unicode="&#xa0;" 
 />
    <glyph glyph-name="Amacron" unicode="&#x100;" 
d="M181 797v92h258v-92h-258zM157 0h-138l214 700h155l213 -700h-148l-35 131h-225zM307 539l-82 -293h161z" />
    <glyph glyph-name="Abreve" unicode="&#x102;" 
d="M311 848c36 0 53 25 53 73h92c1 -71 -32 -155 -146 -155s-147 84 -146 155h94c0 -47 16 -73 53 -73zM157 0h-138l214 700h155l213 -700h-148l-35 131h-225zM307 539l-82 -293h161z" />
    <glyph glyph-name="Aogonek" unicode="&#x104;" 
d="M157 0h-138l214 700h155l213 -700c-56 -51 -89 -86 -89 -119c0 -26 18 -33 42 -33c13 0 26 2 40 7v-80c-16 -8 -36 -14 -68 -14c-68 0 -110 42 -110 93c0 60 37 100 94 146h-57l-35 131h-225zM307 539l-82 -293h161z" />
    <glyph glyph-name="Cacute" unicode="&#x106;" 
d="M353 926h119l-99 -155h-113zM572 455l-138 -19c-12 94 -43 156 -117 156c-94 0 -127 -98 -127 -242s33 -242 127 -242c71 0 104 67 116 146l135 -18c-23 -155 -111 -248 -252 -248c-184 0 -268 147 -268 362s88 362 269 362c147 0 235 -92 255 -257z" />
    <glyph glyph-name="Ccircumflex" unicode="&#x108;" 
d="M257 926h122l108 -155h-115l-55 80l-55 -80h-113zM572 455l-138 -19c-12 94 -43 156 -117 156c-94 0 -127 -98 -127 -242s33 -242 127 -242c71 0 104 67 116 146l135 -18c-23 -155 -111 -248 -252 -248c-184 0 -268 147 -268 362s88 362 269 362c147 0 235 -92 255 -257z
" />
    <glyph glyph-name="Cdotaccent" unicode="&#x10a;" 
d="M249 774v129h138v-129h-138zM572 455l-138 -19c-12 94 -43 156 -117 156c-94 0 -127 -98 -127 -242s33 -242 127 -242c71 0 104 67 116 146l135 -18c-23 -155 -111 -248 -252 -248c-184 0 -268 147 -268 362s88 362 269 362c147 0 235 -92 255 -257z" />
    <glyph glyph-name="Ccaron" unicode="&#x10c;" 
d="M378 771h-122l-108 155h115l55 -80l55 80h113zM572 455l-138 -19c-12 94 -43 156 -117 156c-94 0 -127 -98 -127 -242s33 -242 127 -242c71 0 104 67 116 146l135 -18c-23 -155 -111 -248 -252 -248c-184 0 -268 147 -268 362s88 362 269 362c147 0 235 -92 255 -257z
" />
    <glyph glyph-name="Dcaron" unicode="&#x10e;" 
d="M348 771h-122l-108 155h115l55 -80l55 80h113zM69 700h206c195 0 306 -136 306 -339c0 -210 -112 -361 -306 -361h-206v700zM278 581h-70v-462h70c105 0 161 100 161 242c0 131 -56 220 -161 220z" />
    <glyph glyph-name="Emacron" unicode="&#x112;" 
d="M194 797v92h258v-92h-258zM89 700h468v-118h-329v-169h289v-116h-289v-179h339v-118h-478v700z" />
    <glyph glyph-name="Ebreve" unicode="&#x114;" 
d="M323 848c36 0 53 25 53 73h92c1 -71 -32 -155 -146 -155s-147 84 -146 155h94c0 -47 16 -73 53 -73zM89 700h468v-118h-329v-169h289v-116h-289v-179h339v-118h-478v700z" />
    <glyph glyph-name="Edotaccent" unicode="&#x116;" 
d="M254 774v129h138v-129h-138zM89 700h468v-118h-329v-169h289v-116h-289v-179h339v-118h-478v700z" />
    <glyph glyph-name="Eogonek" unicode="&#x118;" 
d="M492 -239c-68 0 -110 42 -110 93c0 60 37 100 94 146h-387v700h468v-118h-329v-169h289v-116h-289v-179h339v-118c-56 -51 -89 -86 -89 -119c0 -26 18 -33 42 -33c13 0 26 2 40 7v-80c-16 -8 -36 -14 -68 -14z" />
    <glyph glyph-name="Ecaron" unicode="&#x11a;" 
d="M383 771h-122l-108 155h115l55 -80l55 80h113zM89 700h468v-118h-329v-169h289v-116h-289v-179h339v-118h-478v700z" />
    <glyph glyph-name="Gcircumflex" unicode="&#x11c;" 
d="M249 926h122l108 -155h-115l-55 80l-55 -80h-113zM39 346c0 217 94 366 275 366c134 0 214 -78 244 -221l-135 -24c-17 83 -48 126 -110 126c-95 0 -131 -101 -131 -247c0 -138 42 -237 134 -237c84 0 119 69 119 137v30h-107v107h232v-383h-121v61
c-29 -46 -79 -73 -146 -73c-167 0 -254 149 -254 358z" />
    <glyph glyph-name="Gbreve" unicode="&#x11e;" 
d="M309 848c36 0 53 25 53 73h92c1 -71 -32 -155 -146 -155s-147 84 -146 155h94c0 -47 16 -73 53 -73zM39 346c0 217 94 366 275 366c134 0 214 -78 244 -221l-135 -24c-17 83 -48 126 -110 126c-95 0 -131 -101 -131 -247c0 -138 42 -237 134 -237c84 0 119 69 119 137v30
h-107v107h232v-383h-121v61c-29 -46 -79 -73 -146 -73c-167 0 -254 149 -254 358z" />
    <glyph glyph-name="Gdotaccent" unicode="&#x120;" 
d="M240 774v129h138v-129h-138zM39 346c0 217 94 366 275 366c134 0 214 -78 244 -221l-135 -24c-17 83 -48 126 -110 126c-95 0 -131 -101 -131 -247c0 -138 42 -237 134 -237c84 0 119 69 119 137v30h-107v107h232v-383h-121v61c-29 -46 -79 -73 -146 -73
c-167 0 -254 149 -254 358z" />
    <glyph glyph-name="uni0122" unicode="&#x122;" 
d="M39 346c0 217 94 366 275 366c134 0 214 -78 244 -221l-135 -24c-17 83 -48 126 -110 126c-95 0 -131 -101 -131 -247c0 -138 42 -237 134 -237c84 0 119 69 119 137v30h-107v107h232v-383h-121v61c-29 -46 -79 -73 -146 -73c-167 0 -254 149 -254 358zM248 -63h108
l-52 -167h-102z" />
    <glyph glyph-name="Hcircumflex" unicode="&#x124;" 
d="M249 926h122l108 -155h-115l-55 80l-55 -80h-113zM69 700h139v-281h204v281h139v-700h-139v299h-204v-299h-139v700z" />
    <glyph glyph-name="Itilde" unicode="&#x128;" 
d="M359 882c16 0 22 6 22 30h85c1 -79 -17 -127 -81 -127c-51 0 -84 32 -119 32c-19 0 -27 -15 -28 -35h-86c2 70 23 129 94 129c51 0 87 -29 113 -29zM75 116h166v468h-166v116h470v-116h-165v-468h165v-116h-470v116z" />
    <glyph glyph-name="Imacron" unicode="&#x12a;" 
d="M181 797v92h258v-92h-258zM75 116h166v468h-166v116h470v-116h-165v-468h165v-116h-470v116z" />
    <glyph glyph-name="Iogonek" unicode="&#x12e;" 
d="M75 116h166v468h-166v116h470v-116h-165v-468h165v-116c-55 -51 -89 -86 -89 -119c0 -26 18 -33 42 -33c13 0 26 2 40 7v-80c-16 -8 -36 -14 -68 -14c-68 0 -110 42 -110 93c0 60 37 100 94 146h-379v116z" />
    <glyph glyph-name="Idotaccent" unicode="&#x130;" 
d="M241 774v129h138v-129h-138zM75 116h166v468h-166v116h470v-116h-165v-468h165v-116h-470v116z" />
    <glyph glyph-name="Jcircumflex" unicode="&#x134;" 
d="M337 926h122l108 -155h-115l-55 80l-55 -80h-113zM214 700h328v-469c0 -156 -78 -243 -237 -243c-158 0 -238 88 -238 243v27l137 26v-53c0 -81 30 -126 100 -126s99 45 99 120v357h-189v118z" />
    <glyph glyph-name="uni0136" unicode="&#x136;" 
d="M615 0h-163l-181 289l-63 -76v-213h-139v700h139v-305l236 305h162l-240 -307zM273 -63h108l-52 -167h-102z" />
    <glyph glyph-name="Lacute" unicode="&#x139;" 
d="M196 926h119l-99 -155h-113zM91 700h139v-581h344v-119h-483v700z" />
    <glyph glyph-name="uni013B" unicode="&#x13b;" 
d="M91 700h139v-581h344v-119h-483v700zM278 -63h108l-52 -167h-102z" />
    <glyph glyph-name="Lcaron" unicode="&#x13d;" 
d="M91 700h139v-581h344v-119h-483v700zM307 700h103l-35 -174h-97z" />
    <glyph glyph-name="Nacute" unicode="&#x143;" 
d="M346 926h119l-99 -155h-113zM69 700h148l202 -412v412h132v-700h-120l-230 470v-470h-132v700z" />
    <glyph glyph-name="uni0145" unicode="&#x145;" 
d="M69 700h148l202 -412v412h132v-700h-120l-230 470v-470h-132v700zM256 -63h108l-52 -167h-102z" />
    <glyph glyph-name="Ncaron" unicode="&#x147;" 
d="M371 771h-122l-108 155h115l55 -80l55 80h113zM69 700h148l202 -412v412h132v-700h-120l-230 470v-470h-132v700z" />
    <glyph glyph-name="Omacron" unicode="&#x14c;" 
d="M181 797v92h258v-92h-258zM309 -12c-182 0 -270 147 -270 362s90 362 271 362c185 0 271 -147 271 -362s-89 -362 -272 -362zM310 107c97 0 129 99 129 243c0 145 -32 243 -129 243s-129 -98 -129 -243c0 -144 32 -243 129 -243z" />
    <glyph glyph-name="Obreve" unicode="&#x14e;" 
d="M311 848c36 0 53 25 53 73h92c1 -71 -32 -155 -146 -155s-147 84 -146 155h94c0 -47 16 -73 53 -73zM309 -12c-182 0 -270 147 -270 362s90 362 271 362c185 0 271 -147 271 -362s-89 -362 -272 -362zM310 107c97 0 129 99 129 243c0 145 -32 243 -129 243
s-129 -98 -129 -243c0 -144 32 -243 129 -243z" />
    <glyph glyph-name="Ohungarumlaut" unicode="&#x150;" 
d="M264 926h115l-99 -155h-108zM439 926h114l-107 -155h-110zM309 -12c-182 0 -270 147 -270 362s90 362 271 362c185 0 271 -147 271 -362s-89 -362 -272 -362zM310 107c97 0 129 99 129 243c0 145 -32 243 -129 243s-129 -98 -129 -243c0 -144 32 -243 129 -243z" />
    <glyph glyph-name="Racute" unicode="&#x154;" 
d="M333 926h119l-99 -155h-113zM569 0h-139l-10 173c-3 57 -37 83 -109 83h-103v-256h-139v700h252c159 0 249 -89 249 -197c0 -76 -41 -145 -112 -182c63 -22 97 -69 101 -146zM310 583h-102v-213h102c77 0 119 51 119 116c0 52 -37 97 -119 97z" />
    <glyph glyph-name="uni0156" unicode="&#x156;" 
d="M569 0h-139l-10 173c-3 57 -37 83 -109 83h-103v-256h-139v700h252c159 0 249 -89 249 -197c0 -76 -41 -145 -112 -182c63 -22 97 -69 101 -146zM310 583h-102v-213h102c77 0 119 51 119 116c0 52 -37 97 -119 97zM264 -63h108l-52 -167h-102z" />
    <glyph glyph-name="Rcaron" unicode="&#x158;" 
d="M358 771h-122l-108 155h115l55 -80l55 80h113zM569 0h-139l-10 173c-3 57 -37 83 -109 83h-103v-256h-139v700h252c159 0 249 -89 249 -197c0 -76 -41 -145 -112 -182c63 -22 97 -69 101 -146zM310 583h-102v-213h102c77 0 119 51 119 116c0 52 -37 97 -119 97z" />
    <glyph glyph-name="Sacute" unicode="&#x15a;" 
d="M345 926h119l-99 -155h-113zM581 210c0 -113 -87 -222 -259 -222c-173 0 -280 89 -283 229l140 16c4 -92 58 -133 143 -133c91 0 116 54 116 96c0 52 -28 74 -92 87l-90 18c-91 18 -195 66 -195 205c0 98 78 206 247 206c174 0 250 -100 260 -204l-142 -16
c-11 83 -60 108 -118 108c-85 0 -108 -47 -108 -85c0 -53 30 -76 80 -86l106 -21c123 -24 195 -85 195 -198z" />
    <glyph glyph-name="Scircumflex" unicode="&#x15c;" 
d="M248 926h122l108 -155h-115l-55 80l-55 -80h-113zM581 210c0 -113 -87 -222 -259 -222c-173 0 -280 89 -283 229l140 16c4 -92 58 -133 143 -133c91 0 116 54 116 96c0 52 -28 74 -92 87l-90 18c-91 18 -195 66 -195 205c0 98 78 206 247 206c174 0 250 -100 260 -204
l-142 -16c-11 83 -60 108 -118 108c-85 0 -108 -47 -108 -85c0 -53 30 -76 80 -86l106 -21c123 -24 195 -85 195 -198z" />
    <glyph glyph-name="Scedilla" unicode="&#x15e;" 
d="M424 -136c0 -60 -41 -102 -117 -102c-69 0 -106 37 -111 89l77 2c2 -17 14 -27 34 -27c25 0 36 16 36 35c0 21 -13 36 -37 36c-12 0 -25 -5 -34 -17l-47 34l55 76c-148 13 -238 99 -241 227l140 16c4 -92 58 -133 143 -133c91 0 116 54 116 96c0 52 -28 74 -92 87l-90 18
c-91 18 -195 66 -195 205c0 98 78 206 247 206c174 0 250 -100 260 -204l-142 -16c-11 83 -60 108 -118 108c-85 0 -108 -47 -108 -85c0 -53 30 -76 80 -86l106 -21c123 -24 195 -85 195 -198c0 -106 -76 -208 -228 -221l-25 -34c61 -4 96 -41 96 -91z" />
    <glyph glyph-name="uni0218" unicode="&#x218;" 
d="M581 210c0 -113 -87 -222 -259 -222c-173 0 -280 89 -283 229l140 16c4 -92 58 -133 143 -133c91 0 116 54 116 96c0 52 -28 74 -92 87l-90 18c-91 18 -195 66 -195 205c0 98 78 206 247 206c174 0 250 -100 260 -204l-142 -16c-11 83 -60 108 -118 108
c-85 0 -108 -47 -108 -85c0 -53 30 -76 80 -86l106 -21c123 -24 195 -85 195 -198zM268 -63h108l-52 -167h-102z" />
    <glyph glyph-name="uni0162" unicode="&#x162;" 
d="M412 -136c0 -60 -41 -102 -117 -102c-69 0 -106 37 -111 89l77 2c2 -17 14 -27 34 -27c25 0 36 16 36 35c0 21 -13 36 -37 36c-12 0 -25 -5 -34 -17l-47 34l62 86h-34v581h-208v119h554v-119h-207v-581h-31l-33 -45c61 -4 96 -41 96 -91z" />
    <glyph glyph-name="Tcaron" unicode="&#x164;" 
d="M371 771h-122l-108 155h115l55 -80l55 80h113zM33 700h554v-119h-207v-581h-139v581h-208v119z" />
    <glyph glyph-name="uni021A" unicode="&#x21a;" 
d="M33 700h554v-119h-207v-581h-139v581h-208v119zM256 -63h108l-52 -167h-102z" />
    <glyph glyph-name="Utilde" unicode="&#x168;" 
d="M359 882c16 0 22 6 22 30h85c1 -79 -17 -127 -81 -127c-51 0 -84 32 -119 32c-19 0 -27 -15 -28 -35h-86c2 70 23 129 94 129c51 0 87 -29 113 -29zM554 700v-474c0 -157 -109 -238 -243 -238s-245 81 -245 238v474h139v-474c0 -84 48 -119 106 -119c57 0 104 35 104 119
v474h139z" />
    <glyph glyph-name="Umacron" unicode="&#x16a;" 
d="M181 797v92h258v-92h-258zM554 700v-474c0 -157 -109 -238 -243 -238s-245 81 -245 238v474h139v-474c0 -84 48 -119 106 -119c57 0 104 35 104 119v474h139z" />
    <glyph glyph-name="Ubreve" unicode="&#x16c;" 
d="M311 848c36 0 53 25 53 73h92c1 -71 -32 -155 -146 -155s-147 84 -146 155h94c0 -47 16 -73 53 -73zM554 700v-474c0 -157 -109 -238 -243 -238s-245 81 -245 238v474h139v-474c0 -84 48 -119 106 -119c57 0 104 35 104 119v474h139z" />
    <glyph glyph-name="Uring" unicode="&#x16e;" 
d="M310 991c80 0 126 -52 126 -113c0 -60 -45 -112 -126 -112c-82 0 -126 52 -126 112c0 61 44 113 126 113zM310 931c-35 0 -50 -24 -50 -52c0 -30 15 -53 50 -53c34 0 50 23 50 53c0 28 -16 52 -50 52zM554 700v-474c0 -157 -109 -238 -243 -238s-245 81 -245 238v474h139
v-474c0 -84 48 -119 106 -119c57 0 104 35 104 119v474h139z" />
    <glyph glyph-name="Uhungarumlaut" unicode="&#x170;" 
d="M264 926h115l-99 -155h-108zM439 926h114l-107 -155h-110zM554 700v-474c0 -157 -109 -238 -243 -238s-245 81 -245 238v474h139v-474c0 -84 48 -119 106 -119c57 0 104 35 104 119v474h139z" />
    <glyph glyph-name="Uogonek" unicode="&#x172;" 
d="M554 226c0 -88 -33 -144 -77 -183c-51 -46 -104 -79 -104 -149c0 -33 20 -45 46 -45c13 0 26 2 40 7v-80c-16 -8 -36 -14 -68 -14c-70 0 -113 42 -113 96c0 55 23 93 60 131c-9 -1 -18 -1 -27 -1c-134 0 -245 81 -245 238v474h139v-474c0 -84 48 -119 106 -119
c57 0 104 35 104 119v474h139v-474z" />
    <glyph glyph-name="Wcircumflex" unicode="&#x174;" 
d="M249 926h122l108 -155h-115l-55 80l-55 -80h-113zM15 700h132l46 -457l68 317h106l69 -319l44 459h125l-85 -700h-130l-80 394l-79 -394h-130z" />
    <glyph glyph-name="Wgrave" unicode="&#x1e80;" 
d="M270 926l93 -155h-115l-97 155h119zM15 700h132l46 -457l68 317h106l69 -319l44 459h125l-85 -700h-130l-80 394l-79 -394h-130z" />
    <glyph glyph-name="Wacute" unicode="&#x1e82;" 
d="M346 926h119l-99 -155h-113zM15 700h132l46 -457l68 317h106l69 -319l44 459h125l-85 -700h-130l-80 394l-79 -394h-130z" />
    <glyph glyph-name="Wdieresis" unicode="&#x1e84;" 
d="M159 774v129h121v-129h-121zM340 774v129h121v-129h-121zM15 700h132l46 -457l68 317h106l69 -319l44 459h125l-85 -700h-130l-80 394l-79 -394h-130z" />
    <glyph glyph-name="Ycircumflex" unicode="&#x176;" 
d="M249 926h122l108 -155h-115l-55 80l-55 -80h-113zM12 700h151l148 -294l151 294h146l-228 -428v-272h-139v265z" />
    <glyph glyph-name="Ygrave" unicode="&#x1ef2;" 
d="M272 926l93 -155h-115l-97 155h119zM12 700h151l148 -294l151 294h146l-228 -428v-272h-139v265z" />
    <glyph glyph-name="Zacute" unicode="&#x179;" 
d="M349 926h119l-99 -155h-113zM582 118v-118h-535v103l343 479h-330v118h507v-103l-344 -479h359z" />
    <glyph glyph-name="Zdotaccent" unicode="&#x17b;" 
d="M244 774v129h138v-129h-138zM582 118v-118h-535v103l343 479h-330v118h507v-103l-344 -479h359z" />
    <glyph glyph-name="Dcroat" unicode="&#x110;" 
d="M14 402h65v298h196c195 0 306 -136 306 -339c0 -210 -112 -361 -306 -361h-196v297h-65v105zM278 581h-59v-179h122v-105h-122v-178h59c105 0 161 100 161 242c0 131 -56 220 -161 220z" />
    <glyph glyph-name="Hbar" unicode="&#x126;" 
d="M21 603h48v97h139v-97h204v97h139v-97h48v-93h-48v-510h-139v299h-204v-299h-139v510h-48v93zM208 419h204v91h-204v-91z" />
    <glyph glyph-name="IJ" unicode="&#x132;" 
d="M66 700h139v-300h-139v300zM546 700v-471c0 -155 -77 -241 -238 -241c-162 0 -241 88 -241 241v29l137 26v-59c0 -77 31 -120 103 -120c71 0 100 43 100 115v480h139z" />
    <glyph glyph-name="Ldot" unicode="&#x13f;" 
d="M91 700h139v-581h344v-119h-483v700zM397 454h148v-150h-148v150z" />
    <glyph glyph-name="Tbar" unicode="&#x166;" 
d="M66 385h175v196h-208v119h554v-119h-207v-196h174v-104h-174v-281h-139v281h-175v104z" />
    <glyph glyph-name="uni1E9E" unicode="&#x1e9e;" 
d="M595 214c0 -125 -91 -214 -236 -214h-103v118h95c76 0 113 42 113 100c0 50 -30 80 -82 80c-19 0 -39 -7 -51 -17l-75 61l146 247c-19 2 -44 4 -66 4c-116 0 -152 -74 -152 -178v-415h-134v419c0 191 104 293 278 293c78 0 147 -9 211 -20v-102l-116 -187
c105 -6 172 -81 172 -189z" />
    <glyph glyph-name="uni0394" unicode="&#x394;" 
d="M31 100l204 600h150l204 -600v-100h-558v100zM173 112h266l-133 446z" />
    <glyph glyph-name="uni03A9" unicode="&#x3a9;" 
d="M39 105h115c-80 58 -120 151 -120 276c0 192 97 331 276 331c178 0 276 -139 276 -331c0 -125 -44 -217 -121 -276h116v-105h-227v134c63 35 95 120 95 241c0 132 -51 221 -139 221c-89 0 -139 -89 -139 -221c0 -120 32 -206 94 -240v-135h-226v105z" />
    <glyph glyph-name="amacron" unicode="&#x101;" 
d="M179 597v92h258v-92h-258zM573 0h-64c-35 0 -91 10 -107 62c-33 -47 -85 -74 -154 -74c-119 0 -178 73 -178 149c0 95 65 142 154 157l136 23c23 4 29 17 29 33c0 23 -15 68 -84 68c-73 0 -92 -45 -98 -75l-123 13c11 76 79 162 226 162c150 0 207 -90 207 -186v-187
c0 -24 8 -37 36 -37h20v-108zM199 149c0 -37 24 -61 75 -61c66 0 117 50 117 123v23l-125 -20c-51 -8 -67 -34 -67 -65z" />
    <glyph glyph-name="abreve" unicode="&#x103;" 
d="M309 648c36 0 53 25 53 73h92c1 -71 -32 -155 -146 -155s-147 84 -146 155h94c0 -47 16 -73 53 -73zM573 0h-64c-35 0 -91 10 -107 62c-33 -47 -85 -74 -154 -74c-119 0 -178 73 -178 149c0 95 65 142 154 157l136 23c23 4 29 17 29 33c0 23 -15 68 -84 68
c-73 0 -92 -45 -98 -75l-123 13c11 76 79 162 226 162c150 0 207 -90 207 -186v-187c0 -24 8 -37 36 -37h20v-108zM199 149c0 -37 24 -61 75 -61c66 0 117 50 117 123v23l-125 -20c-51 -8 -67 -34 -67 -65z" />
    <glyph glyph-name="aogonek" unicode="&#x105;" 
d="M497 -239c-68 0 -110 42 -110 93c0 61 38 101 97 148c-33 4 -70 19 -82 60c-33 -47 -85 -74 -154 -74c-119 0 -178 73 -178 149c0 95 65 142 154 157l136 23c23 4 29 17 29 33c0 23 -15 68 -84 68c-73 0 -92 -45 -98 -75l-123 13c11 76 79 162 226 162
c150 0 207 -90 207 -186v-187c0 -24 8 -37 36 -37h20v-108c-57 -51 -90 -86 -90 -119c0 -26 18 -33 42 -33c13 0 26 2 40 7v-80c-16 -8 -36 -14 -68 -14zM199 149c0 -37 24 -61 75 -61c66 0 117 50 117 123v23l-125 -20c-51 -8 -67 -34 -67 -65z" />
    <glyph glyph-name="cacute" unicode="&#x107;" 
d="M361 726h119l-99 -155h-113zM324 97c64 0 99 38 108 96l125 -16c-21 -118 -107 -189 -236 -189c-160 0 -249 112 -249 264c0 154 91 266 251 266c133 0 219 -70 237 -194l-128 -14c-11 61 -43 99 -109 99c-83 0 -117 -68 -117 -157c0 -88 34 -155 118 -155z" />
    <glyph glyph-name="ccircumflex" unicode="&#x109;" 
d="M261 726h122l108 -155h-115l-55 80l-55 -80h-113zM324 97c64 0 99 38 108 96l125 -16c-21 -118 -107 -189 -236 -189c-160 0 -249 112 -249 264c0 154 91 266 251 266c133 0 219 -70 237 -194l-128 -14c-11 61 -43 99 -109 99c-83 0 -117 -68 -117 -157
c0 -88 34 -155 118 -155z" />
    <glyph glyph-name="cdotaccent" unicode="&#x10b;" 
d="M253 574v129h138v-129h-138zM324 97c64 0 99 38 108 96l125 -16c-21 -118 -107 -189 -236 -189c-160 0 -249 112 -249 264c0 154 91 266 251 266c133 0 219 -70 237 -194l-128 -14c-11 61 -43 99 -109 99c-83 0 -117 -68 -117 -157c0 -88 34 -155 118 -155z" />
    <glyph glyph-name="ccaron" unicode="&#x10d;" 
d="M382 571h-122l-108 155h115l55 -80l55 80h113zM324 97c64 0 99 38 108 96l125 -16c-21 -118 -107 -189 -236 -189c-160 0 -249 112 -249 264c0 154 91 266 251 266c133 0 219 -70 237 -194l-128 -14c-11 61 -43 99 -109 99c-83 0 -117 -68 -117 -157
c0 -88 34 -155 118 -155z" />
    <glyph glyph-name="dcaron" unicode="&#x10f;" 
d="M220 -12c-116 0 -188 105 -188 261s71 269 188 269c54 0 94 -25 123 -70v252h119v-700h-112v69c-29 -51 -71 -81 -130 -81zM539 700h96l-35 -174h-91zM248 98c62 0 97 64 97 155c0 89 -35 156 -97 156c-61 0 -95 -66 -95 -156c0 -89 34 -155 95 -155z" />
    <glyph glyph-name="emacron" unicode="&#x113;" 
d="M189 597v92h258v-92h-258zM322 91c66 0 92 35 106 75l114 -27c-29 -107 -120 -151 -220 -151c-167 0 -255 100 -255 265c0 154 98 265 251 265c143 0 237 -99 237 -253v-47h-360c9 -84 51 -127 127 -127zM317 416c-65 0 -107 -36 -120 -111h227c-7 78 -47 111 -107 111z
" />
    <glyph glyph-name="ebreve" unicode="&#x115;" 
d="M319 648c36 0 53 25 53 73h92c1 -71 -32 -155 -146 -155s-147 84 -146 155h94c0 -47 16 -73 53 -73zM322 91c66 0 92 35 106 75l114 -27c-29 -107 -120 -151 -220 -151c-167 0 -255 100 -255 265c0 154 98 265 251 265c143 0 237 -99 237 -253v-47h-360
c9 -84 51 -127 127 -127zM317 416c-65 0 -107 -36 -120 -111h227c-7 78 -47 111 -107 111z" />
    <glyph glyph-name="edotaccent" unicode="&#x117;" 
d="M249 574v129h138v-129h-138zM322 91c66 0 92 35 106 75l114 -27c-29 -107 -120 -151 -220 -151c-167 0 -255 100 -255 265c0 154 98 265 251 265c143 0 237 -99 237 -253v-47h-360c9 -84 51 -127 127 -127zM317 416c-65 0 -107 -36 -120 -111h227c-7 78 -47 111 -107 111
z" />
    <glyph glyph-name="eogonek" unicode="&#x119;" 
d="M67 253c0 154 98 265 251 265c143 0 237 -99 237 -253v-47h-360c9 -84 51 -127 127 -127c66 0 92 35 106 75l114 -27c-20 -70 -55 -96 -88 -120c-45 -33 -89 -60 -89 -120c0 -38 23 -49 53 -49c10 0 21 2 33 7v-80c-15 -9 -36 -14 -68 -14c-70 0 -113 46 -113 102
c0 48 21 86 59 123h-9c-165 0 -253 100 -253 265zM317 416c-65 0 -107 -36 -120 -111h227c-7 78 -47 111 -107 111z" />
    <glyph glyph-name="ecaron" unicode="&#x11b;" 
d="M379 571h-122l-108 155h115l55 -80l55 80h113zM322 91c66 0 92 35 106 75l114 -27c-29 -107 -120 -151 -220 -151c-167 0 -255 100 -255 265c0 154 98 265 251 265c143 0 237 -99 237 -253v-47h-360c9 -84 51 -127 127 -127zM317 416c-65 0 -107 -36 -120 -111h227
c-7 78 -47 111 -107 111z" />
    <glyph glyph-name="gcircumflex" unicode="&#x11d;" 
d="M246 726h122l108 -155h-115l-55 80l-55 -80h-113zM276 32c-136 0 -220 96 -220 241c0 141 83 245 220 245c67 0 117 -25 150 -67v55h125v-476c0 -117 -65 -227 -246 -227c-168 0 -234 88 -242 171l131 15c6 -31 24 -81 113 -81c100 0 113 74 113 123v66
c-32 -40 -80 -65 -144 -65zM307 141c72 0 115 55 115 134c0 76 -44 135 -115 135c-78 0 -117 -57 -117 -135s39 -134 117 -134z" />
    <glyph glyph-name="gbreve" unicode="&#x11f;" 
d="M308 648c36 0 53 25 53 73h92c1 -71 -32 -155 -146 -155s-147 84 -146 155h94c0 -47 16 -73 53 -73zM276 32c-136 0 -220 96 -220 241c0 141 83 245 220 245c67 0 117 -25 150 -67v55h125v-476c0 -117 -65 -227 -246 -227c-168 0 -234 88 -242 171l131 15
c6 -31 24 -81 113 -81c100 0 113 74 113 123v66c-32 -40 -80 -65 -144 -65zM307 141c72 0 115 55 115 134c0 76 -44 135 -115 135c-78 0 -117 -57 -117 -135s39 -134 117 -134z" />
    <glyph glyph-name="gdotaccent" unicode="&#x121;" 
d="M238 574v129h138v-129h-138zM276 32c-136 0 -220 96 -220 241c0 141 83 245 220 245c67 0 117 -25 150 -67v55h125v-476c0 -117 -65 -227 -246 -227c-168 0 -234 88 -242 171l131 15c6 -31 24 -81 113 -81c100 0 113 74 113 123v66c-32 -40 -80 -65 -144 -65zM307 141
c72 0 115 55 115 134c0 76 -44 135 -115 135c-78 0 -117 -57 -117 -135s39 -134 117 -134z" />
    <glyph glyph-name="uni0123" unicode="&#x123;" 
d="M370 571h-116l60 149h102zM276 32c-136 0 -220 96 -220 241c0 141 83 245 220 245c67 0 117 -25 150 -67v55h125v-476c0 -117 -65 -227 -246 -227c-168 0 -234 88 -242 171l131 15c6 -31 24 -81 113 -81c100 0 113 74 113 123v66c-32 -40 -80 -65 -144 -65zM307 141
c72 0 115 55 115 134c0 76 -44 135 -115 135c-78 0 -117 -57 -117 -135s39 -134 117 -134z" />
    <glyph glyph-name="hcircumflex" unicode="&#x125;" 
d="M87 912h122l108 -155h-115l-55 80l-55 -80h-113zM544 0h-131v306c0 66 -35 102 -94 102c-68 0 -106 -43 -106 -123v-285h-131v700h131v-244c31 38 77 62 143 62c129 0 188 -86 188 -191v-327z" />
    <glyph glyph-name="itilde" unicode="&#x129;" 
d="M298 682c16 0 22 6 22 30h85c1 -79 -17 -127 -81 -127c-51 0 -84 32 -119 32c-19 0 -27 -15 -28 -35h-86c2 70 23 129 94 129c51 0 87 -29 113 -29zM92 106h170v295h-170v105h301v-400h171v-106h-472v106z" />
    <glyph glyph-name="imacron" unicode="&#x12b;" 
d="M135 597v92h258v-92h-258zM92 106h170v295h-170v105h301v-400h171v-106h-472v106z" />
    <glyph glyph-name="iogonek" unicode="&#x12f;" 
d="M252 736h141v-155h-141v155zM92 106h170v295h-170v105h301v-400h171v-106c-57 -51 -90 -86 -90 -119c0 -26 18 -33 42 -33c13 0 26 2 40 7v-80c-16 -8 -36 -14 -68 -14c-68 0 -110 42 -110 93c0 60 37 100 94 146h-380v106z" />
    <glyph glyph-name="jcircumflex" unicode="&#x135;" 
d="M230 726h122l108 -155h-115l-55 80l-55 -80h-113zM468 506v-511c0 -101 -43 -180 -181 -180h-196v108h186c52 0 60 32 60 79v399h-237v105h368z" />
    <glyph glyph-name="uni0137" unicode="&#x137;" 
d="M595 0h-157l-149 226l-78 -76v-150h-131v700h131v-397l201 203h161l-190 -190zM268 -63h108l-52 -167h-102z" />
    <glyph glyph-name="lacute" unicode="&#x13a;" 
d="M350 912h119l-99 -155h-113zM92 106h170v488h-170v106h301v-594h171v-106h-472v106z" />
    <glyph glyph-name="uni013C" unicode="&#x13c;" 
d="M92 106h170v488h-170v106h301v-594h171v-106h-472v106zM273 -63h108l-52 -167h-102z" />
    <glyph glyph-name="lcaron" unicode="&#x13e;" 
d="M92 106h170v488h-170v106h301v-594h171v-106h-472v106zM470 700h103l-35 -174h-97z" />
    <glyph glyph-name="nacute" unicode="&#x144;" 
d="M359 726h119l-99 -155h-113zM544 0h-131v306c0 66 -35 102 -94 102c-68 0 -106 -43 -106 -123v-285h-131v506h125v-57c31 42 79 69 149 69c129 0 188 -86 188 -191v-327z" />
    <glyph glyph-name="uni0146" unicode="&#x146;" 
d="M544 0h-131v306c0 66 -35 102 -94 102c-68 0 -106 -43 -106 -123v-285h-131v506h125v-57c31 42 79 69 149 69c129 0 188 -86 188 -191v-327zM258 -63h108l-52 -167h-102z" />
    <glyph glyph-name="ncaron" unicode="&#x148;" 
d="M381 571h-122l-108 155h115l55 -80l55 80h113zM544 0h-131v306c0 66 -35 102 -94 102c-68 0 -106 -43 -106 -123v-285h-131v506h125v-57c31 42 79 69 149 69c129 0 188 -86 188 -191v-327z" />
    <glyph glyph-name="omacron" unicode="&#x14d;" 
d="M181 597v92h258v-92h-258zM310 518c163 0 257 -112 257 -265c0 -152 -97 -265 -257 -265c-164 0 -257 113 -257 265c0 153 96 265 257 265zM310 412c-86 0 -124 -68 -124 -159c0 -90 38 -159 124 -159c87 0 124 69 124 159c0 91 -37 159 -124 159z" />
    <glyph glyph-name="obreve" unicode="&#x14f;" 
d="M311 648c36 0 53 25 53 73h92c1 -71 -32 -155 -146 -155s-147 84 -146 155h94c0 -47 16 -73 53 -73zM310 518c163 0 257 -112 257 -265c0 -152 -97 -265 -257 -265c-164 0 -257 113 -257 265c0 153 96 265 257 265zM310 412c-86 0 -124 -68 -124 -159
c0 -90 38 -159 124 -159c87 0 124 69 124 159c0 91 -37 159 -124 159z" />
    <glyph glyph-name="ohungarumlaut" unicode="&#x151;" 
d="M263 726h115l-99 -155h-108zM438 726h114l-107 -155h-110zM310 518c163 0 257 -112 257 -265c0 -152 -97 -265 -257 -265c-164 0 -257 113 -257 265c0 153 96 265 257 265zM310 412c-86 0 -124 -68 -124 -159c0 -90 38 -159 124 -159c87 0 124 69 124 159
c0 91 -37 159 -124 159z" />
    <glyph glyph-name="racute" unicode="&#x155;" 
d="M360 726h119l-99 -155h-113zM76 106h140v295h-140v105h264v-78c31 50 76 78 135 78h93v-119h-98c-78 0 -123 -53 -123 -169v-112h180v-106h-451v106z" />
    <glyph glyph-name="uni0157" unicode="&#x157;" 
d="M76 106h140v295h-140v105h264v-78c31 50 76 78 135 78h93v-119h-98c-78 0 -123 -53 -123 -169v-112h180v-106h-451v106zM227 -63h108l-52 -167h-102z" />
    <glyph glyph-name="rcaron" unicode="&#x159;" 
d="M382 571h-122l-108 155h115l55 -80l55 80h113zM76 106h140v295h-140v105h264v-78c31 50 76 78 135 78h93v-119h-98c-78 0 -123 -53 -123 -169v-112h180v-106h-451v106z" />
    <glyph glyph-name="sacute" unicode="&#x15b;" 
d="M351 726h119l-99 -155h-113zM544 156c0 -98 -72 -168 -229 -168c-168 0 -232 82 -238 165l131 14c6 -54 43 -82 113 -82c72 0 93 28 93 61c0 30 -28 44 -76 52l-79 13c-77 13 -164 44 -164 150c0 84 72 157 219 157c157 0 210 -82 221 -156l-120 -14
c-10 41 -40 74 -106 74c-70 0 -89 -28 -89 -52c0 -32 25 -42 71 -50l86 -15c104 -18 167 -55 167 -149z" />
    <glyph glyph-name="scircumflex" unicode="&#x15d;" 
d="M251 726h122l108 -155h-115l-55 80l-55 -80h-113zM544 156c0 -98 -72 -168 -229 -168c-168 0 -232 82 -238 165l131 14c6 -54 43 -82 113 -82c72 0 93 28 93 61c0 30 -28 44 -76 52l-79 13c-77 13 -164 44 -164 150c0 84 72 157 219 157c157 0 210 -82 221 -156l-120 -14
c-10 41 -40 74 -106 74c-70 0 -89 -28 -89 -52c0 -32 25 -42 71 -50l86 -15c104 -18 167 -55 167 -149z" />
    <glyph glyph-name="scedilla" unicode="&#x15f;" 
d="M420 -136c0 -60 -41 -102 -117 -102c-69 0 -106 37 -111 89l77 2c2 -17 14 -27 34 -27c25 0 36 16 36 35c0 21 -13 36 -37 36c-12 0 -25 -5 -34 -17l-47 34l54 76c-138 12 -192 87 -198 163l131 14c6 -54 43 -82 113 -82c72 0 93 28 93 61c0 30 -28 44 -76 52l-79 13
c-77 13 -164 44 -164 150c0 84 72 157 219 157c157 0 210 -82 221 -156l-120 -14c-10 41 -40 74 -106 74c-70 0 -89 -28 -89 -52c0 -32 25 -42 71 -50l86 -15c104 -18 167 -55 167 -149c0 -91 -62 -157 -195 -167l-25 -34c61 -4 96 -41 96 -91z" />
    <glyph glyph-name="uni0219" unicode="&#x219;" 
d="M544 156c0 -98 -72 -168 -229 -168c-168 0 -232 82 -238 165l131 14c6 -54 43 -82 113 -82c72 0 93 28 93 61c0 30 -28 44 -76 52l-79 13c-77 13 -164 44 -164 150c0 84 72 157 219 157c157 0 210 -82 221 -156l-120 -14c-10 41 -40 74 -106 74c-70 0 -89 -28 -89 -52
c0 -32 25 -42 71 -50l86 -15c104 -18 167 -55 167 -149zM264 -63h108l-52 -167h-102z" />
    <glyph glyph-name="uni0163" unicode="&#x163;" 
d="M57 401v105h147v155h131v-155h210v-105h-210v-232c0 -42 10 -60 53 -60h162v-109h-155l-33 -45c61 -4 96 -41 96 -91c0 -60 -41 -102 -117 -102c-69 0 -106 37 -111 89l77 2c2 -17 14 -27 34 -27c25 0 36 16 36 35c0 21 -13 36 -37 36c-12 0 -25 -5 -34 -17l-47 34l64 89
c-85 12 -119 65 -119 147v251h-147z" />
    <glyph glyph-name="tcaron" unicode="&#x165;" 
d="M412 738h103l-35 -174h-97zM57 401v105h147v155h131v-155h210v-105h-210v-232c0 -42 10 -60 53 -60h162v-109h-187c-115 0 -159 56 -159 150v251h-147z" />
    <glyph glyph-name="uni021B" unicode="&#x21b;" 
d="M57 401v105h147v155h131v-155h210v-105h-210v-232c0 -42 10 -60 53 -60h162v-109h-187c-115 0 -159 56 -159 150v251h-147zM237 -63h108l-52 -167h-102z" />
    <glyph glyph-name="utilde" unicode="&#x169;" 
d="M357 682c16 0 22 6 22 30h85c1 -79 -17 -127 -81 -127c-51 0 -84 32 -119 32c-19 0 -27 -15 -28 -35h-86c2 70 23 129 94 129c51 0 87 -29 113 -29zM533 0h-125v56c-30 -41 -77 -68 -144 -68c-125 0 -183 87 -183 191v327h131v-306c0 -66 33 -102 89 -102
c65 0 101 44 101 123v285h131v-506z" />
    <glyph glyph-name="umacron" unicode="&#x16b;" 
d="M178 597v92h258v-92h-258zM533 0h-125v56c-30 -41 -77 -68 -144 -68c-125 0 -183 87 -183 191v327h131v-306c0 -66 33 -102 89 -102c65 0 101 44 101 123v285h131v-506z" />
    <glyph glyph-name="ubreve" unicode="&#x16d;" 
d="M308 648c36 0 53 25 53 73h92c1 -71 -32 -155 -146 -155s-147 84 -146 155h94c0 -47 16 -73 53 -73zM533 0h-125v56c-30 -41 -77 -68 -144 -68c-125 0 -183 87 -183 191v327h131v-306c0 -66 33 -102 89 -102c65 0 101 44 101 123v285h131v-506z" />
    <glyph glyph-name="uring" unicode="&#x16f;" 
d="M306 791c80 0 126 -52 126 -113c0 -60 -45 -112 -126 -112c-82 0 -126 52 -126 112c0 61 44 113 126 113zM306 731c-35 0 -50 -24 -50 -52c0 -30 15 -53 50 -53c34 0 50 23 50 53c0 28 -16 52 -50 52zM533 0h-125v56c-30 -41 -77 -68 -144 -68c-125 0 -183 87 -183 191
v327h131v-306c0 -66 33 -102 89 -102c65 0 101 44 101 123v285h131v-506z" />
    <glyph glyph-name="uhungarumlaut" unicode="&#x171;" 
d="M260 726h115l-99 -155h-108zM435 726h114l-107 -155h-110zM533 0h-125v56c-30 -41 -77 -68 -144 -68c-125 0 -183 87 -183 191v327h131v-306c0 -66 33 -102 89 -102c65 0 101 44 101 123v285h131v-506z" />
    <glyph glyph-name="uogonek" unicode="&#x173;" 
d="M457 -239c-68 0 -110 42 -110 93c0 60 37 100 94 146h-33v56c-30 -41 -77 -68 -144 -68c-125 0 -183 87 -183 191v327h131v-306c0 -66 33 -102 89 -102c65 0 101 44 101 123v285h131v-506c-57 -51 -90 -86 -90 -119c0 -26 18 -33 42 -33c13 0 26 2 40 7v-80
c-16 -8 -36 -14 -68 -14z" />
    <glyph glyph-name="wcircumflex" unicode="&#x175;" 
d="M249 726h122l108 -155h-115l-55 80l-55 -80h-113zM17 506h119l49 -324l83 324h89l85 -320l51 320h110l-91 -506h-108l-90 338l-92 -338h-114z" />
    <glyph glyph-name="wgrave" unicode="&#x1e81;" 
d="M275 726l93 -155h-115l-97 155h119zM17 506h119l49 -324l83 324h89l85 -320l51 320h110l-91 -506h-108l-90 338l-92 -338h-114z" />
    <glyph glyph-name="wacute" unicode="&#x1e83;" 
d="M351 726h119l-99 -155h-113zM17 506h119l49 -324l83 324h89l85 -320l51 320h110l-91 -506h-108l-90 338l-92 -338h-114z" />
    <glyph glyph-name="wdieresis" unicode="&#x1e85;" 
d="M159 574v129h121v-129h-121zM340 574v129h121v-129h-121zM17 506h119l49 -324l83 324h89l85 -320l51 320h110l-91 -506h-108l-90 338l-92 -338h-114z" />
    <glyph glyph-name="ycircumflex" unicode="&#x177;" 
d="M252 726h122l108 -155h-115l-55 80l-55 -80h-113zM44 506h138l131 -343l134 343h130l-214 -537c-47 -118 -94 -154 -201 -154h-85v107h86c44 0 64 15 75 46l11 30z" />
    <glyph glyph-name="ygrave" unicode="&#x1ef3;" 
d="M276 726l93 -155h-115l-97 155h119zM44 506h138l131 -343l134 343h130l-214 -537c-47 -118 -94 -154 -201 -154h-85v107h86c44 0 64 15 75 46l11 30z" />
    <glyph glyph-name="zacute" unicode="&#x17a;" 
d="M350 726h119l-99 -155h-113zM540 108v-108h-460v94l287 304h-274v108h436v-96l-285 -302h296z" />
    <glyph glyph-name="zdotaccent" unicode="&#x17c;" 
d="M242 574v129h138v-129h-138zM540 108v-108h-460v94l287 304h-274v108h436v-96l-285 -302h296z" />
    <glyph glyph-name="dcroat" unicode="&#x111;" 
d="M271 -12c-139 0 -226 105 -226 261s86 269 226 269c67 0 118 -26 152 -70v111h-159v84h159v57h131v-57h45v-84h-45v-559h-125v69c-34 -50 -86 -81 -158 -81zM300 98c79 0 125 64 125 155c0 89 -47 156 -125 156c-79 0 -121 -66 -121 -156c0 -89 42 -155 121 -155z" />
    <glyph glyph-name="hbar" unicode="&#x127;" 
d="M544 0h-131v306c0 66 -35 102 -94 102c-68 0 -106 -43 -106 -123v-285h-131v559h-45v84h45v57h131v-57h160v-84h-160v-103c31 38 77 62 143 62c129 0 188 -86 188 -191v-327z" />
    <glyph glyph-name="ij" unicode="&#x133;" 
d="M397 711h135v-136h-135v136zM92 711h134v-136h-134v136zM225 506v-506h-131v506h131zM530 506v-517c0 -98 -43 -174 -175 -174h-97v108h87c47 0 54 31 54 73v510h131z" />
    <glyph glyph-name="kgreenlandic" unicode="&#x138;" 
d="M595 0h-157l-149 226l-78 -76v-150h-131v506h131v-203l201 203h161l-190 -190z" />
    <glyph glyph-name="ldot" unicode="&#x140;" 
d="M92 106h170v488h-170v106h301v-594h171v-106h-472v106zM563 454h148v-150h-148v150z" />
    <glyph glyph-name="napostrophe" unicode="&#x149;" 
d="M79 731h108l-52 -167h-102zM544 0h-131v306c0 66 -35 102 -94 102c-68 0 -106 -43 -106 -123v-285h-131v506h125v-57c31 42 79 69 149 69c129 0 188 -86 188 -191v-327z" />
    <glyph glyph-name="tbar" unicode="&#x167;" 
d="M108 327h93v74h-147v105h147v155h131v-155h210v-105h-210v-74h118v-91h-118v-67c0 -42 10 -60 53 -60h162v-109h-187c-115 0 -159 56 -159 150v86h-93v91z" />
    <glyph glyph-name="longs" unicode="&#x17f;" 
d="M90 106h131v295h-147v105h147v32c0 86 46 162 178 162h168v-108h-160c-46 0 -55 -32 -55 -65v-421h157v-106h-419v106z" />
    <glyph glyph-name="uni0237" unicode="&#x237;" 
d="M468 506v-511c0 -101 -43 -180 -181 -180h-196v108h186c52 0 60 32 60 79v399h-237v105h368z" />
    <glyph glyph-name="uni03BC" unicode="&#x3bc;" 
d="M536 0h-125v56c-30 -41 -77 -68 -144 -68c-25 0 -46 5 -63 15l11 -81v-107h-131v691h131v-306c0 -66 33 -102 89 -102c65 0 101 44 101 123v285h131v-506z" />
    <glyph glyph-name="uni02C9" unicode="&#x2c9;" 
d="M181 597v92h258v-92h-258z" />
    <glyph glyph-name="uni2153" unicode="&#x2153;" 
d="M348 399l164 301h90l-165 -301h-89zM44 436h92v149c-12 -4 -24 -5 -38 -5h-59v67h58c45 0 48 38 48 53h76v-264h77v-69h-254v69zM452 138h-28v60h22c29 0 39 20 39 38c0 22 -17 32 -40 32c-28 0 -55 -16 -53 -60l-77 16c1 77 63 114 136 114c78 0 121 -40 121 -91
c0 -27 -12 -55 -43 -72c38 -14 54 -42 54 -76c0 -63 -52 -106 -132 -106c-68 0 -144 32 -142 113l84 14c-2 -44 25 -58 54 -58c28 0 50 14 50 42c0 17 -11 34 -45 34zM18 0l165 301h89l-164 -301h-90z" />
    <glyph glyph-name="uni2154" unicode="&#x2154;" 
d="M291 437v-69h-266v65l116 97c30 25 50 45 50 73c0 17 -13 34 -38 34s-52 -16 -47 -67l-84 11c-3 91 65 126 134 126c84 0 123 -47 123 -100c0 -50 -37 -90 -82 -126l-55 -44h149zM348 399l164 301h90l-165 -301h-89zM452 138h-28v60h22c29 0 39 20 39 38
c0 22 -17 32 -40 32c-28 0 -55 -16 -53 -60l-77 16c1 77 63 114 136 114c78 0 121 -40 121 -91c0 -27 -12 -55 -43 -72c38 -14 54 -42 54 -76c0 -63 -52 -106 -132 -106c-68 0 -144 32 -142 113l84 14c-2 -44 25 -58 54 -58c28 0 50 14 50 42c0 17 -11 34 -45 34zM18 0
l165 301h89l-164 -301h-90z" />
    <glyph glyph-name="uni2155" unicode="&#x2155;" 
d="M348 399l164 301h90l-165 -301h-89zM44 436h92v149c-12 -4 -24 -5 -38 -5h-59v67h58c45 0 48 38 48 53h76v-264h77v-69h-254v69zM591 111c0 -64 -44 -118 -136 -118c-70 0 -132 34 -141 90l85 13c5 -24 26 -37 55 -37c32 0 52 18 52 48c0 31 -21 44 -51 44
c-26 0 -48 -8 -65 -24l-60 28l28 177h208v-69h-145l-11 -65c17 10 37 17 64 17c77 0 117 -46 117 -104zM18 0l165 301h89l-164 -301h-90z" />
    <glyph glyph-name="uni2156" unicode="&#x2156;" 
d="M291 437v-69h-266v65l116 97c30 25 50 45 50 73c0 17 -13 34 -38 34s-52 -16 -47 -67l-84 11c-3 91 65 126 134 126c84 0 123 -47 123 -100c0 -50 -37 -90 -82 -126l-55 -44h149zM348 399l164 301h90l-165 -301h-89zM591 111c0 -64 -44 -118 -136 -118
c-70 0 -132 34 -141 90l85 13c5 -24 26 -37 55 -37c32 0 52 18 52 48c0 31 -21 44 -51 44c-26 0 -48 -8 -65 -24l-60 28l28 177h208v-69h-145l-11 -65c17 10 37 17 64 17c77 0 117 -46 117 -104zM18 0l165 301h89l-164 -301h-90z" />
    <glyph glyph-name="uni2157" unicode="&#x2157;" 
d="M165 508h-28v60h22c29 0 39 20 39 38c0 22 -17 32 -40 32c-28 0 -55 -16 -53 -60l-77 16c1 77 63 114 136 114c78 0 121 -40 121 -91c0 -27 -12 -55 -43 -72c38 -14 54 -42 54 -76c0 -63 -52 -106 -132 -106c-68 0 -144 32 -142 113l84 14c-2 -44 25 -58 54 -58
c28 0 50 14 50 42c0 17 -11 34 -45 34zM348 399l164 301h90l-165 -301h-89zM591 111c0 -64 -44 -118 -136 -118c-70 0 -132 34 -141 90l85 13c5 -24 26 -37 55 -37c32 0 52 18 52 48c0 31 -21 44 -51 44c-26 0 -48 -8 -65 -24l-60 28l28 177h208v-69h-145l-11 -65
c17 10 37 17 64 17c77 0 117 -46 117 -104zM18 0l165 301h89l-164 -301h-90z" />
    <glyph glyph-name="uni2158" unicode="&#x2158;" 
d="M15 497l138 203h116v-197h47v-69h-47v-67h-85v67h-169v63zM348 399l164 301h90l-165 -301h-89zM184 503v123l-84 -123h84zM591 111c0 -64 -44 -118 -136 -118c-70 0 -132 34 -141 90l85 13c5 -24 26 -37 55 -37c32 0 52 18 52 48c0 31 -21 44 -51 44
c-26 0 -48 -8 -65 -24l-60 28l28 177h208v-69h-145l-11 -65c17 10 37 17 64 17c77 0 117 -46 117 -104zM18 0l165 301h89l-164 -301h-90z" />
    <glyph glyph-name="uni2159" unicode="&#x2159;" 
d="M348 399l164 301h90l-165 -301h-89zM44 436h92v149c-12 -4 -24 -5 -38 -5h-59v67h58c45 0 48 38 48 53h76v-264h77v-69h-254v69zM589 110c0 -66 -52 -117 -130 -117c-87 0 -145 51 -145 168c0 123 64 177 147 177c58 0 111 -27 122 -92l-80 -10c-7 25 -23 36 -45 36
c-40 0 -59 -36 -62 -87c21 21 51 30 78 30c67 0 115 -39 115 -105zM18 0l165 301h89l-164 -301h-90zM456 55c30 0 50 21 50 49c0 30 -20 49 -50 49c-32 0 -51 -21 -51 -49s20 -49 51 -49z" />
    <glyph glyph-name="uni215A" unicode="&#x215a;" 
d="M298 479c0 -64 -44 -118 -136 -118c-70 0 -132 34 -141 90l85 13c5 -24 26 -37 55 -37c32 0 52 18 52 48c0 31 -21 44 -51 44c-26 0 -48 -8 -65 -24l-60 28l28 177h208v-69h-145l-11 -65c17 10 37 17 64 17c77 0 117 -46 117 -104zM348 399l164 301h90l-165 -301h-89z
M589 110c0 -66 -52 -117 -130 -117c-87 0 -145 51 -145 168c0 123 64 177 147 177c58 0 111 -27 122 -92l-80 -10c-7 25 -23 36 -45 36c-40 0 -59 -36 -62 -87c21 21 51 30 78 30c67 0 115 -39 115 -105zM18 0l165 301h89l-164 -301h-90zM456 55c30 0 50 21 50 49
c0 30 -20 49 -50 49c-32 0 -51 -21 -51 -49s20 -49 51 -49z" />
    <glyph glyph-name="uni215B" unicode="&#x215b;" 
d="M348 399l164 301h90l-165 -301h-89zM44 436h92v149c-12 -4 -24 -5 -38 -5h-59v67h58c45 0 48 38 48 53h76v-264h77v-69h-254v69zM590 94c0 -56 -51 -101 -141 -101c-93 0 -142 45 -142 101c0 31 14 64 59 81c-37 17 -47 47 -47 72c0 49 45 91 130 91s129 -42 129 -91
c0 -25 -10 -54 -46 -71c46 -18 58 -51 58 -82zM18 0l165 301h89l-164 -301h-90zM449 203c33 0 46 20 46 37c0 24 -19 38 -46 38c-29 0 -47 -14 -47 -38c0 -17 13 -37 47 -37zM449 144c-40 0 -57 -21 -57 -45c0 -25 17 -45 57 -45c38 0 56 20 56 45c0 24 -18 45 -56 45z" />
    <glyph glyph-name="uni215C" unicode="&#x215c;" 
d="M165 507h-28v60h22c29 0 39 20 39 38c0 22 -17 32 -40 32c-28 0 -55 -16 -53 -60l-77 16c1 77 63 114 136 114c78 0 121 -40 121 -91c0 -27 -12 -55 -43 -72c38 -14 54 -42 54 -76c0 -63 -52 -106 -132 -106c-68 0 -144 32 -142 113l84 14c-2 -44 25 -58 54 -58
c28 0 50 14 50 42c0 17 -11 34 -45 34zM348 399l164 301h90l-165 -301h-89zM590 94c0 -56 -51 -101 -141 -101c-93 0 -142 45 -142 101c0 31 14 64 59 81c-37 17 -47 47 -47 72c0 49 45 91 130 91s129 -42 129 -91c0 -25 -10 -54 -46 -71c46 -18 58 -51 58 -82zM18 0
l165 301h89l-164 -301h-90zM449 203c33 0 46 20 46 37c0 24 -19 38 -46 38c-29 0 -47 -14 -47 -38c0 -17 13 -37 47 -37zM449 144c-40 0 -57 -21 -57 -45c0 -25 17 -45 57 -45c38 0 56 20 56 45c0 24 -18 45 -56 45z" />
    <glyph glyph-name="uni215D" unicode="&#x215d;" 
d="M348 399l164 301h90l-165 -301h-89zM298 479c0 -64 -44 -118 -136 -118c-70 0 -132 34 -141 90l85 13c5 -24 26 -37 55 -37c32 0 52 18 52 48c0 31 -21 44 -51 44c-26 0 -48 -8 -65 -24l-60 28l28 177h208v-69h-145l-11 -65c17 10 37 17 64 17c77 0 117 -46 117 -104z
M590 94c0 -56 -51 -101 -141 -101c-93 0 -142 45 -142 101c0 31 14 64 59 81c-37 17 -47 47 -47 72c0 49 45 91 130 91s129 -42 129 -91c0 -25 -10 -54 -46 -71c46 -18 58 -51 58 -82zM18 0l165 301h89l-164 -301h-90zM449 203c33 0 46 20 46 37c0 24 -19 38 -46 38
c-29 0 -47 -14 -47 -38c0 -17 13 -37 47 -37zM449 144c-40 0 -57 -21 -57 -45c0 -25 17 -45 57 -45c38 0 56 20 56 45c0 24 -18 45 -56 45z" />
    <glyph glyph-name="uni215E" unicode="&#x215e;" 
d="M31 585v115h273v-57c-80 -79 -108 -124 -108 -229v-47h-85v47c0 93 32 154 91 215h-97v-44h-74zM348 399l164 301h90l-165 -301h-89zM590 94c0 -56 -51 -101 -141 -101c-93 0 -142 45 -142 101c0 31 14 64 59 81c-37 17 -47 47 -47 72c0 49 45 91 130 91s129 -42 129 -91
c0 -25 -10 -54 -46 -71c46 -18 58 -51 58 -82zM18 0l165 301h89l-164 -301h-90zM449 203c33 0 46 20 46 37c0 24 -19 38 -46 38c-29 0 -47 -14 -47 -38c0 -17 13 -37 47 -37zM449 144c-40 0 -57 -21 -57 -45c0 -25 17 -45 57 -45c38 0 56 20 56 45c0 24 -18 45 -56 45z" />
    <glyph glyph-name="uni215F" unicode="&#x215f;" 
d="M348 399l164 301h90l-165 -301h-89zM44 436h92v149c-12 -4 -24 -5 -38 -5h-59v67h58c45 0 48 38 48 53h76v-264h77v-69h-254v69zM18 0l165 301h89l-164 -301h-90z" />
    <glyph glyph-name="uni2460" unicode="&#x2460;" 
d="M309 615c146 0 266 -120 266 -264c0 -147 -120 -266 -266 -266c-145 0 -264 119 -264 266c0 144 119 264 264 264zM309 550c-110 0 -195 -90 -195 -199c0 -112 85 -201 195 -201c111 0 197 89 197 201c0 109 -86 199 -197 199zM207 269h76v123c-9 -4 -20 -5 -31 -5h-49
v55h49c37 0 39 32 39 44h62v-217h64v-57h-210v57z" />
    <glyph glyph-name="uni2461" unicode="&#x2461;" 
d="M309 615c146 0 266 -120 266 -264c0 -147 -120 -266 -266 -266c-145 0 -264 119 -264 266c0 144 119 264 264 264zM309 550c-110 0 -195 -90 -195 -199c0 -112 85 -201 195 -201c111 0 197 89 197 201c0 109 -86 199 -197 199zM420 269v-57h-219v53l95 81
c24 21 41 37 41 59c0 15 -10 28 -31 28c-20 0 -42 -12 -38 -54l-70 9c-2 75 54 103 110 103c70 0 102 -39 102 -82c0 -42 -29 -75 -67 -104l-46 -36h123z" />
    <glyph glyph-name="uni2462" unicode="&#x2462;" 
d="M309 615c146 0 266 -120 266 -264c0 -147 -120 -266 -266 -266c-145 0 -264 119 -264 266c0 144 119 264 264 264zM309 550c-110 0 -195 -90 -195 -199c0 -112 85 -201 195 -201c111 0 197 89 197 201c0 109 -86 199 -197 199zM312 327h-23v49h18c24 0 31 17 31 31
c0 19 -14 27 -33 27c-22 0 -44 -13 -43 -50l-64 14c2 63 53 93 112 93c65 0 100 -33 100 -75c0 -22 -9 -45 -35 -59c31 -11 44 -34 44 -62c0 -52 -42 -88 -109 -88c-56 0 -118 26 -117 93l70 11c-2 -36 21 -47 44 -47c24 0 41 11 41 34c0 15 -8 29 -36 29z" />
    <glyph glyph-name="uni2463" unicode="&#x2463;" 
d="M309 615c146 0 266 -120 266 -264c0 -147 -120 -266 -266 -266c-145 0 -264 119 -264 266c0 144 119 264 264 264zM309 550c-110 0 -195 -90 -195 -199c0 -112 85 -201 195 -201c111 0 197 89 197 201c0 109 -86 199 -197 199zM170 319l114 167h95v-162h39v-57h-39v-55
h-70v55h-139v52zM309 324v102l-69 -102h69z" />
    <glyph glyph-name="uni2464" unicode="&#x2464;" 
d="M309 615c146 0 266 -120 266 -264c0 -147 -120 -266 -266 -266c-145 0 -264 119 -264 266c0 144 119 264 264 264zM309 550c-110 0 -195 -90 -195 -199c0 -112 85 -201 195 -201c111 0 197 89 197 201c0 109 -86 199 -197 199zM419 304c0 -52 -36 -97 -112 -97
c-58 0 -108 28 -116 74l70 11c4 -20 22 -31 45 -31c26 0 43 15 43 40s-17 36 -42 36c-22 0 -39 -7 -53 -20l-50 24l23 145h171v-56h-119l-9 -54c14 8 31 14 53 14c63 0 96 -38 96 -86z" />
    <glyph glyph-name="uni2465" unicode="&#x2465;" 
d="M309 615c146 0 266 -120 266 -264c0 -147 -120 -266 -266 -266c-145 0 -264 119 -264 266c0 144 119 264 264 264zM309 550c-110 0 -195 -90 -195 -199c0 -112 85 -201 195 -201c111 0 197 89 197 201c0 109 -86 199 -197 199zM417 303c0 -54 -42 -96 -107 -96
c-72 0 -119 42 -119 138c0 102 52 146 121 146c47 0 91 -22 101 -76l-66 -8c-7 21 -19 30 -37 30c-34 0 -49 -30 -51 -72c16 17 42 25 63 25c56 0 95 -32 95 -87zM308 258c25 0 41 18 41 41c0 24 -16 40 -41 40c-26 0 -42 -17 -42 -40s16 -41 42 -41z" />
    <glyph glyph-name="uni2466" unicode="&#x2466;" 
d="M309 615c146 0 266 -120 266 -264c0 -147 -120 -266 -266 -266c-145 0 -264 119 -264 266c0 144 119 264 264 264zM309 550c-110 0 -195 -90 -195 -199c0 -112 85 -201 195 -201c111 0 197 89 197 201c0 109 -86 199 -197 199zM198 391v95h225v-46
c-65 -66 -89 -103 -89 -189v-39h-70v39c0 77 27 127 76 177h-81v-37h-61z" />
    <glyph glyph-name="uni2467" unicode="&#x2467;" 
d="M309 615c146 0 266 -120 266 -264c0 -147 -120 -266 -266 -266c-145 0 -264 119 -264 266c0 144 119 264 264 264zM309 550c-110 0 -195 -90 -195 -199c0 -112 85 -201 195 -201c111 0 197 89 197 201c0 109 -86 199 -197 199zM425 290c0 -46 -41 -83 -116 -83
c-76 0 -116 37 -116 83c0 26 11 53 48 67c-31 14 -38 38 -38 59c0 40 37 75 106 75c70 0 106 -35 106 -75c0 -21 -7 -44 -37 -58c37 -15 47 -42 47 -68zM309 380c27 0 39 17 39 31c0 19 -17 31 -39 31c-23 0 -38 -12 -38 -31c0 -14 11 -31 38 -31zM309 332
c-32 0 -46 -18 -46 -37c0 -21 14 -37 46 -37s46 16 46 37c0 19 -14 37 -46 37z" />
    <glyph glyph-name="uni2468" unicode="&#x2468;" 
d="M309 615c146 0 266 -120 266 -264c0 -147 -120 -266 -266 -266c-145 0 -264 119 -264 266c0 144 119 264 264 264zM309 550c-110 0 -195 -90 -195 -199c0 -112 85 -201 195 -201c111 0 197 89 197 201c0 109 -86 199 -197 199zM198 395c0 54 42 96 107 96
c72 0 119 -42 119 -138c0 -101 -52 -146 -121 -146c-47 0 -91 23 -100 76l65 8c7 -20 19 -29 37 -29c34 0 49 29 52 71c-17 -17 -42 -24 -64 -24c-55 0 -95 32 -95 86zM308 440c-26 0 -42 -17 -42 -40c0 -25 16 -40 42 -40c25 0 42 17 42 40s-17 40 -42 40z" />
    <glyph glyph-name="uni24EA" unicode="&#x24ea;" 
d="M309 615c146 0 266 -120 266 -264c0 -147 -120 -266 -266 -266c-145 0 -264 119 -264 266c0 144 119 264 264 264zM309 550c-110 0 -195 -90 -195 -199c0 -112 85 -201 195 -201c111 0 197 89 197 201c0 109 -86 199 -197 199zM309 207c-77 0 -112 59 -112 142
c0 84 37 142 112 142c78 0 114 -58 114 -142c0 -83 -37 -142 -114 -142zM309 264c35 0 44 31 44 85s-9 86 -44 86c-33 0 -43 -32 -43 -86s10 -85 43 -85z" />
    <glyph glyph-name="uni24FF" unicode="&#x24ff;" 
d="M311 615c145 0 264 -120 264 -264c0 -147 -119 -266 -264 -266c-146 0 -266 119 -266 266c0 144 120 264 266 264zM309 207c77 0 114 59 114 142c0 84 -36 142 -114 142c-75 0 -112 -58 -112 -142c0 -83 35 -142 112 -142zM309 264c-33 0 -43 31 -43 85s10 86 43 86
c35 0 44 -32 44 -86s-9 -85 -44 -85z" />
    <glyph glyph-name="uni2776" unicode="&#x2776;" 
d="M311 615c145 0 264 -120 264 -264c0 -147 -119 -266 -264 -266c-146 0 -266 119 -266 266c0 144 120 264 266 264zM207 269v-57h210v57h-64v217h-62c0 -12 -2 -44 -39 -44h-49v-55h49c11 0 22 1 31 5v-123h-76z" />
    <glyph glyph-name="uni2777" unicode="&#x2777;" 
d="M311 615c145 0 264 -120 264 -264c0 -147 -119 -266 -264 -266c-146 0 -266 119 -266 266c0 144 120 264 266 264zM420 269h-123l46 36c38 29 67 62 67 104c0 43 -32 82 -102 82c-56 0 -112 -28 -110 -103l70 -9c-4 42 18 54 38 54c21 0 31 -13 31 -28
c0 -22 -17 -38 -41 -59l-95 -81v-53h219v57z" />
    <glyph glyph-name="uni2778" unicode="&#x2778;" 
d="M311 615c145 0 264 -120 264 -264c0 -147 -119 -266 -264 -266c-146 0 -266 119 -266 266c0 144 120 264 266 264zM312 327c28 0 36 -14 36 -29c0 -23 -17 -34 -41 -34c-23 0 -46 11 -44 47l-70 -11c-1 -67 61 -93 117 -93c67 0 109 36 109 88c0 28 -13 51 -44 62
c26 14 35 37 35 59c0 42 -35 75 -100 75c-59 0 -110 -30 -112 -93l64 -14c-1 37 21 50 43 50c19 0 33 -8 33 -27c0 -14 -7 -31 -31 -31h-18v-49h23z" />
    <glyph glyph-name="uni2779" unicode="&#x2779;" 
d="M311 615c145 0 264 -120 264 -264c0 -147 -119 -266 -264 -266c-146 0 -266 119 -266 266c0 144 120 264 266 264zM170 319v-52h139v-55h70v55h39v57h-39v162h-95zM309 324h-69l69 102v-102z" />
    <glyph glyph-name="uni277A" unicode="&#x277a;" 
d="M311 615c145 0 264 -120 264 -264c0 -147 -119 -266 -264 -266c-146 0 -266 119 -266 266c0 144 120 264 266 264zM419 304c0 48 -33 86 -96 86c-22 0 -39 -6 -53 -14l9 54h119v56h-171l-23 -145l50 -24c14 13 31 20 53 20c25 0 42 -11 42 -36s-17 -40 -43 -40
c-23 0 -41 11 -45 31l-70 -11c8 -46 58 -74 116 -74c76 0 112 45 112 97z" />
    <glyph glyph-name="uni277B" unicode="&#x277b;" 
d="M311 615c145 0 264 -120 264 -264c0 -147 -119 -266 -264 -266c-146 0 -266 119 -266 266c0 144 120 264 266 264zM417 303c0 55 -39 87 -95 87c-21 0 -47 -8 -63 -25c2 42 17 72 51 72c18 0 30 -9 37 -30l66 8c-10 54 -54 76 -101 76c-69 0 -121 -44 -121 -146
c0 -96 47 -138 119 -138c65 0 107 42 107 96zM308 258c-26 0 -42 18 -42 41s16 40 42 40c25 0 41 -16 41 -40c0 -23 -16 -41 -41 -41z" />
    <glyph glyph-name="uni277C" unicode="&#x277c;" 
d="M311 615c145 0 264 -120 264 -264c0 -147 -119 -266 -264 -266c-146 0 -266 119 -266 266c0 144 120 264 266 264zM198 391h61v37h81c-49 -50 -76 -100 -76 -177v-39h70v39c0 86 24 123 89 189v46h-225v-95z" />
    <glyph glyph-name="uni277D" unicode="&#x277d;" 
d="M311 615c145 0 264 -120 264 -264c0 -147 -119 -266 -264 -266c-146 0 -266 119 -266 266c0 144 120 264 266 264zM425 290c0 26 -10 53 -47 68c30 14 37 37 37 58c0 40 -36 75 -106 75c-69 0 -106 -35 -106 -75c0 -21 7 -45 38 -59c-37 -14 -48 -41 -48 -67
c0 -46 40 -83 116 -83c75 0 116 37 116 83zM309 380c-27 0 -38 17 -38 31c0 19 15 31 38 31c22 0 39 -12 39 -31c0 -14 -12 -31 -39 -31zM309 332c32 0 46 -18 46 -37c0 -21 -14 -37 -46 -37s-46 16 -46 37c0 19 14 37 46 37z" />
    <glyph glyph-name="uni277E" unicode="&#x277e;" 
d="M311 615c145 0 264 -120 264 -264c0 -147 -119 -266 -264 -266c-146 0 -266 119 -266 266c0 144 120 264 266 264zM198 395c0 -54 40 -86 95 -86c22 0 47 7 64 24c-3 -42 -18 -71 -52 -71c-18 0 -30 9 -37 29l-65 -8c9 -53 53 -76 100 -76c69 0 121 45 121 146
c0 96 -47 138 -119 138c-65 0 -107 -42 -107 -96zM308 440c25 0 42 -17 42 -40s-17 -40 -42 -40c-26 0 -42 15 -42 40c0 23 16 40 42 40z" />
    <glyph glyph-name="uni2113" unicode="&#x2113;" 
d="M117 188l-48 89l109 64v179c0 118 69 192 178 192c94 0 153 -64 153 -149c0 -106 -71 -181 -179 -253l-21 -14v-123c0 -33 9 -65 55 -65h123v-108h-143c-123 0 -166 66 -166 168v55zM309 543v-120c54 40 87 78 87 140c0 28 -15 47 -41 47c-29 0 -46 -23 -46 -67z" />
    <glyph glyph-name="arrowleft" unicode="&#x2190;" 
d="M238 77l-47 121c-37 94 -114 98 -176 98v107c62 0 139 6 176 100l47 121h116l-46 -125c-13 -35 -28 -65 -52 -89h349v-121h-347c23 -22 37 -52 50 -87l46 -125h-116z" />
    <glyph glyph-name="arrowup" unicode="&#x2191;" 
d="M37 438l121 47c95 37 100 114 100 176h107c0 -62 3 -139 98 -176l121 -47v-116l-125 46c-35 13 -64 27 -87 50v-377h-121v379c-23 -24 -54 -39 -89 -52l-125 -46v116z" />
    <glyph glyph-name="arrowright" unicode="&#x2192;" 
d="M382 77h-116l46 125c13 35 27 65 50 87h-347v121h349c-24 24 -39 54 -52 89l-46 125h116l47 -121c37 -94 114 -100 176 -100v-107c-62 0 -139 -4 -176 -98z" />
    <glyph glyph-name="arrowdown" unicode="&#x2193;" 
d="M37 262v116l125 -46c35 -13 66 -28 89 -52v379h121v-377c23 23 52 37 87 50l125 46v-116l-121 -47c-95 -37 -98 -114 -98 -176h-107c0 62 -5 139 -100 176z" />
    <glyph glyph-name="uni2215" unicode="&#x2215;" 
d="M348 399l164 301h90l-165 -301h-89zM18 0l165 301h89l-164 -301h-90z" />
    <glyph glyph-name="uni2219" unicode="&#x2219;" 
d="M187 484h248v-249h-248v249z" />
    <glyph glyph-name="franc" unicode="&#x20a3;" 
d="M43 700h283v-118h-150v-180h110v-118h-110v-284h-133v700zM333 506h118v-78c30 50 71 78 126 78h20v-120h-25c-72 0 -115 -53 -115 -169v-217h-124v506z" />
    <glyph glyph-name="Euro" unicode="&#x20ac;" 
d="M26 232v83h52c-1 11 -1 23 -1 35v23h-51v83h59c25 156 111 256 260 256c141 0 227 -85 250 -243l-138 -21c-14 87 -42 144 -110 144c-69 0 -106 -52 -120 -136h114v-83h-122v-23c0 -12 0 -24 1 -35h121v-83h-112c16 -77 52 -124 117 -124c68 0 97 63 110 136l134 -20
c-24 -148 -110 -236 -246 -236c-147 0 -230 95 -257 244h-61z" />
    <glyph glyph-name="estimated" unicode="&#x212e;" 
d="M311 51c77 0 136 45 185 114l48 -39c-59 -82 -137 -138 -234 -138c-160 0 -286 162 -286 362c0 203 126 362 286 362s286 -143 286 -390h-413v-208c37 -40 77 -63 128 -63zM310 647c-51 0 -92 -20 -127 -59v-199h250v203c-34 35 -71 55 -123 55z" />
    <glyph glyph-name="uni2196" unicode="&#x2196;" 
d="M53 219l52 119c41 94 -11 150 -55 194l75 76c44 -44 103 -96 195 -55l119 53l82 -81l-121 -56c-34 -16 -66 -27 -99 -27l269 -269l-86 -86l-267 268c-1 -32 -12 -63 -27 -96l-56 -122z" />
    <glyph glyph-name="uni2197" unicode="&#x2197;" 
d="M567 219l-81 -82l-56 122c-15 33 -26 64 -27 96l-267 -268l-86 86l269 269c-33 0 -65 11 -99 27l-121 56l82 81l119 -53c92 -41 151 11 195 55l75 -76c-44 -44 -96 -100 -55 -194z" />
    <glyph glyph-name="uni2198" unicode="&#x2198;" 
d="M567 482l-52 -119c-41 -94 11 -150 55 -194l-75 -76c-44 44 -103 96 -195 55l-119 -53l-82 81l121 56c34 16 66 27 99 27l-269 269l86 86l267 -268c1 32 12 63 27 96l56 122z" />
    <glyph glyph-name="uni2199" unicode="&#x2199;" 
d="M53 481l81 82l56 -122c15 -33 26 -64 27 -96l267 268l86 -86l-269 -269c33 0 65 -11 99 -27l121 -56l-82 -81l-119 53c-92 41 -151 -11 -195 -55l-75 76c44 44 96 100 55 194z" />
    <glyph glyph-name="circleblack" unicode="&#x25cf;" 
d="M311 615c145 0 264 -120 264 -264c0 -147 -119 -266 -264 -266c-146 0 -266 119 -266 266c0 144 120 264 266 264z" />
    <glyph glyph-name="circlehalfleftblack" unicode="&#x25d0;" 
d="M309 615c146 0 266 -120 266 -264c0 -147 -120 -266 -266 -266c-145 0 -264 119 -264 266c0 144 119 264 264 264zM309 550v-400c111 0 197 89 197 201c0 109 -86 199 -197 199z" />
    <glyph glyph-name="circlehalfrightblack" unicode="&#x25d1;" 
d="M311 615c145 0 264 -120 264 -264c0 -147 -119 -266 -264 -266c-146 0 -266 119 -266 266c0 144 120 264 266 264zM311 550c-111 0 -197 -90 -197 -199c0 -112 86 -201 197 -201v400z" />
    <glyph glyph-name="starblack" unicode="&#x2605;" 
d="M309 642l83 -207h223l-187 -133l89 -244l-208 139l-207 -139l90 244l-186 133h223z" />
    <glyph glyph-name="starwhite" unicode="&#x2606;" 
d="M309 642l83 -207h223l-187 -133l89 -244l-208 139l-207 -139l90 244l-186 133h223zM309 273l93 -61l-43 113l82 56h-92l-40 95l-37 -95h-93l81 -56l-41 -113z" />
    <glyph glyph-name="checkbox" unicode="&#x2610;" 
d="M67 107v485h486v-485h-486zM138 174h344v351h-344v-351z" />
    <glyph glyph-name="checkboxchekced" unicode="&#x2611;" 
d="M186 386l65 29l42 -88l182 409h76l-66 -144h68v-485h-486v485h290l-29 -67h-190v-351h344v351h-27l-131 -289h-63z" />
    <glyph glyph-name="peace" unicode="&#x262e;" 
d="M309 615c146 0 266 -120 266 -264c0 -147 -120 -266 -266 -266c-145 0 -264 119 -264 266c0 144 119 264 264 264zM115 351c0 -35 8 -67 22 -96l139 139v153c-93 -16 -161 -98 -161 -196zM345 393l137 -137c15 28 23 60 23 95c0 97 -67 179 -160 196v-154zM276 304
l-100 -100c27 -27 61 -45 100 -51v151zM345 303v-150c38 7 72 25 99 51z" />
    <glyph glyph-name="frowningfacewhite" unicode="&#x2639;" 
d="M309 615c146 0 266 -120 266 -264c0 -147 -120 -266 -266 -266c-145 0 -264 119 -264 266c0 144 119 264 264 264zM309 550c-110 0 -195 -90 -195 -199c0 -112 85 -201 195 -201c111 0 197 89 197 201c0 109 -86 199 -197 199zM228 356c-28 0 -52 23 -52 52
c0 28 24 52 52 52s50 -24 50 -52c0 -29 -22 -52 -50 -52zM393 356c-29 0 -52 23 -52 52c0 28 23 52 52 52c28 0 51 -24 51 -52c0 -29 -23 -52 -51 -52zM310 323c63 0 110 -36 129 -73l-48 -33c-18 30 -39 50 -81 50s-63 -20 -81 -50l-48 33c19 37 66 73 129 73z" />
    <glyph glyph-name="smilingfacewhite" unicode="&#x263a;" 
d="M309 615c146 0 266 -120 266 -264c0 -147 -120 -266 -266 -266c-145 0 -264 119 -264 266c0 144 119 264 264 264zM309 550c-110 0 -195 -90 -195 -199c0 -112 85 -201 195 -201c111 0 197 89 197 201c0 109 -86 199 -197 199zM228 356c-28 0 -52 23 -52 52
c0 28 24 52 52 52s50 -24 50 -52c0 -29 -22 -52 -50 -52zM393 356c-29 0 -52 23 -52 52c0 28 23 52 52 52c28 0 51 -24 51 -52c0 -29 -23 -52 -51 -52zM310 203c-63 0 -110 36 -129 74l48 32c18 -29 39 -49 81 -49s63 20 81 49l48 -32c-19 -38 -66 -74 -129 -74z" />
    <glyph glyph-name="smilingfaceblack" unicode="&#x263b;" 
d="M309 615c146 0 266 -120 266 -264c0 -147 -120 -266 -266 -266c-145 0 -264 119 -264 266c0 144 119 264 264 264zM228 356c28 0 50 23 50 52c0 28 -22 52 -50 52s-52 -24 -52 -52c0 -29 24 -52 52 -52zM393 356c28 0 51 23 51 52c0 28 -23 52 -51 52
c-29 0 -52 -24 -52 -52c0 -29 23 -52 52 -52zM310 195c63 0 110 36 129 74l-48 32c-18 -29 -39 -50 -81 -50s-63 21 -81 50l-48 -32c19 -38 66 -74 129 -74z" />
    <glyph glyph-name="heartblack" unicode="&#x2665;" 
d="M310 102c-127 63 -266 203 -266 342c0 60 28 146 135 146c51 0 100 -26 131 -78c31 52 80 78 131 78c107 0 135 -86 135 -146c0 -139 -139 -279 -266 -342z" />
    <glyph glyph-name="flagwhite" unicode="&#x2690;" 
d="M67 594h71v-43c31 14 65 25 108 25c107 -1 137 -51 307 -51v-311c-139 -6 -198 51 -307 52c-38 -1 -77 -14 -108 -30v-176h-71v534zM246 332c88 -1 140 -39 236 -49v178c-96 5 -151 48 -236 49c-40 -1 -77 -15 -108 -29v-173c31 13 66 24 108 24z" />
    <glyph glyph-name="flagblack" unicode="&#x2691;" 
d="M67 594h71v-43c31 14 65 25 108 25c107 -1 137 -51 307 -51v-311c-139 -6 -198 51 -307 52c-38 -1 -77 -14 -108 -30v-176h-71v534z" />
    <glyph glyph-name="dngb:spokedasteriskeight" unicode="&#x2733;" 
d="M117 200l120 120h-170v59h170l-120 120l44 44l118 -118v167h62v-168l119 119l44 -44l-120 -120h169v-59h-169l120 -120l-44 -44l-119 119v-168h-62v167l-118 -118z" />
    <glyph glyph-name="uni2B1B" unicode="&#x2b1b;" 
d="M67 107v485h486v-485h-486z" />
    <glyph glyph-name="uni2B55" unicode="&#x2b55;" 
d="M309 615c146 0 266 -120 266 -264c0 -147 -120 -266 -266 -266c-145 0 -264 119 -264 266c0 144 119 264 264 264zM309 550c-110 0 -195 -90 -195 -199c0 -112 85 -201 195 -201c111 0 197 89 197 201c0 109 -86 199 -197 199z" />
    <glyph glyph-name="uni00AD" unicode="&#xad;" 
d="M127 330h366v-113h-366v113z" />
    <glyph glyph-name="commaaccent" unicode="&#xf6c3;" 
d="M279 -64h108l-52 -167h-102z" />
    <glyph glyph-name="uniF8FF" unicode="&#xf8ff;" 
d="M555 321h-491v18h491v-18zM281 240h-12v18h12v21h22v-21h13v-18h-13v-59h-22v59zM423 258l1 -6c4 4 10 8 19 8c17 0 26 -11 26 -30v-20c0 -19 -9 -31 -26 -31c-8 0 -13 3 -17 7v-35h-22v107h19zM173 181h-22v77h18l1 -6c4 4 11 8 19 8c11 0 17 -4 21 -12c5 8 12 12 21 12
c18 0 26 -11 26 -28v-51h-22v49c0 6 -3 11 -10 11c-6 0 -10 -4 -10 -10v-50h-22v49c0 6 -3 11 -10 11c-6 0 -10 -5 -10 -11v-49zM114 208h22c0 -18 -13 -29 -32 -29c-18 0 -32 12 -32 33v17c0 20 14 31 32 31c19 0 32 -11 32 -31v-13h-42v-7c0 -7 4 -12 10 -12
c7 0 10 4 10 11zM525 208h22c0 -17 -13 -28 -32 -28c-18 0 -32 12 -32 32v17c0 19 14 31 32 31c19 0 32 -12 32 -31v-13h-42v-7c0 -7 4 -12 10 -12c7 0 10 4 10 11zM392 258l-33 -107h-21l9 27l-25 80h24l12 -48l12 48h22zM94 232v-1h20v1c0 6 -3 11 -10 11
c-6 0 -10 -5 -10 -11zM505 232v-1h20v1c0 6 -3 11 -10 11c-6 0 -10 -5 -10 -11zM436 241c-6 0 -10 -5 -10 -11v-20c0 -6 4 -11 10 -11c7 0 11 5 11 11v20c0 6 -4 11 -11 11zM239 121h-14v10h14v21h12v-21h15v-10h-15v-67h-12v67zM200 81h12v-2c0 -16 -12 -26 -29 -26
s-29 11 -29 28v22c0 18 12 30 29 30s29 -12 29 -30v-12h-46v-10c0 -10 5 -17 17 -17s17 7 17 14v3zM87 54h-12v77h9l1 -9c5 7 13 11 22 11c17 0 27 -11 27 -29v-50h-12v50c0 10 -6 18 -18 18c-11 0 -17 -8 -17 -19v-49zM166 103v-2h34v2c0 11 -6 19 -17 19
c-12 0 -17 -8 -17 -19zM46 53c-4 0 -8 4 -8 8s4 8 8 8c5 0 8 -4 8 -8s-3 -8 -8 -8zM555 0h-491v8h491v-8z" />
    <glyph glyph-name="uni20B9" unicode="&#x20b9;" 
d="M68 244v109h150c60 0 98 32 113 78h-263v83h267c-12 44 -49 77 -117 77h-150v109h499v-83h-132c26 -29 41 -65 44 -103h88v-83h-96c-16 -52 -51 -97 -103 -123c64 -23 97 -68 102 -145l10 -163h-139l-10 161c-4 57 -38 83 -110 83h-153z" />
    <glyph glyph-name="u1F5F7" unicode="&#x1f5f7;" 
d="M67 107v485h486v-485h-486zM138 174h344v351h-344v-351zM202 192l-46 46l108 111l-108 111l48 46l106 -109l106 109l48 -46l-108 -111l108 -111l-46 -46l-108 110z" />
    <glyph glyph-name="u1F78B" unicode="&#x1f78b;" 
d="M310 615c145 0 265 -121 265 -265c0 -147 -120 -265 -265 -265s-265 118 -265 265c0 144 120 265 265 265zM310 561c-117 0 -206 -94 -206 -211s89 -211 206 -211s206 94 206 211s-89 211 -206 211zM310 508c87 0 158 -71 158 -158c0 -86 -71 -157 -158 -157
s-157 71 -157 157c0 87 70 158 157 158zM310 452c-57 0 -99 -45 -99 -102c0 -56 42 -102 99 -102s100 46 100 102c0 57 -43 102 -100 102zM310 297c-29 0 -53 24 -53 53c0 30 24 54 53 54c30 0 54 -24 54 -54c0 -29 -24 -53 -54 -53z" />
    <glyph glyph-name="zero.numerator" unicode="&#xf661;" 
d="M309 301c-111 0 -161 84 -161 203s53 203 161 203c111 0 163 -84 163 -203s-54 -203 -163 -203zM309 382c49 0 63 45 63 122s-14 122 -63 122c-48 0 -62 -45 -62 -122s14 -122 62 -122z" />
    <glyph glyph-name="one.numerator" unicode="&#xf662;" 
d="M162 389h108v176c-13 -5 -28 -7 -44 -7h-70v79h69c53 0 56 45 56 63h89v-311h91v-81h-299v81z" />
    <glyph glyph-name="two.numerator" unicode="&#xf663;" 
d="M468 389v-81h-313v76l137 115c35 29 58 53 58 85c0 21 -15 40 -44 40s-61 -18 -55 -78l-99 13c-4 107 76 148 157 148c99 0 145 -56 145 -118c0 -59 -43 -105 -96 -148l-65 -52h175z" />
    <glyph glyph-name="three.numerator" unicode="&#xf664;" 
d="M318 472h-33v70h26c34 0 45 24 45 45c0 26 -20 38 -47 38c-32 0 -64 -19 -62 -71l-91 19c2 90 75 134 160 134c92 0 143 -47 143 -107c0 -32 -14 -65 -51 -85c45 -16 64 -49 64 -89c0 -74 -61 -125 -156 -125c-80 0 -169 37 -167 133l99 16c-2 -52 30 -68 64 -68
c33 0 58 16 58 49c0 21 -12 41 -52 41z" />
    <glyph glyph-name="four.numerator" unicode="&#xf665;" 
d="M133 461l162 239h137v-232h55v-81h-55v-79h-100v79h-199v74zM332 468v145l-99 -145h99z" />
    <glyph glyph-name="five.numerator" unicode="&#xf666;" 
d="M473 440c0 -75 -52 -139 -160 -139c-83 0 -155 40 -166 106l100 15c6 -28 31 -44 65 -44c37 0 61 22 61 57c0 36 -25 52 -60 52c-31 0 -56 -10 -76 -29l-71 34l33 208h244v-81h-170l-13 -77c20 12 44 20 75 20c91 0 138 -54 138 -122z" />
    <glyph glyph-name="six.numerator" unicode="&#xf667;" 
d="M472 438c0 -77 -61 -137 -153 -137c-103 0 -171 60 -171 197c0 145 75 209 173 209c68 0 131 -32 144 -109l-94 -11c-9 29 -27 42 -53 42c-48 0 -70 -42 -73 -102c24 24 60 35 91 35c79 0 136 -46 136 -124zM315 374c36 0 59 25 59 58c0 35 -23 57 -59 57
c-37 0 -60 -24 -60 -57s24 -58 60 -58z" />
    <glyph glyph-name="seven.numerator" unicode="&#xf668;" 
d="M149 564v136h321v-67c-93 -93 -127 -146 -127 -270v-55h-100v55c0 110 38 182 108 253h-115v-52h-87z" />
    <glyph glyph-name="eight.numerator" unicode="&#xf669;" 
d="M476 420c0 -66 -59 -119 -166 -119c-109 0 -166 53 -166 119c0 36 16 75 69 95c-44 20 -55 55 -55 85c0 57 53 107 152 107c100 0 152 -50 152 -107c0 -30 -11 -64 -54 -84c54 -21 68 -60 68 -96zM310 548c39 0 55 24 55 44c0 28 -23 44 -55 44c-33 0 -55 -16 -55 -44
c0 -20 16 -44 55 -44zM310 479c-46 0 -66 -25 -66 -53c0 -30 20 -53 66 -53c45 0 66 23 66 53c0 28 -21 53 -66 53z" />
    <glyph glyph-name="nine.numerator" unicode="&#xf66a;" 
d="M148 570c0 77 61 137 153 137c103 0 171 -60 171 -197c0 -145 -75 -209 -173 -209c-68 0 -131 32 -144 109l94 11c9 -29 27 -42 53 -42c48 0 70 42 73 102c-24 -24 -60 -35 -91 -35c-79 0 -136 46 -136 124zM305 634c-36 0 -59 -25 -59 -58c0 -35 23 -57 59 -57
c37 0 60 24 60 57s-24 58 -60 58z" />
    <glyph glyph-name="zero.denominator" unicode="&#xf655;" 
d="M309 -7c-111 0 -161 84 -161 203s53 203 161 203c111 0 163 -84 163 -203s-54 -203 -163 -203zM309 74c49 0 63 45 63 122s-14 122 -63 122c-48 0 -62 -45 -62 -122s14 -122 62 -122z" />
    <glyph glyph-name="one.denominator" unicode="&#xf656;" 
d="M162 81h108v176c-13 -5 -28 -7 -44 -7h-70v79h69c53 0 56 45 56 63h89v-311h91v-81h-299v81z" />
    <glyph glyph-name="two.denominator" unicode="&#xf657;" 
d="M468 81v-81h-313v76l137 115c35 29 58 53 58 85c0 21 -15 40 -44 40s-61 -18 -55 -78l-99 13c-4 107 76 148 157 148c99 0 145 -56 145 -118c0 -59 -43 -105 -96 -148l-65 -52h175z" />
    <glyph glyph-name="three.denominator" unicode="&#xf658;" 
d="M318 164h-33v70h26c34 0 45 24 45 45c0 26 -20 38 -47 38c-32 0 -64 -19 -62 -71l-91 19c2 90 75 134 160 134c92 0 143 -47 143 -107c0 -32 -14 -65 -51 -85c45 -16 64 -49 64 -89c0 -74 -61 -125 -156 -125c-80 0 -169 37 -167 133l99 16c-2 -52 30 -68 64 -68
c33 0 58 16 58 49c0 21 -12 41 -52 41z" />
    <glyph glyph-name="four.denominator" unicode="&#xf659;" 
d="M133 153l162 239h137v-232h55v-81h-55v-79h-100v79h-199v74zM332 160v145l-99 -145h99z" />
    <glyph glyph-name="five.denominator" unicode="&#xf65a;" 
d="M473 132c0 -75 -52 -139 -160 -139c-83 0 -155 40 -166 106l100 15c6 -28 31 -44 65 -44c37 0 61 22 61 57c0 36 -25 52 -60 52c-31 0 -56 -10 -76 -29l-71 34l33 208h244v-81h-170l-13 -77c20 12 44 20 75 20c91 0 138 -54 138 -122z" />
    <glyph glyph-name="six.denominator" unicode="&#xf65b;" 
d="M472 130c0 -77 -61 -137 -153 -137c-103 0 -171 60 -171 197c0 145 75 209 173 209c68 0 131 -32 144 -109l-94 -11c-9 29 -27 42 -53 42c-48 0 -70 -42 -73 -102c24 24 60 35 91 35c79 0 136 -46 136 -124zM315 66c36 0 59 25 59 58c0 35 -23 57 -59 57
c-37 0 -60 -24 -60 -57s24 -58 60 -58z" />
    <glyph glyph-name="seven.denominator" unicode="&#xf65c;" 
d="M149 256v136h321v-67c-93 -93 -127 -146 -127 -270v-55h-100v55c0 110 38 182 108 253h-115v-52h-87z" />
    <glyph glyph-name="eight.denominator" unicode="&#xf65d;" 
d="M476 112c0 -66 -59 -119 -166 -119c-109 0 -166 53 -166 119c0 36 16 75 69 95c-44 20 -55 55 -55 85c0 57 53 107 152 107c100 0 152 -50 152 -107c0 -30 -11 -64 -54 -84c54 -21 68 -60 68 -96zM310 240c39 0 55 24 55 44c0 28 -23 44 -55 44c-33 0 -55 -16 -55 -44
c0 -20 16 -44 55 -44zM310 171c-46 0 -66 -25 -66 -53c0 -30 20 -53 66 -53c45 0 66 23 66 53c0 28 -21 53 -66 53z" />
    <glyph glyph-name="nine.denominator" unicode="&#xf65e;" 
d="M148 262c0 77 61 137 153 137c103 0 171 -60 171 -197c0 -145 -75 -209 -173 -209c-68 0 -131 32 -144 109l94 11c9 -29 27 -42 53 -42c48 0 70 42 73 102c-24 -24 -60 -35 -91 -35c-79 0 -136 46 -136 124zM305 326c-36 0 -59 -25 -59 -58c0 -35 23 -57 59 -57
c37 0 60 24 60 57s-24 58 -60 58z" />
    <glyph glyph-name="caron.salt" 
d="M273 700h103l-35 -174h-97z" />
    <glyph glyph-name="commaaccent.salt" 
d="M345 587h-116l60 149h102z" />
    <glyph glyph-name="acute.case" 
d="M299 926h119l-99 -155h-113z" />
    <glyph glyph-name="grave.case" 
d="M321 926l93 -155h-115l-97 155h119z" />
    <glyph glyph-name="hungarumlaut.case" 
d="M214 926h115l-99 -155h-108zM389 926h114l-107 -155h-110z" />
    <glyph glyph-name="circumflex.case" 
d="M249 926h122l108 -155h-115l-55 80l-55 -80h-113z" />
    <glyph glyph-name="caron.case" 
d="M371 771h-122l-108 155h115l55 -80l55 80h113z" />
    <glyph glyph-name="breve.case" 
d="M311 848c36 0 53 25 53 73h92c1 -71 -32 -155 -146 -155s-147 84 -146 155h94c0 -47 16 -73 53 -73z" />
    <glyph glyph-name="tilde.case" 
d="M360 882c16 0 22 6 22 30h85c1 -79 -17 -127 -81 -127c-51 0 -84 32 -119 32c-19 0 -27 -15 -28 -35h-86c2 70 23 129 94 129c51 0 87 -29 113 -29z" />
    <glyph glyph-name="macron.case" 
d="M181 797v92h258v-92h-258z" />
    <glyph glyph-name="dieresis.case" 
d="M159 774v129h121v-129h-121zM340 774v129h121v-129h-121z" />
    <glyph glyph-name="dotaccent.case" 
d="M241 774v129h138v-129h-138z" />
    <glyph glyph-name="ring.case" 
d="M310 991c80 0 126 -52 126 -113c0 -60 -45 -112 -126 -112c-82 0 -126 52 -126 112c0 61 44 113 126 113zM310 931c-35 0 -50 -24 -50 -52c0 -30 15 -53 50 -53c34 0 50 23 50 53c0 28 -16 52 -50 52z" />
    <glyph glyph-name="zero.inferior" unicode="&#x2080;" 
d="M309 -164c-111 0 -161 84 -161 203s53 203 161 203c111 0 163 -84 163 -203s-54 -203 -163 -203zM309 -83c49 0 63 45 63 122s-14 122 -63 122c-48 0 -62 -45 -62 -122s14 -122 62 -122z" />
    <glyph glyph-name="one.inferior" unicode="&#x2081;" 
d="M162 -76h108v176c-13 -5 -28 -7 -44 -7h-70v79h69c53 0 56 45 56 63h89v-311h91v-81h-299v81z" />
    <glyph glyph-name="two.inferior" unicode="&#x2082;" 
d="M468 -76v-81h-313v76l137 115c35 29 58 53 58 85c0 21 -15 40 -44 40s-61 -18 -55 -78l-99 13c-4 107 76 148 157 148c99 0 145 -56 145 -118c0 -59 -43 -105 -96 -148l-65 -52h175z" />
    <glyph glyph-name="three.inferior" unicode="&#x2083;" 
d="M318 7h-33v70h26c34 0 45 24 45 45c0 26 -20 38 -47 38c-32 0 -64 -19 -62 -71l-91 19c2 90 75 134 160 134c92 0 143 -47 143 -107c0 -32 -14 -65 -51 -85c45 -16 64 -49 64 -89c0 -74 -61 -125 -156 -125c-80 0 -169 37 -167 133l99 16c-2 -52 30 -68 64 -68
c33 0 58 16 58 49c0 21 -12 41 -52 41z" />
    <glyph glyph-name="four.inferior" unicode="&#x2084;" 
d="M133 -4l162 239h137v-232h55v-81h-55v-79h-100v79h-199v74zM332 3v145l-99 -145h99z" />
    <glyph glyph-name="five.inferior" unicode="&#x2085;" 
d="M473 -25c0 -75 -52 -139 -160 -139c-83 0 -155 40 -166 106l100 15c6 -28 31 -44 65 -44c37 0 61 22 61 57c0 36 -25 52 -60 52c-31 0 -56 -10 -76 -29l-71 34l33 208h244v-81h-170l-13 -77c20 12 44 20 75 20c91 0 138 -54 138 -122z" />
    <glyph glyph-name="six.inferior" unicode="&#x2086;" 
d="M472 -27c0 -77 -61 -137 -153 -137c-103 0 -171 60 -171 197c0 145 75 209 173 209c68 0 131 -32 144 -109l-94 -11c-9 29 -27 42 -53 42c-48 0 -70 -42 -73 -102c24 24 60 35 91 35c79 0 136 -46 136 -124zM315 -91c36 0 59 25 59 58c0 35 -23 57 -59 57
c-37 0 -60 -24 -60 -57s24 -58 60 -58z" />
    <glyph glyph-name="seven.inferior" unicode="&#x2087;" 
d="M149 99v136h321v-67c-93 -93 -127 -146 -127 -270v-55h-100v55c0 110 38 182 108 253h-115v-52h-87z" />
    <glyph glyph-name="eight.inferior" unicode="&#x2088;" 
d="M476 -45c0 -66 -59 -119 -166 -119c-109 0 -166 53 -166 119c0 36 16 75 69 95c-44 20 -55 55 -55 85c0 57 53 107 152 107c100 0 152 -50 152 -107c0 -30 -11 -64 -54 -84c54 -21 68 -60 68 -96zM310 83c39 0 55 24 55 44c0 28 -23 44 -55 44c-33 0 -55 -16 -55 -44
c0 -20 16 -44 55 -44zM310 14c-46 0 -66 -25 -66 -53c0 -30 20 -53 66 -53c45 0 66 23 66 53c0 28 -21 53 -66 53z" />
    <glyph glyph-name="nine.inferior" unicode="&#x2089;" 
d="M148 105c0 77 61 137 153 137c103 0 171 -60 171 -197c0 -145 -75 -209 -173 -209c-68 0 -131 32 -144 109l94 11c9 -29 27 -42 53 -42c48 0 70 42 73 102c-24 -24 -60 -35 -91 -35c-79 0 -136 46 -136 124zM305 169c-36 0 -59 -25 -59 -58c0 -35 23 -57 59 -57
c37 0 60 24 60 57s-24 58 -60 58z" />
    <glyph glyph-name="zero.superior" unicode="&#x2070;" 
d="M309 458c-111 0 -161 84 -161 203s53 203 161 203c111 0 163 -84 163 -203s-54 -203 -163 -203zM309 539c49 0 63 45 63 122s-14 122 -63 122c-48 0 -62 -45 -62 -122s14 -122 62 -122z" />
    <glyph glyph-name="four.superior" unicode="&#x2074;" 
d="M133 618l162 239h137v-232h55v-81h-55v-79h-100v79h-199v74zM332 625v145l-99 -145h99z" />
    <glyph glyph-name="five.superior" unicode="&#x2075;" 
d="M473 597c0 -75 -52 -139 -160 -139c-83 0 -155 40 -166 106l100 15c6 -28 31 -44 65 -44c37 0 61 22 61 57c0 36 -25 52 -60 52c-31 0 -56 -10 -76 -29l-71 34l33 208h244v-81h-170l-13 -77c20 12 44 20 75 20c91 0 138 -54 138 -122z" />
    <glyph glyph-name="six.superior" unicode="&#x2076;" 
d="M472 595c0 -77 -61 -137 -153 -137c-103 0 -171 60 -171 197c0 145 75 209 173 209c68 0 131 -32 144 -109l-94 -11c-9 29 -27 42 -53 42c-48 0 -70 -42 -73 -102c24 24 60 35 91 35c79 0 136 -46 136 -124zM315 531c36 0 59 25 59 58c0 35 -23 57 -59 57
c-37 0 -60 -24 -60 -57s24 -58 60 -58z" />
    <glyph glyph-name="seven.superior" unicode="&#x2077;" 
d="M149 721v136h321v-67c-93 -93 -127 -146 -127 -270v-55h-100v55c0 110 38 182 108 253h-115v-52h-87z" />
    <glyph glyph-name="eight.superior" unicode="&#x2078;" 
d="M476 577c0 -66 -59 -119 -166 -119c-109 0 -166 53 -166 119c0 36 16 75 69 95c-44 20 -55 55 -55 85c0 57 53 107 152 107c100 0 152 -50 152 -107c0 -30 -11 -64 -54 -84c54 -21 68 -60 68 -96zM310 705c39 0 55 24 55 44c0 28 -23 44 -55 44c-33 0 -55 -16 -55 -44
c0 -20 16 -44 55 -44zM310 636c-46 0 -66 -25 -66 -53c0 -30 20 -53 66 -53c45 0 66 23 66 53c0 28 -21 53 -66 53z" />
    <glyph glyph-name="nine.superior" unicode="&#x2079;" 
d="M148 727c0 77 61 137 153 137c103 0 171 -60 171 -197c0 -145 -75 -209 -173 -209c-68 0 -131 32 -144 109l94 11c9 -29 27 -42 53 -42c48 0 70 42 73 102c-24 -24 -60 -35 -91 -35c-79 0 -136 46 -136 124zM305 791c-36 0 -59 -25 -59 -58c0 -35 23 -57 59 -57
c37 0 60 24 60 57s-24 58 -60 58z" />
    <glyph glyph-name="a.alt2" 
d="M271 -12c-139 0 -226 105 -226 261s86 269 226 269c67 0 118 -26 152 -70v58h131v-506h-125v69c-34 -50 -86 -81 -158 -81zM300 98c79 0 125 64 125 155c0 89 -47 156 -125 156c-79 0 -121 -66 -121 -156c0 -89 42 -155 121 -155z" />
    <glyph glyph-name="agrave.alt2" 
d="M270 726l93 -155h-115l-97 155h119zM271 -12c-139 0 -226 105 -226 261s86 269 226 269c67 0 118 -26 152 -70v58h131v-506h-125v69c-34 -50 -86 -81 -158 -81zM300 98c79 0 125 64 125 155c0 89 -47 156 -125 156c-79 0 -121 -66 -121 -156c0 -89 42 -155 121 -155z" />
    <glyph glyph-name="aacute.alt2" 
d="M349 726h119l-99 -155h-113zM271 -12c-139 0 -226 105 -226 261s86 269 226 269c67 0 118 -26 152 -70v58h131v-506h-125v69c-34 -50 -86 -81 -158 -81zM300 98c79 0 125 64 125 155c0 89 -47 156 -125 156c-79 0 -121 -66 -121 -156c0 -89 42 -155 121 -155z" />
    <glyph glyph-name="acircumflex.alt2" 
d="M247 726h122l108 -155h-115l-55 80l-55 -80h-113zM271 -12c-139 0 -226 105 -226 261s86 269 226 269c67 0 118 -26 152 -70v58h131v-506h-125v69c-34 -50 -86 -81 -158 -81zM300 98c79 0 125 64 125 155c0 89 -47 156 -125 156c-79 0 -121 -66 -121 -156
c0 -89 42 -155 121 -155z" />
    <glyph glyph-name="atilde.alt2" 
d="M358 682c16 0 22 6 22 30h85c1 -79 -17 -127 -81 -127c-51 0 -84 32 -119 32c-19 0 -27 -15 -28 -35h-86c2 70 23 129 94 129c51 0 87 -29 113 -29zM271 -12c-139 0 -226 105 -226 261s86 269 226 269c67 0 118 -26 152 -70v58h131v-506h-125v69
c-34 -50 -86 -81 -158 -81zM300 98c79 0 125 64 125 155c0 89 -47 156 -125 156c-79 0 -121 -66 -121 -156c0 -89 42 -155 121 -155z" />
    <glyph glyph-name="adieresis.alt2" 
d="M157 574v129h121v-129h-121zM338 574v129h121v-129h-121zM271 -12c-139 0 -226 105 -226 261s86 269 226 269c67 0 118 -26 152 -70v58h131v-506h-125v69c-34 -50 -86 -81 -158 -81zM300 98c79 0 125 64 125 155c0 89 -47 156 -125 156c-79 0 -121 -66 -121 -156
c0 -89 42 -155 121 -155z" />
    <glyph glyph-name="aring.alt2" 
d="M308 791c80 0 126 -52 126 -113c0 -60 -45 -112 -126 -112c-82 0 -126 52 -126 112c0 61 44 113 126 113zM308 731c-35 0 -50 -24 -50 -52c0 -30 15 -53 50 -53c34 0 50 23 50 53c0 28 -16 52 -50 52zM271 -12c-139 0 -226 105 -226 261s86 269 226 269
c67 0 118 -26 152 -70v58h131v-506h-125v69c-34 -50 -86 -81 -158 -81zM300 98c79 0 125 64 125 155c0 89 -47 156 -125 156c-79 0 -121 -66 -121 -156c0 -89 42 -155 121 -155z" />
    <glyph glyph-name="amacron.alt2" 
d="M179 597v92h258v-92h-258zM271 -12c-139 0 -226 105 -226 261s86 269 226 269c67 0 118 -26 152 -70v58h131v-506h-125v69c-34 -50 -86 -81 -158 -81zM300 98c79 0 125 64 125 155c0 89 -47 156 -125 156c-79 0 -121 -66 -121 -156c0 -89 42 -155 121 -155z" />
    <glyph glyph-name="abreve.alt2" 
d="M309 648c36 0 53 25 53 73h92c1 -71 -32 -155 -146 -155s-147 84 -146 155h94c0 -47 16 -73 53 -73zM271 -12c-139 0 -226 105 -226 261s86 269 226 269c67 0 118 -26 152 -70v58h131v-506h-125v69c-34 -50 -86 -81 -158 -81zM300 98c79 0 125 64 125 155
c0 89 -47 156 -125 156c-79 0 -121 -66 -121 -156c0 -89 42 -155 121 -155z" />
    <glyph glyph-name="aogonek.alt2" 
d="M271 -12c-139 0 -226 105 -226 261s86 269 226 269c67 0 118 -26 152 -70v58h131v-506c-57 -51 -90 -86 -90 -119c0 -26 18 -33 42 -33c13 0 26 2 40 7v-80c-16 -8 -36 -14 -68 -14c-68 0 -110 42 -110 93c0 60 37 100 94 146h-33v69c-34 -50 -86 -81 -158 -81zM300 98
c79 0 125 64 125 155c0 89 -47 156 -125 156c-79 0 -121 -66 -121 -156c0 -89 42 -155 121 -155z" />
    <glyph glyph-name="a.alt" 
d="M318 418c-80 0 -101 -45 -107 -75l-123 13c11 76 81 162 235 162c157 0 217 -90 217 -186v-332h-118v59c-34 -46 -89 -71 -161 -71c-125 0 -187 73 -187 149c0 95 65 144 153 157l156 23c22 3 29 17 29 33c0 23 -19 68 -94 68zM203 149c0 -37 27 -61 84 -61
c67 0 127 46 127 123v23l-135 -20c-57 -8 -76 -34 -76 -65z" />
    <glyph glyph-name="agrave.alt" 
d="M285 726l93 -155h-115l-97 155h119zM318 418c-80 0 -101 -45 -107 -75l-123 13c11 76 81 162 235 162c157 0 217 -90 217 -186v-332h-118v59c-34 -46 -89 -71 -161 -71c-125 0 -187 73 -187 149c0 95 65 144 153 157l156 23c22 3 29 17 29 33c0 23 -19 68 -94 68z
M203 149c0 -37 27 -61 84 -61c67 0 127 46 127 123v23l-135 -20c-57 -8 -76 -34 -76 -65z" />
    <glyph glyph-name="aacute.alt" 
d="M362 726h119l-99 -155h-113zM318 418c-80 0 -101 -45 -107 -75l-123 13c11 76 81 162 235 162c157 0 217 -90 217 -186v-332h-118v59c-34 -46 -89 -71 -161 -71c-125 0 -187 73 -187 149c0 95 65 144 153 157l156 23c22 3 29 17 29 33c0 23 -19 68 -94 68zM203 149
c0 -37 27 -61 84 -61c67 0 127 46 127 123v23l-135 -20c-57 -8 -76 -34 -76 -65z" />
    <glyph glyph-name="acircumflex.alt" 
d="M261 726h122l108 -155h-115l-55 80l-55 -80h-113zM318 418c-80 0 -101 -45 -107 -75l-123 13c11 76 81 162 235 162c157 0 217 -90 217 -186v-332h-118v59c-34 -46 -89 -71 -161 -71c-125 0 -187 73 -187 149c0 95 65 144 153 157l156 23c22 3 29 17 29 33
c0 23 -19 68 -94 68zM203 149c0 -37 27 -61 84 -61c67 0 127 46 127 123v23l-135 -20c-57 -8 -76 -34 -76 -65z" />
    <glyph glyph-name="atilde.alt" 
d="M373 682c16 0 22 6 22 30h85c1 -79 -17 -127 -81 -127c-51 0 -84 32 -119 32c-19 0 -27 -15 -28 -35h-86c2 70 23 129 94 129c51 0 87 -29 113 -29zM318 418c-80 0 -101 -45 -107 -75l-123 13c11 76 81 162 235 162c157 0 217 -90 217 -186v-332h-118v59
c-34 -46 -89 -71 -161 -71c-125 0 -187 73 -187 149c0 95 65 144 153 157l156 23c22 3 29 17 29 33c0 23 -19 68 -94 68zM203 149c0 -37 27 -61 84 -61c67 0 127 46 127 123v23l-135 -20c-57 -8 -76 -34 -76 -65z" />
    <glyph glyph-name="adieresis.alt" 
d="M172 574v129h121v-129h-121zM353 574v129h121v-129h-121zM318 418c-80 0 -101 -45 -107 -75l-123 13c11 76 81 162 235 162c157 0 217 -90 217 -186v-332h-118v59c-34 -46 -89 -71 -161 -71c-125 0 -187 73 -187 149c0 95 65 144 153 157l156 23c22 3 29 17 29 33
c0 23 -19 68 -94 68zM203 149c0 -37 27 -61 84 -61c67 0 127 46 127 123v23l-135 -20c-57 -8 -76 -34 -76 -65z" />
    <glyph glyph-name="aring.alt" 
d="M322 791c80 0 126 -52 126 -113c0 -60 -45 -112 -126 -112c-82 0 -126 52 -126 112c0 61 44 113 126 113zM322 731c-35 0 -50 -24 -50 -52c0 -30 15 -53 50 -53c34 0 50 23 50 53c0 28 -16 52 -50 52zM318 418c-80 0 -101 -45 -107 -75l-123 13c11 76 81 162 235 162
c157 0 217 -90 217 -186v-332h-118v59c-34 -46 -89 -71 -161 -71c-125 0 -187 73 -187 149c0 95 65 144 153 157l156 23c22 3 29 17 29 33c0 23 -19 68 -94 68zM203 149c0 -37 27 -61 84 -61c67 0 127 46 127 123v23l-135 -20c-57 -8 -76 -34 -76 -65z" />
    <glyph glyph-name="amacron.alt" 
d="M194 597v92h258v-92h-258zM318 418c-80 0 -101 -45 -107 -75l-123 13c11 76 81 162 235 162c157 0 217 -90 217 -186v-332h-118v59c-34 -46 -89 -71 -161 -71c-125 0 -187 73 -187 149c0 95 65 144 153 157l156 23c22 3 29 17 29 33c0 23 -19 68 -94 68zM203 149
c0 -37 27 -61 84 -61c67 0 127 46 127 123v23l-135 -20c-57 -8 -76 -34 -76 -65z" />
    <glyph glyph-name="abreve.alt" 
d="M324 648c36 0 53 25 53 73h92c1 -71 -32 -155 -146 -155s-147 84 -146 155h94c0 -47 16 -73 53 -73zM318 418c-80 0 -101 -45 -107 -75l-123 13c11 76 81 162 235 162c157 0 217 -90 217 -186v-332h-118v59c-34 -46 -89 -71 -161 -71c-125 0 -187 73 -187 149
c0 95 65 144 153 157l156 23c22 3 29 17 29 33c0 23 -19 68 -94 68zM203 149c0 -37 27 -61 84 -61c67 0 127 46 127 123v23l-135 -20c-57 -8 -76 -34 -76 -65z" />
    <glyph glyph-name="aogonek.alt" 
d="M464 -239c-68 0 -110 42 -110 93c0 60 37 100 94 146h-26v59c-34 -46 -89 -71 -161 -71c-125 0 -187 73 -187 149c0 95 65 144 153 157l156 23c22 3 29 17 29 33c0 23 -19 68 -94 68c-80 0 -101 -45 -107 -75l-123 13c11 76 81 162 235 162c157 0 217 -90 217 -186v-332
c-57 -51 -90 -86 -90 -119c0 -26 18 -33 42 -33c13 0 26 2 40 7v-80c-16 -8 -36 -14 -68 -14zM203 149c0 -37 27 -61 84 -61c67 0 127 46 127 123v23l-135 -20c-57 -8 -76 -34 -76 -65z" />
    <glyph glyph-name="y.alt" 
d="M43 506h138l133 -342l133 342h130l-271 -691h-128l71 177z" />
    <glyph glyph-name="yacute.alt" 
d="M353 726h119l-99 -155h-113zM43 506h138l133 -342l133 342h130l-271 -691h-128l71 177z" />
    <glyph glyph-name="ydieresis.alt" 
d="M163 574v129h121v-129h-121zM344 574v129h121v-129h-121zM43 506h138l133 -342l133 342h130l-271 -691h-128l71 177z" />
    <glyph glyph-name="ycircumflex.alt" 
d="M253 726h122l108 -155h-115l-55 80l-55 -80h-113zM43 506h138l133 -342l133 342h130l-271 -691h-128l71 177z" />
    <glyph glyph-name="ygrave.alt" 
d="M277 726l93 -155h-115l-97 155h119zM43 506h138l133 -342l133 342h130l-271 -691h-128l71 177z" />
    <glyph glyph-name="oslash.alt" 
d="M188 -40h-134l70 98c-47 48 -72 116 -72 195c0 153 96 265 257 265c33 0 64 -5 91 -13l33 47h135l-74 -105c47 -47 72 -115 72 -194c0 -152 -97 -265 -257 -265c-34 0 -64 5 -92 14zM309 412c-86 0 -124 -68 -124 -159c0 -90 38 -159 124 -159c87 0 124 69 124 159
c0 91 -37 159 -124 159z" />
    <glyph glyph-name="one.alt" 
d="M77 589h163c88 0 89 78 89 111h135v-700h-139v493c-22 -13 -48 -19 -79 -19h-169v115z" />
    <glyph glyph-name="dollar.alt" 
d="M373 -133h-115v126c-128 20 -205 103 -208 225l135 15c3 -96 55 -139 135 -139c88 0 113 54 113 95c0 58 -31 73 -103 95l-62 19c-87 27 -194 67 -194 210c0 84 56 176 184 195v125h115v-127c118 -23 174 -109 183 -199l-135 -15c-10 89 -55 114 -112 114
c-83 0 -107 -48 -107 -86c0 -57 35 -75 92 -91l73 -21c129 -37 203 -88 203 -207c0 -97 -67 -190 -197 -209v-125z" />
    <glyph glyph-name="cent.alt" 
d="M131 -83l42 113c-67 46 -102 126 -102 222c0 154 91 266 251 266c11 0 21 0 31 -1l29 76h115l-40 -107c56 -32 91 -87 102 -162l-128 -14c-11 61 -43 99 -109 99c-83 0 -117 -68 -117 -157c0 -88 34 -155 118 -155c64 0 99 38 108 96l125 -16
c-21 -118 -107 -189 -236 -189c-16 0 -32 1 -47 3l-27 -74h-115z" />
    <glyph glyph-name="linea" horiz-adv-x="0" 
d="M-4 980h8v-1210h-8v1210z" />
  </font>
</defs>
</svg>
