<svg width="210" height="44" viewBox="0 0 210 44" fill="none" xmlns="http://www.w3.org/2000/svg">
    <path d="M125.676 35.71C125.68 35.8598 125.561 36.3456 122.701 37.0329C119.274 37.8567 116.567 37.8506 114.109 37.8597C107.608 37.8837 107.4 37.9964 104.524 37.8597C100.775 37.6814 97.831 37.5281 97.7489 36.8675C97.7051 36.5163 98.4584 35.9265 102.045 34.8832C105.375 34.2595 109.499 33.7759 114.226 33.8611C117.926 33.9279 121.218 34.3289 124.005 34.8402C124.767 35.0282 125.665 35.3219 125.676 35.71ZM208.317 34.7279C206.796 33.9919 205.474 34.3015 204.014 34.9809C203.349 35.2903 201.713 35.8595 200.451 36.0751C199.529 36.2324 198.172 36.2826 196.403 35.71C196.255 34.5751 196.062 32.8531 195.951 30.7449C195.672 25.4496 196.177 22.8278 194.573 21.7502C194.023 21.3799 193.179 21.1618 192.602 21.489C191.515 22.1057 191.874 24.3777 192.139 27.7127C192.295 29.673 192.449 32.3957 192.437 35.71C191.324 35.7095 189.655 35.7503 187.621 35.9642C186.82 36.0483 186.273 36.169 186.006 36.1626C180.136 36.0217 174.326 36.1292 168.454 36.4998C167.555 36.5565 166.681 36.4793 165.74 36.4035C164.626 36.3139 163.699 36.0883 162.993 35.1116C162.322 34.1849 161.497 33.7287 160.344 33.639C153.016 33.0702 145.856 32.3684 138.469 31.8826C135.856 31.7106 135.146 32.7568 135.157 35.4347C135.159 35.9628 135.019 36.6398 134.986 37.1815C134.325 37.3037 133.675 37.4197 133.016 37.5324C132.745 37.1933 132.383 36.77 132.197 36.3936C130.935 33.8472 129.09 32.4225 126.382 31.7672C124.121 31.2201 121.914 30.713 119.644 30.6778C113.971 30.5898 108.406 30.4727 102.773 31.3156C100.069 31.7202 97.3095 31.9742 95.0006 33.5501C93.4878 34.5829 92.0684 34.9059 90.3244 34.7544C82.4106 34.0675 74.5474 33.5522 66.6691 32.7754C49.3594 31.0687 32.3148 28.031 15.4535 23.6812C12.9907 23.0459 11.4971 21.8261 11.1474 19.1732C11.057 18.4873 11.0725 17.5189 11.005 16.7933C13.2634 16.386 15.6837 15.8939 17.9261 15.5554C27.2798 14.1433 36.6614 13.3381 46.067 12.5497C57.7576 11.5699 69.4539 11.2741 81.1737 11.0924C93.3518 10.9035 105.507 11.0034 117.686 11.2257C130.784 11.4644 143.808 11.9534 156.953 12.4057C161.369 12.5576 165.926 12.5251 170.348 11.9136C170.283 10.6768 170.224 9.44655 170.134 8.21016C168.407 7.91036 166.267 7.598 164.532 7.25586C152.791 4.94116 140.255 3.46846 128.428 2.6377C116.903 1.82793 103.804 1.21378 93.3187 0.750446C83.1215 0.300003 77.7534 -0.0250969 67.7522 0.00152588C65.8331 0.0064888 58.9799 0.0931358 56.445 0.0572548C54.6418 0.031456 48.4719 0.0193863 47.4308 0.0441895C39.2246 0.240307 23.3177 0.807159 17.6476 1.0251C11.9776 1.24288 -0.236458 1.37253 0.00348425 2.1684C0.392977 3.46036 44.053 2.16675 50.8677 2.17171C54.8748 2.17452 74.3783 2.21471 79.3107 2.35543C92.5424 2.73261 101.865 2.95998 112.871 3.81754C119.975 4.371 124.524 4.28369 130.727 5.07708C138.667 6.09272 145.672 6.97443 153.493 7.95501C154.179 8.04116 154.913 8.15179 155.082 9.03481C154.811 9.15816 154.594 9.44077 154.323 9.43481C147.624 9.28748 142.219 8.91872 134.914 8.84249C134.645 8.83968 130.934 8.88697 128.655 8.91244C120.95 8.99843 113.474 9.33758 104.781 9.2C103.816 9.18462 99.0236 9.0363 95.0667 8.92038C91.4335 8.81389 83.9388 8.54617 78.7803 8.73302C76.1379 8.82877 76.248 8.87887 71.548 9.06358C64.6711 9.33378 54.8993 9.59753 47.0184 10.0104C42.4342 10.2509 37.2378 10.7592 32.4801 11.2536C25.3349 11.9959 17.9352 12.7776 10.7541 13.6507C8.36989 13.9405 5.91379 14.3376 3.58212 14.9345C2.06199 15.3238 1.48362 16.5992 1.93227 18.1013C2.38109 19.6033 3.36317 20.7105 4.6222 21.681C5.97956 22.7273 7.54595 23.6695 8.96098 24.6577C9.48234 28.2427 9.90769 31.8016 10.4988 35.387C10.7942 37.1786 11.1561 38.9471 11.7144 40.7204C12.1473 42.0955 13.0613 43.0379 14.4159 43.5863C14.6617 43.6856 15.0707 43.6583 15.2588 43.4817C15.586 43.1748 15.8507 42.8438 15.9019 42.3955C15.9532 41.9472 15.7413 41.5002 15.5253 41.1237C13.1634 37.0072 12.9453 32.521 12.5842 27.8761C12.5423 27.3352 12.9066 26.5788 13.0742 26.0406C14.2777 26.1854 15.6261 26.2775 16.7911 26.5295C22.3136 27.7244 27.7572 29.112 33.285 30.1852C47.1986 32.8865 61.1939 34.8162 75.3431 35.8823C80.052 36.2372 84.6897 36.554 89.4715 36.9175C91.8133 37.0955 93.7755 37.5445 95.5879 39.394C96.4221 40.2453 97.9285 40.7393 99.2138 40.9875C100.67 41.2687 102.226 41.3638 103.741 41.3441C112.412 41.2312 121.075 41.1546 129.749 40.9025C133.247 40.8009 136.709 40.4031 140.23 40.0942C142.066 39.9331 143.317 39.2047 143.998 37.3834C144.139 37.0043 144.541 36.5371 144.805 36.1998C146.311 36.1757 147.825 36.116 149.324 36.1856C150.966 36.2618 152.538 36.3278 154.102 36.8589C156.223 40.1502 156.419 40.5579 160.357 40.3379C160.515 40.3292 160.661 40.3254 160.81 40.311C167.379 39.6785 173.893 39.211 180.501 39.3172C183.495 39.3654 186.487 39.5278 189.407 40.1125C191.209 40.4732 192.956 40.8358 194.74 40.6369C198.256 40.2452 201.662 40.1165 205.179 40.0851C206.224 40.0758 207.265 39.9368 208.256 39.5626C209.322 39.1599 209.96 38.2807 209.998 37.1427C210.039 35.9516 209.328 35.2172 208.317 34.7279Z" fill="#1A1A1A"/>
</svg>
