<svg width="42" height="43" viewBox="0 0 42 43" fill="none" xmlns="http://www.w3.org/2000/svg">
    <path d="M16.3975 9.87208C16.0825 11.0188 15.925 12.2192 15.925 13.4375C15.925 20.7475 21.735 26.6958 28.875 26.6958C30.065 26.6958 31.2375 26.5346 32.3575 26.2121C30.5375 30.7987 26.1275 34.0417 21 34.0417C14.245 34.0417 8.75 28.4158 8.75 21.5C8.75 16.2504 11.9175 11.7354 16.3975 9.87208ZM21 5.375C12.3025 5.375 5.25 12.5954 5.25 21.5C5.25 30.4046 12.3025 37.625 21 37.625C29.6975 37.625 36.75 30.4046 36.75 21.5C36.75 20.6758 36.68 19.8517 36.575 19.0633C34.86 21.5179 32.06 23.1125 28.875 23.1125C23.66 23.1125 19.425 18.7767 19.425 13.4375C19.425 10.1946 20.9825 7.31 23.38 5.55417C22.61 5.44667 21.805 5.375 21 5.375Z" fill="#292a2c"/>
</svg>
