<?xml version="1.0" standalone="no"?>
<!DOCTYPE svg PUBLIC "-//W3C//DTD SVG 1.1//EN" "http://www.w3.org/Graphics/SVG/1.1/DTD/svg11.dtd" >
<svg xmlns="http://www.w3.org/2000/svg" xmlns:xlink="http://www.w3.org/1999/xlink" version="1.1">
<metadata>
Copyright c 2020 by Eduardo Manso. All rights reserved.
</metadata>
<defs>
<font id="ApproachMono-Bold" horiz-adv-x="620" >
  <font-face 
    font-family="Approach Mono"
    font-weight="700"
    font-stretch="normal"
    units-per-em="1000"
    panose-1="2 11 8 9 4 5 1 6 1 4"
    ascent="750"
    descent="-250"
    x-height="510"
    cap-height="700"
    bbox="-34 -250 720 992"
    underline-thickness="0"
    underline-position="-93"
    stemh="122"
    stemv="153"
    unicode-range="U+0020-1F78B"
  />
<missing-glyph horiz-adv-x="500" 
d="M50 -250v1000h400v-1000h-400zM100 -200h300v900h-300v-900z" />
    <glyph glyph-name="fi" unicode="fi" 
d="M98 0v388h-70v122h70v28c0 86 49 162 189 162h261v-125h-253c-38 0 -45 -24 -45 -50v-15h298v-510h-152v388h-146v-388h-152z" />
    <glyph glyph-name="fl" unicode="fl" 
d="M98 0v388h-70v122h70v28c0 86 49 162 189 162h261v-700h-152v575h-101c-38 0 -45 -24 -45 -50v-15h82v-122h-82v-388h-152z" />
    <glyph glyph-name=".notdef" horiz-adv-x="500" 
d="M50 -250v1000h400v-1000h-400zM100 -200h300v900h-300v-900z" />
    <glyph glyph-name="Eth" unicode="&#xd0;" 
d="M12 409h62v291h207c197 0 307 -135 307 -338c0 -210 -111 -362 -307 -362h-207v290h-62v119zM284 564h-48v-155h103v-119h-103v-154h48c93 0 140 94 140 226c0 120 -47 202 -140 202z" />
    <glyph glyph-name="eth" unicode="&#xf0;" 
d="M310 -12c-167 0 -264 107 -264 254s88 253 238 253c44 0 83 -12 113 -34c-18 38 -41 74 -66 108l-80 -30l-27 69l58 22c-21 24 -44 48 -67 70h169c10 -10 20 -19 30 -29l76 29l29 -69l-54 -20c91 -122 109 -245 109 -338c0 -168 -98 -285 -264 -285zM310 373
c-78 0 -110 -56 -110 -131c0 -76 32 -132 110 -132s110 56 110 132c0 75 -32 131 -110 131z" />
    <glyph glyph-name="Lslash" unicode="&#x141;" 
d="M17 311l101 61v328h161v-230l66 39l54 -92l-120 -72v-209h299v-136h-460v247l-46 -28z" />
    <glyph glyph-name="lslash" unicode="&#x142;" 
d="M91 122h162v134l-61 -37l-55 92l116 70v197h-162v122h314v-226l60 36l54 -92l-114 -69v-227h162v-122h-476v122z" />
    <glyph glyph-name="Scaron" unicode="&#x160;" 
d="M376 766h-134l-118 160h131l56 -75l53 75h129zM588 216c0 -117 -90 -228 -268 -228c-177 0 -285 89 -288 230l164 18c2 -82 49 -120 124 -120c79 0 102 46 102 82c0 44 -22 64 -78 75l-89 17c-93 18 -200 67 -200 210c0 100 80 212 255 212s255 -100 265 -205l-166 -18
c-9 73 -50 95 -99 95c-73 0 -93 -39 -93 -73c0 -44 23 -63 64 -71l104 -20c128 -25 203 -88 203 -204z" />
    <glyph glyph-name="scaron" unicode="&#x161;" 
d="M380 566h-134l-118 160h131l56 -75l53 75h129zM551 161c0 -104 -74 -173 -238 -173c-172 0 -237 82 -243 165l152 15c4 -45 38 -69 98 -69c62 0 80 22 80 48c0 25 -23 35 -63 42l-82 15c-80 15 -166 46 -166 153c0 90 76 165 225 165c161 0 216 -81 227 -158l-139 -16
c-8 35 -37 64 -92 64c-60 0 -77 -21 -77 -43c0 -26 22 -33 61 -40l89 -17c105 -20 168 -55 168 -151z" />
    <glyph glyph-name="Yacute" unicode="&#xdd;" 
d="M344 926h134l-103 -160h-127zM7 700h175l130 -275l133 275h168l-222 -434v-266h-162v257z" />
    <glyph glyph-name="yacute" unicode="&#xfd;" 
d="M349 726h134l-103 -160h-127zM36 510h161l117 -317l120 317h151l-208 -529c-54 -138 -107 -166 -215 -166h-84v123h85c39 0 60 10 69 37l8 23z" />
    <glyph glyph-name="Thorn" unicode="&#xde;" 
d="M64 700h158v-108h109c156 0 259 -107 259 -230c0 -139 -105 -253 -262 -253h-106v-109h-158v700zM302 466h-80v-229h80c77 0 127 51 127 122c0 62 -50 107 -127 107z" />
    <glyph glyph-name="thorn" unicode="&#xfe;" 
d="M356 522c140 0 228 -105 228 -263c0 -156 -87 -271 -228 -271c-64 0 -113 23 -147 64v-237h-152v885h152v-246c34 42 82 68 147 68zM320 395c-72 0 -113 -58 -113 -140c0 -80 42 -141 113 -141c70 0 108 60 108 141c0 80 -38 140 -108 140z" />
    <glyph glyph-name="Zcaron" unicode="&#x17d;" 
d="M376 766h-134l-118 160h131l56 -75l53 75h129zM585 136v-136h-546v117l323 447h-310v136h517v-118l-322 -446h338z" />
    <glyph glyph-name="zcaron" unicode="&#x17e;" 
d="M375 566h-134l-118 160h131l56 -75l53 75h129zM546 125v-125h-472v107l269 278h-256v125h446v-110l-266 -275h279z" />
    <glyph glyph-name="onehalf" unicode="&#xbd;" 
d="M344 399l164 301h97l-165 -301h-96zM44 444h87v133c-11 -4 -23 -6 -37 -6h-56v76h56c46 0 49 38 49 53h84v-256h73v-77h-256v77zM579 77v-77h-270v71l113 96c27 23 44 41 44 66c0 13 -7 27 -29 27c-20 0 -42 -14 -37 -59l-93 12c-5 92 64 126 135 126
c85 0 125 -47 125 -101c0 -50 -37 -89 -81 -125l-44 -36h137zM15 0l165 301h96l-164 -301h-97z" />
    <glyph glyph-name="onequarter" unicode="&#xbc;" 
d="M44 444h87v133c-11 -4 -23 -6 -37 -6h-56v76h56c46 0 49 38 49 53h84v-256h73v-77h-256v77zM344 399l164 301h97l-165 -301h-96zM311 133l128 200h131v-193h44v-77h-44v-63h-94v63h-165v70zM15 0l165 301h96l-164 -301h-97zM476 140v111l-72 -111h72z" />
    <glyph glyph-name="onesuperior" unicode="&#xb9;" 
d="M161 556h103v156c-13 -5 -28 -7 -44 -7h-66v89h66c54 0 58 45 58 63h99v-301h85v-91h-301v91z" />
    <glyph glyph-name="threequarters" unicode="&#xbe;" 
d="M165 504h-26v66h18c25 0 33 17 33 33c0 17 -13 26 -32 26c-22 0 -47 -14 -45 -55l-88 18c4 79 66 115 140 115c80 0 123 -41 123 -92c0 -26 -11 -54 -42 -70c38 -14 53 -41 53 -77c0 -63 -52 -106 -134 -106c-68 0 -147 32 -145 117l96 13c-2 -42 21 -53 45 -53
s41 11 41 35c0 16 -8 30 -37 30zM344 399l164 301h97l-165 -301h-96zM311 133l128 200h131v-193h44v-77h-44v-63h-94v63h-165v70zM15 0l165 301h96l-164 -301h-97zM476 140v111l-72 -111h72z" />
    <glyph glyph-name="threesuperior" unicode="&#xb3;" 
d="M316 625h-30v78h21c30 0 39 20 39 38c0 21 -16 31 -38 31c-26 0 -55 -17 -53 -65l-103 21c4 93 77 136 164 136c94 0 145 -48 145 -108c0 -31 -13 -64 -49 -83c44 -16 62 -48 62 -90c0 -74 -61 -125 -158 -125c-80 0 -172 37 -170 137l113 16c-3 -49 25 -62 53 -62
s48 13 48 41c0 18 -10 35 -44 35z" />
    <glyph glyph-name="twosuperior" unicode="&#xb2;" 
d="M471 556v-91h-318v84l133 112c32 27 52 49 52 78c0 15 -9 32 -34 32c-24 0 -50 -17 -44 -70l-110 15c-5 108 76 148 159 148c100 0 147 -56 147 -119c0 -59 -43 -105 -95 -147l-52 -42h162z" />
    <glyph glyph-name="brokenbar" unicode="&#xa6;" 
d="M374 405h-128v337h128v-337zM374 -132h-128v337h128v-337z" />
    <glyph glyph-name="minus" unicode="&#x2212;" 
d="M77 414h466v-128h-466v128z" />
    <glyph glyph-name="multiply" unicode="&#xd7;" 
d="M175 125l-90 90l135 135l-135 135l90 90l135 -135l135 135l90 -90l-135 -135l135 -135l-90 -90l-135 135z" />
    <glyph glyph-name="space" unicode=" " 
 />
    <glyph glyph-name="exclam" unicode="!" 
d="M226 700h168v-140l-27 -343h-113l-28 343v140zM229 164h163v-164h-163v164z" />
    <glyph glyph-name="quotedbl" unicode="&#x22;" 
d="M499 410h-146v290h146v-290zM267 410h-146v290h146v-290z" />
    <glyph glyph-name="numbersign" unicode="#" 
d="M238 0h-134l13 183h-80v106h87l9 122h-78v106h85l14 183h134l-14 -183h96l13 183h134l-13 -183h79v-106h-86l-9 -122h78v-106h-85l-14 -183h-134l14 183h-96zM258 289h96l9 122h-96z" />
    <glyph glyph-name="dollar" unicode="$" 
d="M355 -133h-80v123c-145 15 -233 100 -236 228l157 18c2 -69 31 -108 79 -121v175c-100 28 -211 70 -211 217c0 90 64 190 211 203v123h80v-124c137 -16 203 -107 212 -202l-156 -18c-6 55 -27 82 -56 94v-161l12 -3c130 -33 214 -91 214 -211c0 -104 -77 -205 -226 -218
v-123zM213 517c0 -41 22 -58 62 -72v142c-47 -10 -62 -42 -62 -70zM421 192c0 42 -19 57 -66 73v-152c50 12 66 49 66 79z" />
    <glyph glyph-name="percent" unicode="%" 
d="M165 362c-96 0 -139 70 -139 173c0 102 46 172 139 172c96 0 140 -70 140 -172c0 -103 -47 -173 -140 -173zM344 399l164 301h97l-165 -301h-96zM165 439c36 0 45 33 45 96s-10 95 -45 95s-44 -32 -44 -95s9 -96 44 -96zM454 -7c-96 0 -139 70 -139 173
c0 102 46 172 139 172c96 0 140 -70 140 -172c0 -103 -47 -173 -140 -173zM15 0l165 301h96l-164 -301h-97zM454 70c36 0 45 33 45 96s-10 95 -45 95s-44 -32 -44 -95s9 -96 44 -96z" />
    <glyph glyph-name="ampersand" unicode="&#x26;" 
d="M26 180c0 92 60 149 124 186c-32 43 -68 100 -68 163c0 120 92 183 202 183c108 0 186 -58 186 -162c0 -87 -65 -143 -142 -187l98 -125c9 29 13 62 13 100l127 -13c0 -80 -19 -146 -53 -198l100 -127h-175l-28 35c-46 -30 -100 -47 -160 -47c-127 0 -224 60 -224 192z
M222 537c0 -33 18 -61 49 -100c47 33 70 66 70 106c0 38 -22 64 -57 64c-52 0 -62 -43 -62 -70zM182 206c0 -62 41 -91 93 -91c24 0 43 2 62 13l-124 158c-21 -20 -31 -44 -31 -80z" />
    <glyph glyph-name="quotesingle" unicode="'" 
d="M383 410h-146v290h146v-290z" />
    <glyph glyph-name="parenleft" unicode="(" 
d="M278 306c0 -179 101 -327 226 -438h-153c-135 111 -235 247 -235 438c0 190 100 325 235 436h153c-126 -111 -226 -259 -226 -436z" />
    <glyph glyph-name="parenright" unicode=")" 
d="M342 304c0 179 -101 327 -226 438h153c135 -111 235 -247 235 -438c0 -190 -100 -325 -235 -436h-153c126 111 226 259 226 436z" />
    <glyph glyph-name="asterisk" unicode="*" 
d="M493 342l-87 -63l-94 127l-96 -127l-87 63l83 113l-115 33l28 104l129 -35v143h113v-143l128 35l28 -104l-114 -33z" />
    <glyph glyph-name="plus" unicode="+" 
d="M246 117v169h-169v128h169v169h128v-169h169v-128h-169v-169h-128z" />
    <glyph glyph-name="comma" unicode="," 
d="M343 -117h-151l63 303h161z" />
    <glyph glyph-name="hyphen" unicode="-" 
d="M123 340h374v-129h-374v129z" />
    <glyph glyph-name="period" unicode="." 
d="M217 186h186v-186h-186v186z" />
    <glyph glyph-name="slash" unicode="/" 
d="M195 -132h-122l355 874h119z" />
    <glyph glyph-name="zero" unicode="0" 
d="M309 -12c-187 0 -277 147 -277 362s93 362 278 362c191 0 278 -147 278 -362s-91 -362 -279 -362zM194 350c0 -64 5 -118 20 -158l139 380c-12 6 -27 9 -43 9c-91 0 -116 -94 -116 -231zM310 119c90 0 116 94 116 231c0 59 -5 109 -17 148l-136 -373c11 -4 23 -6 37 -6z
" />
    <glyph glyph-name="one" unicode="1" 
d="M67 136h182v338c-22 -13 -48 -19 -79 -19h-103v133h97c88 0 89 79 89 112h157v-564h166v-136h-509v136z" />
    <glyph glyph-name="two" unicode="2" 
d="M392 497c0 43 -27 78 -81 78s-112 -35 -98 -159l-160 22c-13 197 125 274 262 274c166 0 241 -102 241 -208c0 -105 -69 -189 -157 -263l-125 -105h308v-136h-528v128l242 209c60 52 96 99 96 160z" />
    <glyph glyph-name="three" unicode="3" 
d="M321 300h-66v118h55c68 0 88 41 88 83c0 52 -37 76 -87 76c-63 0 -112 -37 -112 -120l-147 31c0 146 125 224 267 224c155 0 241 -84 241 -190c0 -56 -23 -116 -89 -151c81 -29 112 -90 112 -162c0 -131 -100 -221 -264 -221c-139 0 -283 65 -285 224l165 23
c1 -82 52 -112 119 -112c61 0 103 30 103 96c0 41 -23 81 -100 81z" />
    <glyph glyph-name="four" unicode="4" 
d="M29 274l275 426h211v-413h78v-136h-78v-151h-161v151h-325v123zM354 287v259l-160 -259h160z" />
    <glyph glyph-name="five" unicode="5" 
d="M581 234c0 -134 -88 -246 -270 -246c-141 0 -258 70 -277 188l162 25c11 -53 51 -85 114 -85c70 0 109 40 109 111c0 69 -41 101 -104 101c-56 0 -96 -22 -129 -55l-117 56l56 371h403v-136h-283l-25 -147c34 20 75 35 128 35c155 0 233 -97 233 -218z" />
    <glyph glyph-name="six" unicode="6" 
d="M584 232c0 -138 -101 -244 -257 -244c-171 0 -285 108 -285 351c0 253 120 373 282 373c116 0 223 -54 247 -194l-158 -15c-15 55 -43 79 -94 79c-81 0 -114 -83 -120 -194c41 47 99 66 154 66c135 0 231 -84 231 -222zM320 110c63 0 106 48 106 111
c0 69 -39 110 -105 110c-68 0 -108 -45 -108 -110c0 -63 45 -111 107 -111z" />
    <glyph glyph-name="seven" unicode="7" 
d="M189 454h-143v246h551v-112c-161 -162 -219 -268 -219 -493v-95h-161v95c0 202 63 337 181 465h-209v-106z" />
    <glyph glyph-name="eight" unicode="8" 
d="M577 198c0 -118 -99 -210 -267 -210c-173 0 -267 92 -267 210c0 65 30 135 120 172c-76 35 -96 98 -96 154c0 101 84 188 243 188c160 0 243 -87 243 -188c0 -56 -20 -118 -93 -153c93 -36 117 -107 117 -173zM310 424c62 0 84 48 84 85c0 57 -37 84 -84 84
c-48 0 -84 -27 -84 -84c0 -37 21 -85 84 -85zM310 309c-75 0 -107 -46 -107 -100c0 -56 32 -101 107 -101c74 0 107 45 107 101c0 54 -33 100 -107 100z" />
    <glyph glyph-name="nine" unicode="9" 
d="M36 468c0 138 101 244 257 244c171 0 285 -108 285 -351c0 -253 -120 -373 -282 -373c-116 0 -223 54 -247 194l158 15c15 -55 43 -79 94 -79c81 0 114 83 120 194c-41 -47 -99 -66 -154 -66c-135 0 -231 84 -231 222zM300 590c-63 0 -106 -48 -106 -111
c0 -69 39 -110 105 -110c68 0 108 45 108 110c0 63 -45 111 -107 111z" />
    <glyph glyph-name="colon" unicode=":" 
d="M217 510h186v-186h-186v186zM217 186h186v-186h-186v186z" />
    <glyph glyph-name="semicolon" unicode=";" 
d="M217 510h186v-186h-186v186zM319 -117h-151l63 303h161z" />
    <glyph glyph-name="less" unicode="&#x3c;" 
d="M85 413l450 208v-148l-270 -120l270 -120v-153l-450 208v125z" />
    <glyph glyph-name="equal" unicode="=" 
d="M77 531h466v-128h-466v128zM77 297h466v-128h-466v128z" />
    <glyph glyph-name="greater" unicode="&#x3e;" 
d="M535 413v-125l-450 -208v153l270 120l-270 120v148z" />
    <glyph glyph-name="question" unicode="?" 
d="M399 508c0 38 -23 71 -81 71c-59 0 -113 -38 -115 -142l-151 22c0 151 115 253 274 253c171 0 243 -93 243 -196c0 -95 -63 -146 -119 -192c-59 -48 -67 -61 -68 -107h-145c-1 86 8 115 91 185c50 41 71 64 71 106zM228 164h163v-164h-163v164z" />
    <glyph glyph-name="at" unicode="@" 
d="M147 203c0 146 49 284 140 284c35 0 65 -18 77 -70l13 61h105l-56 -289c-9 -48 0 -70 26 -70c31 0 68 51 68 221c0 110 -15 298 -188 298c-158 0 -230 -175 -230 -393c0 -248 85 -366 240 -366c85 0 126 20 180 49l30 -69c-59 -32 -121 -56 -212 -56
c-220 0 -329 166 -329 442c0 235 93 467 321 467c181 0 276 -137 276 -371c0 -225 -86 -312 -167 -312c-50 0 -86 21 -106 74c-18 -49 -47 -73 -88 -73c-59 0 -100 66 -100 173zM259 212c0 -44 5 -73 25 -73c43 0 55 117 55 184c0 36 -8 59 -27 59c-37 0 -53 -98 -53 -170z
" />
    <glyph glyph-name="A" unicode="A" 
d="M172 0h-159l205 700h184l205 -700h-170l-28 112h-208zM305 520l-71 -276h141z" />
    <glyph glyph-name="B" unicode="B" 
d="M61 700h271c138 0 211 -77 211 -172c0 -64 -33 -121 -90 -155c81 -29 130 -94 130 -167c0 -113 -84 -206 -228 -206h-294v700zM299 573h-77v-154h73c52 0 84 37 84 83c0 38 -25 71 -80 71zM325 296h-103v-169h107c64 0 90 39 90 89c0 43 -32 80 -94 80z" />
    <glyph glyph-name="C" unicode="C" 
d="M578 455l-161 -21c-10 83 -35 140 -99 140c-85 0 -112 -91 -112 -224s27 -224 112 -224c62 0 89 64 98 130l156 -19c-21 -157 -113 -249 -255 -249c-189 0 -275 147 -275 362s91 362 276 362c149 0 240 -88 260 -257z" />
    <glyph glyph-name="D" unicode="D" 
d="M64 700h217c197 0 307 -135 307 -338c0 -210 -111 -362 -307 -362h-217v700zM284 564h-58v-428h58c93 0 140 94 140 226c0 120 -47 202 -140 202z" />
    <glyph glyph-name="E" unicode="E" 
d="M84 700h479v-136h-318v-143h278v-134h-278v-151h328v-136h-489v700z" />
    <glyph glyph-name="F" unicode="F" 
d="M84 700h502v-136h-341v-156h301v-137h-301v-271h-161v700z" />
    <glyph glyph-name="G" unicode="G" 
d="M32 346c0 217 96 366 284 366c137 0 220 -79 249 -220l-155 -28c-13 72 -40 110 -96 110c-88 0 -117 -93 -117 -228c0 -128 33 -218 118 -218c73 0 105 59 105 114v24h-94v121h237v-387h-138v53c-28 -43 -76 -65 -139 -65c-168 0 -254 147 -254 358z" />
    <glyph glyph-name="H" unicode="H" 
d="M64 700h161v-271h170v271h161v-700h-161v291h-170v-291h-161v700z" />
    <glyph glyph-name="I" unicode="I" 
d="M72 135h157v430h-157v135h476v-135h-157v-430h157v-135h-476v135z" />
    <glyph glyph-name="J" unicode="J" 
d="M223 700h326v-467c0 -156 -81 -245 -245 -245c-163 0 -245 90 -245 245v27l159 30v-61c0 -64 25 -105 86 -105c59 0 84 41 84 103v336h-165v137z" />
    <glyph glyph-name="K" unicode="K" 
d="M618 0h-188l-160 274l-44 -55v-219h-162v700h162v-266l197 266h186l-230 -304z" />
    <glyph glyph-name="L" unicode="L" 
d="M85 700h161v-564h332v-136h-493v700z" />
    <glyph glyph-name="M" unicode="M" 
d="M48 700h184l80 -272l86 272h175v-700h-142v477l-87 -273h-77l-80 264v-468h-139v700z" />
    <glyph glyph-name="N" unicode="N" 
d="M64 700h170l169 -364v364h153v-700h-139l-200 432v-432h-153v700z" />
    <glyph glyph-name="O" unicode="O" 
d="M309 -12c-187 0 -277 147 -277 362s93 362 278 362c191 0 278 -147 278 -362s-91 -362 -279 -362zM310 124c88 0 114 92 114 226s-26 226 -114 226c-89 0 -114 -92 -114 -226s25 -226 114 -226z" />
    <glyph glyph-name="P" unicode="P" 
d="M64 700h266c162 0 260 -101 260 -231s-98 -245 -260 -245h-105v-224h-161v700zM318 566h-93v-207h93c73 0 108 48 108 110c0 53 -35 97 -108 97z" />
    <glyph glyph-name="Q" unicode="Q" 
d="M562 -183h-152c-96 0 -181 38 -181 151v30c-132 37 -197 170 -197 352c0 215 93 362 278 362c191 0 278 -147 278 -362c0 -181 -64 -314 -197 -351v-19c0 -31 20 -38 40 -38h131v-125zM310 124c88 0 114 92 114 226s-26 226 -114 226c-89 0 -114 -92 -114 -226
s25 -226 114 -226z" />
    <glyph glyph-name="R" unicode="R" 
d="M578 0h-161l-10 169c-3 45 -24 76 -97 76h-85v-245h-161v700h259c161 0 255 -88 255 -199c0 -75 -40 -143 -112 -180c68 -25 98 -74 102 -150zM310 566h-85v-190h85c71 0 105 46 105 103c0 47 -32 87 -105 87z" />
    <glyph glyph-name="S" unicode="S" 
d="M588 216c0 -117 -90 -228 -268 -228c-177 0 -285 89 -288 230l164 18c2 -82 49 -120 124 -120c79 0 102 46 102 82c0 44 -22 64 -78 75l-89 17c-93 18 -200 67 -200 210c0 100 80 212 255 212s255 -100 265 -205l-166 -18c-9 73 -50 95 -99 95c-73 0 -93 -39 -93 -73
c0 -44 23 -63 64 -71l104 -20c128 -25 203 -88 203 -204z" />
    <glyph glyph-name="T" unicode="T" 
d="M27 700h566v-138h-202v-562h-162v562h-202v138z" />
    <glyph glyph-name="U" unicode="U" 
d="M560 700v-472c0 -159 -112 -240 -249 -240c-138 0 -251 81 -251 240v472h161v-472c0 -75 40 -104 90 -104c49 0 88 29 88 104v472h161z" />
    <glyph glyph-name="V" unicode="V" 
d="M11 700h170l133 -480l131 480h164l-214 -700h-169z" />
    <glyph glyph-name="W" unicode="W" 
d="M11 700h152l36 -414l57 274h118l58 -276l33 416h144l-78 -700h-150l-71 372l-69 -372h-150z" />
    <glyph glyph-name="X" unicode="X" 
d="M11 700h192l107 -207l113 207h184l-209 -344l214 -356h-193l-113 211l-111 -211h-187l206 354z" />
    <glyph glyph-name="Y" unicode="Y" 
d="M7 700h175l130 -275l133 275h168l-222 -434v-266h-162v257z" />
    <glyph glyph-name="Z" unicode="Z" 
d="M585 136v-136h-546v117l323 447h-310v136h517v-118l-322 -446h338z" />
    <glyph glyph-name="bracketleft" unicode="[" 
d="M149 -132v874h335v-119h-182v-636h182v-119h-335z" />
    <glyph glyph-name="backslash" unicode="\" 
d="M548 -132h-125l-351 874h125z" />
    <glyph glyph-name="bracketright" unicode="]" 
d="M471 -132h-335v119h182v636h-182v119h335v-874z" />
    <glyph glyph-name="asciicircum" unicode="^" 
d="M387 700l188 -419h-151l-114 263l-113 -263h-152l190 419h152z" />
    <glyph glyph-name="underscore" unicode="_" 
d="M57 0h506v-111h-506v111z" />
    <glyph glyph-name="grave" unicode="`" 
d="M326 726l96 -160h-129l-100 160h133z" />
    <glyph glyph-name="a" unicode="a" 
d="M578 0h-71c-36 0 -93 8 -113 58c-32 -44 -83 -70 -152 -70c-119 0 -180 73 -180 150c0 98 67 144 154 159l132 22c21 3 28 15 28 32c0 24 -17 56 -72 56c-63 0 -80 -39 -85 -66l-143 15c11 78 82 166 234 166c156 0 214 -94 214 -192v-168c0 -23 8 -37 36 -37h18v-125z
M211 154c0 -33 22 -52 64 -52c59 0 104 44 104 104v19l-108 -16c-46 -7 -60 -28 -60 -55z" />
    <glyph glyph-name="b" unicode="b" 
d="M356 522c140 0 228 -105 228 -263c0 -156 -87 -271 -228 -271c-69 0 -121 27 -156 74v-62h-143v700h152v-246c34 42 82 68 147 68zM320 395c-72 0 -113 -58 -113 -140c0 -80 42 -141 113 -141c70 0 108 60 108 141c0 80 -38 140 -108 140z" />
    <glyph glyph-name="c" unicode="c" 
d="M325 114c57 0 87 34 96 83l144 -18c-24 -122 -112 -191 -244 -191c-164 0 -256 113 -256 266c0 155 93 268 258 268c136 0 226 -71 246 -200l-147 -16c-11 53 -38 89 -98 89c-75 0 -104 -60 -104 -141c0 -79 29 -140 105 -140z" />
    <glyph glyph-name="d" unicode="d" 
d="M264 -12c-140 0 -228 105 -228 263c0 156 87 271 228 271c64 0 113 -24 147 -65v243h152v-700h-143v66c-35 -49 -86 -78 -156 -78zM300 114c72 0 113 58 113 141c0 79 -42 140 -113 140c-70 0 -108 -59 -108 -140s38 -141 108 -141z" />
    <glyph glyph-name="e" unicode="e" 
d="M321 107c60 0 81 29 95 61l131 -33c-33 -106 -125 -147 -226 -147c-169 0 -262 100 -262 266c0 155 103 268 259 268c143 0 244 -102 244 -261v-48h-354c10 -71 48 -106 113 -106zM316 403c-56 0 -94 -28 -106 -93h201c-7 65 -43 93 -95 93z" />
    <glyph glyph-name="f" unicode="f" 
d="M90 122h120v266h-138v122h138v28c0 86 49 162 189 162h172v-125h-165c-37 0 -44 -24 -44 -50v-15h192v-122h-192v-266h138v-122h-410v122z" />
    <glyph glyph-name="g" unicode="g" 
d="M270 33c-138 0 -222 96 -222 242c0 141 83 247 222 247c66 0 115 -24 148 -65v53h144v-477c0 -118 -67 -230 -258 -230c-173 0 -243 88 -251 173l152 17c7 -27 24 -70 103 -70c90 0 102 67 102 110v60c-32 -38 -79 -60 -140 -60zM308 159c66 0 104 48 104 118
c0 67 -39 119 -104 119c-68 0 -104 -51 -104 -119c0 -69 36 -118 104 -118z" />
    <glyph glyph-name="h" unicode="h" 
d="M551 0h-152v305c0 59 -31 89 -81 89c-59 0 -92 -36 -92 -104v-290h-152v700h152v-235c30 35 75 57 137 57c129 0 188 -88 188 -193v-329z" />
    <glyph glyph-name="i" unicode="i" 
d="M243 738h162v-162h-162v162zM91 122h162v266h-162v122h314v-388h162v-122h-476v122z" />
    <glyph glyph-name="j" unicode="j" 
d="M315 738h162v-162h-162v162zM477 510v-515c0 -96 -44 -180 -191 -180h-201v125h188c44 0 52 25 52 62v386h-225v122h377z" />
    <glyph glyph-name="k" unicode="k" 
d="M600 0h-183l-133 209l-63 -65v-144h-152v700h152v-377l173 187h185l-186 -194z" />
    <glyph glyph-name="l" unicode="l" 
d="M91 122h162v456h-162v122h314v-578h162v-122h-476v122z" />
    <glyph glyph-name="m" unicode="m" 
d="M374 0h-128v362c0 26 -14 41 -34 41c-26 0 -41 -19 -41 -53v-350h-128v510h119v-44c16 34 48 56 91 56s78 -21 92 -66c15 38 53 66 102 66c88 0 131 -65 131 -143v-379h-129v362c0 26 -14 41 -34 41c-26 0 -41 -19 -41 -53v-350z" />
    <glyph glyph-name="n" unicode="n" 
d="M551 0h-152v305c0 59 -31 89 -81 89c-59 0 -92 -36 -92 -104v-290h-152v510h144v-55c30 40 77 67 145 67c129 0 188 -88 188 -193v-329z" />
    <glyph glyph-name="o" unicode="o" 
d="M310 522c168 0 264 -113 264 -267s-101 -267 -264 -267c-169 0 -263 113 -263 267s99 267 263 267zM310 400c-77 0 -109 -62 -109 -145s32 -145 109 -145c79 0 110 62 110 145s-31 145 -110 145z" />
    <glyph glyph-name="p" unicode="p" 
d="M356 522c140 0 228 -105 228 -263c0 -156 -87 -271 -228 -271c-64 0 -113 23 -147 64v-237h-152v695h143v-67c35 49 86 79 156 79zM320 395c-72 0 -113 -58 -113 -140c0 -80 42 -141 113 -141c70 0 108 60 108 141c0 80 -38 140 -108 140z" />
    <glyph glyph-name="q" unicode="q" 
d="M264 -12c-140 0 -227 105 -227 263c0 156 86 271 227 271c69 0 122 -27 156 -75v63h143v-695h-152v240c-34 -42 -82 -67 -147 -67zM301 114c71 0 112 58 112 141c0 79 -42 140 -112 140c-71 0 -109 -59 -109 -140s38 -141 109 -141z" />
    <glyph glyph-name="r" unicode="r" 
d="M78 122h132v266h-132v122h275v-72c30 46 74 72 129 72h90v-138h-96c-75 0 -114 -42 -114 -153v-97h172v-122h-456v122z" />
    <glyph glyph-name="s" unicode="s" 
d="M551 161c0 -104 -74 -173 -238 -173c-172 0 -237 82 -243 165l152 15c4 -45 38 -69 98 -69c62 0 80 22 80 48c0 25 -23 35 -63 42l-82 15c-80 15 -166 46 -166 153c0 90 76 165 225 165c161 0 216 -81 227 -158l-139 -16c-8 35 -37 64 -92 64c-60 0 -77 -21 -77 -43
c0 -26 22 -33 61 -40l89 -17c105 -20 168 -55 168 -151z" />
    <glyph glyph-name="t" unicode="t" 
d="M60 388v122h138v151h152v-151h195v-122h-195v-209c0 -37 8 -54 48 -54h161v-125h-192c-125 0 -169 56 -169 157v231h-138z" />
    <glyph glyph-name="u" unicode="u" 
d="M541 0h-144v54c-29 -40 -75 -66 -140 -66c-125 0 -183 88 -183 193v329h152v-305c0 -59 29 -90 76 -90c56 0 87 37 87 104v291h152v-510z" />
    <glyph glyph-name="v" unicode="v" 
d="M37 510h160l119 -329l119 329h149l-195 -510h-157z" />
    <glyph glyph-name="w" unicode="w" 
d="M10 510h138l40 -296l75 296h100l78 -295l42 295h127l-87 -510h-122l-86 318l-88 -318h-130z" />
    <glyph glyph-name="x" unicode="x" 
d="M40 510h175l99 -144l103 144h169l-184 -251l189 -259h-178l-107 149l-107 -149h-170l186 258z" />
    <glyph glyph-name="y" unicode="y" 
d="M36 510h161l117 -317l120 317h151l-208 -529c-54 -138 -107 -166 -215 -166h-84v123h85c39 0 60 10 69 37l8 23z" />
    <glyph glyph-name="z" unicode="z" 
d="M546 125v-125h-472v107l269 278h-256v125h446v-110l-266 -275h279z" />
    <glyph glyph-name="braceleft" unicode="{" 
d="M97 368h68c47 0 68 20 68 54c0 48 -20 106 -20 175c0 90 66 145 168 145h126v-117h-83c-33 0 -52 -16 -52 -48c0 -50 16 -108 16 -166c0 -59 -30 -87 -70 -106c41 -18 70 -47 70 -106c0 -58 -16 -116 -16 -166c0 -32 19 -48 52 -48h83v-117h-126c-102 0 -168 55 -168 145
c0 69 20 126 20 175c0 33 -21 54 -68 54h-68v126z" />
    <glyph glyph-name="bar" unicode="|" 
d="M374 -132h-128v874h128v-874z" />
    <glyph glyph-name="braceright" unicode="}" 
d="M523 368v-126h-68c-47 0 -68 -21 -68 -54c0 -49 20 -106 20 -175c0 -90 -66 -145 -168 -145h-126v117h83c33 0 52 16 52 48c0 50 -16 108 -16 166c0 59 29 88 70 106c-40 19 -70 47 -70 106c0 58 16 116 16 166c0 32 -19 48 -52 48h-83v117h126c102 0 168 -55 168 -145
c0 -69 -20 -127 -20 -175c0 -34 21 -54 68 -54h68z" />
    <glyph glyph-name="asciitilde" unicode="~" 
d="M423 263c-64 0 -138 49 -184 49c-34 0 -43 -27 -44 -54h-112c-4 104 42 185 141 185c69 0 124 -48 171 -48c27 0 30 20 29 47h112c7 -107 -32 -179 -113 -179z" />
    <glyph glyph-name="Adieresis" unicode="&#xc4;" 
d="M144 770v134h139v-134h-139zM337 770v134h139v-134h-139zM172 0h-159l205 700h184l205 -700h-170l-28 112h-208zM305 520l-71 -276h141z" />
    <glyph glyph-name="Aring" unicode="&#xc5;" 
d="M310 992c84 0 132 -54 132 -117c0 -62 -47 -115 -132 -115c-86 0 -132 53 -132 115c0 63 46 117 132 117zM310 925c-33 0 -48 -22 -48 -49s15 -49 48 -49s48 22 48 49s-15 49 -48 49zM172 0h-159l205 700h184l205 -700h-170l-28 112h-208zM305 520l-71 -276h141z" />
    <glyph glyph-name="Ccedilla" unicode="&#xc7;" 
d="M427 -136c0 -63 -44 -108 -124 -108c-72 0 -110 38 -116 93l83 2c2 -16 14 -25 33 -25c24 0 34 15 34 33c0 21 -12 34 -34 34c-12 0 -25 -5 -34 -16l-51 37l56 77c-159 21 -232 161 -232 359c0 215 91 362 276 362c149 0 240 -88 260 -257l-161 -21
c-10 83 -35 140 -99 140c-85 0 -112 -91 -112 -224s27 -224 112 -224c62 0 89 64 98 130l156 -19c-19 -143 -97 -232 -219 -247l-24 -33c62 -6 98 -43 98 -93z" />
    <glyph glyph-name="Eacute" unicode="&#xc9;" 
d="M355 926h134l-103 -160h-127zM84 700h479v-136h-318v-143h278v-134h-278v-151h328v-136h-489v700z" />
    <glyph glyph-name="Ntilde" unicode="&#xd1;" 
d="M356 886c15 0 22 5 22 30h94c1 -91 -17 -140 -85 -140c-55 0 -85 31 -119 31c-17 0 -26 -13 -26 -34h-96c0 76 22 140 97 140c55 0 88 -27 113 -27zM64 700h170l169 -364v364h153v-700h-139l-200 432v-432h-153v700z" />
    <glyph glyph-name="Odieresis" unicode="&#xd6;" 
d="M144 770v134h139v-134h-139zM337 770v134h139v-134h-139zM309 -12c-187 0 -277 147 -277 362s93 362 278 362c191 0 278 -147 278 -362s-91 -362 -279 -362zM310 124c88 0 114 92 114 226s-26 226 -114 226c-89 0 -114 -92 -114 -226s25 -226 114 -226z" />
    <glyph glyph-name="Udieresis" unicode="&#xdc;" 
d="M144 770v134h139v-134h-139zM337 770v134h139v-134h-139zM560 700v-472c0 -159 -112 -240 -249 -240c-138 0 -251 81 -251 240v472h161v-472c0 -75 40 -104 90 -104c49 0 88 29 88 104v472h161z" />
    <glyph glyph-name="aacute" unicode="&#xe1;" 
d="M342 726h134l-103 -160h-127zM578 0h-71c-36 0 -93 8 -113 58c-32 -44 -83 -70 -152 -70c-119 0 -180 73 -180 150c0 98 67 144 154 159l132 22c21 3 28 15 28 32c0 24 -17 56 -72 56c-63 0 -80 -39 -85 -66l-143 15c11 78 82 166 234 166c156 0 214 -94 214 -192v-168
c0 -23 8 -37 36 -37h18v-125zM211 154c0 -33 22 -52 64 -52c59 0 104 44 104 104v19l-108 -16c-46 -7 -60 -28 -60 -55z" />
    <glyph glyph-name="agrave" unicode="&#xe0;" 
d="M274 726l96 -160h-129l-100 160h133zM578 0h-71c-36 0 -93 8 -113 58c-32 -44 -83 -70 -152 -70c-119 0 -180 73 -180 150c0 98 67 144 154 159l132 22c21 3 28 15 28 32c0 24 -17 56 -72 56c-63 0 -80 -39 -85 -66l-143 15c11 78 82 166 234 166c156 0 214 -94 214 -192
v-168c0 -23 8 -37 36 -37h18v-125zM211 154c0 -33 22 -52 64 -52c59 0 104 44 104 104v19l-108 -16c-46 -7 -60 -28 -60 -55z" />
    <glyph glyph-name="acircumflex" unicode="&#xe2;" 
d="M240 726h134l118 -160h-131l-56 75l-53 -75h-129zM578 0h-71c-36 0 -93 8 -113 58c-32 -44 -83 -70 -152 -70c-119 0 -180 73 -180 150c0 98 67 144 154 159l132 22c21 3 28 15 28 32c0 24 -17 56 -72 56c-63 0 -80 -39 -85 -66l-143 15c11 78 82 166 234 166
c156 0 214 -94 214 -192v-168c0 -23 8 -37 36 -37h18v-125zM211 154c0 -33 22 -52 64 -52c59 0 104 44 104 104v19l-108 -16c-46 -7 -60 -28 -60 -55z" />
    <glyph glyph-name="adieresis" unicode="&#xe4;" 
d="M141 570v134h139v-134h-139zM334 570v134h139v-134h-139zM578 0h-71c-36 0 -93 8 -113 58c-32 -44 -83 -70 -152 -70c-119 0 -180 73 -180 150c0 98 67 144 154 159l132 22c21 3 28 15 28 32c0 24 -17 56 -72 56c-63 0 -80 -39 -85 -66l-143 15c11 78 82 166 234 166
c156 0 214 -94 214 -192v-168c0 -23 8 -37 36 -37h18v-125zM211 154c0 -33 22 -52 64 -52c59 0 104 44 104 104v19l-108 -16c-46 -7 -60 -28 -60 -55z" />
    <glyph glyph-name="atilde" unicode="&#xe3;" 
d="M354 686c15 0 22 5 22 30h94c1 -91 -17 -140 -85 -140c-55 0 -85 31 -119 31c-17 0 -26 -13 -26 -34h-96c0 76 22 140 97 140c55 0 88 -27 113 -27zM578 0h-71c-36 0 -93 8 -113 58c-32 -44 -83 -70 -152 -70c-119 0 -180 73 -180 150c0 98 67 144 154 159l132 22
c21 3 28 15 28 32c0 24 -17 56 -72 56c-63 0 -80 -39 -85 -66l-143 15c11 78 82 166 234 166c156 0 214 -94 214 -192v-168c0 -23 8 -37 36 -37h18v-125zM211 154c0 -33 22 -52 64 -52c59 0 104 44 104 104v19l-108 -16c-46 -7 -60 -28 -60 -55z" />
    <glyph glyph-name="aring" unicode="&#xe5;" 
d="M307 792c84 0 132 -54 132 -117c0 -62 -47 -115 -132 -115c-86 0 -132 53 -132 115c0 63 46 117 132 117zM307 725c-33 0 -48 -22 -48 -49s15 -49 48 -49s48 22 48 49s-15 49 -48 49zM578 0h-71c-36 0 -93 8 -113 58c-32 -44 -83 -70 -152 -70c-119 0 -180 73 -180 150
c0 98 67 144 154 159l132 22c21 3 28 15 28 32c0 24 -17 56 -72 56c-63 0 -80 -39 -85 -66l-143 15c11 78 82 166 234 166c156 0 214 -94 214 -192v-168c0 -23 8 -37 36 -37h18v-125zM211 154c0 -33 22 -52 64 -52c59 0 104 44 104 104v19l-108 -16c-46 -7 -60 -28 -60 -55z
" />
    <glyph glyph-name="ccedilla" unicode="&#xe7;" 
d="M325 114c57 0 87 34 96 83l144 -18c-22 -111 -96 -178 -209 -189l-24 -33c62 -6 98 -43 98 -93c0 -63 -44 -108 -124 -108c-72 0 -110 38 -116 93l83 2c2 -16 14 -25 33 -25c24 0 34 15 34 33c0 21 -12 34 -34 34c-12 0 -25 -5 -34 -16l-51 37l56 77
c-136 19 -212 124 -212 263c0 155 93 268 258 268c136 0 226 -71 246 -200l-147 -16c-11 53 -38 89 -98 89c-75 0 -104 -60 -104 -141c0 -79 29 -140 105 -140z" />
    <glyph glyph-name="eacute" unicode="&#xe9;" 
d="M353 726h134l-103 -160h-127zM321 107c60 0 81 29 95 61l131 -33c-33 -106 -125 -147 -226 -147c-169 0 -262 100 -262 266c0 155 103 268 259 268c143 0 244 -102 244 -261v-48h-354c10 -71 48 -106 113 -106zM316 403c-56 0 -94 -28 -106 -93h201c-7 65 -43 93 -95 93z
" />
    <glyph glyph-name="egrave" unicode="&#xe8;" 
d="M285 726l96 -160h-129l-100 160h133zM321 107c60 0 81 29 95 61l131 -33c-33 -106 -125 -147 -226 -147c-169 0 -262 100 -262 266c0 155 103 268 259 268c143 0 244 -102 244 -261v-48h-354c10 -71 48 -106 113 -106zM316 403c-56 0 -94 -28 -106 -93h201
c-7 65 -43 93 -95 93z" />
    <glyph glyph-name="ecircumflex" unicode="&#xea;" 
d="M250 726h134l118 -160h-131l-56 75l-53 -75h-129zM321 107c60 0 81 29 95 61l131 -33c-33 -106 -125 -147 -226 -147c-169 0 -262 100 -262 266c0 155 103 268 259 268c143 0 244 -102 244 -261v-48h-354c10 -71 48 -106 113 -106zM316 403c-56 0 -94 -28 -106 -93h201
c-7 65 -43 93 -95 93z" />
    <glyph glyph-name="edieresis" unicode="&#xeb;" 
d="M152 570v134h139v-134h-139zM345 570v134h139v-134h-139zM321 107c60 0 81 29 95 61l131 -33c-33 -106 -125 -147 -226 -147c-169 0 -262 100 -262 266c0 155 103 268 259 268c143 0 244 -102 244 -261v-48h-354c10 -71 48 -106 113 -106zM316 403
c-56 0 -94 -28 -106 -93h201c-7 65 -43 93 -95 93z" />
    <glyph glyph-name="iacute" unicode="&#xed;" 
d="M328 726h134l-103 -160h-127zM91 122h162v266h-162v122h314v-388h162v-122h-476v122z" />
    <glyph glyph-name="igrave" unicode="&#xec;" 
d="M260 726l96 -160h-129l-100 160h133zM91 122h162v266h-162v122h314v-388h162v-122h-476v122z" />
    <glyph glyph-name="icircumflex" unicode="&#xee;" 
d="M190 726h134l118 -160h-131l-56 75l-53 -75h-129zM91 122h162v266h-162v122h314v-388h162v-122h-476v122z" />
    <glyph glyph-name="idieresis" unicode="&#xef;" 
d="M99 570v134h139v-134h-139zM292 570v134h139v-134h-139zM91 122h162v266h-162v122h314v-388h162v-122h-476v122z" />
    <glyph glyph-name="ntilde" unicode="&#xf1;" 
d="M366 686c15 0 22 5 22 30h94c1 -91 -17 -140 -85 -140c-55 0 -85 31 -119 31c-17 0 -26 -13 -26 -34h-96c0 76 22 140 97 140c55 0 88 -27 113 -27zM551 0h-152v305c0 59 -31 89 -81 89c-59 0 -92 -36 -92 -104v-290h-152v510h144v-55c30 40 77 67 145 67
c129 0 188 -88 188 -193v-329z" />
    <glyph glyph-name="oacute" unicode="&#xf3;" 
d="M345 726h134l-103 -160h-127zM310 522c168 0 264 -113 264 -267s-101 -267 -264 -267c-169 0 -263 113 -263 267s99 267 263 267zM310 400c-77 0 -109 -62 -109 -145s32 -145 109 -145c79 0 110 62 110 145s-31 145 -110 145z" />
    <glyph glyph-name="ograve" unicode="&#xf2;" 
d="M277 726l96 -160h-129l-100 160h133zM310 522c168 0 264 -113 264 -267s-101 -267 -264 -267c-169 0 -263 113 -263 267s99 267 263 267zM310 400c-77 0 -109 -62 -109 -145s32 -145 109 -145c79 0 110 62 110 145s-31 145 -110 145z" />
    <glyph glyph-name="ocircumflex" unicode="&#xf4;" 
d="M243 726h134l118 -160h-131l-56 75l-53 -75h-129zM310 522c168 0 264 -113 264 -267s-101 -267 -264 -267c-169 0 -263 113 -263 267s99 267 263 267zM310 400c-77 0 -109 -62 -109 -145s32 -145 109 -145c79 0 110 62 110 145s-31 145 -110 145z" />
    <glyph glyph-name="odieresis" unicode="&#xf6;" 
d="M144 570v134h139v-134h-139zM337 570v134h139v-134h-139zM310 522c168 0 264 -113 264 -267s-101 -267 -264 -267c-169 0 -263 113 -263 267s99 267 263 267zM310 400c-77 0 -109 -62 -109 -145s32 -145 109 -145c79 0 110 62 110 145s-31 145 -110 145z" />
    <glyph glyph-name="otilde" unicode="&#xf5;" 
d="M357 686c15 0 22 5 22 30h94c1 -91 -17 -140 -85 -140c-55 0 -85 31 -119 31c-17 0 -26 -13 -26 -34h-96c0 76 22 140 97 140c55 0 88 -27 113 -27zM310 522c168 0 264 -113 264 -267s-101 -267 -264 -267c-169 0 -263 113 -263 267s99 267 263 267zM310 400
c-77 0 -109 -62 -109 -145s32 -145 109 -145c79 0 110 62 110 145s-31 145 -110 145z" />
    <glyph glyph-name="uacute" unicode="&#xfa;" 
d="M342 726h134l-103 -160h-127zM541 0h-144v54c-29 -40 -75 -66 -140 -66c-125 0 -183 88 -183 193v329h152v-305c0 -59 29 -90 76 -90c56 0 87 37 87 104v291h152v-510z" />
    <glyph glyph-name="ugrave" unicode="&#xf9;" 
d="M274 726l96 -160h-129l-100 160h133zM541 0h-144v54c-29 -40 -75 -66 -140 -66c-125 0 -183 88 -183 193v329h152v-305c0 -59 29 -90 76 -90c56 0 87 37 87 104v291h152v-510z" />
    <glyph glyph-name="ucircumflex" unicode="&#xfb;" 
d="M239 726h134l118 -160h-131l-56 75l-53 -75h-129zM541 0h-144v54c-29 -40 -75 -66 -140 -66c-125 0 -183 88 -183 193v329h152v-305c0 -59 29 -90 76 -90c56 0 87 37 87 104v291h152v-510z" />
    <glyph glyph-name="udieresis" unicode="&#xfc;" 
d="M141 570v134h139v-134h-139zM334 570v134h139v-134h-139zM541 0h-144v54c-29 -40 -75 -66 -140 -66c-125 0 -183 88 -183 193v329h152v-305c0 -59 29 -90 76 -90c56 0 87 37 87 104v291h152v-510z" />
    <glyph glyph-name="dagger" unicode="&#x2020;" 
d="M386 0h-152v390h-153v120h153v190h152v-190h153v-120h-153v-390z" />
    <glyph glyph-name="degree" unicode="&#xb0;" 
d="M311 706c95 0 170 -75 170 -170s-75 -171 -170 -171s-172 76 -172 171s77 170 172 170zM311 600c-35 0 -62 -27 -62 -64c0 -36 27 -63 62 -63c36 0 64 27 64 63c0 37 -28 64 -64 64z" />
    <glyph glyph-name="cent" unicode="&#xa2;" 
d="M149 -83l38 103c-79 44 -122 130 -122 234c0 155 93 268 258 268c17 0 34 -1 49 -3l28 74h87l-36 -98c64 -31 105 -90 118 -173l-147 -16c-4 21 -11 39 -22 54l-91 -245c5 -1 11 -1 16 -1c57 0 87 34 96 83l144 -18c-24 -122 -112 -191 -244 -191c-20 0 -39 2 -57 5
l-28 -76h-87zM220 254c0 -36 6 -68 20 -93l86 234h-2c-75 0 -104 -60 -104 -141z" />
    <glyph glyph-name="sterling" unicode="&#xa3;" 
d="M42 272v102h61c-10 30 -25 66 -25 123c0 107 74 215 252 215c142 0 229 -73 247 -213l-155 -30c-8 81 -45 117 -98 117c-56 0 -90 -34 -90 -88c0 -33 9 -63 18 -94l9 -30h168v-102h-138c15 -61 5 -105 -25 -140h312v-132h-527v102c62 14 118 59 95 134l-11 36h-93z" />
    <glyph glyph-name="section" unicode="&#xa7;" 
d="M548 3c0 -95 -74 -200 -245 -200c-164 0 -242 100 -252 204l164 19c9 -79 49 -101 96 -101c64 0 80 40 80 67c0 40 -23 54 -58 63l-131 33c-103 26 -165 75 -165 166c0 54 26 103 75 139c-24 29 -40 66 -40 119c0 95 78 200 250 200c163 0 237 -100 247 -204l-164 -19
c-9 79 -49 101 -96 101c-64 0 -80 -40 -80 -67c0 -40 23 -54 58 -63l131 -33c103 -26 165 -75 165 -166c0 -54 -26 -104 -75 -140c24 -28 40 -65 40 -118zM253 223l105 -26c18 -4 36 -11 54 -17c18 14 25 33 25 52c0 35 -23 48 -70 60l-105 26c-18 4 -36 11 -53 17
c-19 -14 -27 -33 -27 -52c0 -35 24 -48 71 -60z" />
    <glyph glyph-name="bullet" unicode="&#x2022;" 
d="M171 499h279v-279h-279v279z" />
    <glyph glyph-name="paragraph" unicode="&#xb6;" 
d="M363 700v-885h-119v395c-143 8 -213 124 -213 249c0 132 92 241 228 241h104zM557 700v-885h-119v885h119z" />
    <glyph glyph-name="germandbls" unicode="&#xdf;" 
d="M308 586c-76 0 -95 -64 -95 -117v-469h-152v475c0 116 69 237 250 237c148 0 225 -79 225 -176c0 -64 -36 -119 -92 -150c81 -26 129 -95 129 -174c0 -117 -84 -212 -254 -212h-37v124h29c72 0 108 44 108 99c0 45 -28 86 -98 86h-39v122h24c52 0 81 31 81 82
c0 41 -25 73 -79 73z" />
    <glyph glyph-name="registered" unicode="&#xae;" 
d="M310 712c183 0 285 -161 285 -361s-102 -363 -285 -363s-285 163 -285 363s102 361 285 361zM310 645c-137 0 -212 -132 -212 -294s75 -295 212 -295s212 133 212 295s-75 294 -212 294zM452 179h-107l-4 81c-1 23 -11 37 -47 37h-13v-118h-105v350h157
c75 0 119 -45 119 -100c0 -38 -20 -72 -56 -92c34 -11 49 -36 51 -76zM306 447h-25v-71h25c29 0 41 17 41 39c0 19 -12 32 -41 32z" />
    <glyph glyph-name="copyright" unicode="&#xa9;" 
d="M310 712c183 0 285 -161 285 -361s-102 -363 -285 -363s-285 163 -285 363s102 361 285 361zM310 645c-137 0 -212 -132 -212 -294s75 -295 212 -295s212 133 212 295s-75 294 -212 294zM313 260c29 0 42 19 47 50l110 -14c-16 -87 -73 -136 -159 -136
c-106 0 -167 81 -167 189c0 110 61 190 168 190c90 0 146 -50 161 -143l-111 -10c-6 32 -18 54 -49 54c-37 0 -51 -39 -51 -90c0 -52 14 -90 51 -90z" />
    <glyph glyph-name="trademark" unicode="&#x2122;" 
d="M285 700h110l46 -133l46 133h106v-350h-90v209l-36 -108h-55l-41 111v-212h-86v350zM23 700h229v-92h-58v-258h-113v258h-58v92z" />
    <glyph glyph-name="acute" unicode="&#xb4;" 
d="M294 726h134l-103 -160h-127z" />
    <glyph glyph-name="dieresis" unicode="&#xa8;" 
d="M144 570v134h139v-134h-139zM337 570v134h139v-134h-139z" />
    <glyph glyph-name="notequal" unicode="&#x2260;" 
d="M128 87l39 82h-89v128h150l50 106h-200v128h261l39 82h108l-39 -82h97v-128h-158l-50 -106h208v-128h-269l-39 -82h-108z" />
    <glyph glyph-name="AE" unicode="&#xc6;" 
d="M170 0h-167l185 700h397v-136h-123v-143h87v-134h-87v-151h133v-136h-294v124h-103zM227 252h74v316h-2z" />
    <glyph glyph-name="Oslash" unicode="&#xd8;" 
d="M23 -40l75 133c-44 63 -66 152 -66 257c0 215 93 362 278 362c47 0 87 -9 122 -25l30 53h135l-74 -131c44 -64 65 -153 65 -259c0 -215 -91 -362 -279 -362c-46 0 -86 9 -120 25l-30 -53h-136zM196 350c0 -33 1 -63 5 -90l167 297c-15 12 -34 19 -58 19
c-89 0 -114 -92 -114 -226zM310 124c88 0 114 92 114 226c0 32 -2 62 -5 89l-167 -297c16 -12 35 -18 58 -18z" />
    <glyph glyph-name="infinity" unicode="&#x221e;" 
d="M607 350c0 -111 -65 -180 -154 -180c-53 0 -104 34 -148 89c-42 -58 -88 -89 -138 -89c-89 0 -154 69 -154 180s65 180 154 180c51 0 104 -31 146 -87c42 56 90 87 140 87c89 0 154 -69 154 -180zM136 350c0 -40 22 -62 50 -62c31 0 53 24 79 59c-27 37 -49 65 -79 65
c-28 0 -50 -22 -50 -62zM434 412c-30 0 -53 -23 -80 -58c27 -38 49 -66 80 -66c28 0 50 22 50 62s-22 62 -50 62z" />
    <glyph glyph-name="plusminus" unicode="&#xb1;" 
d="M246 234v159h-161v127h161v158h129v-158h160v-127h-160v-159h-129zM85 139h449v-119h-449v119z" />
    <glyph glyph-name="lessequal" unicode="&#x2264;" 
d="M85 501l450 181v-147l-249 -96l249 -96v-153l-450 181v130zM85 139h450v-119h-450v119z" />
    <glyph glyph-name="greaterequal" unicode="&#x2265;" 
d="M535 501v-130l-450 -181v153l249 96l-249 96v147zM535 139v-119h-450v119h450z" />
    <glyph glyph-name="yen" unicode="&#xa5;" 
d="M63 136v90h166v31l-12 23h-154v90h109l-165 330h175l130 -275l133 275h168l-169 -330h113v-90h-159l-7 -14v-40h166v-90h-166v-136h-162v136h-166z" />
    <glyph glyph-name="mu" unicode="&#xb5;" 
d="M544 0h-144v54c-29 -40 -75 -66 -141 -66c-17 0 -32 3 -45 7l15 -73v-107h-152v695h152v-305c0 -59 29 -90 76 -90c56 0 87 37 87 104v291h152v-510z" />
    <glyph glyph-name="partialdiff" unicode="&#x2202;" 
d="M53 205c0 126 86 217 211 217c48 0 102 -12 148 -52c-9 136 -45 217 -154 217c-59 0 -107 -27 -133 -44l-55 101c36 25 110 68 208 68c271 0 288 -295 288 -395c0 -208 -112 -329 -275 -329c-143 0 -238 88 -238 217zM304 107c54 0 96 38 96 97c0 57 -36 93 -94 93
c-66 0 -97 -41 -97 -95c0 -62 43 -95 95 -95z" />
    <glyph glyph-name="summation" unicode="&#x2211;" 
d="M47 0v95l186 272l-189 226v107h523v-132h-326l160 -204l-149 -232h325v-132h-530z" />
    <glyph glyph-name="product" unicode="&#x220f;" 
d="M589 700v-132h-67v-568h-159v568h-106v-568h-159v568h-67v132h558z" />
    <glyph glyph-name="pi" unicode="&#x3c0;" 
d="M588 510v-119h-64v-391h-152v391h-124v-391h-152v391h-64v119h556z" />
    <glyph glyph-name="integral" unicode="&#x222b;" 
d="M234 0v538c0 86 49 162 189 162h111v-135h-103c-38 0 -45 -25 -45 -50v-538c0 -86 -49 -162 -189 -162h-111v135h103c38 0 45 25 45 50z" />
    <glyph glyph-name="ordfeminine" unicode="&#xaa;" 
d="M512 309h-58c-30 0 -75 5 -94 42c-23 -33 -61 -51 -112 -51c-91 0 -140 54 -140 115c0 75 53 108 119 120l94 17c15 3 21 10 21 22c0 15 -10 35 -43 35c-39 0 -51 -25 -54 -44l-124 12c9 62 64 129 182 129c124 0 170 -71 170 -147v-118c0 -16 4 -25 23 -25h16v-107z
M239 428c0 -19 13 -31 39 -31c34 0 66 23 66 64v14l-66 -11c-31 -5 -39 -18 -39 -36z" />
    <glyph glyph-name="ordmasculine" unicode="&#xba;" 
d="M310 706c133 0 207 -85 207 -203c0 -117 -80 -203 -207 -203c-134 0 -207 86 -207 203c0 118 78 203 207 203zM310 602c-51 0 -71 -42 -71 -99c0 -56 19 -99 71 -99c53 0 71 43 71 99c0 57 -18 99 -71 99z" />
    <glyph glyph-name="Omega" unicode="&#x2126;" 
d="M31 119h113c-77 58 -115 145 -115 264c0 195 101 329 281 329c179 0 281 -134 281 -329c0 -119 -41 -205 -116 -264h114v-119h-236v154c55 28 81 107 81 219c0 130 -46 206 -124 206s-124 -76 -124 -206c0 -111 26 -190 79 -218v-155h-234v119z" />
    <glyph glyph-name="ae" unicode="&#xe6;" 
d="M212 318c20 6 28 16 28 33c0 24 -10 56 -40 56c-38 0 -47 -39 -52 -66l-118 15c11 78 59 166 166 166c60 0 98 -28 120 -67c28 40 66 67 125 67c104 0 162 -94 162 -238v-71h-231c5 -71 23 -106 60 -106c31 0 46 39 51 61l110 -33c-22 -100 -77 -147 -161 -147
c-82 0 -120 32 -149 88c-23 -55 -66 -88 -126 -88c-94 0 -142 72 -142 149c0 103 61 140 147 166zM429 403c-29 0 -49 -23 -56 -93h105c0 63 -16 93 -49 93zM140 153c0 -32 13 -51 42 -51c31 0 60 38 60 101v31l-56 -21c-33 -13 -46 -30 -46 -60z" />
    <glyph glyph-name="oslash" unicode="&#xf8;" 
d="M162 -41h-115l71 102c-47 48 -71 115 -71 194c0 154 99 267 263 267c43 0 81 -7 114 -21l35 50h115l-71 -103c46 -47 71 -115 71 -193c0 -154 -101 -267 -264 -267c-43 0 -81 7 -114 21zM310 400c-77 0 -109 -62 -109 -145c0 -27 3 -52 10 -73l145 209c-13 6 -28 9 -46 9
zM420 255c0 27 -3 51 -10 72l-145 -208c13 -6 28 -9 45 -9c79 0 110 62 110 145z" />
    <glyph glyph-name="questiondown" unicode="&#xbf;" 
d="M392 536h-163v164h163v-164zM221 192c0 -38 23 -71 81 -71c59 0 113 38 115 142l151 -22c0 -151 -115 -253 -274 -253c-171 0 -243 93 -243 196c0 95 63 146 119 192c59 48 67 61 68 107h145c1 -86 -8 -115 -91 -185c-50 -41 -71 -64 -71 -106z" />
    <glyph glyph-name="exclamdown" unicode="&#xa1;" 
d="M229 536v164h163v-164h-163zM226 0v140l28 343h113l27 -343v-140h-168z" />
    <glyph glyph-name="logicalnot" unicode="&#xac;" 
d="M77 414h466v-297h-128v169h-338v128z" />
    <glyph glyph-name="radical" unicode="&#x221a;" 
d="M36 498h171l96 -317l131 519h153l-203 -700h-172l-120 362h-56v136z" />
    <glyph glyph-name="florin" unicode="&#x192;" 
d="M200 -2l40 318h-119v110h133l14 112c11 86 50 162 190 162h117v-125h-103c-45 0 -50 -29 -54 -58l-12 -91h131v-110h-144l-43 -339c-11 -86 -49 -162 -189 -162h-115v125h100c46 0 50 29 54 58z" />
    <glyph glyph-name="approxequal" unicode="&#x2248;" 
d="M424 382c-64 0 -139 50 -185 50c-34 0 -43 -28 -44 -55h-113c-4 105 42 187 142 187c69 0 125 -49 172 -49c27 0 30 20 29 48h113c7 -108 -32 -181 -114 -181zM424 142c-64 0 -139 50 -185 50c-34 0 -43 -28 -44 -55h-113c-4 105 42 187 142 187c69 0 125 -49 172 -49
c27 0 30 20 29 48h113c7 -108 -32 -181 -114 -181z" />
    <glyph glyph-name="Delta" unicode="&#x2206;" 
d="M29 117l192 583h177l193 -583v-117h-562v117zM190 128h230l-116 417z" />
    <glyph glyph-name="guillemotleft" unicode="&#xab;" 
d="M183 54l-145 221l145 221h159l-141 -221l141 -221h-159zM423 54l-145 221l145 221h159l-141 -221l141 -221h-159z" />
    <glyph glyph-name="guillemotright" unicode="&#xbb;" 
d="M437 497l145 -221l-145 -221h-159l141 221l-141 221h159zM197 497l145 -221l-145 -221h-159l141 221l-141 221h159z" />
    <glyph glyph-name="ellipsis" unicode="&#x2026;" 
d="M39 147h147v-147h-147v147zM237 147h147v-147h-147v147zM435 147h147v-147h-147v147z" />
    <glyph glyph-name="Agrave" unicode="&#xc0;" 
d="M273 926l96 -160h-129l-100 160h133zM172 0h-159l205 700h184l205 -700h-170l-28 112h-208zM305 520l-71 -276h141z" />
    <glyph glyph-name="Atilde" unicode="&#xc3;" 
d="M356 886c15 0 22 5 22 30h94c1 -91 -17 -140 -85 -140c-55 0 -85 31 -119 31c-17 0 -26 -13 -26 -34h-96c0 76 22 140 97 140c55 0 88 -27 113 -27zM172 0h-159l205 700h184l205 -700h-170l-28 112h-208zM305 520l-71 -276h141z" />
    <glyph glyph-name="Otilde" unicode="&#xd5;" 
d="M356 886c15 0 22 5 22 30h94c1 -91 -17 -140 -85 -140c-55 0 -85 31 -119 31c-17 0 -26 -13 -26 -34h-96c0 76 22 140 97 140c55 0 88 -27 113 -27zM309 -12c-187 0 -277 147 -277 362s93 362 278 362c191 0 278 -147 278 -362s-91 -362 -279 -362zM310 124
c88 0 114 92 114 226s-26 226 -114 226c-89 0 -114 -92 -114 -226s25 -226 114 -226z" />
    <glyph glyph-name="OE" unicode="&#x152;" 
d="M26 352c0 210 98 348 274 348h285v-136h-123v-143h98v-134h-98v-151h133v-136h-295c-175 0 -274 148 -274 352zM300 136h14v428h-14c-84 0 -123 -86 -123 -212s39 -216 123 -216z" />
    <glyph glyph-name="oe" unicode="&#x153;" 
d="M592 135c-22 -100 -77 -147 -161 -147c-62 0 -96 24 -121 59c-34 -43 -71 -59 -117 -59c-117 0 -181 113 -181 267s68 267 181 267c49 0 88 -17 122 -64c30 40 65 64 124 64c105 0 163 -94 163 -238v-71h-231c5 -71 23 -106 60 -106c31 0 46 39 51 61zM429 403
c-29 0 -50 -23 -57 -93h105c0 63 -16 93 -48 93zM205 400c-39 0 -55 -48 -55 -145c0 -94 16 -145 55 -145s56 51 56 145c0 97 -17 145 -56 145z" />
    <glyph glyph-name="endash" unicode="&#x2013;" 
d="M83 335h454v-119h-454v119z" />
    <glyph glyph-name="emdash" unicode="&#x2014;" 
d="M11 335h598v-119h-598v119z" />
    <glyph glyph-name="quotedblleft" unicode="&#x201c;" 
d="M151 700h145l-61 -291h-154zM389 700h145l-61 -291h-154z" />
    <glyph glyph-name="quotedblright" unicode="&#x201d;" 
d="M469 409h-145l61 291h154zM231 409h-145l61 291h154z" />
    <glyph glyph-name="quoteleft" unicode="&#x2018;" 
d="M270 700h145l-61 -291h-154z" />
    <glyph glyph-name="quoteright" unicode="&#x2019;" 
d="M350 409h-145l61 291h154z" />
    <glyph glyph-name="divide" unicode="&#xf7;" 
d="M237 635h146v-147h-146v147zM77 414h466v-128h-466v128zM237 212h146v-147h-146v147z" />
    <glyph glyph-name="lozenge" unicode="&#x25ca;" 
d="M33 364l225 336h105l225 -336l-221 -364h-113zM203 363l107 -196l108 196l-108 176z" />
    <glyph glyph-name="ydieresis" unicode="&#xff;" 
d="M148 570v134h139v-134h-139zM341 570v134h139v-134h-139zM36 510h161l117 -317l120 317h151l-208 -529c-54 -138 -107 -166 -215 -166h-84v123h85c39 0 60 10 69 37l8 23z" />
    <glyph glyph-name="Ydieresis" unicode="&#x178;" 
d="M144 770v134h139v-134h-139zM337 770v134h139v-134h-139zM7 700h175l130 -275l133 275h168l-222 -434v-266h-162v257z" />
    <glyph glyph-name="fraction" unicode="&#x2044;" 
d="M344 399l164 301h97l-165 -301h-96zM15 0l165 301h96l-164 -301h-97z" />
    <glyph glyph-name="currency" unicode="&#xa4;" 
d="M38 165l94 95c-14 28 -23 58 -23 91s9 63 23 91l-94 94l85 83l92 -92c28 15 61 24 95 24s67 -9 95 -24l92 92l85 -83l-93 -95c14 -27 22 -57 22 -90s-8 -64 -23 -91l94 -95l-85 -83l-92 92c-29 -14 -61 -23 -95 -23s-66 8 -95 23l-92 -92zM390 351c0 44 -35 80 -80 80
s-80 -36 -80 -80c0 -45 35 -81 80 -81s80 36 80 81z" />
    <glyph glyph-name="guilsinglleft" unicode="&#x2039;" 
d="M303 54l-145 221l145 221h159l-141 -221l141 -221h-159z" />
    <glyph glyph-name="guilsinglright" unicode="&#x203a;" 
d="M317 497l145 -221l-145 -221h-159l141 221l-141 221h159z" />
    <glyph glyph-name="daggerdbl" unicode="&#x2021;" 
d="M386 0h-152v191h-153v119h153v80h-153v120h153v190h152v-190h153v-120h-153v-80h153v-119h-153v-191z" />
    <glyph glyph-name="periodcentered" unicode="&#xb7;" 
d="M221 450h178v-178h-178v178z" />
    <glyph glyph-name="quotesinglbase" unicode="&#x201a;" 
d="M350 -105h-145l61 291h154z" />
    <glyph glyph-name="quotedblbase" unicode="&#x201e;" 
d="M469 -103h-145l61 291h154zM231 -103h-145l61 291h154z" />
    <glyph glyph-name="perthousand" unicode="&#x2030;" 
d="M163 414c-91 0 -130 70 -130 147c0 75 39 145 130 145s129 -70 129 -145c0 -77 -38 -147 -129 -147zM163 489c31 0 37 37 37 72c0 33 -6 71 -37 71c-32 0 -37 -38 -37 -71c0 -35 5 -72 37 -72zM51 353l518 147v-70l-518 -147v70zM163 -6c-91 0 -130 70 -130 146
s39 146 130 146s130 -70 130 -146s-39 -146 -130 -146zM457 -6c-90 0 -129 70 -129 146s39 146 129 146c91 0 130 -70 130 -146s-39 -146 -130 -146zM163 69c31 0 37 37 37 71s-6 72 -37 72c-32 0 -37 -38 -37 -72s5 -71 37 -71zM457 69c32 0 37 37 37 71s-5 72 -37 72
c-31 0 -36 -38 -36 -72s5 -71 36 -71z" />
    <glyph glyph-name="Acircumflex" unicode="&#xc2;" 
d="M243 926h134l118 -160h-131l-56 75l-53 -75h-129zM172 0h-159l205 700h184l205 -700h-170l-28 112h-208zM305 520l-71 -276h141z" />
    <glyph glyph-name="Ecircumflex" unicode="&#xca;" 
d="M257 926h134l118 -160h-131l-56 75l-53 -75h-129zM84 700h479v-136h-318v-143h278v-134h-278v-151h328v-136h-489v700z" />
    <glyph glyph-name="Aacute" unicode="&#xc1;" 
d="M341 926h134l-103 -160h-127zM172 0h-159l205 700h184l205 -700h-170l-28 112h-208zM305 520l-71 -276h141z" />
    <glyph glyph-name="Edieresis" unicode="&#xcb;" 
d="M158 770v134h139v-134h-139zM351 770v134h139v-134h-139zM84 700h479v-136h-318v-143h278v-134h-278v-151h328v-136h-489v700z" />
    <glyph glyph-name="Egrave" unicode="&#xc8;" 
d="M287 926l96 -160h-129l-100 160h133zM84 700h479v-136h-318v-143h278v-134h-278v-151h328v-136h-489v700z" />
    <glyph glyph-name="Iacute" unicode="&#xcd;" 
d="M342 926h134l-103 -160h-127zM72 135h157v430h-157v135h476v-135h-157v-430h157v-135h-476v135z" />
    <glyph glyph-name="Icircumflex" unicode="&#xce;" 
d="M243 926h134l118 -160h-131l-56 75l-53 -75h-129zM72 135h157v430h-157v135h476v-135h-157v-430h157v-135h-476v135z" />
    <glyph glyph-name="Idieresis" unicode="&#xcf;" 
d="M144 770v134h139v-134h-139zM337 770v134h139v-134h-139zM72 135h157v430h-157v135h476v-135h-157v-430h157v-135h-476v135z" />
    <glyph glyph-name="Igrave" unicode="&#xcc;" 
d="M274 926l96 -160h-129l-100 160h133zM72 135h157v430h-157v135h476v-135h-157v-430h157v-135h-476v135z" />
    <glyph glyph-name="Oacute" unicode="&#xd3;" 
d="M342 926h134l-103 -160h-127zM309 -12c-187 0 -277 147 -277 362s93 362 278 362c191 0 278 -147 278 -362s-91 -362 -279 -362zM310 124c88 0 114 92 114 226s-26 226 -114 226c-89 0 -114 -92 -114 -226s25 -226 114 -226z" />
    <glyph glyph-name="Ocircumflex" unicode="&#xd4;" 
d="M243 926h134l118 -160h-131l-56 75l-53 -75h-129zM309 -12c-187 0 -277 147 -277 362s93 362 278 362c191 0 278 -147 278 -362s-91 -362 -279 -362zM310 124c88 0 114 92 114 226s-26 226 -114 226c-89 0 -114 -92 -114 -226s25 -226 114 -226z" />
    <glyph glyph-name="Ograve" unicode="&#xd2;" 
d="M274 926l96 -160h-129l-100 160h133zM309 -12c-187 0 -277 147 -277 362s93 362 278 362c191 0 278 -147 278 -362s-91 -362 -279 -362zM310 124c88 0 114 92 114 226s-26 226 -114 226c-89 0 -114 -92 -114 -226s25 -226 114 -226z" />
    <glyph glyph-name="Uacute" unicode="&#xda;" 
d="M341 926h134l-103 -160h-127zM560 700v-472c0 -159 -112 -240 -249 -240c-138 0 -251 81 -251 240v472h161v-472c0 -75 40 -104 90 -104c49 0 88 29 88 104v472h161z" />
    <glyph glyph-name="Ucircumflex" unicode="&#xdb;" 
d="M243 926h134l118 -160h-131l-56 75l-53 -75h-129zM560 700v-472c0 -159 -112 -240 -249 -240c-138 0 -251 81 -251 240v472h161v-472c0 -75 40 -104 90 -104c49 0 88 29 88 104v472h161z" />
    <glyph glyph-name="Ugrave" unicode="&#xd9;" 
d="M274 926l96 -160h-129l-100 160h133zM560 700v-472c0 -159 -112 -240 -249 -240c-138 0 -251 81 -251 240v472h161v-472c0 -75 40 -104 90 -104c49 0 88 29 88 104v472h161z" />
    <glyph glyph-name="dotlessi" unicode="&#x131;" 
d="M91 122h162v266h-162v122h314v-388h162v-122h-476v122z" />
    <glyph glyph-name="circumflex" unicode="&#x2c6;" 
d="M243 726h134l118 -160h-131l-56 75l-53 -75h-129z" />
    <glyph glyph-name="tilde" unicode="&#x2dc;" 
d="M357 686c15 0 22 5 22 30h94c1 -91 -17 -140 -85 -140c-55 0 -85 31 -119 31c-17 0 -26 -13 -26 -34h-96c0 76 22 140 97 140c55 0 88 -27 113 -27z" />
    <glyph glyph-name="macron" unicode="&#xaf;" 
d="M179 589v102h262v-102h-262z" />
    <glyph glyph-name="breve" unicode="&#x2d8;" 
d="M311 652c33 0 47 22 47 67h103c2 -71 -32 -159 -151 -159s-153 88 -151 159h105c0 -44 14 -67 47 -67z" />
    <glyph glyph-name="dotaccent" unicode="&#x2d9;" 
d="M230 570v134h160v-134h-160z" />
    <glyph glyph-name="ring" unicode="&#x2da;" 
d="M310 792c84 0 132 -54 132 -117c0 -62 -47 -115 -132 -115c-86 0 -132 53 -132 115c0 63 46 117 132 117zM310 725c-33 0 -48 -22 -48 -49s15 -49 48 -49s48 22 48 49s-15 49 -48 49z" />
    <glyph glyph-name="cedilla" unicode="&#xb8;" 
d="M430 -136c0 -63 -44 -108 -124 -108c-72 0 -110 38 -116 93l83 2c2 -16 14 -25 33 -25c24 0 34 15 34 33c0 21 -12 34 -34 34c-12 0 -25 -5 -34 -16l-51 37l76 105l80 -1l-45 -61c62 -6 98 -43 98 -93z" />
    <glyph glyph-name="hungarumlaut" unicode="&#x2dd;" 
d="M205 726h130l-105 -160h-120zM390 726h126l-110 -160h-123z" />
    <glyph glyph-name="ogonek" unicode="&#x2db;" 
d="M328 -244c-72 0 -117 43 -117 95c0 71 52 115 118 167l80 -17c-53 -49 -91 -86 -91 -118c0 -24 18 -29 40 -29c14 0 29 2 43 7v-90c-16 -9 -39 -15 -73 -15z" />
    <glyph glyph-name="caron" unicode="&#x2c7;" 
d="M377 566h-134l-118 160h131l56 -75l53 75h129z" />
    <glyph glyph-name="uni00A0" unicode="&#xa0;" 
 />
    <glyph glyph-name="Amacron" unicode="&#x100;" 
d="M179 789v102h262v-102h-262zM172 0h-159l205 700h184l205 -700h-170l-28 112h-208zM305 520l-71 -276h141z" />
    <glyph glyph-name="Abreve" unicode="&#x102;" 
d="M311 852c33 0 47 22 47 67h103c2 -71 -32 -159 -151 -159s-153 88 -151 159h105c0 -44 14 -67 47 -67zM172 0h-159l205 700h184l205 -700h-170l-28 112h-208zM305 520l-71 -276h141z" />
    <glyph glyph-name="Aogonek" unicode="&#x104;" 
d="M172 0h-159l205 700h184l205 -700c-53 -49 -91 -86 -91 -118c0 -24 18 -29 40 -29c14 0 29 2 43 7v-90c-16 -9 -39 -15 -73 -15c-72 0 -117 43 -117 95c0 63 41 105 97 150h-69l-28 112h-208zM305 520l-71 -276h141z" />
    <glyph glyph-name="Cacute" unicode="&#x106;" 
d="M350 926h134l-103 -160h-127zM578 455l-161 -21c-10 83 -35 140 -99 140c-85 0 -112 -91 -112 -224s27 -224 112 -224c62 0 89 64 98 130l156 -19c-21 -157 -113 -249 -255 -249c-189 0 -275 147 -275 362s91 362 276 362c149 0 240 -88 260 -257z" />
    <glyph glyph-name="Ccircumflex" unicode="&#x108;" 
d="M252 926h134l118 -160h-131l-56 75l-53 -75h-129zM578 455l-161 -21c-10 83 -35 140 -99 140c-85 0 -112 -91 -112 -224s27 -224 112 -224c62 0 89 64 98 130l156 -19c-21 -157 -113 -249 -255 -249c-189 0 -275 147 -275 362s91 362 276 362c149 0 240 -88 260 -257z
" />
    <glyph glyph-name="Cdotaccent" unicode="&#x10a;" 
d="M238 770v134h160v-134h-160zM578 455l-161 -21c-10 83 -35 140 -99 140c-85 0 -112 -91 -112 -224s27 -224 112 -224c62 0 89 64 98 130l156 -19c-21 -157 -113 -249 -255 -249c-189 0 -275 147 -275 362s91 362 276 362c149 0 240 -88 260 -257z" />
    <glyph glyph-name="Ccaron" unicode="&#x10c;" 
d="M384 766h-134l-118 160h131l56 -75l53 75h129zM578 455l-161 -21c-10 83 -35 140 -99 140c-85 0 -112 -91 -112 -224s27 -224 112 -224c62 0 89 64 98 130l156 -19c-21 -157 -113 -249 -255 -249c-189 0 -275 147 -275 362s91 362 276 362c149 0 240 -88 260 -257z" />
    <glyph glyph-name="Dcaron" unicode="&#x10e;" 
d="M351 766h-134l-118 160h131l56 -75l53 75h129zM64 700h217c197 0 307 -135 307 -338c0 -210 -111 -362 -307 -362h-217v700zM284 564h-58v-428h58c93 0 140 94 140 226c0 120 -47 202 -140 202z" />
    <glyph glyph-name="Emacron" unicode="&#x112;" 
d="M193 789v102h262v-102h-262zM84 700h479v-136h-318v-143h278v-134h-278v-151h328v-136h-489v700z" />
    <glyph glyph-name="Ebreve" unicode="&#x114;" 
d="M324 852c33 0 47 22 47 67h103c2 -71 -32 -159 -151 -159s-153 88 -151 159h105c0 -44 14 -67 47 -67zM84 700h479v-136h-318v-143h278v-134h-278v-151h328v-136h-489v700z" />
    <glyph glyph-name="Edotaccent" unicode="&#x116;" 
d="M244 770v134h160v-134h-160zM84 700h479v-136h-318v-143h278v-134h-278v-151h328v-136h-489v700z" />
    <glyph glyph-name="Eogonek" unicode="&#x118;" 
d="M493 -245c-72 0 -117 43 -117 95c0 63 41 105 97 150h-389v700h479v-136h-318v-143h278v-134h-278v-151h328v-136c-52 -49 -90 -86 -90 -118c0 -24 18 -29 40 -29c14 0 29 2 43 7v-90c-16 -9 -39 -15 -73 -15z" />
    <glyph glyph-name="Ecaron" unicode="&#x11a;" 
d="M389 766h-134l-118 160h131l56 -75l53 75h129zM84 700h479v-136h-318v-143h278v-134h-278v-151h328v-136h-489v700z" />
    <glyph glyph-name="Gcircumflex" unicode="&#x11c;" 
d="M243 926h134l118 -160h-131l-56 75l-53 -75h-129zM32 346c0 217 96 366 284 366c137 0 220 -79 249 -220l-155 -28c-13 72 -40 110 -96 110c-88 0 -117 -93 -117 -228c0 -128 33 -218 118 -218c73 0 105 59 105 114v24h-94v121h237v-387h-138v53
c-28 -43 -76 -65 -139 -65c-168 0 -254 147 -254 358z" />
    <glyph glyph-name="Gbreve" unicode="&#x11e;" 
d="M310 852c33 0 47 22 47 67h103c2 -71 -32 -159 -151 -159s-153 88 -151 159h105c0 -44 14 -67 47 -67zM32 346c0 217 96 366 284 366c137 0 220 -79 249 -220l-155 -28c-13 72 -40 110 -96 110c-88 0 -117 -93 -117 -228c0 -128 33 -218 118 -218c73 0 105 59 105 114v24
h-94v121h237v-387h-138v53c-28 -43 -76 -65 -139 -65c-168 0 -254 147 -254 358z" />
    <glyph glyph-name="Gdotaccent" unicode="&#x120;" 
d="M230 770v134h160v-134h-160zM32 346c0 217 96 366 284 366c137 0 220 -79 249 -220l-155 -28c-13 72 -40 110 -96 110c-88 0 -117 -93 -117 -228c0 -128 33 -218 118 -218c73 0 105 59 105 114v24h-94v121h237v-387h-138v53c-28 -43 -76 -65 -139 -65
c-168 0 -254 147 -254 358z" />
    <glyph glyph-name="uni0122" unicode="&#x122;" 
d="M32 346c0 217 96 366 284 366c137 0 220 -79 249 -220l-155 -28c-13 72 -40 110 -96 110c-88 0 -117 -93 -117 -228c0 -128 33 -218 118 -218c73 0 105 59 105 114v24h-94v121h237v-387h-138v53c-28 -43 -76 -65 -139 -65c-168 0 -254 147 -254 358zM239 -61h118
l-51 -175h-113z" />
    <glyph glyph-name="Hcircumflex" unicode="&#x124;" 
d="M243 926h134l118 -160h-131l-56 75l-53 -75h-129zM64 700h161v-271h170v271h161v-700h-161v291h-170v-291h-161v700z" />
    <glyph glyph-name="Itilde" unicode="&#x128;" 
d="M356 886c15 0 22 5 22 30h94c1 -91 -17 -140 -85 -140c-55 0 -85 31 -119 31c-17 0 -26 -13 -26 -34h-96c0 76 22 140 97 140c55 0 88 -27 113 -27zM72 135h157v430h-157v135h476v-135h-157v-430h157v-135h-476v135z" />
    <glyph glyph-name="Imacron" unicode="&#x12a;" 
d="M179 789v102h262v-102h-262zM72 135h157v430h-157v135h476v-135h-157v-430h157v-135h-476v135z" />
    <glyph glyph-name="Iogonek" unicode="&#x12e;" 
d="M72 135h157v430h-157v135h476v-135h-157v-430h157v-135c-53 -49 -91 -86 -91 -118c0 -24 18 -29 40 -29c14 0 29 2 43 7v-90c-16 -9 -39 -15 -73 -15c-72 0 -117 43 -117 95c0 63 41 105 97 150h-375v135z" />
    <glyph glyph-name="Idotaccent" unicode="&#x130;" 
d="M230 770v134h160v-134h-160zM72 135h157v430h-157v135h476v-135h-157v-430h157v-135h-476v135z" />
    <glyph glyph-name="Jcircumflex" unicode="&#x134;" 
d="M330 926h134l118 -160h-131l-56 75l-53 -75h-129zM223 700h326v-467c0 -156 -81 -245 -245 -245c-163 0 -245 90 -245 245v27l159 30v-61c0 -64 25 -105 86 -105c59 0 84 41 84 103v336h-165v137z" />
    <glyph glyph-name="uni0136" unicode="&#x136;" 
d="M618 0h-188l-160 274l-44 -55v-219h-162v700h162v-266l197 266h186l-230 -304zM265 -61h118l-51 -175h-113z" />
    <glyph glyph-name="Lacute" unicode="&#x139;" 
d="M197 926h134l-103 -160h-127zM85 700h161v-564h332v-136h-493v700z" />
    <glyph glyph-name="uni013B" unicode="&#x13b;" 
d="M85 700h161v-564h332v-136h-493v700zM272 -61h118l-51 -175h-113z" />
    <glyph glyph-name="Lcaron" unicode="&#x13d;" 
d="M85 700h161v-564h332v-136h-493v700zM320 700h116l-35 -180h-109z" />
    <glyph glyph-name="Nacute" unicode="&#x143;" 
d="M342 926h134l-103 -160h-127zM64 700h170l169 -364v364h153v-700h-139l-200 432v-432h-153v700z" />
    <glyph glyph-name="uni0145" unicode="&#x145;" 
d="M64 700h170l169 -364v364h153v-700h-139l-200 432v-432h-153v700zM251 -61h118l-51 -175h-113z" />
    <glyph glyph-name="Ncaron" unicode="&#x147;" 
d="M377 766h-134l-118 160h131l56 -75l53 75h129zM64 700h170l169 -364v364h153v-700h-139l-200 432v-432h-153v700z" />
    <glyph glyph-name="Omacron" unicode="&#x14c;" 
d="M179 789v102h262v-102h-262zM309 -12c-187 0 -277 147 -277 362s93 362 278 362c191 0 278 -147 278 -362s-91 -362 -279 -362zM310 124c88 0 114 92 114 226s-26 226 -114 226c-89 0 -114 -92 -114 -226s25 -226 114 -226z" />
    <glyph glyph-name="Obreve" unicode="&#x14e;" 
d="M311 852c33 0 47 22 47 67h103c2 -71 -32 -159 -151 -159s-153 88 -151 159h105c0 -44 14 -67 47 -67zM309 -12c-187 0 -277 147 -277 362s93 362 278 362c191 0 278 -147 278 -362s-91 -362 -279 -362zM310 124c88 0 114 92 114 226s-26 226 -114 226
c-89 0 -114 -92 -114 -226s25 -226 114 -226z" />
    <glyph glyph-name="Ohungarumlaut" unicode="&#x150;" 
d="M258 926h130l-105 -160h-120zM443 926h126l-110 -160h-123zM309 -12c-187 0 -277 147 -277 362s93 362 278 362c191 0 278 -147 278 -362s-91 -362 -279 -362zM310 124c88 0 114 92 114 226s-26 226 -114 226c-89 0 -114 -92 -114 -226s25 -226 114 -226z" />
    <glyph glyph-name="Racute" unicode="&#x154;" 
d="M330 926h134l-103 -160h-127zM578 0h-161l-10 169c-3 45 -24 76 -97 76h-85v-245h-161v700h259c161 0 255 -88 255 -199c0 -75 -40 -143 -112 -180c68 -25 98 -74 102 -150zM310 566h-85v-190h85c71 0 105 46 105 103c0 47 -32 87 -105 87z" />
    <glyph glyph-name="uni0156" unicode="&#x156;" 
d="M578 0h-161l-10 169c-3 45 -24 76 -97 76h-85v-245h-161v700h259c161 0 255 -88 255 -199c0 -75 -40 -143 -112 -180c68 -25 98 -74 102 -150zM310 566h-85v-190h85c71 0 105 46 105 103c0 47 -32 87 -105 87zM262 -61h118l-51 -175h-113z" />
    <glyph glyph-name="Rcaron" unicode="&#x158;" 
d="M364 766h-134l-118 160h131l56 -75l53 75h129zM578 0h-161l-10 169c-3 45 -24 76 -97 76h-85v-245h-161v700h259c161 0 255 -88 255 -199c0 -75 -40 -143 -112 -180c68 -25 98 -74 102 -150zM310 566h-85v-190h85c71 0 105 46 105 103c0 47 -32 87 -105 87z" />
    <glyph glyph-name="Sacute" unicode="&#x15a;" 
d="M342 926h134l-103 -160h-127zM588 216c0 -117 -90 -228 -268 -228c-177 0 -285 89 -288 230l164 18c2 -82 49 -120 124 -120c79 0 102 46 102 82c0 44 -22 64 -78 75l-89 17c-93 18 -200 67 -200 210c0 100 80 212 255 212s255 -100 265 -205l-166 -18
c-9 73 -50 95 -99 95c-73 0 -93 -39 -93 -73c0 -44 23 -63 64 -71l104 -20c128 -25 203 -88 203 -204z" />
    <glyph glyph-name="Scircumflex" unicode="&#x15c;" 
d="M244 926h134l118 -160h-131l-56 75l-53 -75h-129zM588 216c0 -117 -90 -228 -268 -228c-177 0 -285 89 -288 230l164 18c2 -82 49 -120 124 -120c79 0 102 46 102 82c0 44 -22 64 -78 75l-89 17c-93 18 -200 67 -200 210c0 100 80 212 255 212s255 -100 265 -205
l-166 -18c-9 73 -50 95 -99 95c-73 0 -93 -39 -93 -73c0 -44 23 -63 64 -71l104 -20c128 -25 203 -88 203 -204z" />
    <glyph glyph-name="Scedilla" unicode="&#x15e;" 
d="M430 -136c0 -63 -44 -108 -124 -108c-72 0 -110 38 -116 93l83 2c2 -16 14 -25 33 -25c24 0 34 15 34 33c0 21 -12 34 -34 34c-12 0 -25 -5 -34 -16l-51 37l55 76c-151 14 -241 99 -244 228l164 18c2 -82 49 -120 124 -120c79 0 102 46 102 82c0 44 -22 64 -78 75l-89 17
c-93 18 -200 67 -200 210c0 100 80 212 255 212s255 -100 265 -205l-166 -18c-9 73 -50 95 -99 95c-73 0 -93 -39 -93 -73c0 -44 23 -63 64 -71l104 -20c128 -25 203 -88 203 -204c0 -109 -78 -212 -232 -226l-24 -33c62 -6 98 -43 98 -93z" />
    <glyph glyph-name="uni0218" unicode="&#x218;" 
d="M588 216c0 -117 -90 -228 -268 -228c-177 0 -285 89 -288 230l164 18c2 -82 49 -120 124 -120c79 0 102 46 102 82c0 44 -22 64 -78 75l-89 17c-93 18 -200 67 -200 210c0 100 80 212 255 212s255 -100 265 -205l-166 -18c-9 73 -50 95 -99 95c-73 0 -93 -39 -93 -73
c0 -44 23 -63 64 -71l104 -20c128 -25 203 -88 203 -204zM262 -61h118l-51 -175h-113z" />
    <glyph glyph-name="uni0162" unicode="&#x162;" 
d="M419 -136c0 -63 -44 -108 -124 -108c-72 0 -110 38 -116 93l83 2c2 -16 14 -25 33 -25c24 0 34 15 34 33c0 21 -12 34 -34 34c-12 0 -25 -5 -34 -16l-51 37l62 86h-43v562h-202v138h566v-138h-202v-562h-38l-32 -43c62 -6 98 -43 98 -93z" />
    <glyph glyph-name="Tcaron" unicode="&#x164;" 
d="M377 766h-134l-118 160h131l56 -75l53 75h129zM27 700h566v-138h-202v-562h-162v562h-202v138z" />
    <glyph glyph-name="uni021A" unicode="&#x21a;" 
d="M27 700h566v-138h-202v-562h-162v562h-202v138zM251 -61h118l-51 -175h-113z" />
    <glyph glyph-name="Utilde" unicode="&#x168;" 
d="M356 886c15 0 22 5 22 30h94c1 -91 -17 -140 -85 -140c-55 0 -85 31 -119 31c-17 0 -26 -13 -26 -34h-96c0 76 22 140 97 140c55 0 88 -27 113 -27zM560 700v-472c0 -159 -112 -240 -249 -240c-138 0 -251 81 -251 240v472h161v-472c0 -75 40 -104 90 -104
c49 0 88 29 88 104v472h161z" />
    <glyph glyph-name="Umacron" unicode="&#x16a;" 
d="M179 789v102h262v-102h-262zM560 700v-472c0 -159 -112 -240 -249 -240c-138 0 -251 81 -251 240v472h161v-472c0 -75 40 -104 90 -104c49 0 88 29 88 104v472h161z" />
    <glyph glyph-name="Ubreve" unicode="&#x16c;" 
d="M311 852c33 0 47 22 47 67h103c2 -71 -32 -159 -151 -159s-153 88 -151 159h105c0 -44 14 -67 47 -67zM560 700v-472c0 -159 -112 -240 -249 -240c-138 0 -251 81 -251 240v472h161v-472c0 -75 40 -104 90 -104c49 0 88 29 88 104v472h161z" />
    <glyph glyph-name="Uring" unicode="&#x16e;" 
d="M310 992c84 0 132 -54 132 -117c0 -62 -47 -115 -132 -115c-86 0 -132 53 -132 115c0 63 46 117 132 117zM310 925c-33 0 -48 -22 -48 -49s15 -49 48 -49s48 22 48 49s-15 49 -48 49zM560 700v-472c0 -159 -112 -240 -249 -240c-138 0 -251 81 -251 240v472h161v-472
c0 -75 40 -104 90 -104c49 0 88 29 88 104v472h161z" />
    <glyph glyph-name="Uhungarumlaut" unicode="&#x170;" 
d="M257 926h130l-105 -160h-120zM442 926h126l-110 -160h-123zM560 700v-472c0 -159 -112 -240 -249 -240c-138 0 -251 81 -251 240v472h161v-472c0 -75 40 -104 90 -104c49 0 88 29 88 104v472h161z" />
    <glyph glyph-name="Uogonek" unicode="&#x172;" 
d="M560 228c0 -95 -36 -147 -79 -185c-50 -45 -103 -80 -103 -147c0 -30 18 -42 42 -42c14 0 28 2 43 7v-90c-16 -9 -39 -15 -74 -15c-72 0 -117 43 -117 97c0 59 27 100 63 136c-8 -1 -16 -1 -24 -1c-138 0 -251 81 -251 240v472h161v-472c0 -75 40 -104 90 -104
c49 0 88 29 88 104v472h161v-472z" />
    <glyph glyph-name="Wcircumflex" unicode="&#x174;" 
d="M243 926h134l118 -160h-131l-56 75l-53 -75h-129zM11 700h152l36 -414l57 274h118l58 -276l33 416h144l-78 -700h-150l-71 372l-69 -372h-150z" />
    <glyph glyph-name="Wgrave" unicode="&#x1e80;" 
d="M274 926l96 -160h-129l-100 160h133zM11 700h152l36 -414l57 274h118l58 -276l33 416h144l-78 -700h-150l-71 372l-69 -372h-150z" />
    <glyph glyph-name="Wacute" unicode="&#x1e82;" 
d="M342 926h134l-103 -160h-127zM11 700h152l36 -414l57 274h118l58 -276l33 416h144l-78 -700h-150l-71 372l-69 -372h-150z" />
    <glyph glyph-name="Wdieresis" unicode="&#x1e84;" 
d="M144 770v134h139v-134h-139zM337 770v134h139v-134h-139zM11 700h152l36 -414l57 274h118l58 -276l33 416h144l-78 -700h-150l-71 372l-69 -372h-150z" />
    <glyph glyph-name="Ycircumflex" unicode="&#x176;" 
d="M243 926h134l118 -160h-131l-56 75l-53 -75h-129zM7 700h175l130 -275l133 275h168l-222 -434v-266h-162v257z" />
    <glyph glyph-name="Ygrave" unicode="&#x1ef2;" 
d="M276 926l96 -160h-129l-100 160h133zM7 700h175l130 -275l133 275h168l-222 -434v-266h-162v257z" />
    <glyph glyph-name="Zacute" unicode="&#x179;" 
d="M342 926h134l-103 -160h-127zM585 136v-136h-546v117l323 447h-310v136h517v-118l-322 -446h338z" />
    <glyph glyph-name="Zdotaccent" unicode="&#x17b;" 
d="M231 770v134h160v-134h-160zM585 136v-136h-546v117l323 447h-310v136h517v-118l-322 -446h338z" />
    <glyph glyph-name="Dcroat" unicode="&#x110;" 
d="M12 409h62v291h207c197 0 307 -135 307 -338c0 -210 -111 -362 -307 -362h-207v290h-62v119zM284 564h-48v-155h103v-119h-103v-154h48c93 0 140 94 140 226c0 120 -47 202 -140 202z" />
    <glyph glyph-name="Hbar" unicode="&#x126;" 
d="M20 613h44v87h161v-87h170v87h161v-87h44v-102h-44v-511h-161v291h-170v-291h-161v511h-44v102zM225 429h170v82h-170v-82z" />
    <glyph glyph-name="IJ" unicode="&#x132;" 
d="M58 700h161v-300h-161v300zM551 700v-470c0 -155 -79 -242 -245 -242s-247 89 -247 242v30l159 30v-68c0 -60 26 -98 87 -98c60 0 85 37 85 95v481h161z" />
    <glyph glyph-name="Ldot" unicode="&#x13f;" 
d="M85 700h161v-564h332v-136h-493v700zM394 472h164v-164h-164v164z" />
    <glyph glyph-name="Tbar" unicode="&#x166;" 
d="M64 384h165v178h-202v138h566v-138h-202v-178h165v-119h-165v-265h-162v265h-165v119z" />
    <glyph glyph-name="uni1E9E" unicode="&#x1e9e;" 
d="M599 215c0 -126 -92 -215 -241 -215h-95v136h87c67 0 99 35 99 85c0 41 -25 64 -65 64c-15 0 -33 -6 -43 -16l-87 68l133 235c-16 2 -33 4 -49 4c-113 0 -144 -72 -144 -166v-410h-153v413c0 197 111 299 289 299c79 0 151 -9 215 -21v-116l-103 -171
c95 -11 157 -83 157 -189z" />
    <glyph glyph-name="uni0394" unicode="&#x394;" 
d="M29 117l192 583h177l193 -583v-117h-562v117zM190 128h230l-116 417z" />
    <glyph glyph-name="uni03A9" unicode="&#x3a9;" 
d="M31 119h113c-77 58 -115 145 -115 264c0 195 101 329 281 329c179 0 281 -134 281 -329c0 -119 -41 -205 -116 -264h114v-119h-236v154c55 28 81 107 81 219c0 130 -46 206 -124 206s-124 -76 -124 -206c0 -111 26 -190 79 -218v-155h-234v119z" />
    <glyph glyph-name="amacron" unicode="&#x101;" 
d="M176 589v102h262v-102h-262zM578 0h-71c-36 0 -93 8 -113 58c-32 -44 -83 -70 -152 -70c-119 0 -180 73 -180 150c0 98 67 144 154 159l132 22c21 3 28 15 28 32c0 24 -17 56 -72 56c-63 0 -80 -39 -85 -66l-143 15c11 78 82 166 234 166c156 0 214 -94 214 -192v-168
c0 -23 8 -37 36 -37h18v-125zM211 154c0 -33 22 -52 64 -52c59 0 104 44 104 104v19l-108 -16c-46 -7 -60 -28 -60 -55z" />
    <glyph glyph-name="abreve" unicode="&#x103;" 
d="M308 652c33 0 47 22 47 67h103c2 -71 -32 -159 -151 -159s-153 88 -151 159h105c0 -44 14 -67 47 -67zM578 0h-71c-36 0 -93 8 -113 58c-32 -44 -83 -70 -152 -70c-119 0 -180 73 -180 150c0 98 67 144 154 159l132 22c21 3 28 15 28 32c0 24 -17 56 -72 56
c-63 0 -80 -39 -85 -66l-143 15c11 78 82 166 234 166c156 0 214 -94 214 -192v-168c0 -23 8 -37 36 -37h18v-125zM211 154c0 -33 22 -52 64 -52c59 0 104 44 104 104v19l-108 -16c-46 -7 -60 -28 -60 -55z" />
    <glyph glyph-name="aogonek" unicode="&#x105;" 
d="M498 -245c-72 0 -117 43 -117 95c0 64 42 106 99 152c-33 4 -71 17 -86 56c-32 -44 -83 -70 -152 -70c-119 0 -180 73 -180 150c0 98 67 144 154 159l132 22c21 3 28 15 28 32c0 24 -17 56 -72 56c-63 0 -80 -39 -85 -66l-143 15c11 78 82 166 234 166
c156 0 214 -94 214 -192v-168c0 -23 8 -37 36 -37h18v-125c-53 -49 -90 -86 -90 -118c0 -24 18 -29 40 -29c14 0 29 2 43 7v-90c-16 -9 -39 -15 -73 -15zM211 154c0 -33 22 -52 64 -52c59 0 104 44 104 104v19l-108 -16c-46 -7 -60 -28 -60 -55z" />
    <glyph glyph-name="cacute" unicode="&#x107;" 
d="M358 726h134l-103 -160h-127zM325 114c57 0 87 34 96 83l144 -18c-24 -122 -112 -191 -244 -191c-164 0 -256 113 -256 266c0 155 93 268 258 268c136 0 226 -71 246 -200l-147 -16c-11 53 -38 89 -98 89c-75 0 -104 -60 -104 -141c0 -79 29 -140 105 -140z" />
    <glyph glyph-name="ccircumflex" unicode="&#x109;" 
d="M255 726h134l118 -160h-131l-56 75l-53 -75h-129zM325 114c57 0 87 34 96 83l144 -18c-24 -122 -112 -191 -244 -191c-164 0 -256 113 -256 266c0 155 93 268 258 268c136 0 226 -71 246 -200l-147 -16c-11 53 -38 89 -98 89c-75 0 -104 -60 -104 -141
c0 -79 29 -140 105 -140z" />
    <glyph glyph-name="cdotaccent" unicode="&#x10b;" 
d="M243 570v134h160v-134h-160zM325 114c57 0 87 34 96 83l144 -18c-24 -122 -112 -191 -244 -191c-164 0 -256 113 -256 266c0 155 93 268 258 268c136 0 226 -71 246 -200l-147 -16c-11 53 -38 89 -98 89c-75 0 -104 -60 -104 -141c0 -79 29 -140 105 -140z" />
    <glyph glyph-name="ccaron" unicode="&#x10d;" 
d="M388 566h-134l-118 160h131l56 -75l53 75h129zM325 114c57 0 87 34 96 83l144 -18c-24 -122 -112 -191 -244 -191c-164 0 -256 113 -256 266c0 155 93 268 258 268c136 0 226 -71 246 -200l-147 -16c-11 53 -38 89 -98 89c-75 0 -104 -60 -104 -141
c0 -79 29 -140 105 -140z" />
    <glyph glyph-name="dcaron" unicode="&#x10f;" 
d="M205 -12c-109 0 -177 105 -177 263c0 156 67 271 177 271c48 0 84 -22 111 -65v243h136v-700h-127v66c-27 -50 -67 -78 -120 -78zM526 700h107l-34 -180h-101zM241 114c50 0 77 58 77 141c0 79 -27 140 -77 140c-48 0 -75 -59 -75 -140s27 -141 75 -141z" />
    <glyph glyph-name="emacron" unicode="&#x113;" 
d="M187 589v102h262v-102h-262zM321 107c60 0 81 29 95 61l131 -33c-33 -106 -125 -147 -226 -147c-169 0 -262 100 -262 266c0 155 103 268 259 268c143 0 244 -102 244 -261v-48h-354c10 -71 48 -106 113 -106zM316 403c-56 0 -94 -28 -106 -93h201c-7 65 -43 93 -95 93z
" />
    <glyph glyph-name="ebreve" unicode="&#x115;" 
d="M319 652c33 0 47 22 47 67h103c2 -71 -32 -159 -151 -159s-153 88 -151 159h105c0 -44 14 -67 47 -67zM321 107c60 0 81 29 95 61l131 -33c-33 -106 -125 -147 -226 -147c-169 0 -262 100 -262 266c0 155 103 268 259 268c143 0 244 -102 244 -261v-48h-354
c10 -71 48 -106 113 -106zM316 403c-56 0 -94 -28 -106 -93h201c-7 65 -43 93 -95 93z" />
    <glyph glyph-name="edotaccent" unicode="&#x117;" 
d="M238 570v134h160v-134h-160zM321 107c60 0 81 29 95 61l131 -33c-33 -106 -125 -147 -226 -147c-169 0 -262 100 -262 266c0 155 103 268 259 268c143 0 244 -102 244 -261v-48h-354c10 -71 48 -106 113 -106zM316 403c-56 0 -94 -28 -106 -93h201c-7 65 -43 93 -95 93z
" />
    <glyph glyph-name="eogonek" unicode="&#x119;" 
d="M59 254c0 155 103 268 259 268c143 0 244 -102 244 -261v-48h-354c10 -71 48 -106 113 -106c60 0 81 29 95 61l131 -33c-22 -68 -58 -93 -90 -117c-45 -32 -86 -59 -86 -116c0 -37 21 -48 50 -48c11 0 22 3 34 7v-89c-16 -10 -38 -15 -73 -15c-73 0 -118 47 -118 105
c0 50 23 89 60 126h-4c-167 0 -261 100 -261 266zM316 403c-56 0 -94 -28 -106 -93h201c-7 65 -43 93 -95 93z" />
    <glyph glyph-name="ecaron" unicode="&#x11b;" 
d="M383 566h-134l-118 160h131l56 -75l53 75h129zM321 107c60 0 81 29 95 61l131 -33c-33 -106 -125 -147 -226 -147c-169 0 -262 100 -262 266c0 155 103 268 259 268c143 0 244 -102 244 -261v-48h-354c10 -71 48 -106 113 -106zM316 403c-56 0 -94 -28 -106 -93h201
c-7 65 -43 93 -95 93z" />
    <glyph glyph-name="gcircumflex" unicode="&#x11d;" 
d="M241 726h134l118 -160h-131l-56 75l-53 -75h-129zM270 33c-138 0 -222 96 -222 242c0 141 83 247 222 247c66 0 115 -24 148 -65v53h144v-477c0 -118 -67 -230 -258 -230c-173 0 -243 88 -251 173l152 17c7 -27 24 -70 103 -70c90 0 102 67 102 110v60
c-32 -38 -79 -60 -140 -60zM308 159c66 0 104 48 104 118c0 67 -39 119 -104 119c-68 0 -104 -51 -104 -119c0 -69 36 -118 104 -118z" />
    <glyph glyph-name="gbreve" unicode="&#x11f;" 
d="M310 652c33 0 47 22 47 67h103c2 -71 -32 -159 -151 -159s-153 88 -151 159h105c0 -44 14 -67 47 -67zM270 33c-138 0 -222 96 -222 242c0 141 83 247 222 247c66 0 115 -24 148 -65v53h144v-477c0 -118 -67 -230 -258 -230c-173 0 -243 88 -251 173l152 17
c7 -27 24 -70 103 -70c90 0 102 67 102 110v60c-32 -38 -79 -60 -140 -60zM308 159c66 0 104 48 104 118c0 67 -39 119 -104 119c-68 0 -104 -51 -104 -119c0 -69 36 -118 104 -118z" />
    <glyph glyph-name="gdotaccent" unicode="&#x121;" 
d="M229 570v134h160v-134h-160zM270 33c-138 0 -222 96 -222 242c0 141 83 247 222 247c66 0 115 -24 148 -65v53h144v-477c0 -118 -67 -230 -258 -230c-173 0 -243 88 -251 173l152 17c7 -27 24 -70 103 -70c90 0 102 67 102 110v60c-32 -38 -79 -60 -140 -60zM308 159
c66 0 104 48 104 118c0 67 -39 119 -104 119c-68 0 -104 -51 -104 -119c0 -69 36 -118 104 -118z" />
    <glyph glyph-name="uni0123" unicode="&#x123;" 
d="M375 566h-126l61 151h111zM270 33c-138 0 -222 96 -222 242c0 141 83 247 222 247c66 0 115 -24 148 -65v53h144v-477c0 -118 -67 -230 -258 -230c-173 0 -243 88 -251 173l152 17c7 -27 24 -70 103 -70c90 0 102 67 102 110v60c-32 -38 -79 -60 -140 -60zM308 159
c66 0 104 48 104 118c0 67 -39 119 -104 119c-68 0 -104 -51 -104 -119c0 -69 36 -118 104 -118z" />
    <glyph glyph-name="hcircumflex" unicode="&#x125;" 
d="M83 913h134l118 -160h-131l-56 75l-53 -75h-129zM551 0h-152v305c0 59 -31 89 -81 89c-59 0 -92 -36 -92 -104v-290h-152v700h152v-235c30 35 75 57 137 57c129 0 188 -88 188 -193v-329z" />
    <glyph glyph-name="itilde" unicode="&#x129;" 
d="M300 686c15 0 22 5 22 30h94c1 -91 -17 -140 -85 -140c-55 0 -85 31 -119 31c-17 0 -26 -13 -26 -34h-96c0 76 22 140 97 140c55 0 88 -27 113 -27zM91 122h162v266h-162v122h314v-388h162v-122h-476v122z" />
    <glyph glyph-name="imacron" unicode="&#x12b;" 
d="M143 589v102h262v-102h-262zM91 122h162v266h-162v122h314v-388h162v-122h-476v122z" />
    <glyph glyph-name="iogonek" unicode="&#x12f;" 
d="M243 738h162v-162h-162v162zM91 122h162v266h-162v122h314v-388h162v-122c-52 -49 -90 -86 -90 -118c0 -24 18 -29 40 -29c14 0 29 2 43 7v-90c-16 -9 -39 -15 -73 -15c-72 0 -117 43 -117 95c0 63 41 105 97 150h-376v122z" />
    <glyph glyph-name="jcircumflex" unicode="&#x135;" 
d="M228 726h134l118 -160h-131l-56 75l-53 -75h-129zM477 510v-515c0 -96 -44 -180 -191 -180h-201v125h188c44 0 52 25 52 62v386h-225v122h377z" />
    <glyph glyph-name="uni0137" unicode="&#x137;" 
d="M600 0h-183l-133 209l-63 -65v-144h-152v700h152v-377l173 187h185l-186 -194zM258 -61h118l-51 -175h-113z" />
    <glyph glyph-name="lacute" unicode="&#x13a;" 
d="M346 913h134l-103 -160h-127zM91 122h162v456h-162v122h314v-578h162v-122h-476v122z" />
    <glyph glyph-name="uni013C" unicode="&#x13c;" 
d="M91 122h162v456h-162v122h314v-578h162v-122h-476v122zM270 -61h118l-51 -175h-113z" />
    <glyph glyph-name="lcaron" unicode="&#x13e;" 
d="M91 122h162v456h-162v122h314v-578h162v-122h-476v122zM480 700h116l-35 -180h-109z" />
    <glyph glyph-name="nacute" unicode="&#x144;" 
d="M355 726h134l-103 -160h-127zM551 0h-152v305c0 59 -31 89 -81 89c-59 0 -92 -36 -92 -104v-290h-152v510h144v-55c30 40 77 67 145 67c129 0 188 -88 188 -193v-329z" />
    <glyph glyph-name="uni0146" unicode="&#x146;" 
d="M551 0h-152v305c0 59 -31 89 -81 89c-59 0 -92 -36 -92 -104v-290h-152v510h144v-55c30 40 77 67 145 67c129 0 188 -88 188 -193v-329zM253 -61h118l-51 -175h-113z" />
    <glyph glyph-name="ncaron" unicode="&#x148;" 
d="M385 566h-134l-118 160h131l56 -75l53 75h129zM551 0h-152v305c0 59 -31 89 -81 89c-59 0 -92 -36 -92 -104v-290h-152v510h144v-55c30 40 77 67 145 67c129 0 188 -88 188 -193v-329z" />
    <glyph glyph-name="omacron" unicode="&#x14d;" 
d="M179 589v102h262v-102h-262zM310 522c168 0 264 -113 264 -267s-101 -267 -264 -267c-169 0 -263 113 -263 267s99 267 263 267zM310 400c-77 0 -109 -62 -109 -145s32 -145 109 -145c79 0 110 62 110 145s-31 145 -110 145z" />
    <glyph glyph-name="obreve" unicode="&#x14f;" 
d="M311 652c33 0 47 22 47 67h103c2 -71 -32 -159 -151 -159s-153 88 -151 159h105c0 -44 14 -67 47 -67zM310 522c168 0 264 -113 264 -267s-101 -267 -264 -267c-169 0 -263 113 -263 267s99 267 263 267zM310 400c-77 0 -109 -62 -109 -145s32 -145 109 -145
c79 0 110 62 110 145s-31 145 -110 145z" />
    <glyph glyph-name="ohungarumlaut" unicode="&#x151;" 
d="M256 726h130l-105 -160h-120zM441 726h126l-110 -160h-123zM310 522c168 0 264 -113 264 -267s-101 -267 -264 -267c-169 0 -263 113 -263 267s99 267 263 267zM310 400c-77 0 -109 -62 -109 -145s32 -145 109 -145c79 0 110 62 110 145s-31 145 -110 145z" />
    <glyph glyph-name="racute" unicode="&#x155;" 
d="M360 726h134l-103 -160h-127zM78 122h132v266h-132v122h275v-72c30 46 74 72 129 72h90v-138h-96c-75 0 -114 -42 -114 -153v-97h172v-122h-456v122z" />
    <glyph glyph-name="uni0157" unicode="&#x157;" 
d="M78 122h132v266h-132v122h275v-72c30 46 74 72 129 72h90v-138h-96c-75 0 -114 -42 -114 -153v-97h172v-122h-456v122zM227 -61h118l-51 -175h-113z" />
    <glyph glyph-name="rcaron" unicode="&#x159;" 
d="M390 566h-134l-118 160h131l56 -75l53 75h129zM78 122h132v266h-132v122h275v-72c30 46 74 72 129 72h90v-138h-96c-75 0 -114 -42 -114 -153v-97h172v-122h-456v122z" />
    <glyph glyph-name="sacute" unicode="&#x15b;" 
d="M349 726h134l-103 -160h-127zM551 161c0 -104 -74 -173 -238 -173c-172 0 -237 82 -243 165l152 15c4 -45 38 -69 98 -69c62 0 80 22 80 48c0 25 -23 35 -63 42l-82 15c-80 15 -166 46 -166 153c0 90 76 165 225 165c161 0 216 -81 227 -158l-139 -16
c-8 35 -37 64 -92 64c-60 0 -77 -21 -77 -43c0 -26 22 -33 61 -40l89 -17c105 -20 168 -55 168 -151z" />
    <glyph glyph-name="scircumflex" unicode="&#x15d;" 
d="M246 726h134l118 -160h-131l-56 75l-53 -75h-129zM551 161c0 -104 -74 -173 -238 -173c-172 0 -237 82 -243 165l152 15c4 -45 38 -69 98 -69c62 0 80 22 80 48c0 25 -23 35 -63 42l-82 15c-80 15 -166 46 -166 153c0 90 76 165 225 165c161 0 216 -81 227 -158l-139 -16
c-8 35 -37 64 -92 64c-60 0 -77 -21 -77 -43c0 -26 22 -33 61 -40l89 -17c105 -20 168 -55 168 -151z" />
    <glyph glyph-name="scedilla" unicode="&#x15f;" 
d="M426 -136c0 -63 -44 -108 -124 -108c-72 0 -110 38 -116 93l83 2c2 -16 14 -25 33 -25c24 0 34 15 34 33c0 21 -12 34 -34 34c-12 0 -25 -5 -34 -16l-51 37l55 76c-142 12 -197 87 -202 163l152 15c4 -45 38 -69 98 -69c62 0 80 22 80 48c0 25 -23 35 -63 42l-82 15
c-80 15 -166 46 -166 153c0 90 76 165 225 165c161 0 216 -81 227 -158l-139 -16c-8 35 -37 64 -92 64c-60 0 -77 -21 -77 -43c0 -26 22 -33 61 -40l89 -17c105 -20 168 -55 168 -151c0 -95 -62 -161 -199 -172l-24 -32c62 -6 98 -43 98 -93z" />
    <glyph glyph-name="uni0219" unicode="&#x219;" 
d="M551 161c0 -104 -74 -173 -238 -173c-172 0 -237 82 -243 165l152 15c4 -45 38 -69 98 -69c62 0 80 22 80 48c0 25 -23 35 -63 42l-82 15c-80 15 -166 46 -166 153c0 90 76 165 225 165c161 0 216 -81 227 -158l-139 -16c-8 35 -37 64 -92 64c-60 0 -77 -21 -77 -43
c0 -26 22 -33 61 -40l89 -17c105 -20 168 -55 168 -151zM258 -61h118l-51 -175h-113z" />
    <glyph glyph-name="uni0163" unicode="&#x163;" 
d="M60 388v122h138v151h152v-151h195v-122h-195v-209c0 -37 8 -54 48 -54h161v-125h-165l-32 -43c62 -6 98 -43 98 -93c0 -63 -44 -108 -124 -108c-72 0 -110 38 -116 93l83 2c2 -16 14 -25 33 -25c24 0 34 15 34 33c0 21 -12 34 -34 34c-12 0 -25 -5 -34 -16l-51 37l65 90
c-86 14 -118 67 -118 153v231h-138z" />
    <glyph glyph-name="tcaron" unicode="&#x165;" 
d="M424 750h116l-35 -180h-109zM60 388v122h138v151h152v-151h195v-122h-195v-209c0 -37 8 -54 48 -54h161v-125h-192c-125 0 -169 56 -169 157v231h-138z" />
    <glyph glyph-name="uni021B" unicode="&#x21b;" 
d="M60 388v122h138v151h152v-151h195v-122h-195v-209c0 -37 8 -54 48 -54h161v-125h-192c-125 0 -169 56 -169 157v231h-138zM228 -61h118l-51 -175h-113z" />
    <glyph glyph-name="utilde" unicode="&#x169;" 
d="M354 686c15 0 22 5 22 30h94c1 -91 -17 -140 -85 -140c-55 0 -85 31 -119 31c-17 0 -26 -13 -26 -34h-96c0 76 22 140 97 140c55 0 88 -27 113 -27zM541 0h-144v54c-29 -40 -75 -66 -140 -66c-125 0 -183 88 -183 193v329h152v-305c0 -59 29 -90 76 -90
c56 0 87 37 87 104v291h152v-510z" />
    <glyph glyph-name="umacron" unicode="&#x16b;" 
d="M176 589v102h262v-102h-262zM541 0h-144v54c-29 -40 -75 -66 -140 -66c-125 0 -183 88 -183 193v329h152v-305c0 -59 29 -90 76 -90c56 0 87 37 87 104v291h152v-510z" />
    <glyph glyph-name="ubreve" unicode="&#x16d;" 
d="M308 652c33 0 47 22 47 67h103c2 -71 -32 -159 -151 -159s-153 88 -151 159h105c0 -44 14 -67 47 -67zM541 0h-144v54c-29 -40 -75 -66 -140 -66c-125 0 -183 88 -183 193v329h152v-305c0 -59 29 -90 76 -90c56 0 87 37 87 104v291h152v-510z" />
    <glyph glyph-name="uring" unicode="&#x16f;" 
d="M306 792c84 0 132 -54 132 -117c0 -62 -47 -115 -132 -115c-86 0 -132 53 -132 115c0 63 46 117 132 117zM306 725c-33 0 -48 -22 -48 -49s15 -49 48 -49s48 22 48 49s-15 49 -48 49zM541 0h-144v54c-29 -40 -75 -66 -140 -66c-125 0 -183 88 -183 193v329h152v-305
c0 -59 29 -90 76 -90c56 0 87 37 87 104v291h152v-510z" />
    <glyph glyph-name="uhungarumlaut" unicode="&#x171;" 
d="M253 726h130l-105 -160h-120zM438 726h126l-110 -160h-123zM541 0h-144v54c-29 -40 -75 -66 -140 -66c-125 0 -183 88 -183 193v329h152v-305c0 -59 29 -90 76 -90c56 0 87 37 87 104v291h152v-510z" />
    <glyph glyph-name="uogonek" unicode="&#x173;" 
d="M460 -245c-72 0 -117 43 -117 95c0 63 41 105 97 150h-43v54c-29 -40 -75 -66 -140 -66c-125 0 -183 88 -183 193v329h152v-305c0 -59 29 -90 76 -90c56 0 87 37 87 104v291h152v-510c-53 -49 -91 -86 -91 -118c0 -24 18 -29 40 -29c14 0 29 2 43 7v-90
c-16 -9 -39 -15 -73 -15z" />
    <glyph glyph-name="wcircumflex" unicode="&#x175;" 
d="M243 726h134l118 -160h-131l-56 75l-53 -75h-129zM10 510h138l40 -296l75 296h100l78 -295l42 295h127l-87 -510h-122l-86 318l-88 -318h-130z" />
    <glyph glyph-name="wgrave" unicode="&#x1e81;" 
d="M280 726l96 -160h-129l-100 160h133zM10 510h138l40 -296l75 296h100l78 -295l42 295h127l-87 -510h-122l-86 318l-88 -318h-130z" />
    <glyph glyph-name="wacute" unicode="&#x1e83;" 
d="M348 726h134l-103 -160h-127zM10 510h138l40 -296l75 296h100l78 -295l42 295h127l-87 -510h-122l-86 318l-88 -318h-130z" />
    <glyph glyph-name="wdieresis" unicode="&#x1e85;" 
d="M144 570v134h139v-134h-139zM337 570v134h139v-134h-139zM10 510h138l40 -296l75 296h100l78 -295l42 295h127l-87 -510h-122l-86 318l-88 -318h-130z" />
    <glyph glyph-name="ycircumflex" unicode="&#x177;" 
d="M247 726h134l118 -160h-131l-56 75l-53 -75h-129zM36 510h161l117 -317l120 317h151l-208 -529c-54 -138 -107 -166 -215 -166h-84v123h85c39 0 60 10 69 37l8 23z" />
    <glyph glyph-name="ygrave" unicode="&#x1ef3;" 
d="M281 726l96 -160h-129l-100 160h133zM36 510h161l117 -317l120 317h151l-208 -529c-54 -138 -107 -166 -215 -166h-84v123h85c39 0 60 10 69 37l8 23z" />
    <glyph glyph-name="zacute" unicode="&#x17a;" 
d="M345 726h134l-103 -160h-127zM546 125v-125h-472v107l269 278h-256v125h446v-110l-266 -275h279z" />
    <glyph glyph-name="zdotaccent" unicode="&#x17c;" 
d="M230 570v134h160v-134h-160zM546 125v-125h-472v107l269 278h-256v125h446v-110l-266 -275h279z" />
    <glyph glyph-name="dcroat" unicode="&#x111;" 
d="M264 -12c-140 0 -228 105 -228 263c0 156 87 271 228 271c64 0 113 -24 147 -65v98h-151v93h151v52h152v-52h39v-93h-39v-555h-143v66c-35 -49 -86 -78 -156 -78zM300 114c72 0 113 58 113 141c0 79 -42 140 -113 140c-70 0 -108 -59 -108 -140s38 -141 108 -141z" />
    <glyph glyph-name="hbar" unicode="&#x127;" 
d="M551 0h-152v305c0 59 -31 89 -81 89c-59 0 -92 -36 -92 -104v-290h-152v555h-39v93h39v52h152v-52h151v-93h-151v-90c30 35 75 57 137 57c129 0 188 -88 188 -193v-329z" />
    <glyph glyph-name="ij" unicode="&#x133;" 
d="M386 705h153v-138h-153v138zM82 705h154v-138h-154v138zM235 510v-510h-152v510h152zM539 510v-524c0 -91 -43 -171 -183 -171h-102v125h88c38 0 45 24 45 54v516h152z" />
    <glyph glyph-name="kgreenlandic" unicode="&#x138;" 
d="M600 0h-183l-133 209l-63 -65v-144h-152v510h152v-187l173 187h185l-186 -194z" />
    <glyph glyph-name="ldot" unicode="&#x140;" 
d="M91 122h162v456h-162v122h314v-578h162v-122h-476v122zM557 472h163v-164h-163v164z" />
    <glyph glyph-name="napostrophe" unicode="&#x149;" 
d="M78 733h118l-51 -175h-113zM551 0h-152v305c0 59 -31 89 -81 89c-59 0 -92 -36 -92 -104v-290h-152v510h144v-55c30 40 77 67 145 67c129 0 188 -88 188 -193v-329z" />
    <glyph glyph-name="tbar" unicode="&#x167;" 
d="M107 322h88v66h-138v122h138v151h152v-151h195v-122h-195v-66h108v-102h-108v-41c0 -37 8 -54 48 -54h161v-125h-192c-125 0 -169 56 -169 157v63h-88v102z" />
    <glyph glyph-name="longs" unicode="&#x17f;" 
d="M90 122h120v266h-138v122h138v28c0 86 49 162 189 162h172v-125h-165c-37 0 -44 -24 -44 -50v-403h138v-122h-410v122z" />
    <glyph glyph-name="uni0237" unicode="&#x237;" 
d="M477 510v-515c0 -96 -44 -180 -191 -180h-201v125h188c44 0 52 25 52 62v386h-225v122h377z" />
    <glyph glyph-name="uni03BC" unicode="&#x3bc;" 
d="M544 0h-144v54c-29 -40 -75 -66 -141 -66c-17 0 -32 3 -45 7l15 -73v-107h-152v695h152v-305c0 -59 29 -90 76 -90c56 0 87 37 87 104v291h152v-510z" />
    <glyph glyph-name="uni02C9" unicode="&#x2c9;" 
d="M179 589v102h262v-102h-262z" />
    <glyph glyph-name="uni2153" unicode="&#x2153;" 
d="M344 399l164 301h97l-165 -301h-96zM44 444h87v133c-11 -4 -23 -6 -37 -6h-56v76h56c46 0 49 38 49 53h84v-256h73v-77h-256v77zM453 135h-26v66h18c25 0 33 17 33 33c0 17 -13 26 -32 26c-22 0 -47 -14 -45 -55l-88 18c4 79 66 115 140 115c80 0 123 -41 123 -92
c0 -26 -11 -54 -42 -70c38 -14 53 -41 53 -77c0 -63 -52 -106 -134 -106c-68 0 -147 32 -145 117l96 13c-2 -42 21 -53 45 -53s41 11 41 35c0 16 -8 30 -37 30zM15 0l165 301h96l-164 -301h-97z" />
    <glyph glyph-name="uni2154" unicode="&#x2154;" 
d="M293 445v-77h-270v71l113 96c27 23 44 41 44 66c0 13 -7 27 -29 27c-20 0 -42 -14 -37 -59l-93 12c-5 92 64 126 135 126c85 0 125 -47 125 -101c0 -50 -37 -89 -81 -125l-44 -36h137zM344 399l164 301h97l-165 -301h-96zM453 135h-26v66h18c25 0 33 17 33 33
c0 17 -13 26 -32 26c-22 0 -47 -14 -45 -55l-88 18c4 79 66 115 140 115c80 0 123 -41 123 -92c0 -26 -11 -54 -42 -70c38 -14 53 -41 53 -77c0 -63 -52 -106 -134 -106c-68 0 -147 32 -145 117l96 13c-2 -42 21 -53 45 -53s41 11 41 35c0 16 -8 30 -37 30zM15 0l165 301h96
l-164 -301h-97z" />
    <glyph glyph-name="uni2155" unicode="&#x2155;" 
d="M344 399l164 301h97l-165 -301h-96zM44 444h87v133c-11 -4 -23 -6 -37 -6h-56v76h56c46 0 49 38 49 53h84v-256h73v-77h-256v77zM592 111c0 -64 -45 -118 -139 -118c-70 0 -134 36 -144 92l96 14c4 -21 23 -33 48 -33c27 0 43 16 43 41c0 26 -18 38 -44 38
c-24 0 -42 -7 -60 -22l-66 32l28 177h211v-77h-141l-9 -54c16 9 36 15 59 15c77 0 118 -46 118 -105zM15 0l165 301h96l-164 -301h-97z" />
    <glyph glyph-name="uni2156" unicode="&#x2156;" 
d="M293 445v-77h-270v71l113 96c27 23 44 41 44 66c0 13 -7 27 -29 27c-20 0 -42 -14 -37 -59l-93 12c-5 92 64 126 135 126c85 0 125 -47 125 -101c0 -50 -37 -89 -81 -125l-44 -36h137zM344 399l164 301h97l-165 -301h-96zM592 111c0 -64 -45 -118 -139 -118
c-70 0 -134 36 -144 92l96 14c4 -21 23 -33 48 -33c27 0 43 16 43 41c0 26 -18 38 -44 38c-24 0 -42 -7 -60 -22l-66 32l28 177h211v-77h-141l-9 -54c16 9 36 15 59 15c77 0 118 -46 118 -105zM15 0l165 301h96l-164 -301h-97z" />
    <glyph glyph-name="uni2157" unicode="&#x2157;" 
d="M165 505h-26v66h18c25 0 33 17 33 33c0 17 -13 26 -32 26c-22 0 -47 -14 -45 -55l-88 18c4 79 66 115 140 115c80 0 123 -41 123 -92c0 -26 -11 -54 -42 -70c38 -14 53 -41 53 -77c0 -63 -52 -106 -134 -106c-68 0 -147 32 -145 117l96 13c-2 -42 21 -53 45 -53
s41 11 41 35c0 16 -8 30 -37 30zM344 399l164 301h97l-165 -301h-96zM592 111c0 -64 -45 -118 -139 -118c-70 0 -134 36 -144 92l96 14c4 -21 23 -33 48 -33c27 0 43 16 43 41c0 26 -18 38 -44 38c-24 0 -42 -7 -60 -22l-66 32l28 177h211v-77h-141l-9 -54c16 9 36 15 59 15
c77 0 118 -46 118 -105zM15 0l165 301h96l-164 -301h-97z" />
    <glyph glyph-name="uni2158" unicode="&#x2158;" 
d="M14 500l128 200h131v-193h44v-77h-44v-63h-94v63h-165v70zM344 399l164 301h97l-165 -301h-96zM179 507v111l-72 -111h72zM592 111c0 -64 -45 -118 -139 -118c-70 0 -134 36 -144 92l96 14c4 -21 23 -33 48 -33c27 0 43 16 43 41c0 26 -18 38 -44 38
c-24 0 -42 -7 -60 -22l-66 32l28 177h211v-77h-141l-9 -54c16 9 36 15 59 15c77 0 118 -46 118 -105zM15 0l165 301h96l-164 -301h-97z" />
    <glyph glyph-name="uni2159" unicode="&#x2159;" 
d="M344 399l164 301h97l-165 -301h-96zM44 444h87v133c-11 -4 -23 -6 -37 -6h-56v76h56c46 0 49 38 49 53h84v-256h73v-77h-256v77zM590 111c0 -66 -52 -118 -133 -118c-88 0 -148 51 -148 168c0 124 65 177 150 177c59 0 115 -28 126 -96l-90 -8c-6 22 -21 30 -39 30
c-33 0 -52 -24 -54 -75c20 18 50 26 73 26c67 0 115 -38 115 -104zM15 0l165 301h96l-164 -301h-97zM455 62c25 0 42 19 42 42c0 26 -17 43 -42 43c-28 0 -44 -18 -44 -43c0 -23 17 -42 44 -42z" />
    <glyph glyph-name="uni215A" unicode="&#x215a;" 
d="M301 479c0 -64 -45 -118 -139 -118c-70 0 -134 36 -144 92l96 14c4 -21 23 -33 48 -33c27 0 43 16 43 41c0 26 -18 38 -44 38c-24 0 -42 -7 -60 -22l-66 32l28 177h211v-77h-141l-9 -54c16 9 36 15 59 15c77 0 118 -46 118 -105zM344 399l164 301h97l-165 -301h-96z
M590 111c0 -66 -52 -118 -133 -118c-88 0 -148 51 -148 168c0 124 65 177 150 177c59 0 115 -28 126 -96l-90 -8c-6 22 -21 30 -39 30c-33 0 -52 -24 -54 -75c20 18 50 26 73 26c67 0 115 -38 115 -104zM15 0l165 301h96l-164 -301h-97zM455 62c25 0 42 19 42 42
c0 26 -17 43 -42 43c-28 0 -44 -18 -44 -43c0 -23 17 -42 44 -42z" />
    <glyph glyph-name="uni215B" unicode="&#x215b;" 
d="M344 399l164 301h97l-165 -301h-96zM44 444h87v133c-11 -4 -23 -6 -37 -6h-56v76h56c46 0 49 38 49 53h84v-256h73v-77h-256v77zM592 95c0 -57 -51 -102 -143 -102c-96 0 -144 45 -144 102c0 30 13 63 58 81c-36 17 -45 46 -45 71c0 49 46 91 131 91s130 -42 130 -91
c0 -25 -9 -53 -44 -70c46 -19 57 -52 57 -82zM15 0l165 301h96l-164 -301h-97zM449 206c26 0 38 17 38 33c0 20 -16 33 -38 33c-23 0 -39 -13 -39 -33c0 -16 12 -33 39 -33zM449 141c-34 0 -49 -18 -49 -40c0 -23 15 -41 49 -41c32 0 48 18 48 41c0 22 -16 40 -48 40z" />
    <glyph glyph-name="uni215C" unicode="&#x215c;" 
d="M165 504h-26v66h18c25 0 33 17 33 33c0 17 -13 26 -32 26c-22 0 -47 -14 -45 -55l-88 18c4 79 66 115 140 115c80 0 123 -41 123 -92c0 -26 -11 -54 -42 -70c38 -14 53 -41 53 -77c0 -63 -52 -106 -134 -106c-68 0 -147 32 -145 117l96 13c-2 -42 21 -53 45 -53
s41 11 41 35c0 16 -8 30 -37 30zM344 399l164 301h97l-165 -301h-96zM592 95c0 -57 -51 -102 -143 -102c-96 0 -144 45 -144 102c0 30 13 63 58 81c-36 17 -45 46 -45 71c0 49 46 91 131 91s130 -42 130 -91c0 -25 -9 -53 -44 -70c46 -19 57 -52 57 -82zM15 0l165 301h96
l-164 -301h-97zM449 206c26 0 38 17 38 33c0 20 -16 33 -38 33c-23 0 -39 -13 -39 -33c0 -16 12 -33 39 -33zM449 141c-34 0 -49 -18 -49 -40c0 -23 15 -41 49 -41c32 0 48 18 48 41c0 22 -16 40 -48 40z" />
    <glyph glyph-name="uni215D" unicode="&#x215d;" 
d="M344 399l164 301h97l-165 -301h-96zM301 479c0 -64 -45 -118 -139 -118c-70 0 -134 36 -144 92l96 14c4 -21 23 -33 48 -33c27 0 43 16 43 41c0 26 -18 38 -44 38c-24 0 -42 -7 -60 -22l-66 32l28 177h211v-77h-141l-9 -54c16 9 36 15 59 15c77 0 118 -46 118 -105z
M592 95c0 -57 -51 -102 -143 -102c-96 0 -144 45 -144 102c0 30 13 63 58 81c-36 17 -45 46 -45 71c0 49 46 91 131 91s130 -42 130 -91c0 -25 -9 -53 -44 -70c46 -19 57 -52 57 -82zM15 0l165 301h96l-164 -301h-97zM449 206c26 0 38 17 38 33c0 20 -16 33 -38 33
c-23 0 -39 -13 -39 -33c0 -16 12 -33 39 -33zM449 141c-34 0 -49 -18 -49 -40c0 -23 15 -41 49 -41c32 0 48 18 48 41c0 22 -16 40 -48 40z" />
    <glyph glyph-name="uni215E" unicode="&#x215e;" 
d="M31 582v118h273v-62c-77 -77 -104 -120 -104 -223v-48h-96v47c0 90 30 148 86 206h-76v-38h-83zM344 399l164 301h97l-165 -301h-96zM592 95c0 -57 -51 -102 -143 -102c-96 0 -144 45 -144 102c0 30 13 63 58 81c-36 17 -45 46 -45 71c0 49 46 91 131 91s130 -42 130 -91
c0 -25 -9 -53 -44 -70c46 -19 57 -52 57 -82zM15 0l165 301h96l-164 -301h-97zM449 206c26 0 38 17 38 33c0 20 -16 33 -38 33c-23 0 -39 -13 -39 -33c0 -16 12 -33 39 -33zM449 141c-34 0 -49 -18 -49 -40c0 -23 15 -41 49 -41c32 0 48 18 48 41c0 22 -16 40 -48 40z" />
    <glyph glyph-name="uni215F" unicode="&#x215f;" 
d="M344 399l164 301h97l-165 -301h-96zM44 444h87v133c-11 -4 -23 -6 -37 -6h-56v76h56c46 0 49 38 49 53h84v-256h73v-77h-256v77zM15 0l165 301h96l-164 -301h-97z" />
    <glyph glyph-name="uni2460" unicode="&#x2460;" 
d="M309 615c146 0 266 -120 266 -264c0 -147 -120 -266 -266 -266c-145 0 -264 119 -264 266c0 144 119 264 264 264zM309 544c-107 0 -189 -87 -189 -193c0 -109 82 -195 189 -195c108 0 191 86 191 195c0 106 -83 193 -191 193zM206 276h72v109c-9 -4 -20 -5 -31 -5h-46
v62h46c38 0 41 32 41 44h69v-210h59v-64h-210v64z" />
    <glyph glyph-name="uni2461" unicode="&#x2461;" 
d="M309 615c146 0 266 -120 266 -264c0 -147 -120 -266 -266 -266c-145 0 -264 119 -264 266c0 144 119 264 264 264zM309 544c-107 0 -189 -87 -189 -193c0 -109 82 -195 189 -195c108 0 191 86 191 195c0 106 -83 193 -191 193zM422 276v-64h-223v59l93 78
c23 19 37 35 37 55c0 10 -7 22 -24 22s-35 -12 -31 -49l-77 11c-3 75 53 103 111 103c70 0 103 -39 103 -83c0 -41 -29 -74 -66 -103l-37 -29h114z" />
    <glyph glyph-name="uni2462" unicode="&#x2462;" 
d="M309 615c146 0 266 -120 266 -264c0 -147 -120 -266 -266 -266c-145 0 -264 119 -264 266c0 144 119 264 264 264zM309 544c-107 0 -189 -87 -189 -193c0 -109 82 -195 189 -195c108 0 191 86 191 195c0 106 -83 193 -191 193zM310 324h-21v55h15c21 0 27 14 27 26
c0 15 -11 22 -26 22c-19 0 -39 -12 -37 -46l-73 15c3 65 54 95 115 95c66 0 102 -33 102 -75c0 -22 -9 -45 -35 -58c31 -12 44 -34 44 -63c0 -52 -43 -88 -111 -88c-56 0 -120 26 -119 96l79 11c-2 -34 18 -43 37 -43c20 0 34 9 34 29c0 12 -7 24 -31 24z" />
    <glyph glyph-name="uni2463" unicode="&#x2463;" 
d="M309 615c146 0 266 -120 266 -264c0 -147 -120 -266 -266 -266c-145 0 -264 119 -264 266c0 144 119 264 264 264zM309 544c-107 0 -189 -87 -189 -193c0 -109 82 -195 189 -195c108 0 191 86 191 195c0 106 -83 193 -191 193zM168 322l105 164h109v-158h36v-64h-36v-52
h-78v52h-136v58zM304 328v91l-59 -91h59z" />
    <glyph glyph-name="uni2464" unicode="&#x2464;" 
d="M309 615c146 0 266 -120 266 -264c0 -147 -120 -266 -266 -266c-145 0 -264 119 -264 266c0 144 119 264 264 264zM309 544c-107 0 -189 -87 -189 -193c0 -109 82 -195 189 -195c108 0 191 86 191 195c0 106 -83 193 -191 193zM421 304c0 -52 -37 -97 -115 -97
c-58 0 -110 30 -119 76l80 12c3 -18 18 -28 39 -28c23 0 35 14 35 34c0 22 -15 31 -36 31c-20 0 -35 -6 -49 -18l-54 27l23 145h174v-63h-117l-7 -44c13 7 29 12 49 12c63 0 97 -38 97 -87z" />
    <glyph glyph-name="uni2465" unicode="&#x2465;" 
d="M309 615c146 0 266 -120 266 -264c0 -147 -120 -266 -266 -266c-145 0 -264 119 -264 266c0 144 119 264 264 264zM309 544c-107 0 -189 -87 -189 -193c0 -109 82 -195 189 -195c108 0 191 86 191 195c0 106 -83 193 -191 193zM419 304c0 -54 -43 -97 -110 -97
c-72 0 -121 42 -121 138c0 102 53 146 123 146c49 0 95 -23 103 -79l-73 -7c-6 18 -18 25 -32 25c-28 0 -43 -19 -45 -61c17 15 41 21 60 21c55 0 95 -32 95 -86zM307 264c21 0 35 15 35 35c0 21 -14 35 -35 35c-22 0 -35 -15 -35 -35s14 -35 35 -35z" />
    <glyph glyph-name="uni2466" unicode="&#x2466;" 
d="M309 615c146 0 266 -120 266 -264c0 -147 -120 -266 -266 -266c-145 0 -264 119 -264 266c0 144 119 264 264 264zM309 544c-107 0 -189 -87 -189 -193c0 -109 82 -195 189 -195c108 0 191 86 191 195c0 106 -83 193 -191 193zM198 389v97h225v-51
c-63 -63 -85 -98 -85 -184v-39h-79v39c0 74 25 121 70 170h-62v-32h-69z" />
    <glyph glyph-name="uni2467" unicode="&#x2467;" 
d="M309 615c146 0 266 -120 266 -264c0 -147 -120 -266 -266 -266c-145 0 -264 119 -264 266c0 144 119 264 264 264zM309 544c-107 0 -189 -87 -189 -193c0 -109 82 -195 189 -195c108 0 191 86 191 195c0 106 -83 193 -191 193zM427 291c0 -47 -42 -84 -118 -84
c-78 0 -118 37 -118 84c0 25 10 52 47 67c-29 14 -37 37 -37 58c0 40 38 75 108 75c71 0 108 -35 108 -75c0 -21 -8 -44 -37 -58c38 -15 47 -42 47 -67zM309 383c22 0 32 14 32 26c0 17 -13 28 -32 28s-31 -11 -31 -28c0 -12 9 -26 31 -26zM309 329c-27 0 -40 -15 -40 -33
c0 -19 13 -34 40 -34s40 15 40 34c0 18 -13 33 -40 33z" />
    <glyph glyph-name="uni2468" unicode="&#x2468;" 
d="M309 615c146 0 266 -120 266 -264c0 -147 -120 -266 -266 -266c-145 0 -264 119 -264 266c0 144 119 264 264 264zM309 544c-107 0 -189 -87 -189 -193c0 -109 82 -195 189 -195c108 0 191 86 191 195c0 106 -83 193 -191 193zM196 394c0 55 42 97 109 97
c73 0 122 -42 122 -138c0 -102 -54 -146 -124 -146c-49 0 -95 23 -103 79l73 7c6 -18 18 -25 32 -25c28 0 43 20 45 62c-17 -15 -41 -21 -60 -21c-55 0 -94 31 -94 85zM307 435c-21 0 -35 -16 -35 -35c0 -21 14 -35 35 -35c22 0 36 14 36 35c0 19 -14 35 -36 35z" />
    <glyph glyph-name="uni24EA" unicode="&#x24ea;" 
d="M309 615c146 0 266 -120 266 -264c0 -147 -120 -266 -266 -266c-145 0 -264 119 -264 266c0 144 119 264 264 264zM309 544c-107 0 -189 -87 -189 -193c0 -109 82 -195 189 -195c108 0 191 86 191 195c0 106 -83 193 -191 193zM309 207c-79 0 -114 58 -114 142
c0 85 38 142 114 142c79 0 116 -57 116 -142c0 -84 -39 -142 -116 -142zM309 271c30 0 37 26 37 78s-7 79 -37 79c-28 0 -35 -27 -35 -79s7 -78 35 -78z" />
    <glyph glyph-name="uni24FF" unicode="&#x24ff;" 
d="M311 615c145 0 264 -120 264 -264c0 -147 -119 -266 -264 -266c-146 0 -266 119 -266 266c0 144 120 264 266 264zM309 207c77 0 116 58 116 142c0 85 -37 142 -116 142c-76 0 -114 -57 -114 -142c0 -84 35 -142 114 -142zM309 271c-28 0 -35 26 -35 78s7 79 35 79
c30 0 37 -27 37 -79s-7 -78 -37 -78z" />
    <glyph glyph-name="uni2776" unicode="&#x2776;" 
d="M311 615c145 0 264 -120 264 -264c0 -147 -119 -266 -264 -266c-146 0 -266 119 -266 266c0 144 120 264 266 264zM206 276v-64h210v64h-59v210h-69c0 -12 -3 -44 -41 -44h-46v-62h46c11 0 22 1 31 5v-109h-72z" />
    <glyph glyph-name="uni2777" unicode="&#x2777;" 
d="M311 615c145 0 264 -120 264 -264c0 -147 -119 -266 -264 -266c-146 0 -266 119 -266 266c0 144 120 264 266 264zM422 276h-114l37 29c37 29 66 62 66 103c0 44 -33 83 -103 83c-58 0 -114 -28 -111 -103l77 -11c-4 37 14 49 31 49s24 -12 24 -22c0 -20 -14 -36 -37 -55
l-93 -78v-59h223v64z" />
    <glyph glyph-name="uni2778" unicode="&#x2778;" 
d="M311 615c145 0 264 -120 264 -264c0 -147 -119 -266 -264 -266c-146 0 -266 119 -266 266c0 144 120 264 266 264zM310 324c24 0 31 -12 31 -24c0 -20 -14 -29 -34 -29c-19 0 -39 9 -37 43l-79 -11c-1 -70 63 -96 119 -96c68 0 111 36 111 88c0 29 -13 51 -44 63
c26 13 35 36 35 58c0 42 -36 75 -102 75c-61 0 -112 -30 -115 -95l73 -15c-2 34 18 46 37 46c15 0 26 -7 26 -22c0 -12 -6 -26 -27 -26h-15v-55h21z" />
    <glyph glyph-name="uni2779" unicode="&#x2779;" 
d="M311 615c145 0 264 -120 264 -264c0 -147 -119 -266 -264 -266c-146 0 -266 119 -266 266c0 144 120 264 266 264zM168 322v-58h136v-52h78v52h36v64h-36v158h-109zM304 328h-59l59 91v-91z" />
    <glyph glyph-name="uni277A" unicode="&#x277a;" 
d="M311 615c145 0 264 -120 264 -264c0 -147 -119 -266 -264 -266c-146 0 -266 119 -266 266c0 144 120 264 266 264zM421 304c0 49 -34 87 -97 87c-20 0 -36 -5 -49 -12l7 44h117v63h-174l-23 -145l54 -27c14 12 29 18 49 18c21 0 36 -9 36 -31c0 -20 -12 -34 -35 -34
c-21 0 -36 10 -39 28l-80 -12c9 -46 61 -76 119 -76c78 0 115 45 115 97z" />
    <glyph glyph-name="uni277B" unicode="&#x277b;" 
d="M311 615c145 0 264 -120 264 -264c0 -147 -119 -266 -264 -266c-146 0 -266 119 -266 266c0 144 120 264 266 264zM419 304c0 54 -40 86 -95 86c-19 0 -43 -6 -60 -21c2 42 17 61 45 61c14 0 26 -7 32 -25l73 7c-8 56 -54 79 -103 79c-70 0 -123 -44 -123 -146
c0 -96 49 -138 121 -138c67 0 110 43 110 97zM307 264c-21 0 -35 15 -35 35s13 35 35 35c21 0 35 -14 35 -35c0 -20 -14 -35 -35 -35z" />
    <glyph glyph-name="uni277C" unicode="&#x277c;" 
d="M311 615c145 0 264 -120 264 -264c0 -147 -119 -266 -264 -266c-146 0 -266 119 -266 266c0 144 120 264 266 264zM198 389h69v32h62c-45 -49 -70 -96 -70 -170v-39h79v39c0 86 22 121 85 184v51h-225v-97z" />
    <glyph glyph-name="uni277D" unicode="&#x277d;" 
d="M311 615c145 0 264 -120 264 -264c0 -147 -119 -266 -264 -266c-146 0 -266 119 -266 266c0 144 120 264 266 264zM427 291c0 25 -9 52 -47 67c29 14 37 37 37 58c0 40 -37 75 -108 75c-70 0 -108 -35 -108 -75c0 -21 8 -44 37 -58c-37 -15 -47 -42 -47 -67
c0 -47 40 -84 118 -84c76 0 118 37 118 84zM309 383c-22 0 -31 14 -31 26c0 17 12 28 31 28s32 -11 32 -28c0 -12 -10 -26 -32 -26zM309 329c27 0 40 -15 40 -33c0 -19 -13 -34 -40 -34s-40 15 -40 34c0 18 13 33 40 33z" />
    <glyph glyph-name="uni277E" unicode="&#x277e;" 
d="M311 615c145 0 264 -120 264 -264c0 -147 -119 -266 -264 -266c-146 0 -266 119 -266 266c0 144 120 264 266 264zM196 394c0 -54 39 -85 94 -85c19 0 43 6 60 21c-2 -42 -17 -62 -45 -62c-14 0 -26 7 -32 25l-73 -7c8 -56 54 -79 103 -79c70 0 124 44 124 146
c0 96 -49 138 -122 138c-67 0 -109 -42 -109 -97zM307 435c22 0 36 -16 36 -35c0 -21 -14 -35 -36 -35c-21 0 -35 14 -35 35c0 19 14 35 35 35z" />
    <glyph glyph-name="uni2113" unicode="&#x2113;" 
d="M120 179l-54 102l101 58v174c0 123 76 199 187 199c98 0 159 -66 159 -154c0 -113 -75 -196 -181 -261l-13 -8v-114c0 -26 8 -50 45 -50h123v-125h-147c-128 0 -173 63 -173 170v35zM319 548v-112c40 32 66 68 66 124c0 22 -12 37 -31 37c-22 0 -35 -19 -35 -49z" />
    <glyph glyph-name="arrowleft" unicode="&#x2190;" 
d="M234 74l-43 115c-36 96 -116 99 -176 99v123c60 0 140 4 176 101l43 115h133l-42 -117c-13 -36 -27 -66 -50 -90h330v-140h-328c22 -24 35 -54 48 -89l42 -117h-133z" />
    <glyph glyph-name="arrowup" unicode="&#x2191;" 
d="M34 442l115 43c97 36 101 116 101 176h123c0 -60 3 -140 99 -176l115 -43v-133l-117 42c-35 13 -65 26 -88 48v-358h-141v360c-24 -23 -55 -37 -90 -50l-117 -42v133z" />
    <glyph glyph-name="arrowright" unicode="&#x2192;" 
d="M386 74h-133l42 117c13 35 26 65 48 89h-328v140h330c-23 24 -37 54 -50 90l-42 117h133l43 -115c36 -97 116 -101 176 -101v-123c-60 0 -140 -3 -176 -99z" />
    <glyph glyph-name="arrowdown" unicode="&#x2193;" 
d="M34 258v133l117 -42c35 -13 66 -27 90 -50v360h141v-358c23 22 53 35 88 48l117 42v-133l-115 -43c-96 -36 -99 -116 -99 -176h-123c0 60 -4 140 -101 176z" />
    <glyph glyph-name="uni2215" unicode="&#x2215;" 
d="M344 399l164 301h97l-165 -301h-96zM15 0l165 301h96l-164 -301h-97z" />
    <glyph glyph-name="uni2219" unicode="&#x2219;" 
d="M171 499h279v-279h-279v279z" />
    <glyph glyph-name="franc" unicode="&#x20a3;" 
d="M30 700h294v-136h-141v-156h101v-137h-101v-271h-153v700zM325 510h136v-72c29 45 68 72 119 72h19v-139h-25c-68 0 -105 -42 -105 -152v-219h-144v510z" />
    <glyph glyph-name="Euro" unicode="&#x20ac;" 
d="M20 226v91h47c-1 11 -1 22 -1 33v20h-46v91h55c27 153 115 251 266 251c147 0 237 -86 258 -251l-161 -22c-10 81 -33 135 -93 135s-92 -43 -106 -113h100v-91h-109v-20c0 -11 0 -22 1 -33h108v-91h-97c15 -62 47 -100 102 -100c58 0 84 62 93 126l157 -21
c-23 -153 -114 -243 -253 -243c-150 0 -235 92 -264 238h-57z" />
    <glyph glyph-name="estimated" unicode="&#x212e;" 
d="M312 59c75 0 133 45 182 113l54 -44c-59 -83 -140 -140 -238 -140c-160 0 -288 162 -288 362c0 201 128 362 288 362s288 -140 288 -398h-402v-202c36 -34 71 -53 116 -53zM310 638c-44 0 -80 -16 -114 -48v-201h224v205c-33 30 -65 44 -110 44z" />
    <glyph glyph-name="uni2196" unicode="&#x2196;" 
d="M47 220l50 111c42 94 -11 152 -53 195l86 87c43 -42 102 -94 196 -52l111 50l95 -94l-113 -53c-33 -16 -65 -28 -98 -29l255 -254l-100 -100l-253 254c-2 -33 -13 -63 -29 -97l-53 -112z" />
    <glyph glyph-name="uni2197" unicode="&#x2197;" 
d="M573 220l-94 -94l-53 112c-16 34 -27 64 -29 97l-253 -254l-100 100l255 254c-33 1 -65 13 -98 29l-113 53l95 94l111 -50c94 -42 153 10 196 52l86 -87c-42 -43 -95 -101 -53 -195z" />
    <glyph glyph-name="uni2198" unicode="&#x2198;" 
d="M573 480l-50 -111c-42 -94 11 -152 53 -195l-86 -87c-43 42 -102 94 -196 52l-111 -50l-95 94l113 53c33 16 65 28 98 29l-255 254l100 100l253 -254c2 33 13 63 29 97l53 112z" />
    <glyph glyph-name="uni2199" unicode="&#x2199;" 
d="M47 480l94 94l53 -112c16 -34 27 -64 29 -97l253 254l100 -100l-255 -254c33 -1 65 -13 98 -29l113 -53l-95 -94l-111 50c-94 42 -153 -10 -196 -52l-86 87c42 43 95 101 53 195z" />
    <glyph glyph-name="circleblack" unicode="&#x25cf;" 
d="M311 615c145 0 264 -120 264 -264c0 -147 -119 -266 -264 -266c-146 0 -266 119 -266 266c0 144 120 264 266 264z" />
    <glyph glyph-name="circlehalfleftblack" unicode="&#x25d0;" 
d="M309 615c146 0 266 -120 266 -264c0 -147 -120 -266 -266 -266c-145 0 -264 119 -264 266c0 144 119 264 264 264zM309 544v-388c108 0 191 86 191 195c0 106 -83 193 -191 193z" />
    <glyph glyph-name="circlehalfrightblack" unicode="&#x25d1;" 
d="M311 615c145 0 264 -120 264 -264c0 -147 -119 -266 -264 -266c-146 0 -266 119 -266 266c0 144 120 264 266 264zM311 544c-108 0 -191 -87 -191 -193c0 -109 83 -195 191 -195v388z" />
    <glyph glyph-name="starblack" unicode="&#x2605;" 
d="M309 642l83 -207h223l-187 -133l89 -244l-208 139l-207 -139l90 244l-186 133h223z" />
    <glyph glyph-name="starwhite" unicode="&#x2606;" 
d="M309 642l83 -207h223l-187 -133l89 -244l-208 139l-207 -139l90 244l-186 133h223zM309 280l85 -56l-40 103l75 51h-84l-36 85l-33 -85h-85l74 -51l-38 -103z" />
    <glyph glyph-name="checkbox" unicode="&#x2610;" 
d="M67 107v485h486v-485h-486zM145 180h330v339h-330v-339z" />
    <glyph glyph-name="checkboxchekced" unicode="&#x2611;" 
d="M181 384l70 32l42 -85l180 405h81l-65 -144h64v-485h-486v485h288l-32 -73h-178v-339h330v339h-20l-129 -283h-69z" />
    <glyph glyph-name="peace" unicode="&#x262e;" 
d="M309 615c146 0 266 -120 266 -264c0 -147 -120 -266 -266 -266c-145 0 -264 119 -264 266c0 144 119 264 264 264zM122 351c0 -31 6 -59 18 -85l132 132v141c-87 -17 -150 -95 -150 -188zM348 398l132 -132c11 26 18 55 18 85c0 93 -63 170 -150 188v-141zM348 300v-139
c35 7 66 24 91 48zM272 300l-91 -91c24 -24 56 -41 91 -48v139z" />
    <glyph glyph-name="frowningfacewhite" unicode="&#x2639;" 
d="M309 615c146 0 266 -120 266 -264c0 -147 -120 -266 -266 -266c-145 0 -264 119 -264 266c0 144 119 264 264 264zM309 544c-107 0 -189 -87 -189 -193c0 -109 82 -195 189 -195c108 0 191 86 191 195c0 106 -83 193 -191 193zM229 355c-29 0 -52 23 -52 53
c0 29 23 53 52 53s51 -24 51 -53c0 -30 -22 -53 -51 -53zM391 355c-29 0 -52 23 -52 53c0 29 23 53 52 53s52 -24 52 -53c0 -30 -23 -53 -52 -53zM310 329c61 0 109 -36 129 -72l-53 -36c-18 28 -37 46 -76 46s-58 -18 -76 -46l-53 36c20 36 68 72 129 72z" />
    <glyph glyph-name="smilingfacewhite" unicode="&#x263a;" 
d="M309 615c146 0 266 -120 266 -264c0 -147 -120 -266 -266 -266c-145 0 -264 119 -264 266c0 144 119 264 264 264zM309 544c-107 0 -189 -87 -189 -193c0 -109 82 -195 189 -195c108 0 191 86 191 195c0 106 -83 193 -191 193zM229 355c-29 0 -52 23 -52 53
c0 29 23 53 52 53s51 -24 51 -53c0 -30 -22 -53 -51 -53zM391 355c-29 0 -52 23 -52 53c0 29 23 53 52 53s52 -24 52 -53c0 -30 -23 -53 -52 -53zM310 204c-61 0 -109 36 -129 72l53 36c18 -28 37 -46 76 -46s58 18 76 46l53 -36c-20 -36 -68 -72 -129 -72z" />
    <glyph glyph-name="smilingfaceblack" unicode="&#x263b;" 
d="M309 615c146 0 266 -120 266 -264c0 -147 -120 -266 -266 -266c-145 0 -264 119 -264 266c0 144 119 264 264 264zM229 355c29 0 51 23 51 53c0 29 -22 53 -51 53s-52 -24 -52 -53c0 -30 23 -53 52 -53zM391 355c29 0 52 23 52 53c0 29 -23 53 -52 53s-52 -24 -52 -53
c0 -30 23 -53 52 -53zM310 193c61 0 109 36 129 72l-53 37c-18 -29 -37 -47 -76 -47s-58 18 -76 47l-53 -37c20 -36 68 -72 129 -72z" />
    <glyph glyph-name="heartblack" unicode="&#x2665;" 
d="M310 102c-126 63 -266 201 -266 342c0 60 28 146 135 146c50 0 100 -26 131 -76c31 50 81 76 131 76c107 0 135 -86 135 -146c0 -141 -140 -279 -266 -342z" />
    <glyph glyph-name="flagwhite" unicode="&#x2690;" 
d="M67 594h78v-39c29 12 61 21 101 21c107 -1 137 -51 307 -51v-315c-139 -6 -198 51 -307 52c-35 -1 -71 -12 -101 -26v-176h-78v534zM246 334c86 -1 138 -37 229 -48v169c-91 7 -146 48 -229 49c-37 -1 -71 -13 -101 -26v-165c29 12 63 21 101 21z" />
    <glyph glyph-name="flagblack" unicode="&#x2691;" 
d="M67 594h78v-39c29 12 61 21 101 21c107 -1 137 -51 307 -51v-315c-139 -6 -198 51 -307 52c-35 -1 -71 -12 -101 -26v-176h-78v534z" />
    <glyph glyph-name="dngb:spokedasteriskeight" unicode="&#x2733;" 
d="M115 201l117 117h-165v63h164l-116 116l47 47l115 -115v163h66v-163l115 115l47 -47l-116 -116h164v-63h-165l117 -117l-47 -47l-115 115v-162h-66v162l-115 -115z" />
    <glyph glyph-name="uni2B1B" unicode="&#x2b1b;" 
d="M67 107v485h486v-485h-486z" />
    <glyph glyph-name="uni2B55" unicode="&#x2b55;" 
d="M309 615c146 0 266 -120 266 -264c0 -147 -120 -266 -266 -266c-145 0 -264 119 -264 266c0 144 119 264 264 264zM309 544c-107 0 -189 -87 -189 -193c0 -109 82 -195 189 -195c108 0 191 86 191 195c0 106 -83 193 -191 193z" />
    <glyph glyph-name="uni00AD" unicode="&#xad;" 
d="M123 340h374v-129h-374v129z" />
    <glyph glyph-name="commaaccent" unicode="&#xf6c3;" 
d="M274 -62h118l-51 -175h-113z" />
    <glyph glyph-name="uniF8FF" unicode="&#xf8ff;" 
d="M555 321h-491v18h491v-18zM281 240h-12v18h12v21h22v-21h13v-18h-13v-59h-22v59zM423 258l1 -6c4 4 10 8 19 8c17 0 26 -11 26 -30v-20c0 -19 -9 -31 -26 -31c-8 0 -13 3 -17 7v-35h-22v107h19zM173 181h-22v77h18l1 -6c4 4 11 8 19 8c11 0 17 -4 21 -12c5 8 12 12 21 12
c18 0 26 -11 26 -28v-51h-22v49c0 6 -3 11 -10 11c-6 0 -10 -4 -10 -10v-50h-22v49c0 6 -3 11 -10 11c-6 0 -10 -5 -10 -11v-49zM114 208h22c0 -18 -13 -29 -32 -29c-18 0 -32 12 -32 33v17c0 20 14 31 32 31c19 0 32 -11 32 -31v-13h-42v-7c0 -7 4 -12 10 -12
c7 0 10 4 10 11zM525 208h22c0 -17 -13 -28 -32 -28c-18 0 -32 12 -32 32v17c0 19 14 31 32 31c19 0 32 -12 32 -31v-13h-42v-7c0 -7 4 -12 10 -12c7 0 10 4 10 11zM392 258l-33 -107h-21l9 27l-25 80h24l12 -48l12 48h22zM94 232v-1h20v1c0 6 -3 11 -10 11
c-6 0 -10 -5 -10 -11zM505 232v-1h20v1c0 6 -3 11 -10 11c-6 0 -10 -5 -10 -11zM436 241c-6 0 -10 -5 -10 -11v-20c0 -6 4 -11 10 -11c7 0 11 5 11 11v20c0 6 -4 11 -11 11zM239 121h-14v10h14v21h12v-21h15v-10h-15v-67h-12v67zM200 81h12v-2c0 -16 -12 -26 -29 -26
s-29 11 -29 28v22c0 18 12 30 29 30s29 -12 29 -30v-12h-46v-10c0 -10 5 -17 17 -17s17 7 17 14v3zM87 54h-12v77h9l1 -9c5 7 13 11 22 11c17 0 27 -11 27 -29v-50h-12v50c0 10 -6 18 -18 18c-11 0 -17 -8 -17 -19v-49zM166 103v-2h34v2c0 11 -6 19 -17 19
c-12 0 -17 -8 -17 -19zM46 53c-4 0 -8 4 -8 8s4 8 8 8c5 0 8 -4 8 -8s-3 -8 -8 -8zM555 0h-491v8h491v-8z" />
    <glyph glyph-name="uni20B9" unicode="&#x20b9;" 
d="M62 229v124h146c54 0 87 27 102 66h-248v91h251c-12 38 -45 66 -104 66h-147v124h507v-90h-129c24 -29 38 -63 41 -100h88v-91h-99c-16 -49 -50 -91 -100 -117c68 -24 97 -72 102 -147l10 -155h-161l-10 153c-3 45 -24 76 -97 76h-152z" />
    <glyph glyph-name="u1F5F7" unicode="&#x1f5f7;" 
d="M67 107v485h486v-485h-486zM145 180h330v339h-330v-339zM210 197l-49 49l101 104l-101 103l51 48l99 -101l98 101l51 -48l-101 -103l101 -104l-49 -49l-100 103z" />
    <glyph glyph-name="u1F78B" unicode="&#x1f78b;" 
d="M310 615c145 0 265 -121 265 -265c0 -147 -120 -265 -265 -265s-265 118 -265 265c0 144 120 265 265 265zM310 557c-115 0 -202 -92 -202 -207s87 -207 202 -207s202 92 202 207s-87 207 -202 207zM310 508c87 0 158 -71 158 -158s-71 -157 -158 -157s-157 70 -157 157
s70 158 157 158zM310 450c-55 0 -97 -45 -97 -100s42 -99 97 -99s98 44 98 99s-43 100 -98 100zM310 296c-30 0 -54 24 -54 54s24 55 54 55s54 -25 54 -55s-24 -54 -54 -54z" />
    <glyph glyph-name="zero.numerator" unicode="&#xf661;" 
d="M309 301c-113 0 -163 82 -163 203s54 203 163 203c113 0 165 -82 165 -203s-55 -203 -165 -203zM309 392c43 0 53 38 53 112s-11 112 -53 112c-41 0 -51 -38 -51 -112s10 -112 51 -112z" />
    <glyph glyph-name="one.numerator" unicode="&#xf662;" 
d="M161 399h103v156c-13 -5 -28 -7 -44 -7h-66v89h66c54 0 58 45 58 63h99v-301h85v-91h-301v91z" />
    <glyph glyph-name="two.numerator" unicode="&#xf663;" 
d="M471 399v-91h-318v84l133 112c32 27 52 49 52 78c0 15 -9 32 -34 32c-24 0 -50 -17 -44 -70l-110 15c-5 108 76 148 159 148c100 0 147 -56 147 -119c0 -59 -43 -105 -95 -147l-52 -42h162z" />
    <glyph glyph-name="three.numerator" unicode="&#xf664;" 
d="M316 468h-30v78h21c30 0 39 20 39 38c0 21 -16 31 -38 31c-26 0 -55 -17 -53 -65l-103 21c4 93 77 136 164 136c94 0 145 -48 145 -108c0 -31 -13 -64 -49 -83c44 -16 62 -48 62 -90c0 -74 -61 -125 -158 -125c-80 0 -172 37 -170 137l113 16c-3 -49 25 -62 53 -62
s48 13 48 41c0 18 -10 35 -44 35z" />
    <glyph glyph-name="four.numerator" unicode="&#xf665;" 
d="M132 465l150 235h155v-227h51v-91h-51v-74h-111v74h-194v83zM326 473v130l-85 -130h85z" />
    <glyph glyph-name="five.numerator" unicode="&#xf666;" 
d="M477 440c0 -75 -53 -139 -164 -139c-83 0 -158 42 -170 108l114 17c4 -25 26 -39 56 -39c32 0 50 19 50 48c0 31 -21 45 -51 45c-29 0 -50 -9 -71 -26l-77 38l33 208h248v-91h-166l-11 -63c19 10 42 17 70 17c90 0 139 -54 139 -123z" />
    <glyph glyph-name="six.numerator" unicode="&#xf667;" 
d="M475 440c0 -78 -61 -139 -156 -139c-104 0 -174 60 -174 197c0 146 76 209 176 209c70 0 136 -33 148 -113l-105 -10c-8 26 -25 36 -46 36c-39 0 -61 -28 -64 -88c24 21 59 30 86 30c79 0 135 -45 135 -122zM316 382c30 0 50 22 50 50c0 30 -20 50 -50 50
c-32 0 -51 -21 -51 -50c0 -28 20 -50 51 -50z" />
    <glyph glyph-name="seven.numerator" unicode="&#xf668;" 
d="M149 561v139h321v-73c-90 -91 -122 -141 -122 -263v-56h-113v55c0 106 36 174 101 243h-89v-45h-98z" />
    <glyph glyph-name="eight.numerator" unicode="&#xf669;" 
d="M479 421c0 -67 -60 -120 -169 -120c-112 0 -169 53 -169 120c0 35 15 74 68 95c-42 20 -53 54 -53 84c0 57 54 107 154 107c101 0 154 -50 154 -107c0 -30 -11 -63 -52 -83c54 -22 67 -61 67 -96zM310 552c31 0 45 20 45 38c0 24 -18 39 -45 39s-45 -15 -45 -39
c0 -18 14 -38 45 -38zM310 475c-39 0 -57 -21 -57 -47c0 -27 18 -48 57 -48c38 0 57 21 57 48c0 26 -19 47 -57 47z" />
    <glyph glyph-name="nine.numerator" unicode="&#xf66a;" 
d="M145 568c0 78 61 139 156 139c104 0 174 -60 174 -197c0 -146 -76 -209 -176 -209c-70 0 -136 33 -148 113l105 10c8 -26 25 -36 46 -36c39 0 61 28 64 88c-24 -21 -59 -30 -86 -30c-79 0 -135 45 -135 122zM304 626c-30 0 -50 -22 -50 -50c0 -30 20 -50 50 -50
c32 0 51 21 51 50c0 28 -20 50 -51 50z" />
    <glyph glyph-name="zero.denominator" unicode="&#xf655;" 
d="M309 -7c-113 0 -163 82 -163 203s54 203 163 203c113 0 165 -82 165 -203s-55 -203 -165 -203zM309 84c43 0 53 38 53 112s-11 112 -53 112c-41 0 -51 -38 -51 -112s10 -112 51 -112z" />
    <glyph glyph-name="one.denominator" unicode="&#xf656;" 
d="M161 91h103v156c-13 -5 -28 -7 -44 -7h-66v89h66c54 0 58 45 58 63h99v-301h85v-91h-301v91z" />
    <glyph glyph-name="two.denominator" unicode="&#xf657;" 
d="M471 91v-91h-318v84l133 112c32 27 52 49 52 78c0 15 -9 32 -34 32c-24 0 -50 -17 -44 -70l-110 15c-5 108 76 148 159 148c100 0 147 -56 147 -119c0 -59 -43 -105 -95 -147l-52 -42h162z" />
    <glyph glyph-name="three.denominator" unicode="&#xf658;" 
d="M316 160h-30v78h21c30 0 39 20 39 38c0 21 -16 31 -38 31c-26 0 -55 -17 -53 -65l-103 21c4 93 77 136 164 136c94 0 145 -48 145 -108c0 -31 -13 -64 -49 -83c44 -16 62 -48 62 -90c0 -74 -61 -125 -158 -125c-80 0 -172 37 -170 137l113 16c-3 -49 25 -62 53 -62
s48 13 48 41c0 18 -10 35 -44 35z" />
    <glyph glyph-name="four.denominator" unicode="&#xf659;" 
d="M132 157l150 235h155v-227h51v-91h-51v-74h-111v74h-194v83zM326 165v130l-85 -130h85z" />
    <glyph glyph-name="five.denominator" unicode="&#xf65a;" 
d="M477 132c0 -75 -53 -139 -164 -139c-83 0 -158 42 -170 108l114 17c4 -25 26 -39 56 -39c32 0 50 19 50 48c0 31 -21 45 -51 45c-29 0 -50 -9 -71 -26l-77 38l33 208h248v-91h-166l-11 -63c19 10 42 17 70 17c90 0 139 -54 139 -123z" />
    <glyph glyph-name="six.denominator" unicode="&#xf65b;" 
d="M475 132c0 -78 -61 -139 -156 -139c-104 0 -174 60 -174 197c0 146 76 209 176 209c70 0 136 -33 148 -113l-105 -10c-8 26 -25 36 -46 36c-39 0 -61 -28 -64 -88c24 21 59 30 86 30c79 0 135 -45 135 -122zM316 74c30 0 50 22 50 50c0 30 -20 50 -50 50
c-32 0 -51 -21 -51 -50c0 -28 20 -50 51 -50z" />
    <glyph glyph-name="seven.denominator" unicode="&#xf65c;" 
d="M149 253v139h321v-73c-90 -91 -122 -141 -122 -263v-56h-113v55c0 106 36 174 101 243h-89v-45h-98z" />
    <glyph glyph-name="eight.denominator" unicode="&#xf65d;" 
d="M479 113c0 -67 -60 -120 -169 -120c-112 0 -169 53 -169 120c0 35 15 74 68 95c-42 20 -53 54 -53 84c0 57 54 107 154 107c101 0 154 -50 154 -107c0 -30 -11 -63 -52 -83c54 -22 67 -61 67 -96zM310 244c31 0 45 20 45 38c0 24 -18 39 -45 39s-45 -15 -45 -39
c0 -18 14 -38 45 -38zM310 167c-39 0 -57 -21 -57 -47c0 -27 18 -48 57 -48c38 0 57 21 57 48c0 26 -19 47 -57 47z" />
    <glyph glyph-name="nine.denominator" unicode="&#xf65e;" 
d="M145 260c0 78 61 139 156 139c104 0 174 -60 174 -197c0 -146 -76 -209 -176 -209c-70 0 -136 33 -148 113l105 10c8 -26 25 -36 46 -36c39 0 61 28 64 88c-24 -21 -59 -30 -86 -30c-79 0 -135 45 -135 122zM304 318c-30 0 -50 -22 -50 -50c0 -30 20 -50 50 -50
c32 0 51 21 51 50c0 28 -20 50 -51 50z" />
    <glyph glyph-name="caron.salt" 
d="M266 700h116l-35 -180h-109z" />
    <glyph glyph-name="commaaccent.salt" 
d="M350 587h-126l61 151h111z" />
    <glyph glyph-name="acute.case" 
d="M294 926h134l-103 -160h-127z" />
    <glyph glyph-name="grave.case" 
d="M326 926l96 -160h-129l-100 160h133z" />
    <glyph glyph-name="hungarumlaut.case" 
d="M205 926h130l-105 -160h-120zM390 926h126l-110 -160h-123z" />
    <glyph glyph-name="circumflex.case" 
d="M243 926h134l118 -160h-131l-56 75l-53 -75h-129z" />
    <glyph glyph-name="caron.case" 
d="M377 766h-134l-118 160h131l56 -75l53 75h129z" />
    <glyph glyph-name="breve.case" 
d="M311 852c33 0 47 22 47 67h103c2 -71 -32 -159 -151 -159s-153 88 -151 159h105c0 -44 14 -67 47 -67z" />
    <glyph glyph-name="tilde.case" 
d="M357 886c15 0 22 5 22 30h94c1 -91 -17 -140 -85 -140c-55 0 -85 31 -119 31c-17 0 -26 -13 -26 -34h-96c0 76 22 140 97 140c55 0 88 -27 113 -27z" />
    <glyph glyph-name="macron.case" 
d="M179 789v102h262v-102h-262z" />
    <glyph glyph-name="dieresis.case" 
d="M144 770v134h139v-134h-139zM337 770v134h139v-134h-139z" />
    <glyph glyph-name="dotaccent.case" 
d="M230 770v134h160v-134h-160z" />
    <glyph glyph-name="ring.case" 
d="M310 992c84 0 132 -54 132 -117c0 -62 -47 -115 -132 -115c-86 0 -132 53 -132 115c0 63 46 117 132 117zM310 925c-33 0 -48 -22 -48 -49s15 -49 48 -49s48 22 48 49s-15 49 -48 49z" />
    <glyph glyph-name="zero.inferior" unicode="&#x2080;" 
d="M309 -164c-113 0 -163 82 -163 203s54 203 163 203c113 0 165 -82 165 -203s-55 -203 -165 -203zM309 -73c43 0 53 38 53 112s-11 112 -53 112c-41 0 -51 -38 -51 -112s10 -112 51 -112z" />
    <glyph glyph-name="one.inferior" unicode="&#x2081;" 
d="M161 -66h103v156c-13 -5 -28 -7 -44 -7h-66v89h66c54 0 58 45 58 63h99v-301h85v-91h-301v91z" />
    <glyph glyph-name="two.inferior" unicode="&#x2082;" 
d="M471 -66v-91h-318v84l133 112c32 27 52 49 52 78c0 15 -9 32 -34 32c-24 0 -50 -17 -44 -70l-110 15c-5 108 76 148 159 148c100 0 147 -56 147 -119c0 -59 -43 -105 -95 -147l-52 -42h162z" />
    <glyph glyph-name="three.inferior" unicode="&#x2083;" 
d="M316 3h-30v78h21c30 0 39 20 39 38c0 21 -16 31 -38 31c-26 0 -55 -17 -53 -65l-103 21c4 93 77 136 164 136c94 0 145 -48 145 -108c0 -31 -13 -64 -49 -83c44 -16 62 -48 62 -90c0 -74 -61 -125 -158 -125c-80 0 -172 37 -170 137l113 16c-3 -49 25 -62 53 -62
s48 13 48 41c0 18 -10 35 -44 35z" />
    <glyph glyph-name="four.inferior" unicode="&#x2084;" 
d="M132 0l150 235h155v-227h51v-91h-51v-74h-111v74h-194v83zM326 8v130l-85 -130h85z" />
    <glyph glyph-name="five.inferior" unicode="&#x2085;" 
d="M477 -25c0 -75 -53 -139 -164 -139c-83 0 -158 42 -170 108l114 17c4 -25 26 -39 56 -39c32 0 50 19 50 48c0 31 -21 45 -51 45c-29 0 -50 -9 -71 -26l-77 38l33 208h248v-91h-166l-11 -63c19 10 42 17 70 17c90 0 139 -54 139 -123z" />
    <glyph glyph-name="six.inferior" unicode="&#x2086;" 
d="M475 -25c0 -78 -61 -139 -156 -139c-104 0 -174 60 -174 197c0 146 76 209 176 209c70 0 136 -33 148 -113l-105 -10c-8 26 -25 36 -46 36c-39 0 -61 -28 -64 -88c24 21 59 30 86 30c79 0 135 -45 135 -122zM316 -83c30 0 50 22 50 50c0 30 -20 50 -50 50
c-32 0 -51 -21 -51 -50c0 -28 20 -50 51 -50z" />
    <glyph glyph-name="seven.inferior" unicode="&#x2087;" 
d="M149 96v139h321v-73c-90 -91 -122 -141 -122 -263v-56h-113v55c0 106 36 174 101 243h-89v-45h-98z" />
    <glyph glyph-name="eight.inferior" unicode="&#x2088;" 
d="M479 -44c0 -67 -60 -120 -169 -120c-112 0 -169 53 -169 120c0 35 15 74 68 95c-42 20 -53 54 -53 84c0 57 54 107 154 107c101 0 154 -50 154 -107c0 -30 -11 -63 -52 -83c54 -22 67 -61 67 -96zM310 87c31 0 45 20 45 38c0 24 -18 39 -45 39s-45 -15 -45 -39
c0 -18 14 -38 45 -38zM310 10c-39 0 -57 -21 -57 -47c0 -27 18 -48 57 -48c38 0 57 21 57 48c0 26 -19 47 -57 47z" />
    <glyph glyph-name="nine.inferior" unicode="&#x2089;" 
d="M145 103c0 78 61 139 156 139c104 0 174 -60 174 -197c0 -146 -76 -209 -176 -209c-70 0 -136 33 -148 113l105 10c8 -26 25 -36 46 -36c39 0 61 28 64 88c-24 -21 -59 -30 -86 -30c-79 0 -135 45 -135 122zM304 161c-30 0 -50 -22 -50 -50c0 -30 20 -50 50 -50
c32 0 51 21 51 50c0 28 -20 50 -51 50z" />
    <glyph glyph-name="zero.superior" unicode="&#x2070;" 
d="M309 458c-113 0 -163 82 -163 203s54 203 163 203c113 0 165 -82 165 -203s-55 -203 -165 -203zM309 549c43 0 53 38 53 112s-11 112 -53 112c-41 0 -51 -38 -51 -112s10 -112 51 -112z" />
    <glyph glyph-name="four.superior" unicode="&#x2074;" 
d="M132 622l150 235h155v-227h51v-91h-51v-74h-111v74h-194v83zM326 630v130l-85 -130h85z" />
    <glyph glyph-name="five.superior" unicode="&#x2075;" 
d="M477 597c0 -75 -53 -139 -164 -139c-83 0 -158 42 -170 108l114 17c4 -25 26 -39 56 -39c32 0 50 19 50 48c0 31 -21 45 -51 45c-29 0 -50 -9 -71 -26l-77 38l33 208h248v-91h-166l-11 -63c19 10 42 17 70 17c90 0 139 -54 139 -123z" />
    <glyph glyph-name="six.superior" unicode="&#x2076;" 
d="M475 597c0 -78 -61 -139 -156 -139c-104 0 -174 60 -174 197c0 146 76 209 176 209c70 0 136 -33 148 -113l-105 -10c-8 26 -25 36 -46 36c-39 0 -61 -28 -64 -88c24 21 59 30 86 30c79 0 135 -45 135 -122zM316 539c30 0 50 22 50 50c0 30 -20 50 -50 50
c-32 0 -51 -21 -51 -50c0 -28 20 -50 51 -50z" />
    <glyph glyph-name="seven.superior" unicode="&#x2077;" 
d="M149 718v139h321v-73c-90 -91 -122 -141 -122 -263v-56h-113v55c0 106 36 174 101 243h-89v-45h-98z" />
    <glyph glyph-name="eight.superior" unicode="&#x2078;" 
d="M479 578c0 -67 -60 -120 -169 -120c-112 0 -169 53 -169 120c0 35 15 74 68 95c-42 20 -53 54 -53 84c0 57 54 107 154 107c101 0 154 -50 154 -107c0 -30 -11 -63 -52 -83c54 -22 67 -61 67 -96zM310 709c31 0 45 20 45 38c0 24 -18 39 -45 39s-45 -15 -45 -39
c0 -18 14 -38 45 -38zM310 632c-39 0 -57 -21 -57 -47c0 -27 18 -48 57 -48c38 0 57 21 57 48c0 26 -19 47 -57 47z" />
    <glyph glyph-name="nine.superior" unicode="&#x2079;" 
d="M145 725c0 78 61 139 156 139c104 0 174 -60 174 -197c0 -146 -76 -209 -176 -209c-70 0 -136 33 -148 113l105 10c8 -26 25 -36 46 -36c39 0 61 28 64 88c-24 -21 -59 -30 -86 -30c-79 0 -135 45 -135 122zM304 783c-30 0 -50 -22 -50 -50c0 -30 20 -50 50 -50
c32 0 51 21 51 50c0 28 -20 50 -51 50z" />
    <glyph glyph-name="a.alt2" 
d="M264 -12c-140 0 -228 105 -228 263c0 156 87 271 228 271c64 0 113 -24 147 -65v53h152v-510h-143v66c-35 -49 -86 -78 -156 -78zM300 114c72 0 113 58 113 141c0 79 -42 140 -113 140c-70 0 -108 -59 -108 -140s38 -141 108 -141z" />
    <glyph glyph-name="agrave.alt2" 
d="M277 726l96 -160h-129l-100 160h133zM264 -12c-140 0 -228 105 -228 263c0 156 87 271 228 271c64 0 113 -24 147 -65v53h152v-510h-143v66c-35 -49 -86 -78 -156 -78zM300 114c72 0 113 58 113 141c0 79 -42 140 -113 140c-70 0 -108 -59 -108 -140s38 -141 108 -141z
" />
    <glyph glyph-name="aacute.alt2" 
d="M346 726h134l-103 -160h-127zM264 -12c-140 0 -228 105 -228 263c0 156 87 271 228 271c64 0 113 -24 147 -65v53h152v-510h-143v66c-35 -49 -86 -78 -156 -78zM300 114c72 0 113 58 113 141c0 79 -42 140 -113 140c-70 0 -108 -59 -108 -140s38 -141 108 -141z" />
    <glyph glyph-name="acircumflex.alt2" 
d="M243 726h134l118 -160h-131l-56 75l-53 -75h-129zM264 -12c-140 0 -228 105 -228 263c0 156 87 271 228 271c64 0 113 -24 147 -65v53h152v-510h-143v66c-35 -49 -86 -78 -156 -78zM300 114c72 0 113 58 113 141c0 79 -42 140 -113 140c-70 0 -108 -59 -108 -140
s38 -141 108 -141z" />
    <glyph glyph-name="atilde.alt2" 
d="M357 686c15 0 22 5 22 30h94c1 -91 -17 -140 -85 -140c-55 0 -85 31 -119 31c-17 0 -26 -13 -26 -34h-96c0 76 22 140 97 140c55 0 88 -27 113 -27zM264 -12c-140 0 -228 105 -228 263c0 156 87 271 228 271c64 0 113 -24 147 -65v53h152v-510h-143v66
c-35 -49 -86 -78 -156 -78zM300 114c72 0 113 58 113 141c0 79 -42 140 -113 140c-70 0 -108 -59 -108 -140s38 -141 108 -141z" />
    <glyph glyph-name="adieresis.alt2" 
d="M144 570v134h139v-134h-139zM337 570v134h139v-134h-139zM264 -12c-140 0 -228 105 -228 263c0 156 87 271 228 271c64 0 113 -24 147 -65v53h152v-510h-143v66c-35 -49 -86 -78 -156 -78zM300 114c72 0 113 58 113 141c0 79 -42 140 -113 140c-70 0 -108 -59 -108 -140
s38 -141 108 -141z" />
    <glyph glyph-name="aring.alt2" 
d="M310 792c84 0 132 -54 132 -117c0 -62 -47 -115 -132 -115c-86 0 -132 53 -132 115c0 63 46 117 132 117zM310 725c-33 0 -48 -22 -48 -49s15 -49 48 -49s48 22 48 49s-15 49 -48 49zM264 -12c-140 0 -228 105 -228 263c0 156 87 271 228 271c64 0 113 -24 147 -65v53
h152v-510h-143v66c-35 -49 -86 -78 -156 -78zM300 114c72 0 113 58 113 141c0 79 -42 140 -113 140c-70 0 -108 -59 -108 -140s38 -141 108 -141z" />
    <glyph glyph-name="amacron.alt2" 
d="M179 589v102h262v-102h-262zM264 -12c-140 0 -228 105 -228 263c0 156 87 271 228 271c64 0 113 -24 147 -65v53h152v-510h-143v66c-35 -49 -86 -78 -156 -78zM300 114c72 0 113 58 113 141c0 79 -42 140 -113 140c-70 0 -108 -59 -108 -140s38 -141 108 -141z" />
    <glyph glyph-name="abreve.alt2" 
d="M311 652c33 0 47 22 47 67h103c2 -71 -32 -159 -151 -159s-153 88 -151 159h105c0 -44 14 -67 47 -67zM264 -12c-140 0 -228 105 -228 263c0 156 87 271 228 271c64 0 113 -24 147 -65v53h152v-510h-143v66c-35 -49 -86 -78 -156 -78zM300 114c72 0 113 58 113 141
c0 79 -42 140 -113 140c-70 0 -108 -59 -108 -140s38 -141 108 -141z" />
    <glyph glyph-name="aogonek.alt2" 
d="M264 -12c-140 0 -228 105 -228 263c0 156 87 271 228 271c64 0 113 -24 147 -65v53h152v-510c-52 -49 -90 -86 -90 -118c0 -24 18 -29 40 -29c14 0 29 2 43 7v-90c-16 -9 -39 -15 -73 -15c-72 0 -117 43 -117 95c0 63 41 105 97 150h-43v66c-35 -49 -86 -78 -156 -78z
M300 114c72 0 113 58 113 141c0 79 -42 140 -113 140c-70 0 -108 -59 -108 -140s38 -141 108 -141z" />
    <glyph glyph-name="a.alt" 
d="M317 407c-73 0 -93 -39 -98 -66l-143 15c11 78 86 166 246 166c166 0 227 -94 227 -192v-330h-134v53c-34 -43 -89 -65 -161 -65c-127 0 -192 73 -192 150c0 98 67 147 154 159l157 22c21 3 28 15 28 32c0 24 -21 56 -84 56zM211 154c0 -33 26 -52 77 -52
c59 0 116 39 116 104v19l-120 -16c-56 -7 -73 -28 -73 -55z" />
    <glyph glyph-name="agrave.alt" 
d="M289 726l96 -160h-129l-100 160h133zM317 407c-73 0 -93 -39 -98 -66l-143 15c11 78 86 166 246 166c166 0 227 -94 227 -192v-330h-134v53c-34 -43 -89 -65 -161 -65c-127 0 -192 73 -192 150c0 98 67 147 154 159l157 22c21 3 28 15 28 32c0 24 -21 56 -84 56zM211 154
c0 -33 26 -52 77 -52c59 0 116 39 116 104v19l-120 -16c-56 -7 -73 -28 -73 -55z" />
    <glyph glyph-name="aacute.alt" 
d="M357 726h134l-103 -160h-127zM317 407c-73 0 -93 -39 -98 -66l-143 15c11 78 86 166 246 166c166 0 227 -94 227 -192v-330h-134v53c-34 -43 -89 -65 -161 -65c-127 0 -192 73 -192 150c0 98 67 147 154 159l157 22c21 3 28 15 28 32c0 24 -21 56 -84 56zM211 154
c0 -33 26 -52 77 -52c59 0 116 39 116 104v19l-120 -16c-56 -7 -73 -28 -73 -55z" />
    <glyph glyph-name="acircumflex.alt" 
d="M255 726h134l118 -160h-131l-56 75l-53 -75h-129zM317 407c-73 0 -93 -39 -98 -66l-143 15c11 78 86 166 246 166c166 0 227 -94 227 -192v-330h-134v53c-34 -43 -89 -65 -161 -65c-127 0 -192 73 -192 150c0 98 67 147 154 159l157 22c21 3 28 15 28 32
c0 24 -21 56 -84 56zM211 154c0 -33 26 -52 77 -52c59 0 116 39 116 104v19l-120 -16c-56 -7 -73 -28 -73 -55z" />
    <glyph glyph-name="atilde.alt" 
d="M369 686c15 0 22 5 22 30h94c1 -91 -17 -140 -85 -140c-55 0 -85 31 -119 31c-17 0 -26 -13 -26 -34h-96c0 76 22 140 97 140c55 0 88 -27 113 -27zM317 407c-73 0 -93 -39 -98 -66l-143 15c11 78 86 166 246 166c166 0 227 -94 227 -192v-330h-134v53
c-34 -43 -89 -65 -161 -65c-127 0 -192 73 -192 150c0 98 67 147 154 159l157 22c21 3 28 15 28 32c0 24 -21 56 -84 56zM211 154c0 -33 26 -52 77 -52c59 0 116 39 116 104v19l-120 -16c-56 -7 -73 -28 -73 -55z" />
    <glyph glyph-name="adieresis.alt" 
d="M156 570v134h139v-134h-139zM349 570v134h139v-134h-139zM317 407c-73 0 -93 -39 -98 -66l-143 15c11 78 86 166 246 166c166 0 227 -94 227 -192v-330h-134v53c-34 -43 -89 -65 -161 -65c-127 0 -192 73 -192 150c0 98 67 147 154 159l157 22c21 3 28 15 28 32
c0 24 -21 56 -84 56zM211 154c0 -33 26 -52 77 -52c59 0 116 39 116 104v19l-120 -16c-56 -7 -73 -28 -73 -55z" />
    <glyph glyph-name="aring.alt" 
d="M322 792c84 0 132 -54 132 -117c0 -62 -47 -115 -132 -115c-86 0 -132 53 -132 115c0 63 46 117 132 117zM322 725c-33 0 -48 -22 -48 -49s15 -49 48 -49s48 22 48 49s-15 49 -48 49zM317 407c-73 0 -93 -39 -98 -66l-143 15c11 78 86 166 246 166
c166 0 227 -94 227 -192v-330h-134v53c-34 -43 -89 -65 -161 -65c-127 0 -192 73 -192 150c0 98 67 147 154 159l157 22c21 3 28 15 28 32c0 24 -21 56 -84 56zM211 154c0 -33 26 -52 77 -52c59 0 116 39 116 104v19l-120 -16c-56 -7 -73 -28 -73 -55z" />
    <glyph glyph-name="amacron.alt" 
d="M191 589v102h262v-102h-262zM317 407c-73 0 -93 -39 -98 -66l-143 15c11 78 86 166 246 166c166 0 227 -94 227 -192v-330h-134v53c-34 -43 -89 -65 -161 -65c-127 0 -192 73 -192 150c0 98 67 147 154 159l157 22c21 3 28 15 28 32c0 24 -21 56 -84 56zM211 154
c0 -33 26 -52 77 -52c59 0 116 39 116 104v19l-120 -16c-56 -7 -73 -28 -73 -55z" />
    <glyph glyph-name="abreve.alt" 
d="M323 652c33 0 47 22 47 67h103c2 -71 -32 -159 -151 -159s-153 88 -151 159h105c0 -44 14 -67 47 -67zM317 407c-73 0 -93 -39 -98 -66l-143 15c11 78 86 166 246 166c166 0 227 -94 227 -192v-330h-134v53c-34 -43 -89 -65 -161 -65c-127 0 -192 73 -192 150
c0 98 67 147 154 159l157 22c21 3 28 15 28 32c0 24 -21 56 -84 56zM211 154c0 -33 26 -52 77 -52c59 0 116 39 116 104v19l-120 -16c-56 -7 -73 -28 -73 -55z" />
    <glyph glyph-name="aogonek.alt" 
d="M317 407c-73 0 -93 -39 -98 -66l-143 15c11 78 86 166 246 166c166 0 227 -94 227 -192v-330c-53 -49 -90 -86 -90 -118c0 -24 18 -29 40 -29c14 0 29 2 43 7v-90c-16 -9 -39 -15 -73 -15c-72 0 -117 43 -117 95c0 63 41 105 97 150h-34v53c-34 -43 -89 -65 -161 -65
c-127 0 -192 73 -192 150c0 98 67 147 154 159l157 22c21 3 28 15 28 32c0 24 -21 56 -84 56zM211 154c0 -33 26 -52 77 -52c59 0 116 39 116 104v19l-120 -16c-56 -7 -73 -28 -73 -55z" />
    <glyph glyph-name="y.alt" 
d="M36 510h160l120 -317l119 317h150l-267 -695h-148l70 178z" />
    <glyph glyph-name="yacute.alt" 
d="M350 726h134l-103 -160h-127zM36 510h160l120 -317l119 317h150l-267 -695h-148l70 178z" />
    <glyph glyph-name="ydieresis.alt" 
d="M149 570v134h139v-134h-139zM342 570v134h139v-134h-139zM36 510h160l120 -317l119 317h150l-267 -695h-148l70 178z" />
    <glyph glyph-name="ycircumflex.alt" 
d="M248 726h134l118 -160h-131l-56 75l-53 -75h-129zM36 510h160l120 -317l119 317h150l-267 -695h-148l70 178z" />
    <glyph glyph-name="ygrave.alt" 
d="M282 726l96 -160h-129l-100 160h133zM36 510h160l120 -317l119 317h150l-267 -695h-148l70 178z" />
    <glyph glyph-name="oslash.alt" 
d="M198 -40h-151l71 99c-47 48 -72 117 -72 196c0 154 99 267 263 267c31 0 59 -4 85 -11l29 41h151l-73 -103c47 -47 72 -115 72 -194c0 -154 -101 -267 -264 -267c-30 0 -58 4 -84 11zM309 400c-77 0 -109 -62 -109 -145s32 -145 109 -145c79 0 110 62 110 145
s-31 145 -110 145z" />
    <glyph glyph-name="one.alt" 
d="M65 588h165c88 0 89 79 89 112h158v-700h-162v474c-21 -13 -48 -19 -79 -19h-171v133z" />
    <glyph glyph-name="dollar.alt" 
d="M380 -133h-132v127c-129 22 -206 104 -209 224l157 18c2 -88 49 -127 123 -127c79 0 102 47 102 83c0 49 -27 62 -94 82l-57 17c-93 28 -206 69 -206 216c0 84 56 177 184 200v126h132v-128c120 -23 179 -109 187 -198l-156 -18c-9 80 -49 102 -101 102
c-75 0 -97 -40 -97 -74c0 -48 30 -64 82 -78l72 -20c133 -37 214 -91 214 -211c0 -98 -68 -193 -201 -215v-126z" />
    <glyph glyph-name="cent.alt" 
d="M126 -82l41 114c-67 46 -103 126 -103 222c0 155 93 268 258 268c9 0 19 0 28 -1l27 73h129l-40 -108c55 -33 90 -89 102 -164l-147 -16c-11 53 -38 89 -98 89c-75 0 -104 -60 -104 -141c0 -79 29 -140 105 -140c57 0 87 34 96 83l144 -18c-24 -122 -112 -191 -244 -191
c-13 0 -26 1 -38 2l-27 -72h-129z" />
    <glyph glyph-name="linea" horiz-adv-x="0" 
d="M-4 980h8v-1210h-8v1210z" />
  </font>
</defs>
</svg>
