<?xml version="1.0" standalone="no"?>
<!DOCTYPE svg PUBLIC "-//W3C//DTD SVG 1.1//EN" "http://www.w3.org/Graphics/SVG/1.1/DTD/svg11.dtd" >
<svg xmlns="http://www.w3.org/2000/svg" xmlns:xlink="http://www.w3.org/1999/xlink" version="1.1">
<metadata>
Copyright c 2020 by Eduardo Manso. All rights reserved.
</metadata>
<defs>
<font id="ApproachMono-Regular" horiz-adv-x="620" >
  <font-face 
    font-family="Approach Mono"
    font-weight="400"
    font-stretch="normal"
    units-per-em="1000"
    panose-1="2 11 5 9 4 5 1 6 1 4"
    ascent="750"
    descent="-250"
    x-height="500"
    cap-height="700"
    bbox="-4 -250 694 990"
    underline-thickness="0"
    underline-position="-93"
    stemh="76"
    stemv="90"
    unicode-range="U+0020-1F78B"
  />
<missing-glyph horiz-adv-x="500" 
d="M50 -250v1000h400v-1000h-400zM100 -200h300v900h-300v-900z" />
    <glyph glyph-name="fi" unicode="fi" 
d="M133 0v427h-88v73h88v38c0 86 41 162 158 162h238v-74h-231c-63 0 -76 -46 -76 -94v-32h307v-500h-89v427h-218v-427h-89z" />
    <glyph glyph-name="fl" unicode="fl" 
d="M133 0v427h-88v73h88v38c0 86 41 162 158 162h238v-700h-89v626h-142c-63 0 -76 -46 -76 -94v-32h109v-73h-109v-427h-89z" />
    <glyph glyph-name=".notdef" horiz-adv-x="500" 
d="M50 -250v1000h400v-1000h-400zM100 -200h300v900h-300v-900z" />
    <glyph glyph-name="Eth" unicode="&#xd0;" 
d="M18 387h72v313h174c191 0 303 -138 303 -341c0 -211 -113 -359 -303 -359h-174v311h-72v76zM265 617h-80v-230h161v-76h-161v-228h80c130 0 205 114 205 276c0 153 -75 258 -205 258z" />
    <glyph glyph-name="eth" unicode="&#xf0;" 
d="M310 -12c-154 0 -244 109 -244 256c0 149 88 257 237 257c64 0 116 -28 151 -73c-18 59 -43 109 -74 154l-74 -35l-28 54l65 31c-19 23 -39 45 -61 68h106c11 -12 22 -23 31 -35l70 35l28 -56l-60 -29c84 -122 97 -242 97 -331c0 -184 -84 -296 -244 -296zM310 426
c-102 0 -153 -77 -153 -182c0 -103 51 -181 153 -181s153 78 153 181c0 105 -51 182 -153 182z" />
    <glyph glyph-name="Lslash" unicode="&#x141;" 
d="M12 326l100 56v318h95v-262l110 61l38 -64l-148 -83v-269h361v-83h-456v297l-62 -34z" />
    <glyph glyph-name="lslash" unicode="&#x142;" 
d="M94 73h187v241l-90 -51l-38 62l128 73v229h-187v73h276v-250l88 50l38 -63l-126 -72v-292h187v-73h-463v73z" />
    <glyph glyph-name="Scaron" unicode="&#x160;" 
d="M355 781h-96l-90 145h84l54 -90l57 90h81zM568 197c0 -104 -81 -209 -242 -209c-166 0 -271 88 -274 228l94 12c6 -112 76 -161 180 -161c114 0 145 73 145 125c0 68 -41 95 -121 112l-93 20c-87 19 -184 62 -184 195c0 92 76 193 232 193c169 0 239 -99 249 -203
l-95 -12c-12 105 -78 136 -154 136c-110 0 -138 -65 -138 -112c0 -69 42 -98 112 -113l108 -23c115 -24 181 -79 181 -188z" />
    <glyph glyph-name="scaron" unicode="&#x161;" 
d="M359 581h-96l-90 145h84l54 -90l57 90h81zM529 147c0 -88 -66 -159 -209 -159c-161 0 -224 84 -228 165l88 13c9 -73 54 -108 142 -108c94 0 119 41 119 85c0 42 -38 62 -102 72l-71 11c-72 11 -160 38 -160 141c0 74 63 145 204 145c152 0 199 -87 210 -154l-82 -12
c-13 54 -46 96 -132 96c-92 0 -115 -41 -115 -70c0 -44 33 -60 91 -69l81 -13c101 -16 164 -55 164 -143z" />
    <glyph glyph-name="Yacute" unicode="&#xdd;" 
d="M356 926h89l-91 -145h-86zM23 700h103l184 -332l187 332h100l-239 -416v-284h-95v279z" />
    <glyph glyph-name="yacute" unicode="&#xfd;" 
d="M360 726h89l-91 -145h-86zM58 500h95l160 -395l160 395h90l-230 -556c-32 -77 -66 -129 -171 -129h-88v75h88c54 0 73 25 88 63l17 44z" />
    <glyph glyph-name="Thorn" unicode="&#xde;" 
d="M78 700h95v-122h155c149 0 245 -99 245 -218c0 -127 -96 -237 -246 -237h-154v-123h-95v700zM317 500h-144v-298h144c97 0 159 69 159 157c0 79 -62 141 -159 141z" />
    <glyph glyph-name="thorn" unicode="&#xfe;" 
d="M335 512c138 0 223 -104 223 -258c0 -155 -84 -266 -223 -266c-74 0 -127 32 -162 81v-254h-89v885h89v-272c35 50 87 84 162 84zM322 436c-95 0 -151 -77 -151 -186c0 -106 57 -185 151 -185s145 78 145 185s-51 186 -145 186z" />
    <glyph glyph-name="Zcaron" unicode="&#x17d;" 
d="M366 781h-96l-90 145h84l54 -90l57 90h81zM576 81v-81h-515v74l386 545h-373v81h488v-74l-386 -545h400z" />
    <glyph glyph-name="zcaron" unicode="&#x17e;" 
d="M362 581h-96l-90 145h84l54 -90l57 90h81zM529 74v-74h-438v67l325 359h-310v74h414v-71l-322 -355h331z" />
    <glyph glyph-name="onehalf" unicode="&#xbd;" 
d="M357 400l164 300h74l-165 -300h-73zM44 420h100v182c-10 -5 -23 -6 -38 -6h-66v52h65c44 0 45 37 45 52h58v-280h86v-53h-250v53zM575 53v-53h-260v52l124 101c36 29 59 53 59 85c0 29 -22 47 -54 47c-33 0 -70 -16 -66 -80l-63 8c-5 90 63 126 130 126
c81 0 120 -47 120 -98s-39 -89 -85 -126l-77 -62h172zM25 0l165 300h73l-164 -300h-74z" />
    <glyph glyph-name="onequarter" unicode="&#xbc;" 
d="M44 420h100v182c-10 -5 -23 -6 -38 -6h-66v52h65c44 0 45 37 45 52h58v-280h86v-53h-250v53zM357 400l164 300h74l-165 -300h-73zM311 122l156 211h86v-205h53v-53h-53v-75h-65v75h-177v47zM25 0l165 300h73l-164 -300h-74zM488 128v148l-109 -148h109z" />
    <glyph glyph-name="onesuperior" unicode="&#xb9;" 
d="M163 527h118v215c-12 -6 -27 -8 -44 -8h-78v61h76c52 0 53 44 53 62h69v-330h101v-62h-295v62z" />
    <glyph glyph-name="threequarters" unicode="&#xbe;" 
d="M167 515h-33v47h30c38 0 50 24 50 49c0 29 -25 43 -56 43c-36 0 -70 -21 -67 -70l-58 13c-2 72 60 110 129 110c75 0 117 -38 117 -89c0 -29 -13 -59 -46 -75c41 -13 57 -43 57 -76c0 -62 -48 -105 -128 -105c-67 0 -139 32 -137 108l62 14c0 -51 32 -69 73 -69
c37 0 65 18 65 54c0 24 -14 46 -58 46zM357 400l164 300h74l-165 -300h-73zM311 122l156 211h86v-205h53v-53h-53v-75h-65v75h-177v47zM25 0l165 300h73l-164 -300h-74zM488 128v148l-109 -148h109z" />
    <glyph glyph-name="threesuperior" unicode="&#xb3;" 
d="M321 638h-39v55h36c44 0 58 29 58 58c0 34 -29 50 -65 50c-43 0 -83 -24 -79 -82l-69 15c-2 85 71 130 152 130c88 0 138 -45 138 -105c0 -34 -15 -69 -54 -88c48 -16 67 -51 67 -90c0 -72 -57 -123 -151 -123c-78 0 -163 37 -161 127l73 16c0 -60 38 -81 86 -81
c43 0 76 21 76 64c0 28 -16 54 -68 54z" />
    <glyph glyph-name="twosuperior" unicode="&#xb2;" 
d="M463 527v-62h-305v61l146 119c42 34 69 62 69 100c0 34 -26 55 -64 55s-82 -19 -77 -94l-74 10c-6 106 74 148 153 148c95 0 141 -55 141 -116c0 -60 -46 -104 -100 -148l-91 -73h202z" />
    <glyph glyph-name="brokenbar" unicode="&#xa6;" 
d="M352 405h-84v337h84v-337zM352 -132h-84v337h84v-337z" />
    <glyph glyph-name="minus" unicode="&#x2212;" 
d="M85 390h450v-79h-450v79z" />
    <glyph glyph-name="multiply" unicode="&#xd7;" 
d="M159 142l-58 56l152 152l-152 152l58 56l151 -151l152 151l57 -56l-152 -152l152 -152l-57 -56l-152 151z" />
    <glyph glyph-name="space" unicode=" " 
 />
    <glyph glyph-name="exclam" unicode="!" 
d="M257 700h105v-109l-19 -403h-66l-20 403v109zM251 121h118v-121h-118v121z" />
    <glyph glyph-name="quotedbl" unicode="&#x22;" 
d="M451 460h-87v240h87v-240zM257 460h-87v240h87v-240z" />
    <glyph glyph-name="numbersign" unicode="#" 
d="M216 0h-83l15 202h-107v69h112l11 158h-107v69h112l14 202h83l-14 -202h137l15 202h83l-14 -202h106v-69h-111l-11 -158h106v-69h-111l-15 -202h-83l15 202h-138zM236 271h137l12 158h-138z" />
    <glyph glyph-name="dollar" unicode="$" 
d="M350 -133h-63v123c-131 14 -212 99 -215 228l92 10c3 -99 51 -150 123 -161v253l-21 6c-77 22 -173 63 -173 200c0 84 60 177 194 185v122h63v-124c121 -17 176 -107 185 -202l-94 -10c-9 84 -45 121 -91 134v-241l16 -5c121 -38 182 -82 182 -199
c0 -94 -66 -187 -198 -197v-122zM182 525c0 -73 41 -95 105 -116v226c-83 -9 -105 -67 -105 -110zM456 183c0 70 -33 92 -106 117v-234c83 11 106 73 106 117z" />
    <glyph glyph-name="percent" unicode="%" 
d="M165 362c-91 0 -134 74 -134 173c0 98 44 172 134 172c91 0 135 -74 135 -172c0 -99 -45 -173 -135 -173zM357 400l164 300h74l-165 -300h-73zM165 415c52 0 71 48 71 120c0 71 -19 119 -71 119s-71 -48 -71 -119c0 -72 19 -120 71 -120zM454 -7c-91 0 -134 74 -134 173
c0 98 44 172 134 172c91 0 135 -74 135 -172c0 -99 -45 -173 -135 -173zM25 0l165 300h73l-164 -300h-74zM454 46c52 0 71 48 71 120c0 71 -19 119 -71 119s-71 -48 -71 -119c0 -72 19 -120 71 -120z" />
    <glyph glyph-name="ampersand" unicode="&#x26;" 
d="M44 181c0 101 70 152 139 194c-28 34 -76 97 -76 167c0 112 86 170 179 170c92 0 166 -52 166 -148c0 -92 -71 -144 -152 -194l163 -189c16 42 26 95 26 164l79 -11c0 -94 -18 -164 -49 -217l101 -117h-112l-47 54c-53 -49 -120 -66 -189 -66c-116 0 -228 58 -228 193z
M193 551c0 -53 24 -85 66 -134c73 49 112 87 112 142c0 51 -30 86 -86 86c-72 0 -92 -59 -92 -94zM134 189c0 -88 75 -127 144 -127c55 0 99 11 136 47l-189 217c-51 -33 -91 -69 -91 -137z" />
    <glyph glyph-name="quotesingle" unicode="'" 
d="M354 460h-87v240h87v-240z" />
    <glyph glyph-name="parenleft" unicode="(" 
d="M249 304c0 -181 104 -328 218 -436h-98c-112 109 -216 246 -216 436s105 330 217 438h96c-113 -109 -217 -257 -217 -438z" />
    <glyph glyph-name="parenright" unicode=")" 
d="M371 306c0 181 -104 328 -218 436h98c112 -109 216 -246 216 -436s-105 -330 -217 -438h-96c113 109 217 257 217 438z" />
    <glyph glyph-name="asterisk" unicode="*" 
d="M467 353l-59 -41l-97 129l-97 -129l-59 41l95 127l-143 45l20 70l146 -46v151h75v-151l145 46l20 -70l-141 -44z" />
    <glyph glyph-name="plus" unicode="+" 
d="M269 125v186h-184v79h184v185h83v-185h183v-79h-183v-186h-83z" />
    <glyph glyph-name="comma" unicode="," 
d="M323 -123h-94l51 250h108z" />
    <glyph glyph-name="hyphen" unicode="-" 
d="M135 311h350v-81h-350v81z" />
    <glyph glyph-name="period" unicode="." 
d="M249 127h123v-127h-123v127z" />
    <glyph glyph-name="slash" unicode="/" 
d="M179 -132h-90l356 874h86z" />
    <glyph glyph-name="zero" unicode="0" 
d="M310 -12c-174 0 -257 147 -257 362s84 362 257 362c174 0 257 -147 257 -362s-84 -362 -257 -362zM150 350c0 -94 14 -172 48 -221l177 486c-18 10 -40 15 -65 15c-116 0 -160 -114 -160 -280zM310 70c116 0 160 114 160 280c0 91 -13 166 -44 215l-175 -483
c17 -8 37 -12 59 -12z" />
    <glyph glyph-name="one" unicode="1" 
d="M84 80h204v450c-21 -13 -48 -19 -80 -19h-127v79h121c88 0 89 78 89 110h92v-620h189v-80h-488v80z" />
    <glyph glyph-name="two" unicode="2" 
d="M445 514c0 75 -54 116 -124 116c-72 0 -151 -35 -147 -189l-92 12c-10 183 114 259 240 259c145 0 219 -93 219 -198c0 -106 -74 -192 -151 -262l-189 -172h358v-80h-480v82l252 231c73 66 114 123 114 201z" />
    <glyph glyph-name="three" unicode="3" 
d="M319 324h-62v73h59c90 0 119 63 119 126c0 74 -56 110 -126 110c-83 0 -144 -48 -148 -146l-87 19c3 130 110 206 237 206c141 0 218 -76 218 -184c0 -62 -26 -128 -98 -162c89 -30 121 -96 121 -162c0 -125 -91 -216 -241 -216c-129 0 -246 63 -257 195l95 21
c8 -89 68 -137 162 -137c84 0 146 45 146 138c0 60 -34 119 -138 119z" />
    <glyph glyph-name="four" unicode="4" 
d="M44 240l327 460h121v-447h84v-80h-84v-173h-95v173h-353v67zM397 253v346l-244 -346h244z" />
    <glyph glyph-name="five" unicode="5" 
d="M558 234c0 -139 -84 -246 -248 -246c-131 0 -228 60 -250 178l96 13c15 -69 65 -113 152 -113c95 0 155 56 155 164c0 94 -55 142 -138 142c-64 0 -119 -32 -150 -74l-84 31l53 371h364v-80h-287l-35 -226c34 28 84 54 152 54c148 0 220 -100 220 -214z" />
    <glyph glyph-name="six" unicode="6" 
d="M561 224c0 -134 -100 -236 -239 -236c-160 0 -258 106 -258 345c0 260 111 379 262 379c106 0 196 -53 223 -172l-94 -16c-21 68 -56 110 -131 110c-139 0 -167 -179 -169 -275c40 60 106 92 178 92c136 0 228 -88 228 -227zM318 64c91 0 149 69 149 155
c0 100 -55 156 -145 156c-95 0 -154 -70 -154 -157c0 -86 59 -154 150 -154z" />
    <glyph glyph-name="seven" unicode="7" 
d="M160 480h-82v220h501v-78c-166 -162 -226 -294 -226 -531v-91h-95v92c0 231 73 393 212 526h-310v-138z" />
    <glyph glyph-name="eight" unicode="8" 
d="M557 196c0 -119 -96 -208 -247 -208c-156 0 -247 89 -247 208c0 64 32 137 121 172c-79 32 -102 98 -102 156c0 106 84 188 228 188c151 0 228 -82 228 -188c0 -58 -23 -122 -99 -155c92 -34 118 -108 118 -173zM310 402c100 0 135 68 135 120c0 78 -58 115 -135 115
c-76 0 -135 -37 -135 -115c0 -52 36 -120 135 -120zM310 331c-102 0 -152 -61 -152 -132c0 -77 50 -135 152 -135s152 58 152 135c0 71 -50 132 -152 132z" />
    <glyph glyph-name="nine" unicode="9" 
d="M59 476c0 134 100 236 239 236c160 0 258 -106 258 -345c0 -260 -111 -379 -262 -379c-106 0 -196 53 -223 172l94 16c21 -68 56 -110 131 -110c139 0 167 179 169 275c-40 -60 -106 -92 -178 -92c-136 0 -228 88 -228 227zM302 636c-91 0 -149 -69 -149 -155
c0 -100 55 -156 145 -156c95 0 154 70 154 157c0 86 -59 154 -150 154z" />
    <glyph glyph-name="colon" unicode=":" 
d="M249 500h123v-127h-123v127zM249 127h123v-127h-123v127z" />
    <glyph glyph-name="semicolon" unicode=";" 
d="M251 500h123v-127h-123v127zM301 -123h-94l51 250h108z" />
    <glyph glyph-name="less" unicode="&#x3c;" 
d="M85 384l450 199v-92l-335 -141l335 -141v-92l-450 200v67z" />
    <glyph glyph-name="equal" unicode="=" 
d="M85 494h450v-78h-450v78zM85 284h450v-78h-450v78z" />
    <glyph glyph-name="greater" unicode="&#x3e;" 
d="M535 384v-67l-450 -200v92l335 141l-335 141v92z" />
    <glyph glyph-name="question" unicode="?" 
d="M449 522c0 61 -39 111 -123 111c-79 0 -154 -43 -163 -186l-87 14c3 166 118 251 252 251c156 0 218 -94 218 -188c0 -101 -80 -160 -138 -210c-50 -43 -61 -54 -63 -126h-85c0 99 13 117 96 188c55 47 93 80 93 146zM245 121h117v-121h-117v121z" />
    <glyph glyph-name="at" unicode="@" 
d="M161 211c0 125 50 270 148 270c34 0 69 -22 80 -78l14 69h77l-57 -279c-13 -62 0 -92 31 -92c39 0 76 67 76 241c0 118 -27 306 -200 306c-170 0 -239 -191 -239 -398c0 -305 122 -382 258 -382c74 0 121 20 167 42l23 -58c-53 -28 -112 -49 -195 -49
c-177 0 -330 113 -330 444c0 222 83 465 316 465c180 0 275 -144 275 -368c0 -220 -68 -310 -157 -310c-46 0 -79 23 -94 76c-15 -46 -49 -74 -89 -74c-54 0 -104 53 -104 175zM240 214c0 -72 12 -109 42 -109c58 0 79 132 79 219c0 60 -17 87 -42 87
c-50 0 -79 -114 -79 -197z" />
    <glyph glyph-name="A" unicode="A" 
d="M127 0h-97l233 700h97l230 -700h-104l-52 170h-253zM310 578l-104 -328h204z" />
    <glyph glyph-name="B" unicode="B" 
d="M78 700h241c133 0 205 -77 205 -173c0 -66 -35 -124 -93 -159c82 -26 130 -91 130 -166c0 -111 -83 -202 -223 -202h-260v700zM312 621h-139v-224h136c75 0 117 52 117 120c0 57 -33 104 -114 104zM330 319h-157v-240h158c94 0 132 58 132 124c0 65 -47 116 -133 116z
" />
    <glyph glyph-name="C" unicode="C" 
d="M561 454l-93 -14c-17 115 -60 189 -152 189c-114 0 -159 -114 -159 -279s45 -279 159 -279c89 0 132 73 150 178l93 -14c-25 -152 -106 -247 -244 -247c-174 0 -256 147 -256 362s84 362 257 362c141 0 223 -98 245 -258z" />
    <glyph glyph-name="D" unicode="D" 
d="M78 700h186c190 0 303 -138 303 -341c0 -211 -114 -359 -303 -359h-186v700zM265 617h-92v-534h92c130 0 205 114 205 276c0 153 -75 258 -205 258z" />
    <glyph glyph-name="E" unicode="E" 
d="M98 700h447v-82h-352v-222h312v-80h-312v-234h362v-82h-457v700z" />
    <glyph glyph-name="F" unicode="F" 
d="M98 700h464v-82h-369v-228h329v-82h-329v-308h-95v700z" />
    <glyph glyph-name="G" unicode="G" 
d="M53 346c0 217 90 366 258 366c128 0 202 -77 232 -223l-95 -17c-23 106 -64 158 -137 158c-110 0 -160 -116 -160 -284c0 -158 61 -275 166 -275c108 0 148 89 148 181v44h-134v79h222v-375h-85v76c-30 -52 -85 -88 -162 -88c-165 0 -253 154 -253 358z" />
    <glyph glyph-name="H" unicode="H" 
d="M78 700h95v-302h274v302h95v-700h-95v315h-274v-315h-95v700z" />
    <glyph glyph-name="I" unicode="I" 
d="M81 77h182v546h-182v77h459v-77h-182v-546h182v-77h-459v77z" />
    <glyph glyph-name="J" unicode="J" 
d="M197 700h330v-473c0 -155 -72 -239 -221 -239c-148 0 -224 85 -224 240v26l93 19v-39c0 -113 41 -166 131 -166s126 53 126 154v397h-235v81z" />
    <glyph glyph-name="K" unicode="K" 
d="M608 0h-113l-220 320l-102 -117v-203h-95v700h95v-378l314 378h112l-260 -310z" />
    <glyph glyph-name="L" unicode="L" 
d="M104 700h95v-617h369v-83h-464v700z" />
    <glyph glyph-name="M" unicode="M" 
d="M70 700h121l121 -343l120 343h119v-700h-85v587l-127 -355h-59l-127 355v-587h-83v700z" />
    <glyph glyph-name="N" unicode="N" 
d="M78 700h106l267 -506v506h91v-700h-84l-289 548v-548h-91v700z" />
    <glyph glyph-name="O" unicode="O" 
d="M310 -12c-174 0 -257 147 -257 362s84 362 257 362c174 0 257 -147 257 -362s-84 -362 -257 -362zM310 71c115 0 160 114 160 279c0 166 -45 279 -160 279s-160 -113 -160 -279c0 -165 45 -279 160 -279z" />
    <glyph glyph-name="P" unicode="P" 
d="M78 700h250c150 0 245 -98 245 -219c0 -125 -95 -235 -245 -235h-155v-246h-95v700zM321 619h-148v-292h148c96 0 155 68 155 154c0 76 -59 138 -155 138z" />
    <glyph glyph-name="Q" unicode="Q" 
d="M554 -177h-151c-75 0 -140 31 -140 127v42c-142 24 -210 163 -210 358c0 215 84 362 257 362c174 0 257 -147 257 -362c0 -194 -68 -333 -209 -358v-38c0 -46 27 -56 60 -56h136v-75zM310 71c115 0 160 114 160 279c0 166 -45 279 -160 279s-160 -113 -160 -279
c0 -165 45 -279 160 -279z" />
    <glyph glyph-name="R" unicode="R" 
d="M552 0h-95l-10 182c-4 80 -65 95 -135 95h-139v-277h-95v700h239c154 0 236 -90 236 -193c0 -79 -42 -148 -112 -184c55 -19 96 -60 101 -142zM310 619h-137v-262h136c91 0 147 63 147 142c0 64 -46 120 -146 120z" />
    <glyph glyph-name="S" unicode="S" 
d="M568 197c0 -104 -81 -209 -242 -209c-166 0 -271 88 -274 228l94 12c6 -112 76 -161 180 -161c114 0 145 73 145 125c0 68 -41 95 -121 112l-93 20c-87 19 -184 62 -184 195c0 92 76 193 232 193c169 0 239 -99 249 -203l-95 -12c-12 105 -78 136 -154 136
c-110 0 -138 -65 -138 -112c0 -69 42 -98 112 -113l108 -23c115 -24 181 -79 181 -188z" />
    <glyph glyph-name="T" unicode="T" 
d="M44 700h532v-82h-218v-618h-95v618h-219v82z" />
    <glyph glyph-name="U" unicode="U" 
d="M541 700v-477c0 -153 -103 -235 -230 -235s-232 82 -232 235v477h95v-477c0 -103 62 -152 137 -152c74 0 135 49 135 152v477h95z" />
    <glyph glyph-name="V" unicode="V" 
d="M33 700h100l179 -578l177 578h98l-229 -700h-97z" />
    <glyph glyph-name="W" unicode="W" 
d="M22 700h92l68 -536l88 396h82l91 -391l67 531h88l-99 -700h-90l-99 432l-98 -432h-90z" />
    <glyph glyph-name="X" unicode="X" 
d="M31 700h108l169 -275l176 275h104l-227 -350l231 -350h-112l-175 273l-171 -273h-105l225 348z" />
    <glyph glyph-name="Y" unicode="Y" 
d="M23 700h103l184 -332l187 332h100l-239 -416v-284h-95v279z" />
    <glyph glyph-name="Z" unicode="Z" 
d="M576 81v-81h-515v74l386 545h-373v81h488v-74l-386 -545h400z" />
    <glyph glyph-name="bracketleft" unicode="[" 
d="M166 -132v874h299v-74h-206v-726h206v-74h-299z" />
    <glyph glyph-name="backslash" unicode="\" 
d="M530 -132h-89l-351 874h89z" />
    <glyph glyph-name="bracketright" unicode="]" 
d="M454 -132h-299v74h206v726h-206v74h299v-874z" />
    <glyph glyph-name="asciicircum" unicode="^" 
d="M348 700l188 -419h-91l-135 313l-135 -313h-91l190 419h74z" />
    <glyph glyph-name="underscore" unicode="_" 
d="M66 0h488v-75h-488v75z" />
    <glyph glyph-name="grave" unicode="`" 
d="M311 726l88 -145h-89l-90 145h91z" />
    <glyph glyph-name="a" unicode="a" 
d="M563 0h-49c-35 0 -89 15 -95 71c-34 -53 -88 -83 -158 -83c-119 0 -174 72 -174 146c0 89 61 139 151 154l146 25c27 5 31 22 31 36c0 21 -11 92 -109 92c-92 0 -114 -57 -122 -93l-84 10c11 70 72 154 209 154c138 0 193 -86 193 -175v-225c0 -26 9 -38 37 -38h24v-74z
M175 140c0 -45 29 -81 96 -81c81 0 145 63 145 163v29l-160 -28c-60 -10 -81 -44 -81 -83z" />
    <glyph glyph-name="b" unicode="b" 
d="M335 512c138 0 223 -104 223 -258c0 -155 -84 -266 -223 -266c-75 0 -129 33 -164 84v-72h-87v700h89v-272c35 50 87 84 162 84zM322 436c-95 0 -151 -77 -151 -186c0 -106 57 -185 151 -185s145 78 145 185s-51 186 -145 186z" />
    <glyph glyph-name="c" unicode="c" 
d="M323 64c76 0 121 46 130 120l87 -10c-13 -112 -95 -186 -218 -186c-154 0 -235 110 -235 260c0 152 85 264 235 264c129 0 206 -70 221 -184l-90 -10c-13 76 -55 118 -132 118c-100 0 -143 -82 -143 -188c0 -105 45 -184 145 -184z" />
    <glyph glyph-name="d" unicode="d" 
d="M285 -12c-138 0 -223 104 -223 258c0 155 84 266 223 266c74 0 127 -32 162 -81v269h89v-700h-87v75c-35 -52 -88 -87 -164 -87zM298 65c95 0 151 76 151 185c0 106 -57 186 -151 186s-145 -78 -145 -186c0 -107 51 -185 145 -185z" />
    <glyph glyph-name="e" unicode="e" 
d="M323 60c80 0 114 45 127 101l81 -16c-19 -106 -109 -157 -208 -157c-163 0 -242 99 -242 262c0 154 89 262 239 262c142 0 220 -96 220 -240v-43h-369c5 -111 54 -169 152 -169zM319 441c-85 0 -135 -51 -146 -146h276c-7 104 -54 146 -130 146z" />
    <glyph glyph-name="f" unicode="f" 
d="M90 73h154v354h-166v73h166v38c0 86 40 162 157 162h157v-74h-150c-63 0 -75 -46 -75 -94v-32h221v-73h-221v-354h193v-73h-436v73z" />
    <glyph glyph-name="g" unicode="g" 
d="M287 30c-133 0 -215 96 -215 240c0 140 81 242 215 242c71 0 122 -28 156 -73v61h87v-477c0 -113 -61 -220 -224 -220c-158 0 -216 86 -224 168l89 9c7 -38 25 -103 135 -103c118 0 135 91 135 151v78c-33 -45 -84 -76 -154 -76zM304 106c85 0 139 67 139 165
c0 93 -55 166 -139 166c-96 0 -141 -70 -141 -166c0 -95 45 -165 141 -165z" />
    <glyph glyph-name="h" unicode="h" 
d="M529 0h-89v308c0 81 -43 127 -118 127c-88 0 -134 -55 -134 -159v-276h-89v700h89v-261c31 44 81 73 153 73c129 0 188 -85 188 -188v-324z" />
    <glyph glyph-name="i" unicode="i" 
d="M271 732h99v-141h-99v141zM94 73h187v354h-187v73h276v-427h187v-73h-463v73z" />
    <glyph glyph-name="j" unicode="j" 
d="M352 732h99v-141h-99v141zM451 500v-503c0 -114 -43 -182 -163 -182h-185v74h183c67 0 76 45 76 113v425h-263v73h352z" />
    <glyph glyph-name="k" unicode="k" 
d="M585 0h-106l-179 260l-108 -98v-162h-89v700h89v-435l255 235h113l-197 -183z" />
    <glyph glyph-name="l" unicode="l" 
d="M94 73h187v554h-187v73h276v-627h187v-73h-463v73z" />
    <glyph glyph-name="m" unicode="m" 
d="M352 0h-81v360c0 49 -22 77 -59 77c-47 0 -72 -33 -72 -94v-343h-81v500h79v-47c17 40 49 59 96 59c46 0 83 -25 98 -74c18 43 55 74 108 74c83 0 124 -62 124 -138v-374h-81v360c0 49 -19 77 -59 77c-47 0 -72 -33 -72 -94v-343z" />
    <glyph glyph-name="n" unicode="n" 
d="M529 0h-89v308c0 81 -43 127 -118 127c-88 0 -134 -55 -134 -159v-276h-89v500h87v-63c31 45 81 75 155 75c129 0 188 -85 188 -188v-324z" />
    <glyph glyph-name="o" unicode="o" 
d="M310 512c153 0 244 -111 244 -262s-92 -262 -244 -262c-154 0 -244 111 -244 262s91 262 244 262zM310 437c-102 0 -153 -81 -153 -187c0 -107 51 -187 153 -187s153 80 153 187c0 106 -51 187 -153 187z" />
    <glyph glyph-name="p" unicode="p" 
d="M335 512c138 0 223 -104 223 -258c0 -155 -84 -266 -223 -266c-74 0 -127 32 -162 81v-254h-89v685h87v-75c35 52 88 87 164 87zM322 436c-95 0 -151 -77 -151 -186c0 -106 57 -185 151 -185s145 78 145 185s-51 186 -145 186z" />
    <glyph glyph-name="q" unicode="q" 
d="M286 -12c-138 0 -224 104 -224 258c0 155 85 266 224 266c75 0 129 -33 164 -84v72h86v-685h-88v257c-35 -50 -87 -84 -162 -84zM299 65c95 0 151 76 151 185c0 106 -57 186 -151 186s-145 -78 -145 -186c0 -107 51 -185 145 -185z" />
    <glyph glyph-name="r" unicode="r" 
d="M71 73h157v354h-157v73h244v-91c31 58 79 91 145 91h101v-82h-102c-86 0 -142 -75 -142 -203v-142h196v-73h-442v73z" />
    <glyph glyph-name="s" unicode="s" 
d="M529 147c0 -88 -66 -159 -209 -159c-161 0 -224 84 -228 165l88 13c9 -73 54 -108 142 -108c94 0 119 41 119 85c0 42 -38 62 -102 72l-71 11c-72 11 -160 38 -160 141c0 74 63 145 204 145c152 0 199 -87 210 -154l-82 -12c-13 54 -46 96 -132 96
c-92 0 -115 -41 -115 -70c0 -44 33 -60 91 -69l81 -13c101 -16 164 -55 164 -143z" />
    <glyph glyph-name="t" unicode="t" 
d="M51 427v73h166v161h89v-161h237v-73h-237v-278c0 -52 13 -73 63 -73h162v-76h-175c-98 0 -139 55 -139 137v290h-166z" />
    <glyph glyph-name="u" unicode="u" 
d="M516 0h-87v61c-30 -44 -79 -73 -150 -73c-125 0 -183 86 -183 188v324h89v-309c0 -81 41 -126 113 -126c84 0 129 56 129 159v276h89v-500z" />
    <glyph glyph-name="v" unicode="v" 
d="M59 500h94l160 -402l159 402h90l-206 -500h-94z" />
    <glyph glyph-name="w" unicode="w" 
d="M31 500h81l69 -377l97 377h68l98 -378l68 378h77l-100 -500h-80l-98 375l-99 -375h-81z" />
    <glyph glyph-name="x" unicode="x" 
d="M65 500h104l144 -186l145 186h99l-193 -246l199 -254h-105l-150 191l-150 -191h-101l198 252z" />
    <glyph glyph-name="y" unicode="y" 
d="M58 500h95l160 -395l160 395h90l-230 -556c-32 -77 -66 -129 -171 -129h-88v75h88c54 0 73 25 88 63l17 44z" />
    <glyph glyph-name="z" unicode="z" 
d="M529 74v-74h-438v67l325 359h-310v74h414v-71l-322 -355h331z" />
    <glyph glyph-name="braceleft" unicode="{" 
d="M107 342h80c47 0 68 24 68 63c0 54 -20 117 -20 192c0 90 63 145 160 145h104v-75h-85c-52 0 -83 -22 -83 -64c0 -58 16 -125 16 -192c0 -58 -26 -93 -67 -105c42 -9 67 -47 67 -107c0 -66 -16 -134 -16 -192c0 -44 31 -65 83 -65h85v-74h-104c-97 0 -160 55 -160 145
c0 75 20 139 20 192c0 38 -21 63 -68 63h-80v74z" />
    <glyph glyph-name="bar" unicode="|" 
d="M352 -132h-84v874h84v-874z" />
    <glyph glyph-name="braceright" unicode="}" 
d="M513 342v-74h-80c-47 0 -68 -25 -68 -63c0 -53 20 -117 20 -192c0 -90 -63 -145 -160 -145h-104v74h85c52 0 83 21 83 65c0 58 -16 126 -16 192c0 60 25 98 67 107c-41 12 -67 47 -67 105c0 67 16 134 16 192c0 42 -31 64 -83 64h-85v75h104c97 0 160 -55 160 -145
c0 -75 -20 -138 -20 -192c0 -39 21 -63 68 -63h80z" />
    <glyph glyph-name="asciitilde" unicode="~" 
d="M420 280c-62 0 -152 61 -196 61c-38 0 -46 -29 -48 -61h-77c-1 78 41 140 117 140c65 0 152 -62 193 -62c35 0 37 26 38 64h74c4 -89 -32 -142 -101 -142z" />
    <glyph glyph-name="Adieresis" unicode="&#xc4;" 
d="M189 782v119h86v-119h-86zM345 782v119h86v-119h-86zM127 0h-97l233 700h97l230 -700h-104l-52 170h-253zM310 578l-104 -328h204z" />
    <glyph glyph-name="Aring" unicode="&#xc5;" 
d="M310 990c72 0 115 -49 115 -106c0 -56 -42 -105 -115 -105c-74 0 -115 49 -115 105c0 57 41 106 115 106zM310 943c-37 0 -54 -27 -54 -59c0 -33 17 -59 54 -59c36 0 54 26 54 59c0 32 -18 59 -54 59zM127 0h-97l233 700h97l230 -700h-104l-52 170h-253zM310 578
l-104 -328h204z" />
    <glyph glyph-name="Ccedilla" unicode="&#xc7;" 
d="M404 -134c0 -55 -38 -92 -106 -92c-63 0 -97 34 -102 81l66 3c2 -20 16 -33 37 -33c26 0 39 18 39 39c0 23 -15 39 -41 39c-13 0 -26 -5 -36 -18l-39 29l55 76c-148 21 -218 161 -218 360c0 215 84 362 257 362c141 0 223 -98 245 -258l-93 -14c-17 115 -60 189 -152 189
c-114 0 -159 -114 -159 -279s45 -279 159 -279c89 0 132 73 150 178l93 -14c-23 -143 -96 -235 -220 -246l-28 -37c59 -2 93 -37 93 -86z" />
    <glyph glyph-name="Eacute" unicode="&#xc9;" 
d="M367 926h89l-91 -145h-86zM98 700h447v-82h-352v-222h312v-80h-312v-234h362v-82h-457v700z" />
    <glyph glyph-name="Ntilde" unicode="&#xd1;" 
d="M366 873c17 0 21 10 21 33h67c2 -59 -18 -104 -72 -104c-45 0 -81 34 -118 34c-23 0 -29 -18 -31 -37h-67c3 58 25 107 87 107c44 0 85 -33 113 -33zM78 700h106l267 -506v506h91v-700h-84l-289 548v-548h-91v700z" />
    <glyph glyph-name="Odieresis" unicode="&#xd6;" 
d="M189 782v119h86v-119h-86zM345 782v119h86v-119h-86zM310 -12c-174 0 -257 147 -257 362s84 362 257 362c174 0 257 -147 257 -362s-84 -362 -257 -362zM310 71c115 0 160 114 160 279c0 166 -45 279 -160 279s-160 -113 -160 -279c0 -165 45 -279 160 -279z" />
    <glyph glyph-name="Udieresis" unicode="&#xdc;" 
d="M189 782v119h86v-119h-86zM345 782v119h86v-119h-86zM541 700v-477c0 -153 -103 -235 -230 -235s-232 82 -232 235v477h95v-477c0 -103 62 -152 137 -152c74 0 135 49 135 152v477h95z" />
    <glyph glyph-name="aacute" unicode="&#xe1;" 
d="M356 726h89l-91 -145h-86zM563 0h-49c-35 0 -89 15 -95 71c-34 -53 -88 -83 -158 -83c-119 0 -174 72 -174 146c0 89 61 139 151 154l146 25c27 5 31 22 31 36c0 21 -11 92 -109 92c-92 0 -114 -57 -122 -93l-84 10c11 70 72 154 209 154c138 0 193 -86 193 -175v-225
c0 -26 9 -38 37 -38h24v-74zM175 140c0 -45 29 -81 96 -81c81 0 145 63 145 163v29l-160 -28c-60 -10 -81 -44 -81 -83z" />
    <glyph glyph-name="agrave" unicode="&#xe0;" 
d="M261 726l88 -145h-89l-90 145h91zM563 0h-49c-35 0 -89 15 -95 71c-34 -53 -88 -83 -158 -83c-119 0 -174 72 -174 146c0 89 61 139 151 154l146 25c27 5 31 22 31 36c0 21 -11 92 -109 92c-92 0 -114 -57 -122 -93l-84 10c11 70 72 154 209 154c138 0 193 -86 193 -175
v-225c0 -26 9 -38 37 -38h24v-74zM175 140c0 -45 29 -81 96 -81c81 0 145 63 145 163v29l-160 -28c-60 -10 -81 -44 -81 -83z" />
    <glyph glyph-name="acircumflex" unicode="&#xe2;" 
d="M260 726h96l90 -145h-84l-54 90l-57 -90h-81zM563 0h-49c-35 0 -89 15 -95 71c-34 -53 -88 -83 -158 -83c-119 0 -174 72 -174 146c0 89 61 139 151 154l146 25c27 5 31 22 31 36c0 21 -11 92 -109 92c-92 0 -114 -57 -122 -93l-84 10c11 70 72 154 209 154
c138 0 193 -86 193 -175v-225c0 -26 9 -38 37 -38h24v-74zM175 140c0 -45 29 -81 96 -81c81 0 145 63 145 163v29l-160 -28c-60 -10 -81 -44 -81 -83z" />
    <glyph glyph-name="adieresis" unicode="&#xe4;" 
d="M187 582v119h86v-119h-86zM343 582v119h86v-119h-86zM563 0h-49c-35 0 -89 15 -95 71c-34 -53 -88 -83 -158 -83c-119 0 -174 72 -174 146c0 89 61 139 151 154l146 25c27 5 31 22 31 36c0 21 -11 92 -109 92c-92 0 -114 -57 -122 -93l-84 10c11 70 72 154 209 154
c138 0 193 -86 193 -175v-225c0 -26 9 -38 37 -38h24v-74zM175 140c0 -45 29 -81 96 -81c81 0 145 63 145 163v29l-160 -28c-60 -10 -81 -44 -81 -83z" />
    <glyph glyph-name="atilde" unicode="&#xe3;" 
d="M365 673c17 0 21 10 21 33h67c2 -59 -18 -104 -72 -104c-45 0 -81 34 -118 34c-23 0 -29 -18 -31 -37h-67c3 58 25 107 87 107c44 0 85 -33 113 -33zM563 0h-49c-35 0 -89 15 -95 71c-34 -53 -88 -83 -158 -83c-119 0 -174 72 -174 146c0 89 61 139 151 154l146 25
c27 5 31 22 31 36c0 21 -11 92 -109 92c-92 0 -114 -57 -122 -93l-84 10c11 70 72 154 209 154c138 0 193 -86 193 -175v-225c0 -26 9 -38 37 -38h24v-74zM175 140c0 -45 29 -81 96 -81c81 0 145 63 145 163v29l-160 -28c-60 -10 -81 -44 -81 -83z" />
    <glyph glyph-name="aring" unicode="&#xe5;" 
d="M308 790c72 0 115 -49 115 -106c0 -56 -42 -105 -115 -105c-74 0 -115 49 -115 105c0 57 41 106 115 106zM308 743c-37 0 -54 -27 -54 -59c0 -33 17 -59 54 -59c36 0 54 26 54 59c0 32 -18 59 -54 59zM563 0h-49c-35 0 -89 15 -95 71c-34 -53 -88 -83 -158 -83
c-119 0 -174 72 -174 146c0 89 61 139 151 154l146 25c27 5 31 22 31 36c0 21 -11 92 -109 92c-92 0 -114 -57 -122 -93l-84 10c11 70 72 154 209 154c138 0 193 -86 193 -175v-225c0 -26 9 -38 37 -38h24v-74zM175 140c0 -45 29 -81 96 -81c81 0 145 63 145 163v29
l-160 -28c-60 -10 -81 -44 -81 -83z" />
    <glyph glyph-name="ccedilla" unicode="&#xe7;" 
d="M323 64c76 0 121 46 130 120l87 -10c-12 -105 -85 -176 -195 -185l-28 -37c59 -2 93 -37 93 -86c0 -55 -38 -92 -106 -92c-63 0 -97 34 -102 81l66 3c2 -20 16 -33 37 -33c26 0 39 18 39 39c0 23 -15 39 -41 39c-13 0 -26 -5 -36 -18l-39 29l55 77
c-129 17 -196 120 -196 257c0 152 85 264 235 264c129 0 206 -70 221 -184l-90 -10c-13 76 -55 118 -132 118c-100 0 -143 -82 -143 -188c0 -105 45 -184 145 -184z" />
    <glyph glyph-name="eacute" unicode="&#xe9;" 
d="M367 726h89l-91 -145h-86zM323 60c80 0 114 45 127 101l81 -16c-19 -106 -109 -157 -208 -157c-163 0 -242 99 -242 262c0 154 89 262 239 262c142 0 220 -96 220 -240v-43h-369c5 -111 54 -169 152 -169zM319 441c-85 0 -135 -51 -146 -146h276c-7 104 -54 146 -130 146
z" />
    <glyph glyph-name="egrave" unicode="&#xe8;" 
d="M273 726l88 -145h-89l-90 145h91zM323 60c80 0 114 45 127 101l81 -16c-19 -106 -109 -157 -208 -157c-163 0 -242 99 -242 262c0 154 89 262 239 262c142 0 220 -96 220 -240v-43h-369c5 -111 54 -169 152 -169zM319 441c-85 0 -135 -51 -146 -146h276
c-7 104 -54 146 -130 146z" />
    <glyph glyph-name="ecircumflex" unicode="&#xea;" 
d="M272 726h96l90 -145h-84l-54 90l-57 -90h-81zM323 60c80 0 114 45 127 101l81 -16c-19 -106 -109 -157 -208 -157c-163 0 -242 99 -242 262c0 154 89 262 239 262c142 0 220 -96 220 -240v-43h-369c5 -111 54 -169 152 -169zM319 441c-85 0 -135 -51 -146 -146h276
c-7 104 -54 146 -130 146z" />
    <glyph glyph-name="edieresis" unicode="&#xeb;" 
d="M199 582v119h86v-119h-86zM355 582v119h86v-119h-86zM323 60c80 0 114 45 127 101l81 -16c-19 -106 -109 -157 -208 -157c-163 0 -242 99 -242 262c0 154 89 262 239 262c142 0 220 -96 220 -240v-43h-369c5 -111 54 -169 152 -169zM319 441c-85 0 -135 -51 -146 -146
h276c-7 104 -54 146 -130 146z" />
    <glyph glyph-name="iacute" unicode="&#xed;" 
d="M356 726h89l-91 -145h-86zM94 73h187v354h-187v73h276v-427h187v-73h-463v73z" />
    <glyph glyph-name="igrave" unicode="&#xec;" 
d="M262 726l88 -145h-89l-90 145h91zM94 73h187v354h-187v73h276v-427h187v-73h-463v73z" />
    <glyph glyph-name="icircumflex" unicode="&#xee;" 
d="M192 726h96l90 -145h-84l-54 90l-57 -90h-81zM94 73h187v354h-187v73h276v-427h187v-73h-463v73z" />
    <glyph glyph-name="idieresis" unicode="&#xef;" 
d="M134 582v119h86v-119h-86zM290 582v119h86v-119h-86zM94 73h187v354h-187v73h276v-427h187v-73h-463v73z" />
    <glyph glyph-name="ntilde" unicode="&#xf1;" 
d="M377 673c17 0 21 10 21 33h67c2 -59 -18 -104 -72 -104c-45 0 -81 34 -118 34c-23 0 -29 -18 -31 -37h-67c3 58 25 107 87 107c44 0 85 -33 113 -33zM529 0h-89v308c0 81 -43 127 -118 127c-88 0 -134 -55 -134 -159v-276h-89v500h87v-63c31 45 81 75 155 75
c129 0 188 -85 188 -188v-324z" />
    <glyph glyph-name="oacute" unicode="&#xf3;" 
d="M358 726h89l-91 -145h-86zM310 512c153 0 244 -111 244 -262s-92 -262 -244 -262c-154 0 -244 111 -244 262s91 262 244 262zM310 437c-102 0 -153 -81 -153 -187c0 -107 51 -187 153 -187s153 80 153 187c0 106 -51 187 -153 187z" />
    <glyph glyph-name="ograve" unicode="&#xf2;" 
d="M263 726l88 -145h-89l-90 145h91zM310 512c153 0 244 -111 244 -262s-92 -262 -244 -262c-154 0 -244 111 -244 262s91 262 244 262zM310 437c-102 0 -153 -81 -153 -187c0 -107 51 -187 153 -187s153 80 153 187c0 106 -51 187 -153 187z" />
    <glyph glyph-name="ocircumflex" unicode="&#xf4;" 
d="M262 726h96l90 -145h-84l-54 90l-57 -90h-81zM310 512c153 0 244 -111 244 -262s-92 -262 -244 -262c-154 0 -244 111 -244 262s91 262 244 262zM310 437c-102 0 -153 -81 -153 -187c0 -107 51 -187 153 -187s153 80 153 187c0 106 -51 187 -153 187z" />
    <glyph glyph-name="odieresis" unicode="&#xf6;" 
d="M189 582v119h86v-119h-86zM345 582v119h86v-119h-86zM310 512c153 0 244 -111 244 -262s-92 -262 -244 -262c-154 0 -244 111 -244 262s91 262 244 262zM310 437c-102 0 -153 -81 -153 -187c0 -107 51 -187 153 -187s153 80 153 187c0 106 -51 187 -153 187z" />
    <glyph glyph-name="otilde" unicode="&#xf5;" 
d="M366 673c17 0 21 10 21 33h67c2 -59 -18 -104 -72 -104c-45 0 -81 34 -118 34c-23 0 -29 -18 -31 -37h-67c3 58 25 107 87 107c44 0 85 -33 113 -33zM310 512c153 0 244 -111 244 -262s-92 -262 -244 -262c-154 0 -244 111 -244 262s91 262 244 262zM310 437
c-102 0 -153 -81 -153 -187c0 -107 51 -187 153 -187s153 80 153 187c0 106 -51 187 -153 187z" />
    <glyph glyph-name="uacute" unicode="&#xfa;" 
d="M353 726h89l-91 -145h-86zM516 0h-87v61c-30 -44 -79 -73 -150 -73c-125 0 -183 86 -183 188v324h89v-309c0 -81 41 -126 113 -126c84 0 129 56 129 159v276h89v-500z" />
    <glyph glyph-name="ugrave" unicode="&#xf9;" 
d="M259 726l88 -145h-89l-90 145h91zM516 0h-87v61c-30 -44 -79 -73 -150 -73c-125 0 -183 86 -183 188v324h89v-309c0 -81 41 -126 113 -126c84 0 129 56 129 159v276h89v-500z" />
    <glyph glyph-name="ucircumflex" unicode="&#xfb;" 
d="M258 726h96l90 -145h-84l-54 90l-57 -90h-81zM516 0h-87v61c-30 -44 -79 -73 -150 -73c-125 0 -183 86 -183 188v324h89v-309c0 -81 41 -126 113 -126c84 0 129 56 129 159v276h89v-500z" />
    <glyph glyph-name="udieresis" unicode="&#xfc;" 
d="M185 582v119h86v-119h-86zM341 582v119h86v-119h-86zM516 0h-87v61c-30 -44 -79 -73 -150 -73c-125 0 -183 86 -183 188v324h89v-309c0 -81 41 -126 113 -126c84 0 129 56 129 159v276h89v-500z" />
    <glyph glyph-name="dagger" unicode="&#x2020;" 
d="M354 0h-88v422h-179v78h179v200h88v-200h180v-78h-180v-422z" />
    <glyph glyph-name="degree" unicode="&#xb0;" 
d="M312 706c95 0 170 -75 170 -169c0 -95 -75 -172 -170 -172s-174 77 -174 172c0 94 79 169 174 169zM311 634c-55 0 -96 -42 -96 -97c0 -57 42 -99 96 -99c53 0 95 43 95 99c0 55 -42 97 -95 97z" />
    <glyph glyph-name="cent" unicode="&#xa2;" 
d="M154 -85l40 107c-71 43 -107 126 -107 226c0 152 85 264 235 264c18 0 36 -1 52 -4l31 83h70l-38 -103c60 -30 96 -85 106 -160l-90 -10c-7 40 -22 71 -46 91l-126 -340c13 -3 27 -5 42 -5c76 0 121 46 130 120l87 -10c-13 -112 -95 -186 -218 -186c-24 0 -47 3 -68 8
l-30 -81h-70zM178 248c0 -60 15 -112 46 -145l123 331c-8 1 -17 2 -26 2c-100 0 -143 -82 -143 -188z" />
    <glyph glyph-name="sterling" unicode="&#xa3;" 
d="M61 295v72h63l-2 6c-13 38 -24 74 -24 127c0 102 64 212 228 212c125 0 212 -78 230 -214l-89 -23c-16 115 -72 160 -145 160c-102 0 -130 -76 -130 -133c0 -50 8 -72 21 -117l5 -18h193v-72h-173l9 -32c23 -82 3 -145 -28 -183h340v-80h-481v68c43 12 114 66 85 165
l-18 62h-84z" />
    <glyph glyph-name="section" unicode="&#xa7;" 
d="M519 -14c0 -86 -66 -183 -216 -183c-149 0 -217 98 -227 199l94 15c11 -109 67 -140 133 -140c99 0 124 59 124 103c0 64 -39 90 -91 105l-119 35c-98 29 -154 73 -154 163c0 52 25 100 76 136c-22 26 -38 62 -38 110c0 86 67 183 218 183c148 0 215 -98 225 -199
l-94 -15c-11 109 -67 140 -133 140c-99 0 -124 -59 -124 -103c0 -64 39 -90 91 -105l119 -35c98 -29 154 -73 154 -163c0 -52 -25 -100 -76 -137c23 -26 38 -61 38 -109zM250 196l109 -32c21 -6 46 -15 68 -28c34 25 46 57 46 82c0 61 -36 81 -103 101l-109 32
c-21 6 -46 15 -68 29c-35 -26 -47 -58 -47 -83c0 -61 36 -81 104 -101z" />
    <glyph glyph-name="bullet" unicode="&#x2022;" 
d="M219 456h184v-191h-184v191z" />
    <glyph glyph-name="paragraph" unicode="&#xb6;" 
d="M366 700v-885h-85v429h-13c-134 0 -223 107 -223 233c0 121 92 223 228 223h93zM544 700v-885h-84v885h84z" />
    <glyph glyph-name="germandbls" unicode="&#xdf;" 
d="M313 636c-113 0 -141 -92 -141 -168v-468h-89v474c0 115 63 238 232 238c133 0 204 -77 204 -171c0 -64 -37 -119 -96 -150c82 -27 129 -98 129 -177c0 -118 -87 -214 -225 -214h-63v74h61c90 0 136 65 136 145c0 67 -47 124 -133 124h-64v73h42c77 0 123 56 123 122
c0 53 -38 98 -116 98z" />
    <glyph glyph-name="registered" unicode="&#xae;" 
d="M310 712c177 0 267 -161 267 -361s-90 -363 -267 -363s-267 163 -267 363s90 361 267 361zM310 651c-132 0 -198 -134 -198 -300c0 -167 66 -302 198 -302s199 135 199 302c0 166 -67 300 -199 300zM434 177h-77l-6 86c-3 42 -26 46 -57 46h-27v-132h-78v350h130
c76 0 120 -46 120 -98c0 -38 -19 -71 -53 -90c23 -9 40 -31 43 -76zM308 465h-41v-94h41c37 0 52 23 52 51c0 25 -15 43 -52 43z" />
    <glyph glyph-name="copyright" unicode="&#xa9;" 
d="M310 712c177 0 267 -161 267 -361s-90 -363 -267 -363s-267 163 -267 363s90 361 267 361zM310 651c-132 0 -198 -134 -198 -300c0 -167 66 -302 198 -302s199 135 199 302c0 166 -67 300 -199 300zM311 229c36 0 57 28 63 74l80 -8c-9 -82 -62 -137 -145 -137
c-97 0 -151 81 -151 191c0 111 56 192 153 192c86 0 133 -51 144 -135l-82 -6c-7 46 -25 70 -63 70c-48 0 -70 -51 -70 -121s22 -120 71 -120z" />
    <glyph glyph-name="trademark" unicode="&#x2122;" 
d="M304 700h82l50 -156l49 156h81v-350h-61v256l-45 -145h-51l-46 141v-252h-59v350zM37 700h221v-60h-74v-290h-74v290h-73v60z" />
    <glyph glyph-name="acute" unicode="&#xb4;" 
d="M310 726h89l-91 -145h-86z" />
    <glyph glyph-name="dieresis" unicode="&#xa8;" 
d="M189 582v119h86v-119h-86zM345 582v119h86v-119h-86z" />
    <glyph glyph-name="notequal" unicode="&#x2260;" 
d="M142 128l44 78h-98v78h142l75 132h-217v78h261l44 78h82l-44 -78h107v-78h-151l-75 -132h226v-78h-270l-44 -78h-82z" />
    <glyph glyph-name="AE" unicode="&#xc6;" 
d="M113 0h-97l233 700h334v-82h-176v-222h152v-80h-152v-234h186v-82h-281v173h-143zM194 252h118v367z" />
    <glyph glyph-name="Oslash" unicode="&#xd8;" 
d="M47 -40l71 126c-44 64 -65 155 -65 264c0 215 84 362 257 362c54 0 99 -14 135 -40l38 68h90l-71 -126c44 -64 65 -155 65 -264c0 -215 -84 -362 -257 -362c-53 0 -98 14 -135 39l-38 -67h-90zM150 350c0 -67 7 -126 24 -172l231 413c-24 25 -55 38 -95 38
c-115 0 -160 -113 -160 -279zM310 71c115 0 160 114 160 279c0 67 -7 125 -23 171l-231 -413c24 -24 55 -37 94 -37z" />
    <glyph glyph-name="infinity" unicode="&#x221e;" 
d="M593 350c0 -93 -59 -151 -138 -151c-54 0 -104 37 -149 94c-43 -61 -90 -94 -141 -94c-79 0 -138 58 -138 151s59 151 138 151c52 0 104 -34 147 -93c43 59 91 93 143 93c79 0 138 -58 138 -151zM110 350c0 -46 25 -73 63 -73c37 0 73 37 95 71c-23 38 -59 75 -95 75
c-38 0 -63 -27 -63 -73zM447 423c-36 0 -74 -35 -96 -69c22 -39 59 -77 96 -77c38 0 63 27 63 73s-25 73 -63 73z" />
    <glyph glyph-name="plusminus" unicode="&#xb1;" 
d="M269 216v183h-182v79h182v182h83v-182h181v-79h-181v-183h-83zM87 117h446v-78h-446v78z" />
    <glyph glyph-name="lessequal" unicode="&#x2264;" 
d="M87 475l446 188v-92l-327 -130l327 -129v-92l-446 188v67zM87 117h446v-78h-446v78z" />
    <glyph glyph-name="greaterequal" unicode="&#x2265;" 
d="M533 475v-67l-446 -188v92l327 129l-327 130v92zM533 117v-78h-446v78h446z" />
    <glyph glyph-name="yen" unicode="&#xa5;" 
d="M92 151v68h171v60l-5 8h-166v68h128l-197 345h103l184 -332l187 332h100l-198 -345h129v-68h-168l-2 -3v-65h170v-68h-170v-151h-95v151h-171z" />
    <glyph glyph-name="mu" unicode="&#xb5;" 
d="M520 0h-87v61c-31 -44 -80 -73 -151 -73c-41 0 -74 10 -99 29l6 -95v-107h-89v685h89v-309c0 -81 41 -126 113 -126c84 0 129 56 129 159v276h89v-500z" />
    <glyph glyph-name="partialdiff" unicode="&#x2202;" 
d="M69 205c0 126 90 217 222 217c57 0 128 -20 169 -81c-6 176 -39 294 -182 294c-65 0 -118 -32 -147 -53l-41 60c35 29 102 70 191 70c282 0 270 -314 270 -421c0 -192 -104 -303 -252 -303c-139 0 -230 88 -230 217zM301 62c94 0 149 77 149 155c0 92 -81 129 -137 129
c-97 0 -153 -61 -153 -142c0 -86 56 -142 141 -142z" />
    <glyph glyph-name="summation" unicode="&#x2211;" 
d="M59 0v61l171 293l-171 271v75h493v-80h-378l158 -257l-161 -283h391v-80h-503z" />
    <glyph glyph-name="product" unicode="&#x220f;" 
d="M585 700v-82h-95v-618h-94v618h-173v-618h-94v618h-93v82h549z" />
    <glyph glyph-name="pi" unicode="&#x3c0;" 
d="M581 500v-74h-80v-426h-89v426h-204v-426h-89v426h-80v74h542z" />
    <glyph glyph-name="integral" unicode="&#x222b;" 
d="M266 -15v553c0 86 40 162 157 162h93v-77h-86c-63 0 -75 -45 -75 -93v-553c0 -86 -41 -162 -158 -162h-93v77h86c63 0 76 45 76 93z" />
    <glyph glyph-name="ordfeminine" unicode="&#xaa;" 
d="M500 309h-42c-26 0 -70 10 -80 53c-25 -39 -66 -62 -121 -62c-92 0 -137 56 -137 114c0 69 49 105 118 117l109 19c21 4 25 15 25 27c0 17 -9 65 -76 65c-66 0 -82 -41 -87 -68l-78 9c8 57 58 123 168 123c111 0 154 -69 154 -140v-159c0 -18 6 -28 27 -28h20v-70z
M202 421c0 -33 22 -58 68 -58c56 0 103 43 103 114v20l-111 -19c-44 -8 -60 -30 -60 -57z" />
    <glyph glyph-name="ordmasculine" unicode="&#xba;" 
d="M310 706c124 0 195 -87 195 -204s-74 -202 -195 -202c-124 0 -195 85 -195 202s73 204 195 204zM310 640c-75 0 -111 -61 -111 -138s37 -136 111 -136s111 59 111 136s-37 138 -111 138z" />
    <glyph glyph-name="Omega" unicode="&#x2126;" 
d="M54 77h120c-86 58 -130 165 -130 301c0 186 88 334 266 334c177 0 266 -148 266 -334c0 -136 -51 -242 -130 -301h120v-77h-209v95c78 48 123 146 123 284c0 137 -60 250 -170 250s-170 -113 -170 -250c0 -139 45 -236 123 -284v-95h-209v77z" />
    <glyph glyph-name="ae" unicode="&#xe6;" 
d="M222 311c27 8 31 23 31 38c0 21 -6 92 -66 92c-58 0 -70 -57 -77 -93l-78 10c11 70 54 154 154 154c66 0 103 -36 119 -86c29 55 75 86 134 86c107 0 160 -99 160 -234v-49h-262c4 -111 34 -169 100 -169c48 0 73 48 80 101l77 -16c-18 -105 -80 -157 -157 -157
c-78 0 -123 38 -152 109c-17 -70 -68 -109 -130 -109c-94 0 -137 71 -137 144c0 92 55 135 139 160zM435 441c-58 0 -89 -50 -96 -146h176c0 102 -31 146 -80 146zM100 138c0 -44 18 -79 65 -79c48 0 90 55 90 147v47l-87 -26c-51 -15 -68 -49 -68 -89z" />
    <glyph glyph-name="oslash" unicode="&#xf8;" 
d="M148 -46h-82l70 102c-45 47 -70 115 -70 194c0 151 91 262 244 262c46 0 86 -10 120 -28l42 62h83l-71 -103c45 -47 70 -114 70 -193c0 -151 -92 -262 -244 -262c-46 0 -86 10 -120 28zM310 437c-102 0 -153 -81 -153 -187c0 -48 10 -91 31 -124l198 292
c-21 12 -46 19 -76 19zM463 250c0 48 -10 90 -31 123l-198 -291c21 -12 46 -19 76 -19c102 0 153 80 153 187z" />
    <glyph glyph-name="questiondown" unicode="&#xbf;" 
d="M375 579h-117v121h117v-121zM171 178c0 -61 39 -111 123 -111c79 0 154 43 163 186l87 -14c-3 -166 -118 -251 -252 -251c-156 0 -218 94 -218 188c0 101 80 160 138 210c50 43 61 54 63 126h85c0 -99 -13 -117 -96 -188c-55 -47 -93 -80 -93 -146z" />
    <glyph glyph-name="exclamdown" unicode="&#xa1;" 
d="M251 579v121h118v-121h-118zM257 0v109l20 403h66l19 -403v-109h-105z" />
    <glyph glyph-name="logicalnot" unicode="&#xac;" 
d="M85 390h450v-265h-83v186h-367v79z" />
    <glyph glyph-name="radical" unicode="&#x221a;" 
d="M54 441h172l99 -322l162 581h93l-206 -700h-100l-116 359h-104v82z" />
    <glyph glyph-name="florin" unicode="&#x192;" 
d="M231 -16l48 388h-154v69h163l12 97c11 86 40 162 158 162h106v-76h-97c-65 0 -72 -46 -78 -93l-11 -90h171v-69h-180l-49 -395c-11 -86 -41 -162 -158 -162h-106v76h97c65 0 72 46 78 93z" />
    <glyph glyph-name="approxequal" unicode="&#x2248;" 
d="M425 378c-65 0 -158 64 -204 64c-40 0 -48 -30 -50 -64h-80c-1 82 43 146 122 146c67 0 158 -64 200 -64c37 0 39 27 40 66h77c4 -92 -34 -148 -105 -148zM425 177c-65 0 -158 64 -204 64c-40 0 -48 -30 -50 -64h-80c-1 82 43 146 122 146c67 0 158 -64 200 -64
c37 0 39 27 40 66h77c4 -92 -34 -148 -105 -148z" />
    <glyph glyph-name="Delta" unicode="&#x2206;" 
d="M34 65l229 635h97l226 -635v-65h-552v65zM137 81h339l-168 504z" />
    <glyph glyph-name="guillemotleft" unicode="&#xab;" 
d="M219 73l-113 197l113 197h95l-109 -196l109 -198h-95zM419 73l-113 197l113 197h95l-109 -196l109 -198h-95z" />
    <glyph glyph-name="guillemotright" unicode="&#xbb;" 
d="M401 468l113 -197l-113 -197h-95l109 196l-109 198h95zM201 468l113 -197l-113 -197h-95l109 196l-109 198h95z" />
    <glyph glyph-name="ellipsis" unicode="&#x2026;" 
d="M60 117h113v-117h-113v117zM254 117h113v-117h-113v117zM447 117h113v-117h-113v117z" />
    <glyph glyph-name="Agrave" unicode="&#xc0;" 
d="M264 926l88 -145h-89l-90 145h91zM127 0h-97l233 700h97l230 -700h-104l-52 170h-253zM310 578l-104 -328h204z" />
    <glyph glyph-name="Atilde" unicode="&#xc3;" 
d="M364 873c17 0 21 10 21 33h67c2 -59 -18 -104 -72 -104c-45 0 -81 34 -118 34c-23 0 -29 -18 -31 -37h-67c3 58 25 107 87 107c44 0 85 -33 113 -33zM127 0h-97l233 700h97l230 -700h-104l-52 170h-253zM310 578l-104 -328h204z" />
    <glyph glyph-name="Otilde" unicode="&#xd5;" 
d="M364 873c17 0 21 10 21 33h67c2 -59 -18 -104 -72 -104c-45 0 -81 34 -118 34c-23 0 -29 -18 -31 -37h-67c3 58 25 107 87 107c44 0 85 -33 113 -33zM310 -12c-174 0 -257 147 -257 362s84 362 257 362c174 0 257 -147 257 -362s-84 -362 -257 -362zM310 71
c115 0 160 114 160 279c0 166 -45 279 -160 279s-160 -113 -160 -279c0 -165 45 -279 160 -279z" />
    <glyph glyph-name="OE" unicode="&#x152;" 
d="M34 350c0 208 96 350 259 350h290v-82h-176v-222h155v-80h-155v-234h186v-82h-300c-162 0 -259 144 -259 350zM293 83h23v534h-23c-106 0 -165 -109 -165 -267c0 -157 59 -267 165 -267z" />
    <glyph glyph-name="oe" unicode="&#x153;" 
d="M593 145c-17 -105 -79 -157 -157 -157c-66 0 -108 28 -137 80c-25 -51 -66 -80 -115 -80c-110 0 -170 111 -170 262s61 262 170 262c52 0 96 -27 120 -81c32 53 75 81 133 81c108 0 162 -99 162 -234v-49h-263c4 -111 35 -169 100 -169c51 0 74 48 80 101zM435 441
c-58 0 -90 -50 -97 -146h177c0 102 -32 146 -80 146zM186 437c-58 0 -85 -78 -85 -187c0 -110 27 -187 85 -187c56 0 82 77 82 187c0 109 -26 187 -82 187z" />
    <glyph glyph-name="endash" unicode="&#x2013;" 
d="M91 309h438v-76h-438v76z" />
    <glyph glyph-name="emdash" unicode="&#x2014;" 
d="M11 309h598v-76h-598v76z" />
    <glyph glyph-name="quotedblleft" unicode="&#x201c;" 
d="M196 700h90l-49 -240h-103zM394 700h90l-49 -240h-103z" />
    <glyph glyph-name="quotedblright" unicode="&#x201d;" 
d="M424 460h-90l49 240h103zM226 460h-90l49 240h103z" />
    <glyph glyph-name="quoteleft" unicode="&#x2018;" 
d="M295 700h90l-49 -240h-103z" />
    <glyph glyph-name="quoteright" unicode="&#x2019;" 
d="M324 460h-90l49 240h103z" />
    <glyph glyph-name="divide" unicode="&#xf7;" 
d="M261 591h99v-102h-99v102zM85 390h451v-79h-451v79zM261 212h99v-102h-99v102z" />
    <glyph glyph-name="lozenge" unicode="&#x25ca;" 
d="M64 364l206 336h81l206 -336l-202 -364h-89zM166 363l144 -270l144 270l-144 243z" />
    <glyph glyph-name="ydieresis" unicode="&#xff;" 
d="M191 582v119h86v-119h-86zM347 582v119h86v-119h-86zM58 500h95l160 -395l160 395h90l-230 -556c-32 -77 -66 -129 -171 -129h-88v75h88c54 0 73 25 88 63l17 44z" />
    <glyph glyph-name="Ydieresis" unicode="&#x178;" 
d="M189 782v119h86v-119h-86zM345 782v119h86v-119h-86zM23 700h103l184 -332l187 332h100l-239 -416v-284h-95v279z" />
    <glyph glyph-name="fraction" unicode="&#x2044;" 
d="M357 400l164 300h74l-165 -300h-73zM25 0l165 300h73l-164 -300h-74z" />
    <glyph glyph-name="currency" unicode="&#xa4;" 
d="M66 171l94 95c-14 25 -23 54 -23 85s9 59 23 85l-94 94l58 58l94 -92c26 16 58 26 91 26c34 0 66 -10 92 -27l95 93l58 -58l-95 -95c15 -25 23 -53 23 -84s-9 -59 -23 -84l95 -96l-58 -58l-95 94c-26 -17 -58 -27 -92 -27c-33 0 -64 10 -91 26l-94 -93zM405 351
c0 54 -43 98 -96 98c-54 0 -96 -44 -96 -98c0 -55 42 -99 96 -99c53 0 96 44 96 99z" />
    <glyph glyph-name="guilsinglleft" unicode="&#x2039;" 
d="M319 73l-113 197l113 197h95l-109 -196l109 -198h-95z" />
    <glyph glyph-name="guilsinglright" unicode="&#x203a;" 
d="M301 468l113 -197l-113 -197h-95l109 196l-109 198h95z" />
    <glyph glyph-name="daggerdbl" unicode="&#x2021;" 
d="M354 0h-88v202h-179v79h179v141h-179v78h179v200h88v-200h180v-78h-180v-141h180v-79h-180v-202z" />
    <glyph glyph-name="periodcentered" unicode="&#xb7;" 
d="M249 424h122v-126h-122v126z" />
    <glyph glyph-name="quotesinglbase" unicode="&#x201a;" 
d="M325 -113h-90l49 240h103z" />
    <glyph glyph-name="quotedblbase" unicode="&#x201e;" 
d="M424 -113h-90l49 240h103zM226 -113h-90l49 240h103z" />
    <glyph glyph-name="perthousand" unicode="&#x2030;" 
d="M165 415c-84 0 -119 70 -119 145c0 76 35 146 119 146c83 0 119 -70 119 -146c0 -75 -36 -145 -119 -145zM165 469c42 0 52 46 52 91s-10 91 -52 91s-52 -46 -52 -91s10 -91 52 -91zM54 343l512 174v-60l-512 -175v61zM165 -6c-84 0 -119 70 -119 145
c0 76 35 146 119 146c83 0 119 -70 119 -146c0 -75 -36 -145 -119 -145zM455 -6c-83 0 -119 70 -119 145c0 76 36 146 119 146c84 0 119 -70 119 -146c0 -75 -35 -145 -119 -145zM165 48c42 0 52 46 52 91s-10 92 -52 92s-52 -47 -52 -92s10 -91 52 -91zM455 48
c42 0 53 46 53 91s-11 92 -53 92s-52 -47 -52 -92s10 -91 52 -91z" />
    <glyph glyph-name="Acircumflex" unicode="&#xc2;" 
d="M262 926h96l90 -145h-84l-54 90l-57 -90h-81zM127 0h-97l233 700h97l230 -700h-104l-52 170h-253zM310 578l-104 -328h204z" />
    <glyph glyph-name="Ecircumflex" unicode="&#xca;" 
d="M273 926h96l90 -145h-84l-54 90l-57 -90h-81zM98 700h447v-82h-352v-222h312v-80h-312v-234h362v-82h-457v700z" />
    <glyph glyph-name="Aacute" unicode="&#xc1;" 
d="M357 926h89l-91 -145h-86zM127 0h-97l233 700h97l230 -700h-104l-52 170h-253zM310 578l-104 -328h204z" />
    <glyph glyph-name="Edieresis" unicode="&#xcb;" 
d="M201 782v119h86v-119h-86zM357 782v119h86v-119h-86zM98 700h447v-82h-352v-222h312v-80h-312v-234h362v-82h-457v700z" />
    <glyph glyph-name="Egrave" unicode="&#xc8;" 
d="M274 926l88 -145h-89l-90 145h91zM98 700h447v-82h-352v-222h312v-80h-312v-234h362v-82h-457v700z" />
    <glyph glyph-name="Iacute" unicode="&#xcd;" 
d="M356 926h89l-91 -145h-86zM81 77h182v546h-182v77h459v-77h-182v-546h182v-77h-459v77z" />
    <glyph glyph-name="Icircumflex" unicode="&#xce;" 
d="M262 926h96l90 -145h-84l-54 90l-57 -90h-81zM81 77h182v546h-182v77h459v-77h-182v-546h182v-77h-459v77z" />
    <glyph glyph-name="Idieresis" unicode="&#xcf;" 
d="M189 782v119h86v-119h-86zM345 782v119h86v-119h-86zM81 77h182v546h-182v77h459v-77h-182v-546h182v-77h-459v77z" />
    <glyph glyph-name="Igrave" unicode="&#xcc;" 
d="M263 926l88 -145h-89l-90 145h91zM81 77h182v546h-182v77h459v-77h-182v-546h182v-77h-459v77z" />
    <glyph glyph-name="Oacute" unicode="&#xd3;" 
d="M356 926h89l-91 -145h-86zM310 -12c-174 0 -257 147 -257 362s84 362 257 362c174 0 257 -147 257 -362s-84 -362 -257 -362zM310 71c115 0 160 114 160 279c0 166 -45 279 -160 279s-160 -113 -160 -279c0 -165 45 -279 160 -279z" />
    <glyph glyph-name="Ocircumflex" unicode="&#xd4;" 
d="M262 926h96l90 -145h-84l-54 90l-57 -90h-81zM310 -12c-174 0 -257 147 -257 362s84 362 257 362c174 0 257 -147 257 -362s-84 -362 -257 -362zM310 71c115 0 160 114 160 279c0 166 -45 279 -160 279s-160 -113 -160 -279c0 -165 45 -279 160 -279z" />
    <glyph glyph-name="Ograve" unicode="&#xd2;" 
d="M263 926l88 -145h-89l-90 145h91zM310 -12c-174 0 -257 147 -257 362s84 362 257 362c174 0 257 -147 257 -362s-84 -362 -257 -362zM310 71c115 0 160 114 160 279c0 166 -45 279 -160 279s-160 -113 -160 -279c0 -165 45 -279 160 -279z" />
    <glyph glyph-name="Uacute" unicode="&#xda;" 
d="M356 926h89l-91 -145h-86zM541 700v-477c0 -153 -103 -235 -230 -235s-232 82 -232 235v477h95v-477c0 -103 62 -152 137 -152c74 0 135 49 135 152v477h95z" />
    <glyph glyph-name="Ucircumflex" unicode="&#xdb;" 
d="M262 926h96l90 -145h-84l-54 90l-57 -90h-81zM541 700v-477c0 -153 -103 -235 -230 -235s-232 82 -232 235v477h95v-477c0 -103 62 -152 137 -152c74 0 135 49 135 152v477h95z" />
    <glyph glyph-name="Ugrave" unicode="&#xd9;" 
d="M263 926l88 -145h-89l-90 145h91zM541 700v-477c0 -153 -103 -235 -230 -235s-232 82 -232 235v477h95v-477c0 -103 62 -152 137 -152c74 0 135 49 135 152v477h95z" />
    <glyph glyph-name="dotlessi" unicode="&#x131;" 
d="M94 73h187v354h-187v73h276v-427h187v-73h-463v73z" />
    <glyph glyph-name="circumflex" unicode="&#x2c6;" 
d="M262 726h96l90 -145h-84l-54 90l-57 -90h-81z" />
    <glyph glyph-name="tilde" unicode="&#x2dc;" 
d="M366 673c17 0 21 10 21 33h67c2 -59 -18 -104 -72 -104c-45 0 -81 34 -118 34c-23 0 -29 -18 -31 -37h-67c3 58 25 107 87 107c44 0 85 -33 113 -33z" />
    <glyph glyph-name="macron" unicode="&#xaf;" 
d="M185 613v71h250v-71h-250z" />
    <glyph glyph-name="breve" unicode="&#x2d8;" 
d="M311 640c42 0 65 31 65 84h69c0 -70 -30 -145 -135 -145s-135 75 -135 145h71c0 -52 22 -84 65 -84z" />
    <glyph glyph-name="dotaccent" unicode="&#x2d9;" 
d="M264 582v119h92v-119h-92z" />
    <glyph glyph-name="ring" unicode="&#x2da;" 
d="M310 790c72 0 115 -49 115 -106c0 -56 -42 -105 -115 -105c-74 0 -115 49 -115 105c0 57 41 106 115 106zM310 743c-37 0 -54 -27 -54 -59c0 -33 17 -59 54 -59c36 0 54 26 54 59c0 32 -18 59 -54 59z" />
    <glyph glyph-name="cedilla" unicode="&#xb8;" 
d="M414 -134c0 -55 -38 -92 -106 -92c-63 0 -97 34 -102 81l66 3c2 -20 16 -33 37 -33c26 0 39 18 39 39c0 23 -15 39 -41 39c-13 0 -26 -5 -36 -18l-39 29l72 100l62 -3l-45 -59c59 -2 93 -37 93 -86z" />
    <glyph glyph-name="hungarumlaut" unicode="&#x2dd;" 
d="M230 726h87l-87 -145h-84zM388 726h88l-100 -145h-85z" />
    <glyph glyph-name="ogonek" unicode="&#x2db;" 
d="M326 -226c-60 0 -97 39 -97 87c0 60 34 98 113 156l49 -17c-64 -55 -89 -85 -89 -121c0 -30 20 -39 46 -39c11 0 21 2 34 7v-60c-14 -7 -30 -13 -56 -13z" />
    <glyph glyph-name="caron" unicode="&#x2c7;" 
d="M358 581h-96l-90 145h84l54 -90l57 90h81z" />
    <glyph glyph-name="uni00A0" unicode="&#xa0;" 
 />
    <glyph glyph-name="Amacron" unicode="&#x100;" 
d="M185 813v71h250v-71h-250zM127 0h-97l233 700h97l230 -700h-104l-52 170h-253zM310 578l-104 -328h204z" />
    <glyph glyph-name="Abreve" unicode="&#x102;" 
d="M311 840c42 0 65 31 65 84h69c0 -70 -30 -145 -135 -145s-135 75 -135 145h71c0 -52 22 -84 65 -84zM127 0h-97l233 700h97l230 -700h-104l-52 170h-253zM310 578l-104 -328h204z" />
    <glyph glyph-name="Aogonek" unicode="&#x104;" 
d="M127 0h-97l233 700h97l230 -700c-63 -55 -88 -85 -88 -121c0 -30 20 -39 46 -39c11 0 21 2 34 7v-60c-14 -7 -30 -13 -56 -13c-60 0 -97 39 -97 87c0 54 27 90 90 139h-33l-52 170h-253zM310 578l-104 -328h204z" />
    <glyph glyph-name="Cacute" unicode="&#x106;" 
d="M361 926h89l-91 -145h-86zM561 454l-93 -14c-17 115 -60 189 -152 189c-114 0 -159 -114 -159 -279s45 -279 159 -279c89 0 132 73 150 178l93 -14c-25 -152 -106 -247 -244 -247c-174 0 -256 147 -256 362s84 362 257 362c141 0 223 -98 245 -258z" />
    <glyph glyph-name="Ccircumflex" unicode="&#x108;" 
d="M267 926h96l90 -145h-84l-54 90l-57 -90h-81zM561 454l-93 -14c-17 115 -60 189 -152 189c-114 0 -159 -114 -159 -279s45 -279 159 -279c89 0 132 73 150 178l93 -14c-25 -152 -106 -247 -244 -247c-174 0 -256 147 -256 362s84 362 257 362c141 0 223 -98 245 -258z
" />
    <glyph glyph-name="Cdotaccent" unicode="&#x10a;" 
d="M270 782v119h92v-119h-92zM561 454l-93 -14c-17 115 -60 189 -152 189c-114 0 -159 -114 -159 -279s45 -279 159 -279c89 0 132 73 150 178l93 -14c-25 -152 -106 -247 -244 -247c-174 0 -256 147 -256 362s84 362 257 362c141 0 223 -98 245 -258z" />
    <glyph glyph-name="Ccaron" unicode="&#x10c;" 
d="M364 781h-96l-90 145h84l54 -90l57 90h81zM561 454l-93 -14c-17 115 -60 189 -152 189c-114 0 -159 -114 -159 -279s45 -279 159 -279c89 0 132 73 150 178l93 -14c-25 -152 -106 -247 -244 -247c-174 0 -256 147 -256 362s84 362 257 362c141 0 223 -98 245 -258z" />
    <glyph glyph-name="Dcaron" unicode="&#x10e;" 
d="M340 781h-96l-90 145h84l54 -90l57 90h81zM78 700h186c190 0 303 -138 303 -341c0 -211 -114 -359 -303 -359h-186v700zM265 617h-92v-534h92c130 0 205 114 205 276c0 153 -75 258 -205 258z" />
    <glyph glyph-name="Emacron" unicode="&#x112;" 
d="M197 813v71h250v-71h-250zM98 700h447v-82h-352v-222h312v-80h-312v-234h362v-82h-457v700z" />
    <glyph glyph-name="Ebreve" unicode="&#x114;" 
d="M322 840c42 0 65 31 65 84h69c0 -70 -30 -145 -135 -145s-135 75 -135 145h71c0 -52 22 -84 65 -84zM98 700h447v-82h-352v-222h312v-80h-312v-234h362v-82h-457v700z" />
    <glyph glyph-name="Edotaccent" unicode="&#x116;" 
d="M276 782v119h92v-119h-92zM98 700h447v-82h-352v-222h312v-80h-312v-234h362v-82h-457v700z" />
    <glyph glyph-name="Eogonek" unicode="&#x118;" 
d="M490 -226c-60 0 -97 39 -97 87c0 54 27 90 90 139h-385v700h447v-82h-352v-222h312v-80h-312v-234h362v-82c-64 -55 -89 -85 -89 -121c0 -30 20 -39 46 -39c11 0 21 2 34 7v-60c-14 -7 -30 -13 -56 -13z" />
    <glyph glyph-name="Ecaron" unicode="&#x11a;" 
d="M370 781h-96l-90 145h84l54 -90l57 90h81zM98 700h447v-82h-352v-222h312v-80h-312v-234h362v-82h-457v700z" />
    <glyph glyph-name="Gcircumflex" unicode="&#x11c;" 
d="M260 926h96l90 -145h-84l-54 90l-57 -90h-81zM53 346c0 217 90 366 258 366c128 0 202 -77 232 -223l-95 -17c-23 106 -64 158 -137 158c-110 0 -160 -116 -160 -284c0 -158 61 -275 166 -275c108 0 148 89 148 181v44h-134v79h222v-375h-85v76c-30 -52 -85 -88 -162 -88
c-165 0 -253 154 -253 358z" />
    <glyph glyph-name="Gbreve" unicode="&#x11e;" 
d="M308 840c42 0 65 31 65 84h69c0 -70 -30 -145 -135 -145s-135 75 -135 145h71c0 -52 22 -84 65 -84zM53 346c0 217 90 366 258 366c128 0 202 -77 232 -223l-95 -17c-23 106 -64 158 -137 158c-110 0 -160 -116 -160 -284c0 -158 61 -275 166 -275c108 0 148 89 148 181
v44h-134v79h222v-375h-85v76c-30 -52 -85 -88 -162 -88c-165 0 -253 154 -253 358z" />
    <glyph glyph-name="Gdotaccent" unicode="&#x120;" 
d="M262 782v119h92v-119h-92zM53 346c0 217 90 366 258 366c128 0 202 -77 232 -223l-95 -17c-23 106 -64 158 -137 158c-110 0 -160 -116 -160 -284c0 -158 61 -275 166 -275c108 0 148 89 148 181v44h-134v79h222v-375h-85v76c-30 -52 -85 -88 -162 -88
c-165 0 -253 154 -253 358z" />
    <glyph glyph-name="uni0122" unicode="&#x122;" 
d="M53 346c0 217 90 366 258 366c128 0 202 -77 232 -223l-95 -17c-23 106 -64 158 -137 158c-110 0 -160 -116 -160 -284c0 -158 61 -275 166 -275c108 0 148 89 148 181v44h-134v79h222v-375h-85v76c-30 -52 -85 -88 -162 -88c-165 0 -253 154 -253 358zM266 -67h86
l-52 -153h-80z" />
    <glyph glyph-name="Hcircumflex" unicode="&#x124;" 
d="M261 926h96l90 -145h-84l-54 90l-57 -90h-81zM78 700h95v-302h274v302h95v-700h-95v315h-274v-315h-95v700z" />
    <glyph glyph-name="Itilde" unicode="&#x128;" 
d="M364 873c17 0 21 10 21 33h67c2 -59 -18 -104 -72 -104c-45 0 -81 34 -118 34c-23 0 -29 -18 -31 -37h-67c3 58 25 107 87 107c44 0 85 -33 113 -33zM81 77h182v546h-182v77h459v-77h-182v-546h182v-77h-459v77z" />
    <glyph glyph-name="Imacron" unicode="&#x12a;" 
d="M185 813v71h250v-71h-250zM81 77h182v546h-182v77h459v-77h-182v-546h182v-77h-459v77z" />
    <glyph glyph-name="Iogonek" unicode="&#x12e;" 
d="M81 77h182v546h-182v77h459v-77h-182v-546h182v-77c-64 -55 -89 -85 -89 -121c0 -30 20 -39 46 -39c11 0 21 2 34 7v-60c-14 -7 -30 -13 -56 -13c-60 0 -97 39 -97 87c0 54 27 90 90 139h-387v77z" />
    <glyph glyph-name="Idotaccent" unicode="&#x130;" 
d="M264 782v119h92v-119h-92zM81 77h182v546h-182v77h459v-77h-182v-546h182v-77h-459v77z" />
    <glyph glyph-name="Jcircumflex" unicode="&#x134;" 
d="M352 926h96l90 -145h-84l-54 90l-57 -90h-81zM197 700h330v-473c0 -155 -72 -239 -221 -239c-148 0 -224 85 -224 240v26l93 19v-39c0 -113 41 -166 131 -166s126 53 126 154v397h-235v81z" />
    <glyph glyph-name="uni0136" unicode="&#x136;" 
d="M608 0h-113l-220 320l-102 -117v-203h-95v700h95v-378l314 378h112l-260 -310zM289 -67h86l-52 -153h-80z" />
    <glyph glyph-name="Lacute" unicode="&#x139;" 
d="M196 926h89l-91 -145h-86zM104 700h95v-617h369v-83h-464v700z" />
    <glyph glyph-name="uni013B" unicode="&#x13b;" 
d="M104 700h95v-617h369v-83h-464v700zM291 -67h86l-52 -153h-80z" />
    <glyph glyph-name="Lcaron" unicode="&#x13d;" 
d="M104 700h95v-617h369v-83h-464v700zM281 700h78l-38 -162h-74z" />
    <glyph glyph-name="Nacute" unicode="&#x143;" 
d="M356 926h89l-91 -145h-86zM78 700h106l267 -506v506h91v-700h-84l-289 548v-548h-91v700z" />
    <glyph glyph-name="uni0145" unicode="&#x145;" 
d="M78 700h106l267 -506v506h91v-700h-84l-289 548v-548h-91v700zM266 -67h86l-52 -153h-80z" />
    <glyph glyph-name="Ncaron" unicode="&#x147;" 
d="M358 781h-96l-90 145h84l54 -90l57 90h81zM78 700h106l267 -506v506h91v-700h-84l-289 548v-548h-91v700z" />
    <glyph glyph-name="Omacron" unicode="&#x14c;" 
d="M185 813v71h250v-71h-250zM310 -12c-174 0 -257 147 -257 362s84 362 257 362c174 0 257 -147 257 -362s-84 -362 -257 -362zM310 71c115 0 160 114 160 279c0 166 -45 279 -160 279s-160 -113 -160 -279c0 -165 45 -279 160 -279z" />
    <glyph glyph-name="Obreve" unicode="&#x14e;" 
d="M311 840c42 0 65 31 65 84h69c0 -70 -30 -145 -135 -145s-135 75 -135 145h71c0 -52 22 -84 65 -84zM310 -12c-174 0 -257 147 -257 362s84 362 257 362c174 0 257 -147 257 -362s-84 -362 -257 -362zM310 71c115 0 160 114 160 279c0 166 -45 279 -160 279
s-160 -113 -160 -279c0 -165 45 -279 160 -279z" />
    <glyph glyph-name="Ohungarumlaut" unicode="&#x150;" 
d="M275 926h87l-87 -145h-84zM433 926h88l-100 -145h-85zM310 -12c-174 0 -257 147 -257 362s84 362 257 362c174 0 257 -147 257 -362s-84 -362 -257 -362zM310 71c115 0 160 114 160 279c0 166 -45 279 -160 279s-160 -113 -160 -279c0 -165 45 -279 160 -279z" />
    <glyph glyph-name="Racute" unicode="&#x154;" 
d="M341 926h89l-91 -145h-86zM552 0h-95l-10 182c-4 80 -65 95 -135 95h-139v-277h-95v700h239c154 0 236 -90 236 -193c0 -79 -42 -148 -112 -184c55 -19 96 -60 101 -142zM310 619h-137v-262h136c91 0 147 63 147 142c0 64 -46 120 -146 120z" />
    <glyph glyph-name="uni0156" unicode="&#x156;" 
d="M552 0h-95l-10 182c-4 80 -65 95 -135 95h-139v-277h-95v700h239c154 0 236 -90 236 -193c0 -79 -42 -148 -112 -184c55 -19 96 -60 101 -142zM310 619h-137v-262h136c91 0 147 63 147 142c0 64 -46 120 -146 120zM270 -67h86l-52 -153h-80z" />
    <glyph glyph-name="Rcaron" unicode="&#x158;" 
d="M344 781h-96l-90 145h84l54 -90l57 90h81zM552 0h-95l-10 182c-4 80 -65 95 -135 95h-139v-277h-95v700h239c154 0 236 -90 236 -193c0 -79 -42 -148 -112 -184c55 -19 96 -60 101 -142zM310 619h-137v-262h136c91 0 147 63 147 142c0 64 -46 120 -146 120z" />
    <glyph glyph-name="Sacute" unicode="&#x15a;" 
d="M352 926h89l-91 -145h-86zM568 197c0 -104 -81 -209 -242 -209c-166 0 -271 88 -274 228l94 12c6 -112 76 -161 180 -161c114 0 145 73 145 125c0 68 -41 95 -121 112l-93 20c-87 19 -184 62 -184 195c0 92 76 193 232 193c169 0 239 -99 249 -203l-95 -12
c-12 105 -78 136 -154 136c-110 0 -138 -65 -138 -112c0 -69 42 -98 112 -113l108 -23c115 -24 181 -79 181 -188z" />
    <glyph glyph-name="Scircumflex" unicode="&#x15c;" 
d="M258 926h96l90 -145h-84l-54 90l-57 -90h-81zM568 197c0 -104 -81 -209 -242 -209c-166 0 -271 88 -274 228l94 12c6 -112 76 -161 180 -161c114 0 145 73 145 125c0 68 -41 95 -121 112l-93 20c-87 19 -184 62 -184 195c0 92 76 193 232 193c169 0 239 -99 249 -203
l-95 -12c-12 105 -78 136 -154 136c-110 0 -138 -65 -138 -112c0 -69 42 -98 112 -113l108 -23c115 -24 181 -79 181 -188z" />
    <glyph glyph-name="Scedilla" unicode="&#x15e;" 
d="M415 -134c0 -55 -38 -92 -106 -92c-63 0 -97 34 -102 81l66 3c2 -20 16 -33 37 -33c26 0 39 18 39 39c0 23 -15 39 -41 39c-13 0 -26 -5 -36 -18l-39 29l54 76c-143 12 -232 97 -235 226l94 12c6 -112 76 -161 180 -161c114 0 145 73 145 125c0 68 -41 95 -121 112
l-93 20c-87 19 -184 62 -184 195c0 92 76 193 232 193c169 0 239 -99 249 -203l-95 -12c-12 105 -78 136 -154 136c-110 0 -138 -65 -138 -112c0 -69 42 -98 112 -113l108 -23c115 -24 181 -79 181 -188c0 -99 -73 -198 -218 -208l-28 -37c59 -2 93 -37 93 -86z" />
    <glyph glyph-name="uni0218" unicode="&#x218;" 
d="M568 197c0 -104 -81 -209 -242 -209c-166 0 -271 88 -274 228l94 12c6 -112 76 -161 180 -161c114 0 145 73 145 125c0 68 -41 95 -121 112l-93 20c-87 19 -184 62 -184 195c0 92 76 193 232 193c169 0 239 -99 249 -203l-95 -12c-12 105 -78 136 -154 136
c-110 0 -138 -65 -138 -112c0 -69 42 -98 112 -113l108 -23c115 -24 181 -79 181 -188zM282 -67h86l-52 -153h-80z" />
    <glyph glyph-name="uni0162" unicode="&#x162;" 
d="M399 -134c0 -55 -38 -92 -106 -92c-63 0 -97 34 -102 81l66 3c2 -20 16 -33 37 -33c26 0 39 18 39 39c0 23 -15 39 -41 39c-13 0 -26 -5 -36 -18l-39 29l62 86h-16v618h-219v82h532v-82h-218v-618h-15l-37 -48c59 -2 93 -37 93 -86z" />
    <glyph glyph-name="Tcaron" unicode="&#x164;" 
d="M358 781h-96l-90 145h84l54 -90l57 90h81zM44 700h532v-82h-218v-618h-95v618h-219v82z" />
    <glyph glyph-name="uni021A" unicode="&#x21a;" 
d="M44 700h532v-82h-218v-618h-95v618h-219v82zM266 -67h86l-52 -153h-80z" />
    <glyph glyph-name="Utilde" unicode="&#x168;" 
d="M364 873c17 0 21 10 21 33h67c2 -59 -18 -104 -72 -104c-45 0 -81 34 -118 34c-23 0 -29 -18 -31 -37h-67c3 58 25 107 87 107c44 0 85 -33 113 -33zM541 700v-477c0 -153 -103 -235 -230 -235s-232 82 -232 235v477h95v-477c0 -103 62 -152 137 -152
c74 0 135 49 135 152v477h95z" />
    <glyph glyph-name="Umacron" unicode="&#x16a;" 
d="M185 813v71h250v-71h-250zM541 700v-477c0 -153 -103 -235 -230 -235s-232 82 -232 235v477h95v-477c0 -103 62 -152 137 -152c74 0 135 49 135 152v477h95z" />
    <glyph glyph-name="Ubreve" unicode="&#x16c;" 
d="M311 840c42 0 65 31 65 84h69c0 -70 -30 -145 -135 -145s-135 75 -135 145h71c0 -52 22 -84 65 -84zM541 700v-477c0 -153 -103 -235 -230 -235s-232 82 -232 235v477h95v-477c0 -103 62 -152 137 -152c74 0 135 49 135 152v477h95z" />
    <glyph glyph-name="Uring" unicode="&#x16e;" 
d="M310 990c72 0 115 -49 115 -106c0 -56 -42 -105 -115 -105c-74 0 -115 49 -115 105c0 57 41 106 115 106zM310 943c-37 0 -54 -27 -54 -59c0 -33 17 -59 54 -59c36 0 54 26 54 59c0 32 -18 59 -54 59zM541 700v-477c0 -153 -103 -235 -230 -235s-232 82 -232 235v477h95
v-477c0 -103 62 -152 137 -152c74 0 135 49 135 152v477h95z" />
    <glyph glyph-name="Uhungarumlaut" unicode="&#x170;" 
d="M275 926h87l-87 -145h-84zM433 926h88l-100 -145h-85zM541 700v-477c0 -153 -103 -235 -230 -235s-232 82 -232 235v477h95v-477c0 -103 62 -152 137 -152c74 0 135 49 135 152v477h95z" />
    <glyph glyph-name="Uogonek" unicode="&#x172;" 
d="M541 223c0 -75 -25 -139 -72 -180c-54 -49 -106 -78 -106 -152c0 -39 23 -51 54 -51c11 0 21 2 33 7v-60c-13 -7 -30 -13 -56 -13c-64 0 -104 40 -104 95c0 46 16 79 54 121c-11 -1 -22 -2 -33 -2c-127 0 -232 82 -232 235v477h95v-477c0 -104 62 -152 137 -152
c74 0 135 48 135 152v477h95v-477z" />
    <glyph glyph-name="Wcircumflex" unicode="&#x174;" 
d="M262 926h96l90 -145h-84l-54 90l-57 -90h-81zM22 700h92l68 -536l88 396h82l91 -391l67 531h88l-99 -700h-90l-99 432l-98 -432h-90z" />
    <glyph glyph-name="Wgrave" unicode="&#x1e80;" 
d="M263 926l88 -145h-89l-90 145h91zM22 700h92l68 -536l88 396h82l91 -391l67 531h88l-99 -700h-90l-99 432l-98 -432h-90z" />
    <glyph glyph-name="Wacute" unicode="&#x1e82;" 
d="M356 926h89l-91 -145h-86zM22 700h92l68 -536l88 396h82l91 -391l67 531h88l-99 -700h-90l-99 432l-98 -432h-90z" />
    <glyph glyph-name="Wdieresis" unicode="&#x1e84;" 
d="M189 782v119h86v-119h-86zM345 782v119h86v-119h-86zM22 700h92l68 -536l88 396h82l91 -391l67 531h88l-99 -700h-90l-99 432l-98 -432h-90z" />
    <glyph glyph-name="Ycircumflex" unicode="&#x176;" 
d="M262 926h96l90 -145h-84l-54 90l-57 -90h-81zM23 700h103l184 -332l187 332h100l-239 -416v-284h-95v279z" />
    <glyph glyph-name="Ygrave" unicode="&#x1ef2;" 
d="M263 926l88 -145h-89l-90 145h91zM23 700h103l184 -332l187 332h100l-239 -416v-284h-95v279z" />
    <glyph glyph-name="Zacute" unicode="&#x179;" 
d="M363 926h89l-91 -145h-86zM576 81v-81h-515v74l386 545h-373v81h488v-74l-386 -545h400z" />
    <glyph glyph-name="Zdotaccent" unicode="&#x17b;" 
d="M272 782v119h92v-119h-92zM576 81v-81h-515v74l386 545h-373v81h488v-74l-386 -545h400z" />
    <glyph glyph-name="Dcroat" unicode="&#x110;" 
d="M18 387h72v313h174c191 0 303 -138 303 -341c0 -211 -113 -359 -303 -359h-174v311h-72v76zM265 617h-80v-230h161v-76h-161v-228h80c130 0 205 114 205 276c0 153 -75 258 -205 258z" />
    <glyph glyph-name="Hbar" unicode="&#x126;" 
d="M22 582h56v118h95v-118h274v118h95v-118h56v-73h-56v-509h-95v315h-274v-315h-95v509h-56v73zM173 398h274v111h-274v-111z" />
    <glyph glyph-name="IJ" unicode="&#x132;" 
d="M82 700h95v-300h-95v300zM535 700v-474c0 -155 -72 -238 -223 -238c-153 0 -229 85 -229 240v26l93 19v-41c0 -111 42 -164 136 -164c91 0 128 52 128 153v479h95z" />
    <glyph glyph-name="Ldot" unicode="&#x13f;" 
d="M104 700h95v-617h369v-83h-464v700zM403 419h117v-121h-117v121z" />
    <glyph glyph-name="Tbar" unicode="&#x166;" 
d="M69 388h194v230h-219v82h532v-82h-218v-230h193v-76h-193v-312h-95v312h-194v76z" />
    <glyph glyph-name="uni1E9E" unicode="&#x1e9e;" 
d="M586 211c0 -121 -89 -211 -226 -211h-118v81h110c95 0 142 56 142 132c0 68 -40 113 -117 113c-26 0 -50 -10 -65 -21l-53 48l172 269c-25 3 -67 7 -100 7c-122 0 -168 -79 -168 -205v-424h-93v430c0 181 89 282 253 282c76 0 139 -8 203 -19v-74l-143 -220
c7 1 11 1 16 1c115 0 187 -79 187 -189z" />
    <glyph glyph-name="uni0394" unicode="&#x394;" 
d="M34 65l229 635h97l226 -635v-65h-552v65zM137 81h339l-168 504z" />
    <glyph glyph-name="uni03A9" unicode="&#x3a9;" 
d="M54 77h120c-86 58 -130 165 -130 301c0 186 88 334 266 334c177 0 266 -148 266 -334c0 -136 -51 -242 -130 -301h120v-77h-209v95c78 48 123 146 123 284c0 137 -60 250 -170 250s-170 -113 -170 -250c0 -139 45 -236 123 -284v-95h-209v77z" />
    <glyph glyph-name="amacron" unicode="&#x101;" 
d="M184 613v71h250v-71h-250zM563 0h-49c-35 0 -89 15 -95 71c-34 -53 -88 -83 -158 -83c-119 0 -174 72 -174 146c0 89 61 139 151 154l146 25c27 5 31 22 31 36c0 21 -11 92 -109 92c-92 0 -114 -57 -122 -93l-84 10c11 70 72 154 209 154c138 0 193 -86 193 -175v-225
c0 -26 9 -38 37 -38h24v-74zM175 140c0 -45 29 -81 96 -81c81 0 145 63 145 163v29l-160 -28c-60 -10 -81 -44 -81 -83z" />
    <glyph glyph-name="abreve" unicode="&#x103;" 
d="M310 640c42 0 65 31 65 84h69c0 -70 -30 -145 -135 -145s-135 75 -135 145h71c0 -52 22 -84 65 -84zM563 0h-49c-35 0 -89 15 -95 71c-34 -53 -88 -83 -158 -83c-119 0 -174 72 -174 146c0 89 61 139 151 154l146 25c27 5 31 22 31 36c0 21 -11 92 -109 92
c-92 0 -114 -57 -122 -93l-84 10c11 70 72 154 209 154c138 0 193 -86 193 -175v-225c0 -26 9 -38 37 -38h24v-74zM175 140c0 -45 29 -81 96 -81c81 0 145 63 145 163v29l-160 -28c-60 -10 -81 -44 -81 -83z" />
    <glyph glyph-name="aogonek" unicode="&#x105;" 
d="M498 -226c-60 0 -97 39 -97 87c0 55 28 91 93 141c-33 5 -70 23 -75 69c-34 -53 -88 -83 -158 -83c-119 0 -174 72 -174 146c0 89 61 139 151 154l146 25c27 5 31 22 31 36c0 21 -11 92 -109 92c-92 0 -114 -57 -122 -93l-84 10c11 70 72 154 209 154
c138 0 193 -86 193 -175v-225c0 -26 9 -38 37 -38h24v-74c-64 -55 -89 -85 -89 -121c0 -30 20 -39 46 -39c11 0 21 2 34 7v-60c-14 -7 -30 -13 -56 -13zM175 140c0 -45 29 -81 96 -81c81 0 145 63 145 163v29l-160 -28c-60 -10 -81 -44 -81 -83z" />
    <glyph glyph-name="cacute" unicode="&#x107;" 
d="M368 726h89l-91 -145h-86zM323 64c76 0 121 46 130 120l87 -10c-13 -112 -95 -186 -218 -186c-154 0 -235 110 -235 260c0 152 85 264 235 264c129 0 206 -70 221 -184l-90 -10c-13 76 -55 118 -132 118c-100 0 -143 -82 -143 -188c0 -105 45 -184 145 -184z" />
    <glyph glyph-name="ccircumflex" unicode="&#x109;" 
d="M273 726h96l90 -145h-84l-54 90l-57 -90h-81zM323 64c76 0 121 46 130 120l87 -10c-13 -112 -95 -186 -218 -186c-154 0 -235 110 -235 260c0 152 85 264 235 264c129 0 206 -70 221 -184l-90 -10c-13 76 -55 118 -132 118c-100 0 -143 -82 -143 -188
c0 -105 45 -184 145 -184z" />
    <glyph glyph-name="cdotaccent" unicode="&#x10b;" 
d="M275 582v119h92v-119h-92zM323 64c76 0 121 46 130 120l87 -10c-13 -112 -95 -186 -218 -186c-154 0 -235 110 -235 260c0 152 85 264 235 264c129 0 206 -70 221 -184l-90 -10c-13 76 -55 118 -132 118c-100 0 -143 -82 -143 -188c0 -105 45 -184 145 -184z" />
    <glyph glyph-name="ccaron" unicode="&#x10d;" 
d="M370 581h-96l-90 145h84l54 -90l57 90h81zM323 64c76 0 121 46 130 120l87 -10c-13 -112 -95 -186 -218 -186c-154 0 -235 110 -235 260c0 152 85 264 235 264c129 0 206 -70 221 -184l-90 -10c-13 76 -55 118 -132 118c-100 0 -143 -82 -143 -188
c0 -105 45 -184 145 -184z" />
    <glyph glyph-name="dcaron" unicode="&#x10f;" 
d="M250 -12c-129 0 -209 104 -209 258c0 155 79 266 209 266c67 0 115 -32 147 -81v269h85v-700h-83v75c-33 -52 -80 -87 -149 -87zM564 700h76l-38 -162h-72zM263 65c86 0 136 76 136 185c0 106 -51 186 -136 186c-88 0 -135 -78 -135 -186c0 -107 47 -185 135 -185z" />
    <glyph glyph-name="emacron" unicode="&#x113;" 
d="M195 613v71h250v-71h-250zM323 60c80 0 114 45 127 101l81 -16c-19 -106 -109 -157 -208 -157c-163 0 -242 99 -242 262c0 154 89 262 239 262c142 0 220 -96 220 -240v-43h-369c5 -111 54 -169 152 -169zM319 441c-85 0 -135 -51 -146 -146h276c-7 104 -54 146 -130 146
z" />
    <glyph glyph-name="ebreve" unicode="&#x115;" 
d="M321 640c42 0 65 31 65 84h69c0 -70 -30 -145 -135 -145s-135 75 -135 145h71c0 -52 22 -84 65 -84zM323 60c80 0 114 45 127 101l81 -16c-19 -106 -109 -157 -208 -157c-163 0 -242 99 -242 262c0 154 89 262 239 262c142 0 220 -96 220 -240v-43h-369
c5 -111 54 -169 152 -169zM319 441c-85 0 -135 -51 -146 -146h276c-7 104 -54 146 -130 146z" />
    <glyph glyph-name="edotaccent" unicode="&#x117;" 
d="M274 582v119h92v-119h-92zM323 60c80 0 114 45 127 101l81 -16c-19 -106 -109 -157 -208 -157c-163 0 -242 99 -242 262c0 154 89 262 239 262c142 0 220 -96 220 -240v-43h-369c5 -111 54 -169 152 -169zM319 441c-85 0 -135 -51 -146 -146h276c-7 104 -54 146 -130 146
z" />
    <glyph glyph-name="eogonek" unicode="&#x119;" 
d="M81 250c0 154 89 262 239 262c142 0 220 -96 220 -240v-43h-369c5 -111 54 -169 152 -169c80 0 114 45 127 101l81 -16c-14 -73 -49 -100 -84 -125c-43 -32 -93 -63 -93 -128c0 -40 25 -51 57 -51c10 0 19 1 31 7v-61c-13 -7 -30 -13 -56 -13c-64 0 -105 44 -105 97
c0 43 17 78 58 118c-6 -1 -11 -1 -17 -1c-162 0 -241 99 -241 262zM319 441c-85 0 -135 -51 -146 -146h276c-7 104 -54 146 -130 146z" />
    <glyph glyph-name="ecaron" unicode="&#x11b;" 
d="M369 581h-96l-90 145h84l54 -90l57 90h81zM323 60c80 0 114 45 127 101l81 -16c-19 -106 -109 -157 -208 -157c-163 0 -242 99 -242 262c0 154 89 262 239 262c142 0 220 -96 220 -240v-43h-369c5 -111 54 -169 152 -169zM319 441c-85 0 -135 -51 -146 -146h276
c-7 104 -54 146 -130 146z" />
    <glyph glyph-name="gcircumflex" unicode="&#x11d;" 
d="M256 726h96l90 -145h-84l-54 90l-57 -90h-81zM287 30c-133 0 -215 96 -215 240c0 140 81 242 215 242c71 0 122 -28 156 -73v61h87v-477c0 -113 -61 -220 -224 -220c-158 0 -216 86 -224 168l89 9c7 -38 25 -103 135 -103c118 0 135 91 135 151v78
c-33 -45 -84 -76 -154 -76zM304 106c85 0 139 67 139 165c0 93 -55 166 -139 166c-96 0 -141 -70 -141 -166c0 -95 45 -165 141 -165z" />
    <glyph glyph-name="gbreve" unicode="&#x11f;" 
d="M305 640c42 0 65 31 65 84h69c0 -70 -30 -145 -135 -145s-135 75 -135 145h71c0 -52 22 -84 65 -84zM287 30c-133 0 -215 96 -215 240c0 140 81 242 215 242c71 0 122 -28 156 -73v61h87v-477c0 -113 -61 -220 -224 -220c-158 0 -216 86 -224 168l89 9
c7 -38 25 -103 135 -103c118 0 135 91 135 151v78c-33 -45 -84 -76 -154 -76zM304 106c85 0 139 67 139 165c0 93 -55 166 -139 166c-96 0 -141 -70 -141 -166c0 -95 45 -165 141 -165z" />
    <glyph glyph-name="gdotaccent" unicode="&#x121;" 
d="M258 582v119h92v-119h-92zM287 30c-133 0 -215 96 -215 240c0 140 81 242 215 242c71 0 122 -28 156 -73v61h87v-477c0 -113 -61 -220 -224 -220c-158 0 -216 86 -224 168l89 9c7 -38 25 -103 135 -103c118 0 135 91 135 151v78c-33 -45 -84 -76 -154 -76zM304 106
c85 0 139 67 139 165c0 93 -55 166 -139 166c-96 0 -141 -70 -141 -166c0 -95 45 -165 141 -165z" />
    <glyph glyph-name="uni0123" unicode="&#x123;" 
d="M360 581h-94l58 144h82zM287 30c-133 0 -215 96 -215 240c0 140 81 242 215 242c71 0 122 -28 156 -73v61h87v-477c0 -113 -61 -220 -224 -220c-158 0 -216 86 -224 168l89 9c7 -38 25 -103 135 -103c118 0 135 91 135 151v78c-33 -45 -84 -76 -154 -76zM304 106
c85 0 139 67 139 165c0 93 -55 166 -139 166c-96 0 -141 -70 -141 -166c0 -95 45 -165 141 -165z" />
    <glyph glyph-name="hcircumflex" unicode="&#x125;" 
d="M95 910h96l90 -145h-84l-54 90l-57 -90h-81zM529 0h-89v308c0 81 -43 127 -118 127c-88 0 -134 -55 -134 -159v-276h-89v700h89v-261c31 44 81 73 153 73c129 0 188 -85 188 -188v-324z" />
    <glyph glyph-name="itilde" unicode="&#x129;" 
d="M295 673c17 0 21 10 21 33h67c2 -59 -18 -104 -72 -104c-45 0 -81 34 -118 34c-23 0 -29 -18 -31 -37h-67c3 58 25 107 87 107c44 0 85 -33 113 -33zM94 73h187v354h-187v73h276v-427h187v-73h-463v73z" />
    <glyph glyph-name="imacron" unicode="&#x12b;" 
d="M120 613v71h250v-71h-250zM94 73h187v354h-187v73h276v-427h187v-73h-463v73z" />
    <glyph glyph-name="iogonek" unicode="&#x12f;" 
d="M271 732h99v-141h-99v141zM94 73h187v354h-187v73h276v-427h187v-73c-64 -55 -89 -85 -89 -121c0 -30 20 -39 46 -39c11 0 21 2 34 7v-60c-14 -7 -30 -13 -56 -13c-60 0 -97 39 -97 87c0 54 27 90 90 139h-391v73z" />
    <glyph glyph-name="jcircumflex" unicode="&#x135;" 
d="M237 726h96l90 -145h-84l-54 90l-57 -90h-81zM451 500v-503c0 -114 -43 -182 -163 -182h-185v74h183c67 0 76 45 76 113v425h-263v73h352z" />
    <glyph glyph-name="uni0137" unicode="&#x137;" 
d="M585 0h-106l-179 260l-108 -98v-162h-89v700h89v-435l255 235h113l-197 -183zM290 -67h86l-52 -153h-80z" />
    <glyph glyph-name="lacute" unicode="&#x13a;" 
d="M360 910h89l-91 -145h-86zM94 73h187v554h-187v73h276v-627h187v-73h-463v73z" />
    <glyph glyph-name="uni013C" unicode="&#x13c;" 
d="M94 73h187v554h-187v73h276v-627h187v-73h-463v73zM281 -67h86l-52 -153h-80z" />
    <glyph glyph-name="lcaron" unicode="&#x13e;" 
d="M94 73h187v554h-187v73h276v-627h187v-73h-463v73zM452 700h78l-38 -162h-74z" />
    <glyph glyph-name="nacute" unicode="&#x144;" 
d="M369 726h89l-91 -145h-86zM529 0h-89v308c0 81 -43 127 -118 127c-88 0 -134 -55 -134 -159v-276h-89v500h87v-63c31 45 81 75 155 75c129 0 188 -85 188 -188v-324z" />
    <glyph glyph-name="uni0146" unicode="&#x146;" 
d="M529 0h-89v308c0 81 -43 127 -118 127c-88 0 -134 -55 -134 -159v-276h-89v500h87v-63c31 45 81 75 155 75c129 0 188 -85 188 -188v-324zM269 -67h86l-52 -153h-80z" />
    <glyph glyph-name="ncaron" unicode="&#x148;" 
d="M371 581h-96l-90 145h84l54 -90l57 90h81zM529 0h-89v308c0 81 -43 127 -118 127c-88 0 -134 -55 -134 -159v-276h-89v500h87v-63c31 45 81 75 155 75c129 0 188 -85 188 -188v-324z" />
    <glyph glyph-name="omacron" unicode="&#x14d;" 
d="M185 613v71h250v-71h-250zM310 512c153 0 244 -111 244 -262s-92 -262 -244 -262c-154 0 -244 111 -244 262s91 262 244 262zM310 437c-102 0 -153 -81 -153 -187c0 -107 51 -187 153 -187s153 80 153 187c0 106 -51 187 -153 187z" />
    <glyph glyph-name="obreve" unicode="&#x14f;" 
d="M311 640c42 0 65 31 65 84h69c0 -70 -30 -145 -135 -145s-135 75 -135 145h71c0 -52 22 -84 65 -84zM310 512c153 0 244 -111 244 -262s-92 -262 -244 -262c-154 0 -244 111 -244 262s91 262 244 262zM310 437c-102 0 -153 -81 -153 -187c0 -107 51 -187 153 -187
s153 80 153 187c0 106 -51 187 -153 187z" />
    <glyph glyph-name="ohungarumlaut" unicode="&#x151;" 
d="M276 726h87l-87 -145h-84zM434 726h88l-100 -145h-85zM310 512c153 0 244 -111 244 -262s-92 -262 -244 -262c-154 0 -244 111 -244 262s91 262 244 262zM310 437c-102 0 -153 -81 -153 -187c0 -107 51 -187 153 -187s153 80 153 187c0 106 -51 187 -153 187z" />
    <glyph glyph-name="racute" unicode="&#x155;" 
d="M362 726h89l-91 -145h-86zM71 73h157v354h-157v73h244v-91c31 58 79 91 145 91h101v-82h-102c-86 0 -142 -75 -142 -203v-142h196v-73h-442v73z" />
    <glyph glyph-name="uni0157" unicode="&#x157;" 
d="M71 73h157v354h-157v73h244v-91c31 58 79 91 145 91h101v-82h-102c-86 0 -142 -75 -142 -203v-142h196v-73h-442v73zM228 -67h86l-52 -153h-80z" />
    <glyph glyph-name="rcaron" unicode="&#x159;" 
d="M364 581h-96l-90 145h84l54 -90l57 90h81zM71 73h157v354h-157v73h244v-91c31 58 79 91 145 91h101v-82h-102c-86 0 -142 -75 -142 -203v-142h196v-73h-442v73z" />
    <glyph glyph-name="sacute" unicode="&#x15b;" 
d="M357 726h89l-91 -145h-86zM529 147c0 -88 -66 -159 -209 -159c-161 0 -224 84 -228 165l88 13c9 -73 54 -108 142 -108c94 0 119 41 119 85c0 42 -38 62 -102 72l-71 11c-72 11 -160 38 -160 141c0 74 63 145 204 145c152 0 199 -87 210 -154l-82 -12
c-13 54 -46 96 -132 96c-92 0 -115 -41 -115 -70c0 -44 33 -60 91 -69l81 -13c101 -16 164 -55 164 -143z" />
    <glyph glyph-name="scircumflex" unicode="&#x15d;" 
d="M261 726h96l90 -145h-84l-54 90l-57 -90h-81zM529 147c0 -88 -66 -159 -209 -159c-161 0 -224 84 -228 165l88 13c9 -73 54 -108 142 -108c94 0 119 41 119 85c0 42 -38 62 -102 72l-71 11c-72 11 -160 38 -160 141c0 74 63 145 204 145c152 0 199 -87 210 -154l-82 -12
c-13 54 -46 96 -132 96c-92 0 -115 -41 -115 -70c0 -44 33 -60 91 -69l81 -13c101 -16 164 -55 164 -143z" />
    <glyph glyph-name="scedilla" unicode="&#x15f;" 
d="M409 -134c0 -55 -38 -92 -106 -92c-63 0 -97 34 -102 81l66 3c2 -20 16 -33 37 -33c26 0 39 18 39 39c0 23 -15 39 -41 39c-13 0 -26 -5 -36 -18l-39 29l55 76c-133 12 -186 89 -190 163l88 13c9 -73 54 -108 142 -108c94 0 119 41 119 85c0 42 -38 62 -102 72l-71 11
c-72 11 -160 38 -160 141c0 74 63 145 204 145c152 0 199 -87 210 -154l-82 -12c-13 54 -46 96 -132 96c-92 0 -115 -41 -115 -70c0 -44 33 -60 91 -69l81 -13c101 -16 164 -55 164 -143c0 -83 -59 -151 -185 -158l-28 -37c59 -2 93 -37 93 -86z" />
    <glyph glyph-name="uni0219" unicode="&#x219;" 
d="M529 147c0 -88 -66 -159 -209 -159c-161 0 -224 84 -228 165l88 13c9 -73 54 -108 142 -108c94 0 119 41 119 85c0 42 -38 62 -102 72l-71 11c-72 11 -160 38 -160 141c0 74 63 145 204 145c152 0 199 -87 210 -154l-82 -12c-13 54 -46 96 -132 96
c-92 0 -115 -41 -115 -70c0 -44 33 -60 91 -69l81 -13c101 -16 164 -55 164 -143zM276 -67h86l-52 -153h-80z" />
    <glyph glyph-name="uni0163" unicode="&#x163;" 
d="M51 427v73h166v161h89v-161h237v-73h-237v-278c0 -52 13 -73 63 -73h162v-76h-130l-37 -48c59 -2 93 -37 93 -86c0 -55 -38 -92 -106 -92c-63 0 -97 34 -102 81l66 3c2 -20 16 -33 37 -33c26 0 39 18 39 39c0 23 -15 39 -41 39c-13 0 -26 -5 -36 -18l-39 29l62 87
c-84 6 -120 59 -120 136v290h-166z" />
    <glyph glyph-name="tcaron" unicode="&#x165;" 
d="M388 713h78l-38 -162h-74zM51 427v73h166v161h89v-161h237v-73h-237v-278c0 -52 13 -73 63 -73h162v-76h-175c-98 0 -139 55 -139 137v290h-166z" />
    <glyph glyph-name="uni021B" unicode="&#x21b;" 
d="M51 427v73h166v161h89v-161h237v-73h-237v-278c0 -52 13 -73 63 -73h162v-76h-175c-98 0 -139 55 -139 137v290h-166zM257 -67h86l-52 -153h-80z" />
    <glyph glyph-name="utilde" unicode="&#x169;" 
d="M362 673c17 0 21 10 21 33h67c2 -59 -18 -104 -72 -104c-45 0 -81 34 -118 34c-23 0 -29 -18 -31 -37h-67c3 58 25 107 87 107c44 0 85 -33 113 -33zM516 0h-87v61c-30 -44 -79 -73 -150 -73c-125 0 -183 86 -183 188v324h89v-309c0 -81 41 -126 113 -126
c84 0 129 56 129 159v276h89v-500z" />
    <glyph glyph-name="umacron" unicode="&#x16b;" 
d="M181 613v71h250v-71h-250zM516 0h-87v61c-30 -44 -79 -73 -150 -73c-125 0 -183 86 -183 188v324h89v-309c0 -81 41 -126 113 -126c84 0 129 56 129 159v276h89v-500z" />
    <glyph glyph-name="ubreve" unicode="&#x16d;" 
d="M307 640c42 0 65 31 65 84h69c0 -70 -30 -145 -135 -145s-135 75 -135 145h71c0 -52 22 -84 65 -84zM516 0h-87v61c-30 -44 -79 -73 -150 -73c-125 0 -183 86 -183 188v324h89v-309c0 -81 41 -126 113 -126c84 0 129 56 129 159v276h89v-500z" />
    <glyph glyph-name="uring" unicode="&#x16f;" 
d="M306 790c72 0 115 -49 115 -106c0 -56 -42 -105 -115 -105c-74 0 -115 49 -115 105c0 57 41 106 115 106zM306 743c-37 0 -54 -27 -54 -59c0 -33 17 -59 54 -59c36 0 54 26 54 59c0 32 -18 59 -54 59zM516 0h-87v61c-30 -44 -79 -73 -150 -73c-125 0 -183 86 -183 188
v324h89v-309c0 -81 41 -126 113 -126c84 0 129 56 129 159v276h89v-500z" />
    <glyph glyph-name="uhungarumlaut" unicode="&#x171;" 
d="M272 726h87l-87 -145h-84zM430 726h88l-100 -145h-85zM516 0h-87v61c-30 -44 -79 -73 -150 -73c-125 0 -183 86 -183 188v324h89v-309c0 -81 41 -126 113 -126c84 0 129 56 129 159v276h89v-500z" />
    <glyph glyph-name="uogonek" unicode="&#x173;" 
d="M451 -226c-60 0 -97 39 -97 87c0 54 27 90 90 139h-15v61c-30 -44 -79 -73 -150 -73c-125 0 -183 86 -183 188v324h89v-309c0 -81 41 -126 113 -126c84 0 129 56 129 159v276h89v-500c-64 -55 -89 -85 -89 -121c0 -30 20 -39 46 -39c11 0 21 2 34 7v-60
c-14 -7 -30 -13 -56 -13z" />
    <glyph glyph-name="wcircumflex" unicode="&#x175;" 
d="M262 726h96l90 -145h-84l-54 90l-57 -90h-81zM31 500h81l69 -377l97 377h68l98 -378l68 378h77l-100 -500h-80l-98 375l-99 -375h-81z" />
    <glyph glyph-name="wgrave" unicode="&#x1e81;" 
d="M264 726l88 -145h-89l-90 145h91zM31 500h81l69 -377l97 377h68l98 -378l68 378h77l-100 -500h-80l-98 375l-99 -375h-81z" />
    <glyph glyph-name="wacute" unicode="&#x1e83;" 
d="M359 726h89l-91 -145h-86zM31 500h81l69 -377l97 377h68l98 -378l68 378h77l-100 -500h-80l-98 375l-99 -375h-81z" />
    <glyph glyph-name="wdieresis" unicode="&#x1e85;" 
d="M189 582v119h86v-119h-86zM345 582v119h86v-119h-86zM31 500h81l69 -377l97 377h68l98 -378l68 378h77l-100 -500h-80l-98 375l-99 -375h-81z" />
    <glyph glyph-name="ycircumflex" unicode="&#x177;" 
d="M264 726h96l90 -145h-84l-54 90l-57 -90h-81zM58 500h95l160 -395l160 395h90l-230 -556c-32 -77 -66 -129 -171 -129h-88v75h88c54 0 73 25 88 63l17 44z" />
    <glyph glyph-name="ygrave" unicode="&#x1ef3;" 
d="M265 726l88 -145h-89l-90 145h91zM58 500h95l160 -395l160 395h90l-230 -556c-32 -77 -66 -129 -171 -129h-88v75h88c54 0 73 25 88 63l17 44z" />
    <glyph glyph-name="zacute" unicode="&#x17a;" 
d="M360 726h89l-91 -145h-86zM529 74v-74h-438v67l325 359h-310v74h414v-71l-322 -355h331z" />
    <glyph glyph-name="zdotaccent" unicode="&#x17c;" 
d="M267 582v119h92v-119h-92zM529 74v-74h-438v67l325 359h-310v74h414v-71l-322 -355h331z" />
    <glyph glyph-name="dcroat" unicode="&#x111;" 
d="M285 -12c-138 0 -223 104 -223 258c0 155 84 266 223 266c74 0 127 -32 162 -81v137h-176v64h176v68h89v-68h56v-64h-56v-568h-87v75c-35 -52 -88 -87 -164 -87zM298 65c95 0 151 76 151 185c0 106 -57 186 -151 186s-145 -78 -145 -186c0 -107 51 -185 145 -185z" />
    <glyph glyph-name="hbar" unicode="&#x127;" 
d="M529 0h-89v308c0 81 -43 127 -118 127c-88 0 -134 -55 -134 -159v-276h-89v568h-57v64h57v68h89v-68h176v-64h-176v-129c31 44 81 73 153 73c129 0 188 -85 188 -188v-324z" />
    <glyph glyph-name="ij" unicode="&#x133;" 
d="M420 724h97v-135h-97v135zM111 724h96v-135h-96v135zM204 500v-500h-89v500h89zM513 500v-505c0 -113 -43 -180 -161 -180h-87v74h86c65 0 73 45 73 111v500h89z" />
    <glyph glyph-name="kgreenlandic" unicode="&#x138;" 
d="M585 0h-106l-179 260l-108 -98v-162h-89v500h89v-235l255 235h113l-197 -183z" />
    <glyph glyph-name="ldot" unicode="&#x140;" 
d="M94 73h187v554h-187v73h276v-627h187v-73h-463v73zM576 419h118v-121h-118v121z" />
    <glyph glyph-name="napostrophe" unicode="&#x149;" 
d="M83 728h86l-52 -153h-80zM529 0h-89v308c0 81 -43 127 -118 127c-88 0 -134 -55 -134 -159v-276h-89v500h87v-63c31 45 81 75 155 75c129 0 188 -85 188 -188v-324z" />
    <glyph glyph-name="tbar" unicode="&#x167;" 
d="M109 338h107v89h-166v73h166v161h89v-161h237v-73h-237v-89h134v-69h-134v-120c0 -52 13 -73 63 -73h162v-76h-175c-98 0 -139 55 -139 137v132h-107v69z" />
    <glyph glyph-name="longs" unicode="&#x17f;" 
d="M90 73h154v354h-166v73h166v38c0 86 40 162 157 162h157v-74h-150c-63 0 -75 -46 -75 -94v-459h193v-73h-436v73z" />
    <glyph glyph-name="uni0237" unicode="&#x237;" 
d="M451 500v-503c0 -114 -43 -182 -163 -182h-185v74h183c67 0 76 45 76 113v425h-263v73h352z" />
    <glyph glyph-name="uni03BC" unicode="&#x3bc;" 
d="M520 0h-87v61c-31 -44 -80 -73 -151 -73c-41 0 -74 10 -99 29l6 -95v-107h-89v685h89v-309c0 -81 41 -126 113 -126c84 0 129 56 129 159v276h89v-500z" />
    <glyph glyph-name="uni02C9" unicode="&#x2c9;" 
d="M185 613v71h250v-71h-250z" />
    <glyph glyph-name="uni2153" unicode="&#x2153;" 
d="M357 400l164 300h74l-165 -300h-73zM44 420h100v182c-10 -5 -23 -6 -38 -6h-66v52h65c44 0 45 37 45 52h58v-280h86v-53h-250v53zM452 146h-33v47h30c38 0 50 24 50 49c0 29 -25 43 -56 43c-36 0 -70 -21 -67 -70l-58 13c-2 72 60 110 129 110c75 0 117 -38 117 -89
c0 -29 -13 -59 -46 -75c41 -13 57 -43 57 -76c0 -62 -48 -105 -128 -105c-67 0 -139 32 -137 108l62 14c0 -51 32 -69 73 -69c37 0 65 18 65 54c0 24 -14 46 -58 46zM25 0l165 300h73l-164 -300h-74z" />
    <glyph glyph-name="uni2154" unicode="&#x2154;" 
d="M288 421v-53h-260v52l124 101c36 29 59 53 59 85c0 29 -22 47 -54 47c-33 0 -70 -16 -66 -80l-63 8c-5 90 63 126 130 126c81 0 120 -47 120 -98s-39 -89 -85 -126l-77 -62h172zM357 400l164 300h74l-165 -300h-73zM452 146h-33v47h30c38 0 50 24 50 49
c0 29 -25 43 -56 43c-36 0 -70 -21 -67 -70l-58 13c-2 72 60 110 129 110c75 0 117 -38 117 -89c0 -29 -13 -59 -46 -75c41 -13 57 -43 57 -76c0 -62 -48 -105 -128 -105c-67 0 -139 32 -137 108l62 14c0 -51 32 -69 73 -69c37 0 65 18 65 54c0 24 -14 46 -58 46zM25 0
l165 300h73l-164 -300h-74z" />
    <glyph glyph-name="uni2155" unicode="&#x2155;" 
d="M357 400l164 300h74l-165 -300h-73zM44 420h100v182c-10 -5 -23 -6 -38 -6h-66v52h65c44 0 45 37 45 52h58v-280h86v-53h-250v53zM591 110c0 -64 -45 -117 -133 -117c-67 0 -125 32 -134 88l64 9c7 -29 33 -46 70 -46c40 0 69 22 69 64c0 37 -26 56 -64 56
c-32 0 -58 -12 -74 -30l-50 21l27 177h200v-52h-151l-14 -88c18 12 42 22 74 22c77 0 116 -48 116 -104zM25 0l165 300h73l-164 -300h-74z" />
    <glyph glyph-name="uni2156" unicode="&#x2156;" 
d="M288 421v-53h-260v52l124 101c36 29 59 53 59 85c0 29 -22 47 -54 47c-33 0 -70 -16 -66 -80l-63 8c-5 90 63 126 130 126c81 0 120 -47 120 -98s-39 -89 -85 -126l-77 -62h172zM357 400l164 300h74l-165 -300h-73zM591 110c0 -64 -45 -117 -133 -117
c-67 0 -125 32 -134 88l64 9c7 -29 33 -46 70 -46c40 0 69 22 69 64c0 37 -26 56 -64 56c-32 0 -58 -12 -74 -30l-50 21l27 177h200v-52h-151l-14 -88c18 12 42 22 74 22c77 0 116 -48 116 -104zM25 0l165 300h73l-164 -300h-74z" />
    <glyph glyph-name="uni2157" unicode="&#x2157;" 
d="M167 515h-33v47h30c38 0 50 24 50 49c0 29 -25 43 -56 43c-36 0 -70 -21 -67 -70l-58 13c-2 72 60 110 129 110c75 0 117 -38 117 -89c0 -29 -13 -59 -46 -75c41 -13 57 -43 57 -76c0 -62 -48 -105 -128 -105c-67 0 -139 32 -137 108l62 14c0 -51 32 -69 73 -69
c37 0 65 18 65 54c0 24 -14 46 -58 46zM357 400l164 300h74l-165 -300h-73zM591 110c0 -64 -45 -117 -133 -117c-67 0 -125 32 -134 88l64 9c7 -29 33 -46 70 -46c40 0 69 22 69 64c0 37 -26 56 -64 56c-32 0 -58 -12 -74 -30l-50 21l27 177h200v-52h-151l-14 -88
c18 12 42 22 74 22c77 0 116 -48 116 -104zM25 0l165 300h73l-164 -300h-74z" />
    <glyph glyph-name="uni2158" unicode="&#x2158;" 
d="M18 489l156 211h86v-205h53v-53h-53v-75h-65v75h-177v47zM357 400l164 300h74l-165 -300h-73zM195 495v148l-109 -148h109zM591 110c0 -64 -45 -117 -133 -117c-67 0 -125 32 -134 88l64 9c7 -29 33 -46 70 -46c40 0 69 22 69 64c0 37 -26 56 -64 56
c-32 0 -58 -12 -74 -30l-50 21l27 177h200v-52h-151l-14 -88c18 12 42 22 74 22c77 0 116 -48 116 -104zM25 0l165 300h73l-164 -300h-74z" />
    <glyph glyph-name="uni2159" unicode="&#x2159;" 
d="M357 400l164 300h74l-165 -300h-73zM44 420h100v182c-10 -5 -23 -6 -38 -6h-66v52h65c44 0 45 37 45 52h58v-280h86v-53h-250v53zM586 107c0 -64 -52 -114 -126 -114c-83 0 -137 51 -137 166c0 123 60 179 139 179c56 0 106 -25 118 -85l-61 -11c-9 29 -26 44 -59 44
c-56 0 -73 -57 -75 -108c20 24 53 36 85 36c69 0 116 -41 116 -107zM25 0l165 300h73l-164 -300h-74zM458 42c40 0 65 27 65 62c0 40 -24 62 -65 62s-66 -27 -66 -62s26 -62 66 -62z" />
    <glyph glyph-name="uni215A" unicode="&#x215a;" 
d="M293 478c0 -64 -45 -117 -133 -117c-67 0 -125 32 -134 88l64 9c7 -29 33 -46 70 -46c40 0 69 22 69 64c0 37 -26 56 -64 56c-32 0 -58 -12 -74 -30l-50 21l27 177h200v-52h-151l-14 -88c18 12 42 22 74 22c77 0 116 -48 116 -104zM357 400l164 300h74l-165 -300h-73z
M586 107c0 -64 -52 -114 -126 -114c-83 0 -137 51 -137 166c0 123 60 179 139 179c56 0 106 -25 118 -85l-61 -11c-9 29 -26 44 -59 44c-56 0 -73 -57 -75 -108c20 24 53 36 85 36c69 0 116 -41 116 -107zM25 0l165 300h73l-164 -300h-74zM458 42c40 0 65 27 65 62
c0 40 -24 62 -65 62s-66 -27 -66 -62s26 -62 66 -62z" />
    <glyph glyph-name="uni215B" unicode="&#x215b;" 
d="M357 400l164 300h74l-165 -300h-73zM44 420h100v182c-10 -5 -23 -6 -38 -6h-66v52h65c44 0 45 37 45 52h58v-280h86v-53h-250v53zM586 93c0 -56 -51 -100 -136 -100c-89 0 -136 44 -136 100c0 30 15 64 61 81c-40 17 -51 48 -51 74c0 49 44 90 126 90
c83 0 125 -41 125 -90c0 -26 -11 -56 -49 -73c47 -17 60 -52 60 -82zM25 0l165 300h73l-164 -300h-74zM450 197c46 0 62 27 62 47c0 30 -27 47 -62 47c-37 0 -63 -17 -63 -47c0 -20 16 -47 63 -47zM450 150c-50 0 -72 -25 -72 -53c0 -31 22 -55 72 -55c49 0 71 24 71 55
c0 28 -22 53 -71 53z" />
    <glyph glyph-name="uni215C" unicode="&#x215c;" 
d="M167 515h-33v47h30c38 0 50 24 50 49c0 29 -25 43 -56 43c-36 0 -70 -21 -67 -70l-58 13c-2 72 60 110 129 110c75 0 117 -38 117 -89c0 -29 -13 -59 -46 -75c41 -13 57 -43 57 -76c0 -62 -48 -105 -128 -105c-67 0 -139 32 -137 108l62 14c0 -51 32 -69 73 -69
c37 0 65 18 65 54c0 24 -14 46 -58 46zM357 400l164 300h74l-165 -300h-73zM586 93c0 -56 -51 -100 -136 -100c-89 0 -136 44 -136 100c0 30 15 64 61 81c-40 17 -51 48 -51 74c0 49 44 90 126 90c83 0 125 -41 125 -90c0 -26 -11 -56 -49 -73c47 -17 60 -52 60 -82zM25 0
l165 300h73l-164 -300h-74zM450 197c46 0 62 27 62 47c0 30 -27 47 -62 47c-37 0 -63 -17 -63 -47c0 -20 16 -47 63 -47zM450 150c-50 0 -72 -25 -72 -53c0 -31 22 -55 72 -55c49 0 71 24 71 55c0 28 -22 53 -71 53z" />
    <glyph glyph-name="uni215D" unicode="&#x215d;" 
d="M357 400l164 300h74l-165 -300h-73zM293 478c0 -64 -45 -117 -133 -117c-67 0 -125 32 -134 88l64 9c7 -29 33 -46 70 -46c40 0 69 22 69 64c0 37 -26 56 -64 56c-32 0 -58 -12 -74 -30l-50 21l27 177h200v-52h-151l-14 -88c18 12 42 22 74 22c77 0 116 -48 116 -104z
M586 93c0 -56 -51 -100 -136 -100c-89 0 -136 44 -136 100c0 30 15 64 61 81c-40 17 -51 48 -51 74c0 49 44 90 126 90c83 0 125 -41 125 -90c0 -26 -11 -56 -49 -73c47 -17 60 -52 60 -82zM25 0l165 300h73l-164 -300h-74zM450 197c46 0 62 27 62 47c0 30 -27 47 -62 47
c-37 0 -63 -17 -63 -47c0 -20 16 -47 63 -47zM450 150c-50 0 -72 -25 -72 -53c0 -31 22 -55 72 -55c49 0 71 24 71 55c0 28 -22 53 -71 53z" />
    <glyph glyph-name="uni215E" unicode="&#x215e;" 
d="M32 591v109h273v-47c-84 -80 -118 -131 -118 -241v-45h-64v45c0 103 38 170 105 234h-142v-55h-54zM357 400l164 300h74l-165 -300h-73zM586 93c0 -56 -51 -100 -136 -100c-89 0 -136 44 -136 100c0 30 15 64 61 81c-40 17 -51 48 -51 74c0 49 44 90 126 90
c83 0 125 -41 125 -90c0 -26 -11 -56 -49 -73c47 -17 60 -52 60 -82zM25 0l165 300h73l-164 -300h-74zM450 197c46 0 62 27 62 47c0 30 -27 47 -62 47c-37 0 -63 -17 -63 -47c0 -20 16 -47 63 -47zM450 150c-50 0 -72 -25 -72 -53c0 -31 22 -55 72 -55c49 0 71 24 71 55
c0 28 -22 53 -71 53z" />
    <glyph glyph-name="uni215F" unicode="&#x215f;" 
d="M357 400l164 300h74l-165 -300h-73zM44 420h100v182c-10 -5 -23 -6 -38 -6h-66v52h65c44 0 45 37 45 52h58v-280h86v-53h-250v53zM25 0l165 300h73l-164 -300h-74z" />
    <glyph glyph-name="uni2460" unicode="&#x2460;" 
d="M309 615c146 0 266 -120 266 -264c0 -147 -120 -266 -266 -266c-145 0 -264 119 -264 266c0 144 119 264 264 264zM309 563c-117 0 -208 -96 -208 -212c0 -119 91 -214 208 -214c118 0 210 95 210 214c0 116 -92 212 -210 212zM209 255h83v151c-9 -4 -19 -6 -31 -6h-55
v43h54c36 0 37 31 37 43h48v-231h71v-43h-207v43z" />
    <glyph glyph-name="uni2461" unicode="&#x2461;" 
d="M309 615c146 0 266 -120 266 -264c0 -147 -120 -266 -266 -266c-145 0 -264 119 -264 266c0 144 119 264 264 264zM309 563c-117 0 -208 -96 -208 -212c0 -119 91 -214 208 -214c118 0 210 95 210 214c0 116 -92 212 -210 212zM418 255v-43h-213v43l102 83
c29 24 48 43 48 70c0 24 -18 39 -45 39c-26 0 -57 -14 -54 -66l-51 7c-5 74 51 103 107 103c66 0 98 -38 98 -81c0 -42 -32 -72 -70 -103l-63 -52h141z" />
    <glyph glyph-name="uni2462" unicode="&#x2462;" 
d="M309 615c146 0 266 -120 266 -264c0 -147 -120 -266 -266 -266c-145 0 -264 119 -264 266c0 144 119 264 264 264zM309 563c-117 0 -208 -96 -208 -212c0 -119 91 -214 208 -214c118 0 210 95 210 214c0 116 -92 212 -210 212zM315 333h-28v39h26c30 0 40 20 40 40
c0 24 -20 35 -45 35c-30 0 -58 -17 -56 -57l-48 10c-1 60 50 91 107 91c61 0 96 -31 96 -73c0 -24 -10 -48 -38 -62c34 -11 47 -35 47 -63c0 -50 -40 -86 -105 -86c-55 0 -115 26 -113 89l51 11c0 -42 27 -56 60 -56c30 0 53 14 53 44c0 20 -11 38 -47 38z" />
    <glyph glyph-name="uni2463" unicode="&#x2463;" 
d="M309 615c146 0 266 -120 266 -264c0 -147 -120 -266 -266 -266c-145 0 -264 119 -264 266c0 144 119 264 264 264zM309 563c-117 0 -208 -96 -208 -212c0 -119 91 -214 208 -214c118 0 210 95 210 214c0 116 -92 212 -210 212zM173 313l129 173h71v-168h44v-44h-44v-62
h-53v62h-147v39zM320 318v122l-91 -122h91z" />
    <glyph glyph-name="uni2464" unicode="&#x2464;" 
d="M309 615c146 0 266 -120 266 -264c0 -147 -120 -266 -266 -266c-145 0 -264 119 -264 266c0 144 119 264 264 264zM309 563c-117 0 -208 -96 -208 -212c0 -119 91 -214 208 -214c118 0 210 95 210 214c0 116 -92 212 -210 212zM416 304c0 -53 -37 -97 -109 -97
c-56 0 -103 26 -111 72l53 8c5 -24 27 -38 57 -38c34 0 57 18 57 53c0 30 -21 46 -53 46c-26 0 -47 -10 -61 -25l-40 18l21 145h166v-43h-125l-12 -72c16 10 35 18 61 18c64 0 96 -39 96 -85z" />
    <glyph glyph-name="uni2465" unicode="&#x2465;" 
d="M309 615c146 0 266 -120 266 -264c0 -147 -120 -266 -266 -266c-145 0 -264 119 -264 266c0 144 119 264 264 264zM309 563c-117 0 -208 -96 -208 -212c0 -119 91 -214 208 -214c118 0 210 95 210 214c0 116 -92 212 -210 212zM414 301c0 -53 -43 -94 -104 -94
c-69 0 -113 42 -113 137c0 101 49 147 114 147c47 0 87 -21 98 -70l-51 -9c-7 24 -21 37 -48 37c-46 0 -61 -48 -62 -90c16 20 44 30 70 30c56 0 96 -33 96 -88zM308 248c33 0 54 21 54 50c0 33 -21 51 -54 51c-34 0 -55 -21 -55 -51c0 -29 22 -50 55 -50z" />
    <glyph glyph-name="uni2466" unicode="&#x2466;" 
d="M309 615c146 0 266 -120 266 -264c0 -147 -120 -266 -266 -266c-145 0 -264 119 -264 266c0 144 119 264 264 264zM309 563c-117 0 -208 -96 -208 -212c0 -119 91 -214 208 -214c118 0 210 95 210 214c0 116 -92 212 -210 212zM199 396v90h225v-38
c-69 -67 -97 -109 -97 -199v-37h-52v37c0 85 31 140 86 193h-117v-46h-45z" />
    <glyph glyph-name="uni2467" unicode="&#x2467;" 
d="M309 615c146 0 266 -120 266 -264c0 -147 -120 -266 -266 -266c-145 0 -264 119 -264 266c0 144 119 264 264 264zM309 563c-117 0 -208 -96 -208 -212c0 -119 91 -214 208 -214c118 0 210 95 210 214c0 116 -92 212 -210 212zM420 290c0 -46 -41 -83 -112 -83
c-73 0 -112 37 -112 83c0 24 13 52 50 66c-32 14 -42 39 -42 61c0 40 37 74 104 74c69 0 104 -34 104 -74c0 -22 -9 -46 -41 -60c39 -14 49 -43 49 -67zM308 375c39 0 52 23 52 39c0 24 -23 38 -52 38c-30 0 -52 -14 -52 -38c0 -16 14 -39 52 -39zM308 337
c-41 0 -59 -21 -59 -44c0 -26 18 -46 59 -46s59 20 59 46c0 23 -18 44 -59 44z" />
    <glyph glyph-name="uni2468" unicode="&#x2468;" 
d="M309 615c146 0 266 -120 266 -264c0 -147 -120 -266 -266 -266c-145 0 -264 119 -264 266c0 144 119 264 264 264zM309 563c-117 0 -208 -96 -208 -212c0 -119 91 -214 208 -214c118 0 210 95 210 214c0 116 -92 212 -210 212zM203 398c0 52 42 93 103 93
c69 0 114 -42 114 -136c0 -102 -50 -148 -115 -148c-46 0 -87 21 -98 70l51 9c8 -24 22 -36 48 -36c46 0 61 47 62 89c-16 -20 -44 -30 -70 -30c-56 0 -95 34 -95 89zM308 451c-33 0 -54 -22 -54 -51c0 -33 21 -51 54 -51c34 0 55 22 55 51s-22 51 -55 51z" />
    <glyph glyph-name="uni24EA" unicode="&#x24ea;" 
d="M309 615c146 0 266 -120 266 -264c0 -147 -120 -266 -266 -266c-145 0 -264 119 -264 266c0 144 119 264 264 264zM309 563c-117 0 -208 -96 -208 -212c0 -119 91 -214 208 -214c118 0 210 95 210 214c0 116 -92 212 -210 212zM309 207c-75 0 -110 61 -110 142
s37 142 110 142c76 0 112 -61 112 -142s-37 -142 -112 -142zM309 251c44 0 59 39 59 98s-15 99 -59 99c-42 0 -58 -40 -58 -99s16 -98 58 -98z" />
    <glyph glyph-name="uni24FF" unicode="&#x24ff;" 
d="M311 615c145 0 264 -120 264 -264c0 -147 -119 -266 -264 -266c-146 0 -266 119 -266 266c0 144 120 264 266 264zM309 207c75 0 112 61 112 142s-36 142 -112 142c-73 0 -110 -61 -110 -142s35 -142 110 -142zM309 251c-42 0 -58 39 -58 98s16 99 58 99
c44 0 59 -40 59 -99s-15 -98 -59 -98z" />
    <glyph glyph-name="uni2776" unicode="&#x2776;" 
d="M311 615c145 0 264 -120 264 -264c0 -147 -119 -266 -264 -266c-146 0 -266 119 -266 266c0 144 120 264 266 264zM209 255v-43h207v43h-71v231h-48c0 -12 -1 -43 -37 -43h-54v-43h55c12 0 22 2 31 6v-151h-83z" />
    <glyph glyph-name="uni2777" unicode="&#x2777;" 
d="M311 615c145 0 264 -120 264 -264c0 -147 -119 -266 -264 -266c-146 0 -266 119 -266 266c0 144 120 264 266 264zM418 255h-141l63 52c38 31 70 61 70 103c0 43 -32 81 -98 81c-56 0 -112 -29 -107 -103l51 -7c-3 52 28 66 54 66c27 0 45 -15 45 -39
c0 -27 -19 -46 -48 -70l-102 -83v-43h213v43z" />
    <glyph glyph-name="uni2778" unicode="&#x2778;" 
d="M311 615c145 0 264 -120 264 -264c0 -147 -119 -266 -264 -266c-146 0 -266 119 -266 266c0 144 120 264 266 264zM315 333c36 0 47 -18 47 -38c0 -30 -23 -44 -53 -44c-33 0 -60 14 -60 56l-51 -11c-2 -63 58 -89 113 -89c65 0 105 36 105 86c0 28 -13 52 -47 63
c28 14 38 38 38 62c0 42 -35 73 -96 73c-57 0 -108 -31 -107 -91l48 -10c-2 40 26 57 56 57c25 0 45 -11 45 -35c0 -20 -10 -40 -40 -40h-26v-39h28z" />
    <glyph glyph-name="uni2779" unicode="&#x2779;" 
d="M311 615c145 0 264 -120 264 -264c0 -147 -119 -266 -264 -266c-146 0 -266 119 -266 266c0 144 120 264 266 264zM173 313v-39h147v-62h53v62h44v44h-44v168h-71zM320 318h-91l91 122v-122z" />
    <glyph glyph-name="uni277A" unicode="&#x277a;" 
d="M311 615c145 0 264 -120 264 -264c0 -147 -119 -266 -264 -266c-146 0 -266 119 -266 266c0 144 120 264 266 264zM416 304c0 46 -32 85 -96 85c-26 0 -45 -8 -61 -18l12 72h125v43h-166l-21 -145l40 -18c14 15 35 25 61 25c32 0 53 -16 53 -46c0 -35 -23 -53 -57 -53
c-30 0 -52 14 -57 38l-53 -8c8 -46 55 -72 111 -72c72 0 109 44 109 97z" />
    <glyph glyph-name="uni277B" unicode="&#x277b;" 
d="M311 615c145 0 264 -120 264 -264c0 -147 -119 -266 -264 -266c-146 0 -266 119 -266 266c0 144 120 264 266 264zM414 301c0 55 -40 88 -96 88c-26 0 -54 -10 -70 -30c1 42 16 90 62 90c27 0 41 -13 48 -37l51 9c-11 49 -51 70 -98 70c-65 0 -114 -46 -114 -147
c0 -95 44 -137 113 -137c61 0 104 41 104 94zM308 248c-33 0 -55 21 -55 50c0 30 21 51 55 51c33 0 54 -18 54 -51c0 -29 -21 -50 -54 -50z" />
    <glyph glyph-name="uni277C" unicode="&#x277c;" 
d="M311 615c145 0 264 -120 264 -264c0 -147 -119 -266 -264 -266c-146 0 -266 119 -266 266c0 144 120 264 266 264zM199 396h45v46h117c-55 -53 -86 -108 -86 -193v-37h52v37c0 90 28 132 97 199v38h-225v-90z" />
    <glyph glyph-name="uni277D" unicode="&#x277d;" 
d="M311 615c145 0 264 -120 264 -264c0 -147 -119 -266 -264 -266c-146 0 -266 119 -266 266c0 144 120 264 266 264zM420 290c0 24 -10 53 -49 67c32 14 41 38 41 60c0 40 -35 74 -104 74c-67 0 -104 -34 -104 -74c0 -22 10 -47 42 -61c-37 -14 -50 -42 -50 -66
c0 -46 39 -83 112 -83c71 0 112 37 112 83zM308 375c-38 0 -52 23 -52 39c0 24 22 38 52 38c29 0 52 -14 52 -38c0 -16 -13 -39 -52 -39zM308 337c41 0 59 -21 59 -44c0 -26 -18 -46 -59 -46s-59 20 -59 46c0 23 18 44 59 44z" />
    <glyph glyph-name="uni277E" unicode="&#x277e;" 
d="M311 615c145 0 264 -120 264 -264c0 -147 -119 -266 -264 -266c-146 0 -266 119 -266 266c0 144 120 264 266 264zM203 398c0 -55 39 -89 95 -89c26 0 54 10 70 30c-1 -42 -16 -89 -62 -89c-26 0 -40 12 -48 36l-51 -9c11 -49 52 -70 98 -70c65 0 115 46 115 148
c0 94 -45 136 -114 136c-61 0 -103 -41 -103 -93zM308 451c33 0 55 -22 55 -51s-21 -51 -55 -51c-33 0 -54 18 -54 51c0 29 21 51 54 51z" />
    <glyph glyph-name="uni2113" unicode="&#x2113;" 
d="M111 205l-37 65l126 78v185c0 110 56 179 160 179c86 0 141 -60 141 -140c0 -90 -54 -158 -174 -237l-38 -25v-142c0 -48 12 -94 76 -94h124v-74h-136c-113 0 -153 73 -153 164v96zM289 534v-135l8 6c79 59 120 96 120 164c0 40 -22 68 -59 68c-44 0 -69 -32 -69 -103z
" />
    <glyph glyph-name="arrowleft" unicode="&#x2190;" 
d="M247 82l-54 136c-36 90 -111 95 -178 95v75c67 0 142 5 178 95l54 136h80l-54 -141c-13 -35 -28 -65 -54 -87h386v-82h-385c26 -21 40 -51 53 -86l54 -141h-80z" />
    <glyph glyph-name="arrowup" unicode="&#x2191;" 
d="M42 429l136 54c90 36 95 111 95 178h75c0 -67 4 -142 95 -178l136 -54v-80l-141 54c-35 13 -64 27 -85 52v-414h-83v416c-21 -26 -51 -40 -87 -54l-141 -54v80z" />
    <glyph glyph-name="arrowright" unicode="&#x2192;" 
d="M373 82h-80l54 141c13 35 27 65 53 86h-385v82h386c-26 22 -41 52 -54 87l-54 141h80l54 -136c36 -90 111 -95 178 -95v-75c-67 0 -142 -5 -178 -95z" />
    <glyph glyph-name="arrowdown" unicode="&#x2193;" 
d="M42 272v80l141 -54c36 -14 66 -28 87 -54v416h83v-414c21 25 50 39 85 52l141 54v-80l-136 -54c-91 -36 -95 -111 -95 -178h-75c0 67 -5 142 -95 178z" />
    <glyph glyph-name="uni2215" unicode="&#x2215;" 
d="M357 400l164 300h74l-165 -300h-73zM25 0l165 300h73l-164 -300h-74z" />
    <glyph glyph-name="uni2219" unicode="&#x2219;" 
d="M219 456h184v-191h-184v191z" />
    <glyph glyph-name="franc" unicode="&#x20a3;" 
d="M70 700h260v-82h-167v-228h127v-81h-127v-309h-93v700zM347 500h85v-91c30 58 76 91 138 91h24v-84h-26c-79 0 -134 -74 -134 -203v-213h-87v500z" />
    <glyph glyph-name="Euro" unicode="&#x20ac;" 
d="M39 243v69h60c-1 12 -1 25 -1 38c0 10 0 20 1 29h-60v68h65c22 161 103 265 247 265c130 0 208 -84 236 -226l-93 -20c-20 100 -60 163 -142 163c-88 0 -134 -71 -150 -182h144v-68h-150v-29c0 -13 0 -26 1 -38h149v-69h-142c17 -105 63 -172 147 -172
c85 0 122 64 142 156l91 -18c-29 -137 -106 -221 -233 -221c-142 0 -222 100 -245 255h-67z" />
    <glyph glyph-name="estimated" unicode="&#x212e;" 
d="M310 36c80 0 140 46 189 115l36 -28c-57 -80 -130 -135 -225 -135c-160 0 -282 163 -282 362c0 207 122 362 282 362s282 -150 282 -375h-437v-218c41 -52 90 -83 155 -83zM310 664c-65 0 -116 -28 -155 -79v-197h306v199c-38 48 -85 77 -151 77z" />
    <glyph glyph-name="uni2196" unicode="&#x2196;" 
d="M64 217l57 134c39 91 -11 146 -59 194l53 52c48 -47 104 -97 193 -58l134 58l57 -57l-138 -61c-34 -15 -66 -26 -100 -23l297 -297l-58 -59l-295 296c2 -33 -9 -63 -24 -97l-61 -139z" />
    <glyph glyph-name="uni2197" unicode="&#x2197;" 
d="M556 217l-56 -57l-61 139c-15 34 -26 64 -24 97l-295 -296l-58 59l297 297c-34 -3 -66 8 -100 23l-138 61l57 57l134 -58c89 -39 145 11 193 58l53 -52c-48 -48 -98 -103 -59 -194z" />
    <glyph glyph-name="uni2198" unicode="&#x2198;" 
d="M556 485l-57 -134c-39 -91 11 -146 59 -194l-53 -52c-48 47 -104 97 -193 58l-134 -58l-57 57l138 61c34 15 66 26 100 23l-297 297l58 59l295 -296c-2 33 9 63 24 97l61 139z" />
    <glyph glyph-name="uni2199" unicode="&#x2199;" 
d="M64 484l56 57l61 -139c15 -34 26 -64 24 -97l295 296l58 -59l-297 -297c34 3 66 -8 100 -23l138 -61l-57 -57l-134 58c-89 39 -145 -11 -193 -58l-53 52c48 48 98 103 59 194z" />
    <glyph glyph-name="circleblack" unicode="&#x25cf;" 
d="M311 615c145 0 264 -120 264 -264c0 -147 -119 -266 -264 -266c-146 0 -266 119 -266 266c0 144 120 264 266 264z" />
    <glyph glyph-name="circlehalfleftblack" unicode="&#x25d0;" 
d="M309 615c146 0 266 -120 266 -264c0 -147 -120 -266 -266 -266c-145 0 -264 119 -264 266c0 144 119 264 264 264zM309 563v-426c118 0 210 95 210 214c0 116 -92 212 -210 212z" />
    <glyph glyph-name="circlehalfrightblack" unicode="&#x25d1;" 
d="M311 615c145 0 264 -120 264 -264c0 -147 -119 -266 -264 -266c-146 0 -266 119 -266 266c0 144 120 264 266 264zM311 563c-118 0 -210 -96 -210 -212c0 -119 92 -214 210 -214v426z" />
    <glyph glyph-name="starblack" unicode="&#x2605;" 
d="M309 642l83 -207h223l-187 -133l89 -244l-208 139l-207 -139l90 244l-186 133h223z" />
    <glyph glyph-name="starwhite" unicode="&#x2606;" 
d="M309 642l83 -207h223l-187 -133l89 -244l-208 139l-207 -139l90 244l-186 133h223zM309 260l110 -71l-51 133l95 65h-106l-48 114l-45 -114h-107l94 -65l-49 -133z" />
    <glyph glyph-name="checkbox" unicode="&#x2610;" 
d="M67 107v485h486v-485h-486zM124 161h372v377h-372v-377z" />
    <glyph glyph-name="checkboxchekced" unicode="&#x2611;" 
d="M195 389l55 25l45 -95l184 417h65l-65 -144h74v-485h-486v485h295l-24 -54h-214v-377h372v377h-41l-136 -302h-50z" />
    <glyph glyph-name="peace" unicode="&#x262e;" 
d="M309 615c146 0 266 -120 266 -264c0 -147 -120 -266 -266 -266c-145 0 -264 119 -264 266c0 144 119 264 264 264zM102 351c0 -42 11 -82 31 -115l149 149v176c-104 -13 -180 -103 -180 -210zM338 384l148 -147c21 33 32 72 32 114c0 106 -76 196 -180 210v-177zM338 310
v-171c45 6 85 26 115 56zM282 310l-116 -116c31 -29 71 -49 116 -55v171z" />
    <glyph glyph-name="frowningfacewhite" unicode="&#x2639;" 
d="M309 615c146 0 266 -120 266 -264c0 -147 -120 -266 -266 -266c-145 0 -264 119 -264 266c0 144 119 264 264 264zM309 563c-117 0 -208 -96 -208 -212c0 -119 91 -214 208 -214c118 0 210 95 210 214c0 116 -92 212 -210 212zM225 358c-27 0 -50 22 -50 50
c0 27 23 50 50 50s48 -23 48 -50c0 -28 -21 -50 -48 -50zM396 358c-28 0 -50 22 -50 50c0 27 22 50 50 50c27 0 49 -23 49 -50c0 -28 -22 -50 -49 -50zM310 312c66 0 112 -37 129 -76l-39 -25c-18 31 -42 56 -90 56s-72 -25 -90 -56l-39 25c17 39 63 76 129 76z" />
    <glyph glyph-name="smilingfacewhite" unicode="&#x263a;" 
d="M309 615c146 0 266 -120 266 -264c0 -147 -120 -266 -266 -266c-145 0 -264 119 -264 266c0 144 119 264 264 264zM309 563c-117 0 -208 -96 -208 -212c0 -119 91 -214 208 -214c118 0 210 95 210 214c0 116 -92 212 -210 212zM225 358c-27 0 -50 22 -50 50
c0 27 23 50 50 50s48 -23 48 -50c0 -28 -21 -50 -48 -50zM396 358c-28 0 -50 22 -50 50c0 27 22 50 50 50c27 0 49 -23 49 -50c0 -28 -22 -50 -49 -50zM310 201c-66 0 -112 37 -129 77l39 24c18 -30 42 -55 90 -55s72 25 90 55l39 -24c-17 -40 -63 -77 -129 -77z" />
    <glyph glyph-name="smilingfaceblack" unicode="&#x263b;" 
d="M309 615c146 0 266 -120 266 -264c0 -147 -120 -266 -266 -266c-145 0 -264 119 -264 266c0 144 119 264 264 264zM225 358c27 0 48 22 48 50c0 27 -21 50 -48 50s-50 -23 -50 -50c0 -28 23 -50 50 -50zM396 358c27 0 49 22 49 50c0 27 -22 50 -49 50
c-28 0 -50 -23 -50 -50c0 -28 22 -50 50 -50zM310 198c66 0 112 38 129 77l-39 25c-18 -31 -42 -56 -90 -56s-72 25 -90 56l-39 -25c17 -39 63 -77 129 -77z" />
    <glyph glyph-name="heartblack" unicode="&#x2665;" 
d="M310 102c-128 65 -266 207 -266 342c0 60 28 146 136 146c51 0 100 -28 130 -82c30 54 79 82 130 82c108 0 136 -86 136 -146c0 -135 -138 -277 -266 -342z" />
    <glyph glyph-name="flagwhite" unicode="&#x2690;" 
d="M67 594h57v-49c34 17 72 31 122 31c107 -1 137 -51 307 -51v-302c-139 -6 -198 51 -307 52c-44 -1 -88 -19 -122 -37v-178h-57v534zM246 328c92 -1 145 -43 250 -50v195c-105 2 -161 49 -250 50c-46 -1 -88 -19 -122 -37v-189c35 17 74 31 122 31z" />
    <glyph glyph-name="flagblack" unicode="&#x2691;" 
d="M67 594h57v-49c34 17 72 31 122 31c107 -1 137 -51 307 -51v-302c-139 -6 -198 51 -307 52c-44 -1 -88 -19 -122 -37v-178h-57v534z" />
    <glyph glyph-name="dngb:spokedasteriskeight" unicode="&#x2733;" 
d="M120 197l127 127h-180v51h180l-127 127l38 38l125 -125v177h54v-178l126 126l38 -38l-127 -127h179v-51h-179l127 -127l-38 -38l-126 126v-178h-54v177l-125 -125z" />
    <glyph glyph-name="uni2B1B" unicode="&#x2b1b;" 
d="M67 107v485h486v-485h-486z" />
    <glyph glyph-name="uni2B55" unicode="&#x2b55;" 
d="M309 615c146 0 266 -120 266 -264c0 -147 -120 -266 -266 -266c-145 0 -264 119 -264 266c0 144 119 264 264 264zM309 563c-117 0 -208 -96 -208 -212c0 -119 91 -214 208 -214c118 0 210 95 210 214c0 116 -92 212 -210 212z" />
    <glyph glyph-name="uni00AD" unicode="&#xad;" 
d="M135 311h350v-81h-350v81z" />
    <glyph glyph-name="commaaccent" unicode="&#xf6c3;" 
d="M290 -67h86l-52 -153h-80z" />
    <glyph glyph-name="uniF8FF" unicode="&#xf8ff;" 
d="M555 321h-491v18h491v-18zM281 240h-12v18h12v21h22v-21h13v-18h-13v-59h-22v59zM423 258l1 -6c4 4 10 8 19 8c17 0 26 -11 26 -30v-20c0 -19 -9 -31 -26 -31c-8 0 -13 3 -17 7v-35h-22v107h19zM173 181h-22v77h18l1 -6c4 4 11 8 19 8c11 0 17 -4 21 -12c5 8 12 12 21 12
c18 0 26 -11 26 -28v-51h-22v49c0 6 -3 11 -10 11c-6 0 -10 -4 -10 -10v-50h-22v49c0 6 -3 11 -10 11c-6 0 -10 -5 -10 -11v-49zM114 208h22c0 -18 -13 -29 -32 -29c-18 0 -32 12 -32 33v17c0 20 14 31 32 31c19 0 32 -11 32 -31v-13h-42v-7c0 -7 4 -12 10 -12
c7 0 10 4 10 11zM525 208h22c0 -17 -13 -28 -32 -28c-18 0 -32 12 -32 32v17c0 19 14 31 32 31c19 0 32 -12 32 -31v-13h-42v-7c0 -7 4 -12 10 -12c7 0 10 4 10 11zM392 258l-33 -107h-21l9 27l-25 80h24l12 -48l12 48h22zM94 232v-1h20v1c0 6 -3 11 -10 11
c-6 0 -10 -5 -10 -11zM505 232v-1h20v1c0 6 -3 11 -10 11c-6 0 -10 -5 -10 -11zM436 241c-6 0 -10 -5 -10 -11v-20c0 -6 4 -11 10 -11c7 0 11 5 11 11v20c0 6 -4 11 -11 11zM239 121h-14v10h14v21h12v-21h15v-10h-15v-67h-12v67zM200 81h12v-2c0 -16 -12 -26 -29 -26
s-29 11 -29 28v22c0 18 12 30 29 30s29 -12 29 -30v-12h-46v-10c0 -10 5 -17 17 -17s17 7 17 14v3zM87 54h-12v77h9l1 -9c5 7 13 11 22 11c17 0 27 -11 27 -29v-50h-12v50c0 10 -6 18 -18 18c-11 0 -17 -8 -17 -19v-49zM166 103v-2h34v2c0 11 -6 19 -17 19
c-12 0 -17 -8 -17 -19zM46 53c-4 0 -8 4 -8 8s4 8 8 8c5 0 8 -4 8 -8s-3 -8 -8 -8zM555 0h-491v8h491v-8z" />
    <glyph glyph-name="uni20B9" unicode="&#x20b9;" 
d="M80 273v78h157c72 0 120 42 136 102h-293v68h297c-9 56 -54 101 -139 101h-158v78h483v-68h-138c30 -31 47 -69 50 -111h88v-68h-93c-14 -58 -51 -107 -106 -134c55 -19 96 -60 101 -142l10 -177h-95l-10 178c-4 80 -64 95 -135 95h-155z" />
    <glyph glyph-name="u1F5F7" unicode="&#x1f5f7;" 
d="M67 107v485h486v-485h-486zM124 161h372v377h-372v-377zM187 183l-40 40l123 126l-123 126l42 40l121 -124l121 124l42 -40l-123 -126l123 -126l-40 -40l-123 126z" />
    <glyph glyph-name="u1F78B" unicode="&#x1f78b;" 
d="M310 615c145 0 265 -120 265 -264c0 -147 -120 -266 -265 -266s-265 119 -265 266c0 144 120 264 265 264zM310 567c-120 0 -212 -96 -212 -216c0 -121 92 -218 212 -218s212 97 212 218c0 120 -92 216 -212 216zM310 507c86 0 157 -70 157 -156s-71 -157 -157 -157
s-156 71 -156 157s70 156 156 156zM310 457c-60 0 -104 -47 -104 -106c0 -60 44 -108 104 -108s105 48 105 108c0 59 -45 106 -105 106zM311 298c-29 0 -53 24 -53 52c0 29 24 53 53 53c28 0 52 -24 52 -53c0 -28 -24 -52 -52 -52z" />
    <glyph glyph-name="zero.numerator" unicode="&#xf661;" 
d="M309 301c-107 0 -157 87 -157 203s52 203 157 203c108 0 159 -87 159 -203s-53 -203 -159 -203zM309 363c62 0 84 57 84 141s-22 141 -84 141c-61 0 -83 -57 -83 -141s22 -141 83 -141z" />
    <glyph glyph-name="one.numerator" unicode="&#xf662;" 
d="M163 370h118v215c-12 -6 -27 -8 -44 -8h-78v61h76c52 0 53 44 53 62h69v-330h101v-62h-295v62z" />
    <glyph glyph-name="two.numerator" unicode="&#xf663;" 
d="M463 370v-62h-305v61l146 119c42 34 69 62 69 100c0 34 -26 55 -64 55s-82 -19 -77 -94l-74 10c-6 106 74 148 153 148c95 0 141 -55 141 -116c0 -60 -46 -104 -100 -148l-91 -73h202z" />
    <glyph glyph-name="three.numerator" unicode="&#xf664;" 
d="M321 481h-39v55h36c44 0 58 29 58 58c0 34 -29 50 -65 50c-43 0 -83 -24 -79 -82l-69 15c-2 85 71 130 152 130c88 0 138 -45 138 -105c0 -34 -15 -69 -54 -88c48 -16 67 -51 67 -90c0 -72 -57 -123 -151 -123c-78 0 -163 37 -161 127l73 16c0 -60 38 -81 86 -81
c43 0 76 21 76 64c0 28 -16 54 -68 54z" />
    <glyph glyph-name="four.numerator" unicode="&#xf665;" 
d="M136 452l184 248h101v-241h63v-63h-63v-88h-76v88h-209v56zM345 459v174l-129 -174h129z" />
    <glyph glyph-name="five.numerator" unicode="&#xf666;" 
d="M467 439c0 -76 -53 -138 -156 -138c-79 0 -147 37 -158 103l75 11c8 -34 39 -54 82 -54c48 0 82 26 82 75c0 44 -31 66 -76 66c-37 0 -68 -14 -87 -35l-58 25l31 208h236v-62h-178l-17 -103c22 14 50 26 87 26c91 0 137 -56 137 -122z" />
    <glyph glyph-name="six.numerator" unicode="&#xf667;" 
d="M465 435c0 -75 -61 -134 -148 -134c-98 0 -162 60 -162 195c0 145 71 211 164 211c66 0 124 -30 139 -100l-72 -13c-11 34 -31 52 -69 52c-66 0 -87 -68 -89 -128c24 29 63 43 100 43c81 0 137 -48 137 -126zM314 359c47 0 77 31 77 72c0 47 -29 73 -77 73
s-78 -31 -78 -73c0 -41 31 -72 78 -72z" />
    <glyph glyph-name="seven.numerator" unicode="&#xf668;" 
d="M149 571v129h321v-55c-98 -95 -138 -155 -138 -284v-53h-75v53c0 121 44 200 123 275h-167v-65h-64z" />
    <glyph glyph-name="eight.numerator" unicode="&#xf669;" 
d="M470 419c0 -66 -59 -118 -160 -118c-104 0 -160 52 -160 118c0 35 18 75 72 95c-47 20 -60 56 -60 87c0 57 52 106 148 106c98 0 148 -49 148 -106c0 -31 -13 -66 -58 -86c55 -20 70 -61 70 -96zM310 541c55 0 74 32 74 55c0 35 -32 55 -74 55c-43 0 -74 -20 -74 -55
c0 -23 19 -55 74 -55zM310 486c-58 0 -84 -30 -84 -63c0 -36 26 -65 84 -65s84 29 84 65c0 33 -26 63 -84 63z" />
    <glyph glyph-name="nine.numerator" unicode="&#xf66a;" 
d="M155 573c0 75 61 134 148 134c98 0 162 -60 162 -195c0 -145 -71 -211 -164 -211c-66 0 -124 30 -139 100l72 13c11 -34 31 -52 69 -52c66 0 87 68 89 128c-24 -29 -63 -43 -100 -43c-81 0 -137 48 -137 126zM306 649c-47 0 -77 -31 -77 -72c0 -47 29 -73 77 -73
s78 31 78 73c0 41 -31 72 -78 72z" />
    <glyph glyph-name="zero.denominator" unicode="&#xf655;" 
d="M309 -7c-107 0 -157 87 -157 203s52 203 157 203c108 0 159 -87 159 -203s-53 -203 -159 -203zM309 55c62 0 84 57 84 141s-22 141 -84 141c-61 0 -83 -57 -83 -141s22 -141 83 -141z" />
    <glyph glyph-name="one.denominator" unicode="&#xf656;" 
d="M163 62h118v215c-12 -6 -27 -8 -44 -8h-78v61h76c52 0 53 44 53 62h69v-330h101v-62h-295v62z" />
    <glyph glyph-name="two.denominator" unicode="&#xf657;" 
d="M463 62v-62h-305v61l146 119c42 34 69 62 69 100c0 34 -26 55 -64 55s-82 -19 -77 -94l-74 10c-6 106 74 148 153 148c95 0 141 -55 141 -116c0 -60 -46 -104 -100 -148l-91 -73h202z" />
    <glyph glyph-name="three.denominator" unicode="&#xf658;" 
d="M321 173h-39v55h36c44 0 58 29 58 58c0 34 -29 50 -65 50c-43 0 -83 -24 -79 -82l-69 15c-2 85 71 130 152 130c88 0 138 -45 138 -105c0 -34 -15 -69 -54 -88c48 -16 67 -51 67 -90c0 -72 -57 -123 -151 -123c-78 0 -163 37 -161 127l73 16c0 -60 38 -81 86 -81
c43 0 76 21 76 64c0 28 -16 54 -68 54z" />
    <glyph glyph-name="four.denominator" unicode="&#xf659;" 
d="M136 144l184 248h101v-241h63v-63h-63v-88h-76v88h-209v56zM345 151v174l-129 -174h129z" />
    <glyph glyph-name="five.denominator" unicode="&#xf65a;" 
d="M467 131c0 -76 -53 -138 -156 -138c-79 0 -147 37 -158 103l75 11c8 -34 39 -54 82 -54c48 0 82 26 82 75c0 44 -31 66 -76 66c-37 0 -68 -14 -87 -35l-58 25l31 208h236v-62h-178l-17 -103c22 14 50 26 87 26c91 0 137 -56 137 -122z" />
    <glyph glyph-name="six.denominator" unicode="&#xf65b;" 
d="M465 127c0 -75 -61 -134 -148 -134c-98 0 -162 60 -162 195c0 145 71 211 164 211c66 0 124 -30 139 -100l-72 -13c-11 34 -31 52 -69 52c-66 0 -87 -68 -89 -128c24 29 63 43 100 43c81 0 137 -48 137 -126zM314 51c47 0 77 31 77 72c0 47 -29 73 -77 73
s-78 -31 -78 -73c0 -41 31 -72 78 -72z" />
    <glyph glyph-name="seven.denominator" unicode="&#xf65c;" 
d="M149 263v129h321v-55c-98 -95 -138 -155 -138 -284v-53h-75v53c0 121 44 200 123 275h-167v-65h-64z" />
    <glyph glyph-name="eight.denominator" unicode="&#xf65d;" 
d="M470 111c0 -66 -59 -118 -160 -118c-104 0 -160 52 -160 118c0 35 18 75 72 95c-47 20 -60 56 -60 87c0 57 52 106 148 106c98 0 148 -49 148 -106c0 -31 -13 -66 -58 -86c55 -20 70 -61 70 -96zM310 233c55 0 74 32 74 55c0 35 -32 55 -74 55c-43 0 -74 -20 -74 -55
c0 -23 19 -55 74 -55zM310 178c-58 0 -84 -30 -84 -63c0 -36 26 -65 84 -65s84 29 84 65c0 33 -26 63 -84 63z" />
    <glyph glyph-name="nine.denominator" unicode="&#xf65e;" 
d="M155 265c0 75 61 134 148 134c98 0 162 -60 162 -195c0 -145 -71 -211 -164 -211c-66 0 -124 30 -139 100l72 13c11 -34 31 -52 69 -52c66 0 87 68 89 128c-24 -29 -63 -43 -100 -43c-81 0 -137 48 -137 126zM306 341c-47 0 -77 -31 -77 -72c0 -47 29 -73 77 -73
s78 31 78 73c0 41 -31 72 -78 72z" />
    <glyph glyph-name="caron.salt" 
d="M288 700h78l-38 -162h-74z" />
    <glyph glyph-name="commaaccent.salt" 
d="M334 587h-94l58 144h82z" />
    <glyph glyph-name="acute.case" 
d="M310 926h89l-91 -145h-86z" />
    <glyph glyph-name="grave.case" 
d="M311 926l88 -145h-89l-90 145h91z" />
    <glyph glyph-name="hungarumlaut.case" 
d="M230 926h87l-87 -145h-84zM388 926h88l-100 -145h-85z" />
    <glyph glyph-name="circumflex.case" 
d="M262 926h96l90 -145h-84l-54 90l-57 -90h-81z" />
    <glyph glyph-name="caron.case" 
d="M358 781h-96l-90 145h84l54 -90l57 90h81z" />
    <glyph glyph-name="breve.case" 
d="M311 840c42 0 65 31 65 84h69c0 -70 -30 -145 -135 -145s-135 75 -135 145h71c0 -52 22 -84 65 -84z" />
    <glyph glyph-name="tilde.case" 
d="M366 873c17 0 21 10 21 33h67c2 -59 -18 -104 -72 -104c-45 0 -81 34 -118 34c-23 0 -29 -18 -31 -37h-67c3 58 25 107 87 107c44 0 85 -33 113 -33z" />
    <glyph glyph-name="macron.case" 
d="M185 813v71h250v-71h-250z" />
    <glyph glyph-name="dieresis.case" 
d="M189 782v119h86v-119h-86zM345 782v119h86v-119h-86z" />
    <glyph glyph-name="dotaccent.case" 
d="M264 782v119h92v-119h-92z" />
    <glyph glyph-name="ring.case" 
d="M310 990c72 0 115 -49 115 -106c0 -56 -42 -105 -115 -105c-74 0 -115 49 -115 105c0 57 41 106 115 106zM310 943c-37 0 -54 -27 -54 -59c0 -33 17 -59 54 -59c36 0 54 26 54 59c0 32 -18 59 -54 59z" />
    <glyph glyph-name="zero.inferior" unicode="&#x2080;" 
d="M309 -164c-107 0 -157 87 -157 203s52 203 157 203c108 0 159 -87 159 -203s-53 -203 -159 -203zM309 -102c62 0 84 57 84 141s-22 141 -84 141c-61 0 -83 -57 -83 -141s22 -141 83 -141z" />
    <glyph glyph-name="one.inferior" unicode="&#x2081;" 
d="M163 -95h118v215c-12 -6 -27 -8 -44 -8h-78v61h76c52 0 53 44 53 62h69v-330h101v-62h-295v62z" />
    <glyph glyph-name="two.inferior" unicode="&#x2082;" 
d="M463 -95v-62h-305v61l146 119c42 34 69 62 69 100c0 34 -26 55 -64 55s-82 -19 -77 -94l-74 10c-6 106 74 148 153 148c95 0 141 -55 141 -116c0 -60 -46 -104 -100 -148l-91 -73h202z" />
    <glyph glyph-name="three.inferior" unicode="&#x2083;" 
d="M321 16h-39v55h36c44 0 58 29 58 58c0 34 -29 50 -65 50c-43 0 -83 -24 -79 -82l-69 15c-2 85 71 130 152 130c88 0 138 -45 138 -105c0 -34 -15 -69 -54 -88c48 -16 67 -51 67 -90c0 -72 -57 -123 -151 -123c-78 0 -163 37 -161 127l73 16c0 -60 38 -81 86 -81
c43 0 76 21 76 64c0 28 -16 54 -68 54z" />
    <glyph glyph-name="four.inferior" unicode="&#x2084;" 
d="M136 -13l184 248h101v-241h63v-63h-63v-88h-76v88h-209v56zM345 -6v174l-129 -174h129z" />
    <glyph glyph-name="five.inferior" unicode="&#x2085;" 
d="M467 -26c0 -76 -53 -138 -156 -138c-79 0 -147 37 -158 103l75 11c8 -34 39 -54 82 -54c48 0 82 26 82 75c0 44 -31 66 -76 66c-37 0 -68 -14 -87 -35l-58 25l31 208h236v-62h-178l-17 -103c22 14 50 26 87 26c91 0 137 -56 137 -122z" />
    <glyph glyph-name="six.inferior" unicode="&#x2086;" 
d="M465 -30c0 -75 -61 -134 -148 -134c-98 0 -162 60 -162 195c0 145 71 211 164 211c66 0 124 -30 139 -100l-72 -13c-11 34 -31 52 -69 52c-66 0 -87 -68 -89 -128c24 29 63 43 100 43c81 0 137 -48 137 -126zM314 -106c47 0 77 31 77 72c0 47 -29 73 -77 73
s-78 -31 -78 -73c0 -41 31 -72 78 -72z" />
    <glyph glyph-name="seven.inferior" unicode="&#x2087;" 
d="M149 106v129h321v-55c-98 -95 -138 -155 -138 -284v-53h-75v53c0 121 44 200 123 275h-167v-65h-64z" />
    <glyph glyph-name="eight.inferior" unicode="&#x2088;" 
d="M470 -46c0 -66 -59 -118 -160 -118c-104 0 -160 52 -160 118c0 35 18 75 72 95c-47 20 -60 56 -60 87c0 57 52 106 148 106c98 0 148 -49 148 -106c0 -31 -13 -66 -58 -86c55 -20 70 -61 70 -96zM310 76c55 0 74 32 74 55c0 35 -32 55 -74 55c-43 0 -74 -20 -74 -55
c0 -23 19 -55 74 -55zM310 21c-58 0 -84 -30 -84 -63c0 -36 26 -65 84 -65s84 29 84 65c0 33 -26 63 -84 63z" />
    <glyph glyph-name="nine.inferior" unicode="&#x2089;" 
d="M155 108c0 75 61 134 148 134c98 0 162 -60 162 -195c0 -145 -71 -211 -164 -211c-66 0 -124 30 -139 100l72 13c11 -34 31 -52 69 -52c66 0 87 68 89 128c-24 -29 -63 -43 -100 -43c-81 0 -137 48 -137 126zM306 184c-47 0 -77 -31 -77 -72c0 -47 29 -73 77 -73
s78 31 78 73c0 41 -31 72 -78 72z" />
    <glyph glyph-name="zero.superior" unicode="&#x2070;" 
d="M309 458c-107 0 -157 87 -157 203s52 203 157 203c108 0 159 -87 159 -203s-53 -203 -159 -203zM309 520c62 0 84 57 84 141s-22 141 -84 141c-61 0 -83 -57 -83 -141s22 -141 83 -141z" />
    <glyph glyph-name="four.superior" unicode="&#x2074;" 
d="M136 609l184 248h101v-241h63v-63h-63v-88h-76v88h-209v56zM345 616v174l-129 -174h129z" />
    <glyph glyph-name="five.superior" unicode="&#x2075;" 
d="M467 596c0 -76 -53 -138 -156 -138c-79 0 -147 37 -158 103l75 11c8 -34 39 -54 82 -54c48 0 82 26 82 75c0 44 -31 66 -76 66c-37 0 -68 -14 -87 -35l-58 25l31 208h236v-62h-178l-17 -103c22 14 50 26 87 26c91 0 137 -56 137 -122z" />
    <glyph glyph-name="six.superior" unicode="&#x2076;" 
d="M465 592c0 -75 -61 -134 -148 -134c-98 0 -162 60 -162 195c0 145 71 211 164 211c66 0 124 -30 139 -100l-72 -13c-11 34 -31 52 -69 52c-66 0 -87 -68 -89 -128c24 29 63 43 100 43c81 0 137 -48 137 -126zM314 516c47 0 77 31 77 72c0 47 -29 73 -77 73
s-78 -31 -78 -73c0 -41 31 -72 78 -72z" />
    <glyph glyph-name="seven.superior" unicode="&#x2077;" 
d="M149 728v129h321v-55c-98 -95 -138 -155 -138 -284v-53h-75v53c0 121 44 200 123 275h-167v-65h-64z" />
    <glyph glyph-name="eight.superior" unicode="&#x2078;" 
d="M470 576c0 -66 -59 -118 -160 -118c-104 0 -160 52 -160 118c0 35 18 75 72 95c-47 20 -60 56 -60 87c0 57 52 106 148 106c98 0 148 -49 148 -106c0 -31 -13 -66 -58 -86c55 -20 70 -61 70 -96zM310 698c55 0 74 32 74 55c0 35 -32 55 -74 55c-43 0 -74 -20 -74 -55
c0 -23 19 -55 74 -55zM310 643c-58 0 -84 -30 -84 -63c0 -36 26 -65 84 -65s84 29 84 65c0 33 -26 63 -84 63z" />
    <glyph glyph-name="nine.superior" unicode="&#x2079;" 
d="M155 730c0 75 61 134 148 134c98 0 162 -60 162 -195c0 -145 -71 -211 -164 -211c-66 0 -124 30 -139 100l72 13c11 -34 31 -52 69 -52c66 0 87 68 89 128c-24 -29 -63 -43 -100 -43c-81 0 -137 48 -137 126zM306 806c-47 0 -77 -31 -77 -72c0 -47 29 -73 77 -73
s78 31 78 73c0 41 -31 72 -78 72z" />
    <glyph glyph-name="a.alt2" 
d="M285 -12c-138 0 -223 104 -223 258c0 155 84 266 223 266c74 0 127 -32 162 -81v69h89v-500h-87v75c-35 -52 -88 -87 -164 -87zM298 65c95 0 151 76 151 185c0 106 -57 186 -151 186s-145 -78 -145 -186c0 -107 51 -185 145 -185z" />
    <glyph glyph-name="agrave.alt2" 
d="M256 726l88 -145h-89l-90 145h91zM285 -12c-138 0 -223 104 -223 258c0 155 84 266 223 266c74 0 127 -32 162 -81v69h89v-500h-87v75c-35 -52 -88 -87 -164 -87zM298 65c95 0 151 76 151 185c0 106 -57 186 -151 186s-145 -78 -145 -186c0 -107 51 -185 145 -185z" />
    <glyph glyph-name="aacute.alt2" 
d="M356 726h89l-91 -145h-86zM285 -12c-138 0 -223 104 -223 258c0 155 84 266 223 266c74 0 127 -32 162 -81v69h89v-500h-87v75c-35 -52 -88 -87 -164 -87zM298 65c95 0 151 76 151 185c0 106 -57 186 -151 186s-145 -78 -145 -186c0 -107 51 -185 145 -185z" />
    <glyph glyph-name="acircumflex.alt2" 
d="M256 726h96l90 -145h-84l-54 90l-57 -90h-81zM285 -12c-138 0 -223 104 -223 258c0 155 84 266 223 266c74 0 127 -32 162 -81v69h89v-500h-87v75c-35 -52 -88 -87 -164 -87zM298 65c95 0 151 76 151 185c0 106 -57 186 -151 186s-145 -78 -145 -186
c0 -107 51 -185 145 -185z" />
    <glyph glyph-name="atilde.alt2" 
d="M360 673c17 0 21 10 21 33h67c2 -59 -18 -104 -72 -104c-45 0 -81 34 -118 34c-23 0 -29 -18 -31 -37h-67c3 58 25 107 87 107c44 0 85 -33 113 -33zM285 -12c-138 0 -223 104 -223 258c0 155 84 266 223 266c74 0 127 -32 162 -81v69h89v-500h-87v75
c-35 -52 -88 -87 -164 -87zM298 65c95 0 151 76 151 185c0 106 -57 186 -151 186s-145 -78 -145 -186c0 -107 51 -185 145 -185z" />
    <glyph glyph-name="adieresis.alt2" 
d="M183 582v119h86v-119h-86zM339 582v119h86v-119h-86zM285 -12c-138 0 -223 104 -223 258c0 155 84 266 223 266c74 0 127 -32 162 -81v69h89v-500h-87v75c-35 -52 -88 -87 -164 -87zM298 65c95 0 151 76 151 185c0 106 -57 186 -151 186s-145 -78 -145 -186
c0 -107 51 -185 145 -185z" />
    <glyph glyph-name="aring.alt2" 
d="M304 790c72 0 115 -49 115 -106c0 -56 -42 -105 -115 -105c-74 0 -115 49 -115 105c0 57 41 106 115 106zM304 743c-37 0 -54 -27 -54 -59c0 -33 17 -59 54 -59c36 0 54 26 54 59c0 32 -18 59 -54 59zM285 -12c-138 0 -223 104 -223 258c0 155 84 266 223 266
c74 0 127 -32 162 -81v69h89v-500h-87v75c-35 -52 -88 -87 -164 -87zM298 65c95 0 151 76 151 185c0 106 -57 186 -151 186s-145 -78 -145 -186c0 -107 51 -185 145 -185z" />
    <glyph glyph-name="amacron.alt2" 
d="M179 613v71h250v-71h-250zM285 -12c-138 0 -223 104 -223 258c0 155 84 266 223 266c74 0 127 -32 162 -81v69h89v-500h-87v75c-35 -52 -88 -87 -164 -87zM298 65c95 0 151 76 151 185c0 106 -57 186 -151 186s-145 -78 -145 -186c0 -107 51 -185 145 -185z" />
    <glyph glyph-name="abreve.alt2" 
d="M305 640c42 0 65 31 65 84h69c0 -70 -30 -145 -135 -145s-135 75 -135 145h71c0 -52 22 -84 65 -84zM285 -12c-138 0 -223 104 -223 258c0 155 84 266 223 266c74 0 127 -32 162 -81v69h89v-500h-87v75c-35 -52 -88 -87 -164 -87zM298 65c95 0 151 76 151 185
c0 106 -57 186 -151 186s-145 -78 -145 -186c0 -107 51 -185 145 -185z" />
    <glyph glyph-name="aogonek.alt2" 
d="M285 -12c-138 0 -223 104 -223 258c0 155 84 266 223 266c74 0 127 -32 162 -81v69h89v-500c-64 -55 -89 -85 -89 -121c0 -30 20 -39 46 -39c11 0 21 2 34 7v-60c-14 -7 -30 -13 -56 -13c-60 0 -97 39 -97 87c0 54 27 90 90 139h-15v75c-35 -52 -88 -87 -164 -87zM298 65
c95 0 151 76 151 185c0 106 -57 186 -151 186s-145 -78 -145 -186c0 -107 51 -185 145 -185z" />
    <glyph glyph-name="a.alt" 
d="M320 441c-94 0 -117 -57 -125 -93l-84 10c11 70 73 154 213 154s196 -86 196 -175v-337h-83v72c-34 -54 -89 -84 -162 -84c-120 0 -177 72 -177 146c0 89 62 139 151 154l153 25c26 4 31 22 31 36c0 21 -13 92 -113 92zM186 140c0 -45 31 -81 100 -81
c81 0 148 62 148 163v29l-164 -28c-61 -10 -84 -44 -84 -83z" />
    <glyph glyph-name="agrave.alt" 
d="M276 726l88 -145h-89l-90 145h91zM320 441c-94 0 -117 -57 -125 -93l-84 10c11 70 73 154 213 154s196 -86 196 -175v-337h-83v72c-34 -54 -89 -84 -162 -84c-120 0 -177 72 -177 146c0 89 62 139 151 154l153 25c26 4 31 22 31 36c0 21 -13 92 -113 92zM186 140
c0 -45 31 -81 100 -81c81 0 148 62 148 163v29l-164 -28c-61 -10 -84 -44 -84 -83z" />
    <glyph glyph-name="aacute.alt" 
d="M371 726h89l-91 -145h-86zM320 441c-94 0 -117 -57 -125 -93l-84 10c11 70 73 154 213 154s196 -86 196 -175v-337h-83v72c-34 -54 -89 -84 -162 -84c-120 0 -177 72 -177 146c0 89 62 139 151 154l153 25c26 4 31 22 31 36c0 21 -13 92 -113 92zM186 140
c0 -45 31 -81 100 -81c81 0 148 62 148 163v29l-164 -28c-61 -10 -84 -44 -84 -83z" />
    <glyph glyph-name="acircumflex.alt" 
d="M275 726h96l90 -145h-84l-54 90l-57 -90h-81zM320 441c-94 0 -117 -57 -125 -93l-84 10c11 70 73 154 213 154s196 -86 196 -175v-337h-83v72c-34 -54 -89 -84 -162 -84c-120 0 -177 72 -177 146c0 89 62 139 151 154l153 25c26 4 31 22 31 36c0 21 -13 92 -113 92z
M186 140c0 -45 31 -81 100 -81c81 0 148 62 148 163v29l-164 -28c-61 -10 -84 -44 -84 -83z" />
    <glyph glyph-name="atilde.alt" 
d="M380 673c17 0 21 10 21 33h67c2 -59 -18 -104 -72 -104c-45 0 -81 34 -118 34c-23 0 -29 -18 -31 -37h-67c3 58 25 107 87 107c44 0 85 -33 113 -33zM320 441c-94 0 -117 -57 -125 -93l-84 10c11 70 73 154 213 154s196 -86 196 -175v-337h-83v72
c-34 -54 -89 -84 -162 -84c-120 0 -177 72 -177 146c0 89 62 139 151 154l153 25c26 4 31 22 31 36c0 21 -13 92 -113 92zM186 140c0 -45 31 -81 100 -81c81 0 148 62 148 163v29l-164 -28c-61 -10 -84 -44 -84 -83z" />
    <glyph glyph-name="adieresis.alt" 
d="M202 582v119h86v-119h-86zM358 582v119h86v-119h-86zM320 441c-94 0 -117 -57 -125 -93l-84 10c11 70 73 154 213 154s196 -86 196 -175v-337h-83v72c-34 -54 -89 -84 -162 -84c-120 0 -177 72 -177 146c0 89 62 139 151 154l153 25c26 4 31 22 31 36
c0 21 -13 92 -113 92zM186 140c0 -45 31 -81 100 -81c81 0 148 62 148 163v29l-164 -28c-61 -10 -84 -44 -84 -83z" />
    <glyph glyph-name="aring.alt" 
d="M323 790c72 0 115 -49 115 -106c0 -56 -42 -105 -115 -105c-74 0 -115 49 -115 105c0 57 41 106 115 106zM323 743c-37 0 -54 -27 -54 -59c0 -33 17 -59 54 -59c36 0 54 26 54 59c0 32 -18 59 -54 59zM320 441c-94 0 -117 -57 -125 -93l-84 10c11 70 73 154 213 154
s196 -86 196 -175v-337h-83v72c-34 -54 -89 -84 -162 -84c-120 0 -177 72 -177 146c0 89 62 139 151 154l153 25c26 4 31 22 31 36c0 21 -13 92 -113 92zM186 140c0 -45 31 -81 100 -81c81 0 148 62 148 163v29l-164 -28c-61 -10 -84 -44 -84 -83z" />
    <glyph glyph-name="amacron.alt" 
d="M199 613v71h250v-71h-250zM320 441c-94 0 -117 -57 -125 -93l-84 10c11 70 73 154 213 154s196 -86 196 -175v-337h-83v72c-34 -54 -89 -84 -162 -84c-120 0 -177 72 -177 146c0 89 62 139 151 154l153 25c26 4 31 22 31 36c0 21 -13 92 -113 92zM186 140
c0 -45 31 -81 100 -81c81 0 148 62 148 163v29l-164 -28c-61 -10 -84 -44 -84 -83z" />
    <glyph glyph-name="abreve.alt" 
d="M325 640c42 0 65 31 65 84h69c0 -70 -30 -145 -135 -145s-135 75 -135 145h71c0 -52 22 -84 65 -84zM320 441c-94 0 -117 -57 -125 -93l-84 10c11 70 73 154 213 154s196 -86 196 -175v-337h-83v72c-34 -54 -89 -84 -162 -84c-120 0 -177 72 -177 146
c0 89 62 139 151 154l153 25c26 4 31 22 31 36c0 21 -13 92 -113 92zM186 140c0 -45 31 -81 100 -81c81 0 148 62 148 163v29l-164 -28c-61 -10 -84 -44 -84 -83z" />
    <glyph glyph-name="aogonek.alt" 
d="M455 -226c-60 0 -97 39 -97 87c0 54 27 90 90 139h-11v72c-34 -54 -89 -84 -162 -84c-120 0 -177 72 -177 146c0 89 62 139 151 154l153 25c26 4 31 22 31 36c0 21 -13 92 -113 92c-94 0 -117 -57 -125 -93l-84 10c11 70 73 154 213 154s196 -86 196 -175v-337
c-64 -55 -89 -85 -89 -121c0 -30 20 -39 46 -39c11 0 21 2 34 7v-60c-14 -7 -30 -13 -56 -13zM186 140c0 -45 31 -81 100 -81c81 0 148 62 148 163v29l-164 -28c-61 -10 -84 -44 -84 -83z" />
    <glyph glyph-name="y.alt" 
d="M58 500h94l160 -395l160 395h91l-280 -685h-89l71 177z" />
    <glyph glyph-name="yacute.alt" 
d="M360 726h89l-91 -145h-86zM58 500h94l160 -395l160 395h91l-280 -685h-89l71 177z" />
    <glyph glyph-name="ydieresis.alt" 
d="M192 582v119h86v-119h-86zM348 582v119h86v-119h-86zM58 500h94l160 -395l160 395h91l-280 -685h-89l71 177z" />
    <glyph glyph-name="ycircumflex.alt" 
d="M265 726h96l90 -145h-84l-54 90l-57 -90h-81zM58 500h94l160 -395l160 395h91l-280 -685h-89l71 177z" />
    <glyph glyph-name="ygrave.alt" 
d="M266 726l88 -145h-89l-90 145h91zM58 500h94l160 -395l160 395h91l-280 -685h-89l71 177z" />
    <glyph glyph-name="oslash.alt" 
d="M169 -40h-102l68 96c-45 47 -70 115 -70 194c0 151 91 262 244 262c39 0 73 -7 104 -20l41 60h101l-74 -107c47 -47 72 -115 72 -195c0 -151 -92 -262 -244 -262c-40 0 -76 7 -106 21zM309 437c-102 0 -153 -81 -153 -187c0 -107 51 -187 153 -187s153 80 153 187
c0 106 -51 187 -153 187z" />
    <glyph glyph-name="one.alt" 
d="M102 590h157c88 0 89 78 89 110h91v-700h-95v530c-21 -13 -48 -19 -79 -19h-163v79z" />
    <glyph glyph-name="dollar.alt" 
d="M359 -133h-82v124c-125 17 -202 102 -205 227l92 10c4 -114 67 -164 157 -164c107 0 135 70 135 119c0 75 -38 96 -122 122l-68 21c-76 24 -173 63 -173 200c0 82 57 172 184 184v123h82v-125c114 -20 167 -109 176 -201l-94 -10c-12 108 -67 139 -133 139
c-100 0 -126 -65 -126 -111c0 -73 41 -96 109 -117l75 -23c121 -37 182 -82 182 -199c0 -92 -63 -183 -189 -196v-123z" />
    <glyph glyph-name="cent.alt" 
d="M140 -84l41 112c-64 44 -97 124 -97 220c0 152 85 264 235 264c14 0 28 -1 41 -3l31 83h87l-39 -107c57 -30 91 -84 101 -157l-90 -10c-13 76 -55 118 -132 118c-100 0 -143 -82 -143 -188c0 -105 45 -184 145 -184c76 0 121 46 130 120l87 -10
c-13 -112 -95 -186 -218 -186c-22 0 -43 2 -62 7l-30 -79h-87z" />
    <glyph glyph-name="linea" horiz-adv-x="0" 
d="M-4 980h8v-1210h-8v1210z" />
  </font>
</defs>
</svg>
