<?xml version="1.0" standalone="no"?>
<!DOCTYPE svg PUBLIC "-//W3C//DTD SVG 1.1//EN" "http://www.w3.org/Graphics/SVG/1.1/DTD/svg11.dtd" >
<svg xmlns="http://www.w3.org/2000/svg" xmlns:xlink="http://www.w3.org/1999/xlink" version="1.1">
<metadata>
Copyright c 2020 by Eduardo Manso. All rights reserved.
</metadata>
<defs>
<font id="ApproachMono-Medium" horiz-adv-x="620" >
  <font-face 
    font-family="Approach Mono"
    font-weight="500"
    font-stretch="normal"
    units-per-em="1000"
    panose-1="2 11 6 9 4 5 1 6 1 4"
    ascent="750"
    descent="-250"
    x-height="503"
    cap-height="700"
    bbox="-8 -250 703 990"
    underline-thickness="0"
    underline-position="-93"
    stemh="90"
    stemv="111"
    unicode-range="U+0020-1F78B"
  />
<missing-glyph horiz-adv-x="500" 
d="M50 -250v1000h400v-1000h-400zM100 -200h300v900h-300v-900z" />
    <glyph glyph-name="fi" unicode="fi" 
d="M121 0v414h-82v89h82v35c0 86 44 162 168 162h247v-91h-239c-55 0 -66 -39 -66 -79v-27h305v-503h-110v414h-195v-414h-110z" />
    <glyph glyph-name="fl" unicode="fl" 
d="M121 0v414h-82v89h82v35c0 86 44 162 168 162h247v-700h-110v609h-129c-55 0 -66 -39 -66 -79v-27h100v-89h-100v-414h-110z" />
    <glyph glyph-name=".notdef" horiz-adv-x="500" 
d="M50 -250v1000h400v-1000h-400zM100 -200h300v900h-300v-900z" />
    <glyph glyph-name="Eth" unicode="&#xd0;" 
d="M16 394h69v306h184c194 0 305 -137 305 -340c0 -210 -112 -360 -305 -360h-184v304h-69v90zM271 599h-69v-205h142v-90h-142v-203h69c118 0 183 107 183 259c0 142 -65 239 -183 239z" />
    <glyph glyph-name="eth" unicode="&#xf0;" 
d="M310 -12c-158 0 -251 108 -251 255c0 148 88 256 238 256c57 0 105 -23 138 -60c-19 51 -43 97 -72 139l-75 -33l-28 59l62 28c-19 23 -40 46 -62 68h127c11 -11 21 -22 31 -33l71 33l29 -60l-58 -26c86 -122 101 -243 101 -334c0 -178 -89 -292 -251 -292zM310 409
c-94 0 -139 -71 -139 -166c0 -94 45 -164 139 -164s139 70 139 164c0 95 -45 166 -139 166z" />
    <glyph glyph-name="Lslash" unicode="&#x141;" 
d="M14 321l100 58v321h117v-252l95 55l43 -74l-138 -80v-248h340v-101h-457v280l-57 -32z" />
    <glyph glyph-name="lslash" unicode="&#x142;" 
d="M93 89h179v206l-81 -47l-43 72l124 72v219h-179v89h289v-243l79 46l43 -73l-122 -71v-270h178v-89h-467v89z" />
    <glyph glyph-name="Scaron" unicode="&#x160;" 
d="M361 776h-108l-100 150h100l54 -85l56 85h97zM574 204c0 -109 -83 -216 -250 -216c-170 0 -275 88 -278 229l117 13c4 -101 67 -147 161 -147c102 0 131 64 131 111c0 60 -35 84 -107 99l-91 19c-89 19 -190 65 -190 201c0 94 77 199 240 199c171 0 244 -99 254 -204
l-119 -13c-11 94 -68 122 -136 122c-97 0 -122 -57 -122 -99c0 -61 35 -88 95 -100l108 -21c119 -23 187 -82 187 -193z" />
    <glyph glyph-name="scaron" unicode="&#x161;" 
d="M365 576h-108l-100 150h100l54 -85l56 85h97zM537 152c0 -94 -69 -164 -220 -164c-164 0 -227 83 -233 165l110 13c7 -63 49 -94 127 -94c84 0 106 34 106 73c0 36 -33 51 -88 61l-75 13c-75 13 -163 40 -163 145c0 79 68 151 212 151c155 0 204 -84 215 -155l-101 -13
c-11 47 -42 85 -119 85c-81 0 -102 -34 -102 -61c0 -38 30 -50 82 -59l83 -15c102 -18 166 -54 166 -145z" />
    <glyph glyph-name="Yacute" unicode="&#xdd;" 
d="M353 926h104l-95 -150h-100zM18 700h126l167 -313l169 313h123l-234 -422v-278h-117v272z" />
    <glyph glyph-name="yacute" unicode="&#xfd;" 
d="M357 726h104l-95 -150h-100zM51 503h116l146 -369l147 369h110l-222 -547c-39 -97 -80 -141 -186 -141h-86v91h86c49 0 68 20 82 55l14 36z" />
    <glyph glyph-name="Thorn" unicode="&#xde;" 
d="M73 700h116v-117h140c151 0 249 -102 249 -223c0 -130 -99 -242 -251 -242h-138v-118h-116v700zM312 488h-123v-274h123c90 0 149 62 149 145c0 73 -59 129 -149 129z" />
    <glyph glyph-name="thorn" unicode="&#xfe;" 
d="M342 515c139 0 225 -104 225 -260c0 -154 -85 -267 -225 -267c-70 0 -122 29 -157 76v-249h-110v885h110v-263c35 47 86 78 157 78zM321 422c-87 0 -138 -70 -138 -171c0 -96 52 -170 138 -170s133 72 133 170c0 99 -47 171 -133 171z" />
    <glyph glyph-name="Zcaron" unicode="&#x17d;" 
d="M369 776h-108l-100 150h100l54 -85l56 85h97zM579 100v-100h-525v89l365 511h-352v100h498v-89l-366 -511h380z" />
    <glyph glyph-name="zcaron" unicode="&#x17e;" 
d="M366 576h-108l-100 150h100l54 -85l56 85h97zM535 91v-91h-450v80l306 332h-291v91h424v-83l-303 -329h314z" />
    <glyph glyph-name="onehalf" unicode="&#xbd;" 
d="M353 400l164 300h82l-166 -300h-80zM43 428h97v166c-11 -4 -24 -7 -38 -7h-64v61h63c45 0 46 37 46 52h67v-272h82v-61h-253v61zM577 61v-61h-263v59l120 99c32 27 54 49 54 78c0 24 -17 41 -46 41c-28 0 -60 -16 -56 -73l-73 9c-4 90 64 126 132 126
c82 0 121 -47 121 -99c0 -50 -37 -90 -83 -126l-67 -53h161zM21 0l166 300h80l-164 -300h-82z" />
    <glyph glyph-name="onequarter" unicode="&#xbc;" 
d="M43 428h97v166c-11 -4 -24 -7 -38 -7h-64v61h63c45 0 46 37 46 52h67v-272h82v-61h-253v61zM353 400l164 300h82l-166 -300h-80zM311 126l147 207h101v-200h51v-62h-51v-71h-74v71h-174v55zM21 0l166 300h80l-164 -300h-82zM485 133v135l-98 -135h98z" />
    <glyph glyph-name="onesuperior" unicode="&#xb9;" 
d="M162 537h114v195c-13 -5 -28 -8 -44 -8h-75v71h73c53 0 55 44 55 62h78v-320h97v-72h-298v72z" />
    <glyph glyph-name="threequarters" unicode="&#xbe;" 
d="M166 512h-30v52h26c33 0 44 22 44 44c0 25 -20 38 -47 38c-33 0 -63 -19 -61 -65l-68 14c0 75 62 112 133 112c76 0 120 -39 120 -90c0 -28 -12 -57 -45 -73c40 -14 56 -43 56 -77c0 -62 -50 -105 -130 -105c-68 0 -142 32 -141 111l74 13c-1 -47 28 -63 63 -63
c33 0 57 16 57 48c0 20 -12 41 -51 41zM353 400l164 300h82l-166 -300h-80zM311 126l147 207h101v-200h51v-62h-51v-71h-74v71h-174v55zM21 0l166 300h80l-164 -300h-82zM485 133v135l-98 -135h98z" />
    <glyph glyph-name="threesuperior" unicode="&#xb3;" 
d="M319 634h-35v62h30c39 0 52 26 52 51c0 30 -24 45 -56 45c-38 0 -73 -22 -71 -77l-80 17c0 88 73 132 156 132c90 0 141 -46 141 -106c0 -33 -14 -67 -53 -86c47 -17 66 -51 66 -90c0 -73 -59 -124 -153 -124c-80 0 -167 37 -165 130l87 16c-1 -56 33 -74 74 -74
c39 0 67 18 67 56c0 24 -14 48 -60 48z" />
    <glyph glyph-name="twosuperior" unicode="&#xb2;" 
d="M466 537v-72h-310v69l142 117c38 32 63 57 63 92c0 28 -20 48 -54 48c-33 0 -71 -19 -66 -86l-86 11c-5 106 75 148 155 148c97 0 143 -55 143 -117c0 -59 -44 -105 -98 -148l-78 -62h189z" />
    <glyph glyph-name="brokenbar" unicode="&#xa6;" 
d="M359 405h-98v337h98v-337zM359 -132h-98v337h98v-337z" />
    <glyph glyph-name="minus" unicode="&#x2212;" 
d="M82 398h456v-95h-456v95z" />
    <glyph glyph-name="multiply" unicode="&#xd7;" 
d="M165 136l-69 67l146 147l-146 147l69 67l145 -146l146 146l69 -67l-147 -147l147 -147l-69 -67l-146 146z" />
    <glyph glyph-name="space" unicode=" " 
 />
    <glyph glyph-name="exclam" unicode="!" 
d="M247 700h126v-120l-22 -383h-82l-22 383v120zM244 136h133v-136h-133v136z" />
    <glyph glyph-name="quotedbl" unicode="&#x22;" 
d="M467 443h-107v257h107v-257zM261 443h-107v257h107v-257z" />
    <glyph glyph-name="numbersign" unicode="#" 
d="M223 0h-100l14 195h-98v82h104l10 146h-97v82h103l14 195h100l-14 -195h124l14 195h100l-14 -195h98v-82h-104l-10 -146h97v-82h-103l-14 -195h-100l14 195h-124zM243 277h124l10 146h-124z" />
    <glyph glyph-name="dollar" unicode="$" 
d="M352 -133h-69v123c-136 14 -219 99 -222 228l114 12c3 -88 44 -135 108 -148v227l-16 5c-81 25 -184 66 -184 205c0 86 61 181 200 192v122h69v-124c126 -16 185 -107 194 -202l-115 -12c-8 74 -39 108 -79 120v-215l14 -4c126 -36 193 -85 193 -202
c0 -99 -70 -194 -207 -205v-122zM192 523c0 -62 34 -83 91 -101v197c-71 -9 -91 -58 -91 -96zM444 186c0 60 -28 80 -92 102v-206c72 12 92 64 92 104z" />
    <glyph glyph-name="percent" unicode="%" 
d="M165 362c-93 0 -135 72 -135 173c0 99 44 172 135 172c93 0 137 -73 137 -172c0 -101 -46 -173 -137 -173zM353 400l164 300h82l-166 -300h-80zM165 423c47 0 63 44 63 112s-17 111 -63 111s-62 -43 -62 -111s16 -112 62 -112zM454 -7c-93 0 -135 72 -135 173
c0 99 44 172 135 172c93 0 137 -73 137 -172c0 -101 -46 -173 -137 -173zM21 0l166 300h80l-164 -300h-82zM454 54c47 0 63 44 63 112s-17 111 -63 111s-62 -43 -62 -111s16 -112 62 -112z" />
    <glyph glyph-name="ampersand" unicode="&#x26;" 
d="M38 181c0 98 67 151 135 191c-31 38 -74 99 -74 166c0 114 88 174 186 174s173 -54 173 -153c0 -90 -69 -143 -149 -191l142 -169c13 37 21 84 21 143l95 -11c0 -90 -19 -159 -50 -211l101 -120h-133l-40 48c-51 -43 -114 -60 -180 -60c-120 0 -227 59 -227 193zM202 546
c0 -46 23 -76 61 -123c64 44 98 80 98 131c0 46 -28 78 -76 78c-65 0 -83 -53 -83 -86zM150 194c0 -79 64 -114 127 -114c44 0 80 7 112 35l-168 198c-42 -29 -71 -61 -71 -119z" />
    <glyph glyph-name="quotesingle" unicode="'" 
d="M364 443h-107v257h107v-257z" />
    <glyph glyph-name="parenleft" unicode="(" 
d="M259 305c0 -180 103 -328 220 -437h-116c-120 110 -222 246 -222 437c0 190 103 328 222 437h116c-118 -109 -220 -257 -220 -437z" />
    <glyph glyph-name="parenright" unicode=")" 
d="M361 305c0 180 -103 328 -220 437h116c120 -110 222 -246 222 -437c0 -190 -103 -328 -222 -437h-116c118 109 220 257 220 437z" />
    <glyph glyph-name="asterisk" unicode="*" 
d="M476 349l-69 -48l-96 128l-97 -128l-68 48l91 123l-134 41l24 81l139 -43v149h88v-149l139 43l24 -81l-133 -41z" />
    <glyph glyph-name="plus" unicode="+" 
d="M261 123v180h-179v95h179v179h98v-179h179v-95h-179v-180h-98z" />
    <glyph glyph-name="comma" unicode="," 
d="M329 -121h-112l55 267h125z" />
    <glyph glyph-name="hyphen" unicode="-" 
d="M131 321h358v-97h-358v97z" />
    <glyph glyph-name="period" unicode="." 
d="M238 146h144v-146h-144v146z" />
    <glyph glyph-name="slash" unicode="/" 
d="M184 -132h-100l355 874h97z" />
    <glyph glyph-name="zero" unicode="0" 
d="M310 -12c-179 0 -264 147 -264 362s87 362 264 362c180 0 264 -147 264 -362s-86 -362 -264 -362zM164 350c0 -85 11 -155 38 -202l166 453c-16 8 -36 13 -58 13c-108 0 -146 -107 -146 -264zM310 86c107 0 146 107 146 264c0 81 -10 149 -35 195l-163 -449
c15 -7 33 -10 52 -10z" />
    <glyph glyph-name="one" unicode="1" 
d="M78 99h197v412c-21 -13 -48 -19 -80 -19h-119v98h113c88 0 89 78 89 110h114v-601h182v-99h-496v99z" />
    <glyph glyph-name="two" unicode="2" 
d="M427 508c0 65 -45 103 -109 103c-67 0 -139 -34 -131 -178l-114 15c-11 188 117 264 246 264c153 0 227 -96 227 -201c0 -106 -72 -192 -153 -263l-168 -149h342v-99h-496v98l248 223c68 62 108 115 108 187z" />
    <glyph glyph-name="three" unicode="3" 
d="M320 316h-64v88h58c83 0 109 56 109 111c0 67 -50 99 -114 99c-76 0 -132 -44 -135 -137l-107 23c2 135 115 212 246 212c146 0 227 -78 227 -186c0 -60 -26 -124 -96 -159c86 -29 119 -93 119 -162c0 -126 -94 -217 -250 -217c-132 0 -258 64 -265 204l118 22
c6 -86 62 -128 147 -128c77 0 132 40 132 124c0 54 -30 106 -125 106z" />
    <glyph glyph-name="four" unicode="4" 
d="M39 251l309 449h152v-436h81v-99h-81v-165h-118v165h-343v86zM382 264v318l-216 -318h216z" />
    <glyph glyph-name="five" unicode="5" 
d="M566 234c0 -138 -85 -246 -256 -246c-134 0 -238 64 -259 182l118 16c14 -63 61 -103 140 -103c86 0 139 50 139 146c0 86 -50 128 -126 128c-62 0 -112 -28 -143 -67l-95 39l54 371h376v-99h-285l-32 -199c34 25 81 48 144 48c151 0 225 -99 225 -216z" />
    <glyph glyph-name="six" unicode="6" 
d="M569 226c0 -134 -101 -238 -245 -238c-164 0 -268 107 -268 347c0 258 115 377 269 377c109 0 205 -53 231 -179l-115 -16c-19 63 -52 100 -119 100c-120 0 -149 -148 -152 -248c40 56 103 83 169 83c137 0 230 -86 230 -226zM319 80c81 0 134 61 134 140
c0 90 -49 140 -131 140c-86 0 -139 -61 -139 -141c0 -78 54 -139 136 -139z" />
    <glyph glyph-name="seven" unicode="7" 
d="M170 471h-103v229h518v-90c-164 -161 -224 -284 -224 -517v-93h-117v93c0 221 70 374 202 506h-276v-128z" />
    <glyph glyph-name="eight" unicode="8" 
d="M564 197c0 -119 -97 -209 -254 -209c-162 0 -254 90 -254 209c0 64 32 136 121 171c-78 34 -100 98 -100 156c0 104 84 188 233 188c154 0 233 -84 233 -188c0 -57 -22 -120 -97 -154c92 -35 118 -108 118 -173zM310 410c87 0 118 60 118 108c0 71 -51 104 -118 104
s-118 -33 -118 -104c0 -48 31 -108 118 -108zM310 324c-93 0 -137 -57 -137 -122c0 -69 44 -123 137 -123s137 54 137 123c0 65 -44 122 -137 122z" />
    <glyph glyph-name="nine" unicode="9" 
d="M51 474c0 134 101 238 245 238c164 0 268 -107 268 -347c0 -258 -115 -377 -269 -377c-109 0 -205 53 -231 179l115 16c19 -63 52 -100 119 -100c120 0 149 148 152 248c-40 -56 -103 -83 -169 -83c-137 0 -230 86 -230 226zM301 620c-81 0 -134 -61 -134 -140
c0 -90 49 -140 131 -140c86 0 139 61 139 141c0 78 -54 139 -136 139z" />
    <glyph glyph-name="colon" unicode=":" 
d="M238 503h144v-146h-144v146zM238 146h144v-146h-144v146z" />
    <glyph glyph-name="semicolon" unicode=";" 
d="M240 503h144v-146h-144v146zM306 -121h-112l55 267h125z" />
    <glyph glyph-name="less" unicode="&#x3c;" 
d="M85 393l450 203v-111l-314 -134l314 -134v-112l-450 202v86z" />
    <glyph glyph-name="equal" unicode="=" 
d="M82 506h456v-94h-456v94zM82 288h456v-94h-456v94z" />
    <glyph glyph-name="greater" unicode="&#x3e;" 
d="M535 393v-86l-450 -202v112l314 134l-314 134v111z" />
    <glyph glyph-name="question" unicode="?" 
d="M432 517c0 54 -33 98 -108 98c-73 0 -141 -41 -147 -172l-109 18c2 160 117 251 260 251c160 0 225 -94 225 -190c0 -100 -74 -156 -131 -205c-53 -44 -63 -56 -65 -120h-105c0 96 11 117 94 188c54 45 86 75 86 132zM239 136h133v-136h-133v136z" />
    <glyph glyph-name="at" unicode="@" 
d="M156 209c0 131 50 274 146 274c34 0 67 -21 79 -75l13 66h87l-57 -283c-12 -57 0 -84 29 -84c37 0 74 62 74 234c0 115 -23 303 -196 303c-166 0 -236 -185 -236 -396c0 -286 109 -376 251 -376c78 0 123 20 172 44l25 -62c-55 -29 -114 -51 -201 -51
c-190 0 -329 131 -329 443c0 227 87 466 318 466c180 0 275 -142 275 -369c0 -221 -74 -310 -161 -310c-47 0 -81 22 -97 74c-16 -46 -49 -73 -89 -73c-56 0 -103 58 -103 175zM246 214c0 -63 10 -98 37 -98c53 0 71 128 71 208c0 52 -14 78 -38 78c-45 0 -70 -109 -70 -188
z" />
    <glyph glyph-name="A" unicode="A" 
d="M142 0h-118l224 700h126l222 -700h-126l-43 150h-240zM308 559l-92 -311h182z" />
    <glyph glyph-name="B" unicode="B" 
d="M72 700h251c135 0 208 -77 208 -173c0 -65 -35 -123 -92 -158c81 -27 129 -91 129 -165c0 -113 -83 -204 -224 -204h-272v700zM308 605h-119v-201h115c68 0 107 48 107 108c0 51 -31 93 -103 93zM328 311h-139v-216h141c85 0 118 52 118 112c0 58 -41 104 -120 104z" />
    <glyph glyph-name="C" unicode="C" 
d="M567 454l-116 -16c-15 104 -52 172 -135 172c-104 0 -143 -105 -143 -260s39 -260 143 -260c81 0 118 69 133 161l114 -15c-23 -154 -108 -248 -247 -248c-179 0 -262 147 -262 362s85 362 262 362c145 0 230 -95 251 -258z" />
    <glyph glyph-name="D" unicode="D" 
d="M73 700h196c193 0 305 -137 305 -340c0 -210 -113 -360 -305 -360h-196v700zM271 599h-80v-498h80c118 0 183 107 183 259c0 142 -65 239 -183 239z" />
    <glyph glyph-name="E" unicode="E" 
d="M93 700h458v-100h-341v-196h301v-97h-301v-207h351v-100h-468v700z" />
    <glyph glyph-name="F" unicode="F" 
d="M93 700h477v-100h-360v-204h320v-100h-320v-296h-117v700z" />
    <glyph glyph-name="G" unicode="G" 
d="M46 346c0 217 92 366 267 366c131 0 208 -78 238 -222l-116 -20c-19 94 -56 141 -123 141c-103 0 -145 -108 -145 -265c0 -148 51 -256 150 -256c96 0 133 79 133 159v37h-120v93h226v-379h-103v68c-29 -49 -81 -80 -153 -80c-167 0 -254 151 -254 358z" />
    <glyph glyph-name="H" unicode="H" 
d="M73 700h117v-291h240v291h117v-700h-117v307h-240v-307h-117v700z" />
    <glyph glyph-name="I" unicode="I" 
d="M78 96h174v508h-174v96h464v-96h-173v-508h173v-96h-464v96z" />
    <glyph glyph-name="J" unicode="J" 
d="M206 700h329v-471c0 -156 -76 -241 -229 -241c-154 0 -232 87 -232 242v26l116 22v-46c0 -96 35 -145 115 -145s113 48 113 137v377h-212v99z" />
    <glyph glyph-name="K" unicode="K" 
d="M611 0h-138l-200 303l-82 -96v-207h-118v700h118v-342l275 342h136l-250 -308z" />
    <glyph glyph-name="L" unicode="L" 
d="M97 700h118v-599h356v-101h-474v700z" />
    <glyph glyph-name="M" unicode="M" 
d="M63 700h141l109 -319l108 319h137v-700h-104v552l-114 -329h-64l-111 324v-547h-102v700z" />
    <glyph glyph-name="N" unicode="N" 
d="M73 700h128l234 -458v458h112v-700h-102l-260 510v-510h-112v700z" />
    <glyph glyph-name="O" unicode="O" 
d="M310 -12c-179 0 -264 147 -264 362s87 362 264 362c180 0 264 -147 264 -362s-86 -362 -264 -362zM310 89c106 0 144 106 144 261s-38 261 -144 261s-144 -106 -144 -261s38 -261 144 -261z" />
    <glyph glyph-name="P" unicode="P" 
d="M73 700h256c154 0 249 -99 249 -223c0 -126 -95 -238 -249 -238h-139v-239h-117v700zM320 601h-130v-264h130c88 0 139 62 139 140c0 68 -51 124 -139 124z" />
    <glyph glyph-name="Q" unicode="Q" 
d="M556 -179h-151c-82 0 -154 33 -154 135v38c-139 29 -205 166 -205 356c0 215 87 362 264 362c180 0 264 -147 264 -362c0 -190 -67 -326 -205 -356v-31c0 -42 25 -50 53 -50h134v-92zM310 89c106 0 144 106 144 261s-38 261 -144 261s-144 -106 -144 -261
s38 -261 144 -261z" />
    <glyph glyph-name="R" unicode="R" 
d="M561 0h-117l-10 178c-4 68 -52 88 -123 88h-121v-266h-117v700h246c156 0 242 -90 242 -195c0 -78 -41 -146 -112 -183c60 -20 98 -64 102 -144zM310 601h-120v-238h119c85 0 133 57 133 130c0 58 -41 108 -132 108z" />
    <glyph glyph-name="S" unicode="S" 
d="M574 204c0 -109 -83 -216 -250 -216c-170 0 -275 88 -278 229l117 13c4 -101 67 -147 161 -147c102 0 131 64 131 111c0 60 -35 84 -107 99l-91 19c-89 19 -190 65 -190 201c0 94 77 199 240 199c171 0 244 -99 254 -204l-119 -13c-11 94 -68 122 -136 122
c-97 0 -122 -57 -122 -99c0 -61 35 -88 95 -100l108 -21c119 -23 187 -82 187 -193z" />
    <glyph glyph-name="T" unicode="T" 
d="M39 700h542v-101h-212v-599h-117v599h-213v101z" />
    <glyph glyph-name="U" unicode="U" 
d="M548 700v-476c0 -154 -106 -236 -237 -236s-239 82 -239 236v476h118v-476c0 -93 54 -135 121 -135c66 0 120 42 120 135v476h117z" />
    <glyph glyph-name="V" unicode="V" 
d="M25 700h124l164 -545l162 545h120l-225 -700h-121z" />
    <glyph glyph-name="W" unicode="W" 
d="M18 700h112l57 -495l78 355h95l79 -356l56 496h107l-93 -700h-109l-90 413l-89 -413h-110z" />
    <glyph glyph-name="X" unicode="X" 
d="M25 700h135l149 -254l154 254h131l-221 -348l225 -352h-138l-155 253l-150 -253h-133l219 350z" />
    <glyph glyph-name="Y" unicode="Y" 
d="M18 700h126l167 -313l169 313h123l-234 -422v-278h-117v272z" />
    <glyph glyph-name="Z" unicode="Z" 
d="M579 100v-100h-525v89l365 511h-352v100h498v-89l-366 -511h380z" />
    <glyph glyph-name="bracketleft" unicode="[" 
d="M161 -132v874h310v-89h-197v-696h197v-89h-310z" />
    <glyph glyph-name="backslash" unicode="\" 
d="M536 -132h-101l-351 874h101z" />
    <glyph glyph-name="bracketright" unicode="]" 
d="M459 -132h-310v89h197v696h-197v89h310v-874z" />
    <glyph glyph-name="asciicircum" unicode="^" 
d="M361 700l188 -419h-111l-128 296l-128 -296h-111l190 419h100z" />
    <glyph glyph-name="underscore" unicode="_" 
d="M63 0h494v-87h-494v87z" />
    <glyph glyph-name="grave" unicode="`" 
d="M316 726l91 -150h-102l-94 150h105z" />
    <glyph glyph-name="a" unicode="a" 
d="M568 0h-56c-36 0 -90 12 -102 66c-33 -50 -86 -78 -156 -78c-118 0 -175 72 -175 148c0 91 62 140 152 155l141 24c25 4 30 20 30 35c0 22 -13 79 -97 79c-82 0 -103 -50 -109 -84l-104 12c11 73 75 158 217 158c145 0 201 -88 201 -181v-205c0 -25 8 -38 36 -38h22v-91z
M187 145c0 -41 27 -71 86 -71c73 0 131 56 131 143v25l-143 -24c-55 -9 -74 -39 -74 -73z" />
    <glyph glyph-name="b" unicode="b" 
d="M342 515c139 0 225 -104 225 -260c0 -154 -85 -267 -225 -267c-73 0 -127 31 -161 81v-69h-106v700h110v-263c35 47 86 78 157 78zM321 422c-87 0 -138 -70 -138 -171c0 -96 52 -170 138 -170s133 72 133 170c0 99 -47 171 -133 171z" />
    <glyph glyph-name="c" unicode="c" 
d="M323 81c71 0 111 42 120 107l105 -13c-16 -114 -101 -187 -226 -187c-158 0 -243 111 -243 262c0 153 88 265 243 265c131 0 213 -70 230 -189l-110 -12c-11 68 -49 109 -120 109c-92 0 -130 -75 -130 -173c0 -97 40 -169 131 -169z" />
    <glyph glyph-name="d" unicode="d" 
d="M278 -12c-139 0 -225 104 -225 260c0 155 85 267 225 267c70 0 122 -29 157 -75v260h110v-700h-106v72c-34 -51 -87 -84 -161 -84zM299 81c87 0 138 71 138 171c0 97 -52 170 -138 170s-133 -72 -133 -170s47 -171 133 -171z" />
    <glyph glyph-name="e" unicode="e" 
d="M322 76c74 0 103 39 117 87l98 -21c-25 -107 -115 -154 -215 -154c-164 0 -248 99 -248 264c0 153 94 263 245 263c143 0 229 -97 229 -247v-44h-365c7 -98 53 -148 139 -148zM318 428c-76 0 -121 -43 -133 -128h251c-7 91 -50 128 -118 128z" />
    <glyph glyph-name="f" unicode="f" 
d="M90 89h142v325h-156v89h156v35c0 86 44 162 168 162h162v-91h-154c-55 0 -66 -39 -66 -79v-27h212v-89h-212v-325h175v-89h-427v89z" />
    <glyph glyph-name="g" unicode="g" 
d="M282 31c-135 0 -218 96 -218 241c0 140 82 243 218 243c68 0 119 -26 153 -70v58h105v-476c0 -115 -62 -224 -234 -224c-164 0 -226 87 -234 169l110 12c7 -34 25 -91 125 -91c108 0 123 82 123 136v73c-32 -43 -82 -71 -148 -71zM306 123c78 0 126 62 126 150
c0 85 -49 150 -126 150c-88 0 -129 -63 -129 -150s41 -150 129 -150z" />
    <glyph glyph-name="h" unicode="h" 
d="M536 0h-110v307c0 74 -38 115 -106 115c-78 0 -119 -50 -119 -141v-281h-110v700h110v-252c30 41 78 67 148 67c128 0 187 -86 187 -190v-325z" />
    <glyph glyph-name="i" unicode="i" 
d="M262 734h120v-148h-120v148zM93 89h179v325h-179v89h289v-414h178v-89h-467v89z" />
    <glyph glyph-name="j" unicode="j" 
d="M340 734h120v-148h-120v148zM460 503v-507c0 -108 -43 -181 -173 -181h-190v91h185c59 0 68 39 68 96v412h-251v89h361z" />
    <glyph glyph-name="k" unicode="k" 
d="M590 0h-132l-164 243l-92 -87v-156h-110v700h110v-415l228 218h137l-193 -187z" />
    <glyph glyph-name="l" unicode="l" 
d="M93 89h179v522h-179v89h289v-611h178v-89h-467v89z" />
    <glyph glyph-name="m" unicode="m" 
d="M360 0h-97v360c0 42 -20 66 -51 66c-40 0 -61 -28 -61 -80v-346h-97v503h92v-46c17 38 49 58 94 58c46 0 82 -23 96 -71c18 41 55 71 106 71c85 0 127 -62 127 -140v-375h-97v360c0 42 -18 66 -51 66c-40 0 -61 -28 -61 -80v-346z" />
    <glyph glyph-name="n" unicode="n" 
d="M536 0h-110v307c0 74 -38 115 -106 115c-78 0 -119 -50 -119 -141v-281h-110v503h105v-60c31 43 80 72 153 72c128 0 187 -86 187 -190v-325z" />
    <glyph glyph-name="o" unicode="o" 
d="M310 515c158 0 251 -112 251 -264c0 -151 -95 -263 -251 -263c-159 0 -250 112 -250 263c0 152 93 264 250 264zM310 425c-94 0 -138 -75 -138 -174c0 -98 44 -172 138 -172s139 74 139 172c0 99 -45 174 -139 174z" />
    <glyph glyph-name="p" unicode="p" 
d="M342 515c139 0 225 -104 225 -260c0 -154 -85 -267 -225 -267c-70 0 -122 29 -157 76v-249h-110v688h106v-72c34 51 87 84 161 84zM321 422c-87 0 -138 -70 -138 -171c0 -96 52 -170 138 -170s133 72 133 170c0 99 -47 171 -133 171z" />
    <glyph glyph-name="q" unicode="q" 
d="M279 -12c-139 0 -225 104 -225 260c0 155 85 267 225 267c73 0 126 -30 161 -80v68h105v-688h-109v252c-35 -48 -86 -79 -157 -79zM299 81c88 0 139 71 139 171c0 97 -52 170 -139 170c-86 0 -132 -72 -132 -170s46 -171 132 -171z" />
    <glyph glyph-name="r" unicode="r" 
d="M73 89h149v325h-149v89h255v-84c30 54 77 84 140 84h97v-101h-101c-82 0 -132 -63 -132 -185v-128h188v-89h-447v89z" />
    <glyph glyph-name="s" unicode="s" 
d="M537 152c0 -94 -69 -164 -220 -164c-164 0 -227 83 -233 165l110 13c7 -63 49 -94 127 -94c84 0 106 34 106 73c0 36 -33 51 -88 61l-75 13c-75 13 -163 40 -163 145c0 79 68 151 212 151c155 0 204 -84 215 -155l-101 -13c-11 47 -42 85 -119 85
c-81 0 -102 -34 -102 -61c0 -38 30 -50 82 -59l83 -15c102 -18 166 -54 166 -145z" />
    <glyph glyph-name="t" unicode="t" 
d="M54 414v89h156v158h110v-158h224v-89h-224v-255c0 -47 12 -67 59 -67h161v-92h-180c-107 0 -150 55 -150 143v271h-156z" />
    <glyph glyph-name="u" unicode="u" 
d="M524 0h-105v59c-31 -43 -78 -71 -148 -71c-125 0 -182 86 -182 190v325h110v-307c0 -74 37 -114 101 -114c74 0 114 49 114 140v281h110v-503z" />
    <glyph glyph-name="v" unicode="v" 
d="M51 503h117l146 -377l146 377h110l-203 -503h-115z" />
    <glyph glyph-name="w" unicode="w" 
d="M24 503h100l59 -352l90 352h78l92 -349l60 349h93l-96 -503h-93l-95 358l-95 -358h-98z" />
    <glyph glyph-name="x" unicode="x" 
d="M57 503h127l129 -172l131 172h123l-190 -247l195 -256h-129l-136 177l-135 -177h-124l193 254z" />
    <glyph glyph-name="y" unicode="y" 
d="M51 503h116l146 -369l147 369h110l-222 -547c-39 -97 -80 -141 -186 -141h-86v91h86c49 0 68 20 82 55l14 36z" />
    <glyph glyph-name="z" unicode="z" 
d="M535 91v-91h-450v80l306 332h-291v91h424v-83l-303 -329h314z" />
    <glyph glyph-name="braceleft" unicode="{" 
d="M104 351h75c47 0 68 23 68 60c0 52 -20 113 -20 186c0 90 64 145 163 145h111v-89h-84c-46 0 -73 -20 -73 -59c0 -55 16 -119 16 -183c0 -58 -27 -91 -67 -105c41 -13 67 -47 67 -107c0 -64 -16 -128 -16 -183c0 -40 27 -59 73 -59h84v-89h-111c-99 0 -163 55 -163 145
c0 73 20 135 20 187c0 36 -21 59 -68 59h-75v92z" />
    <glyph glyph-name="bar" unicode="|" 
d="M359 -132h-98v874h98v-874z" />
    <glyph glyph-name="braceright" unicode="}" 
d="M516 351v-92h-75c-47 0 -68 -23 -68 -59c0 -52 20 -114 20 -187c0 -90 -64 -145 -163 -145h-111v89h84c46 0 73 19 73 59c0 55 -16 119 -16 183c0 60 26 94 67 107c-40 14 -67 47 -67 105c0 64 16 128 16 183c0 39 -27 59 -73 59h-84v89h111c99 0 163 -55 163 -145
c0 -73 -20 -134 -20 -186c0 -37 21 -60 68 -60h75z" />
    <glyph glyph-name="asciitilde" unicode="~" 
d="M421 274c-63 0 -147 57 -192 57c-37 0 -45 -28 -47 -58h-88c-2 87 41 155 125 155c66 0 142 -58 185 -58c33 0 35 25 35 58h87c5 -94 -32 -154 -105 -154z" />
    <glyph glyph-name="Adieresis" unicode="&#xc4;" 
d="M174 778v124h104v-124h-104zM342 778v124h104v-124h-104zM142 0h-118l224 700h126l222 -700h-126l-43 150h-240zM308 559l-92 -311h182z" />
    <glyph glyph-name="Aring" unicode="&#xc5;" 
d="M310 990c76 0 121 -50 121 -109c0 -58 -44 -109 -121 -109c-78 0 -121 51 -121 109c0 59 43 109 121 109zM310 937c-36 0 -52 -25 -52 -55c0 -32 16 -56 52 -56c35 0 52 24 52 56c0 30 -17 55 -52 55zM142 0h-118l224 700h126l222 -700h-126l-43 150h-240zM308 559
l-92 -311h182z" />
    <glyph glyph-name="Ccedilla" unicode="&#xc7;" 
d="M411 -135c0 -57 -39 -97 -111 -97c-66 0 -102 35 -107 85l71 2c3 -18 15 -30 36 -30c25 0 37 18 37 38c0 21 -14 37 -38 37c-13 0 -26 -5 -35 -17l-44 31l56 77c-151 20 -222 161 -222 359c0 215 85 362 262 362c145 0 230 -95 251 -258l-116 -16
c-15 104 -52 172 -135 172c-104 0 -143 -105 -143 -260s39 -260 143 -260c81 0 118 69 133 161l114 -15c-21 -144 -97 -235 -219 -247l-27 -36c59 -3 94 -38 94 -88z" />
    <glyph glyph-name="Eacute" unicode="&#xc9;" 
d="M364 926h104l-95 -150h-100zM93 700h458v-100h-341v-196h301v-97h-301v-207h351v-100h-468v700z" />
    <glyph glyph-name="Ntilde" unicode="&#xd1;" 
d="M363 877c16 0 22 8 22 32h76c1 -69 -18 -116 -77 -116c-48 0 -82 33 -118 33c-21 0 -29 -16 -30 -36h-77c3 65 25 119 91 119c48 0 86 -32 113 -32zM73 700h128l234 -458v458h112v-700h-102l-260 510v-510h-112v700z" />
    <glyph glyph-name="Odieresis" unicode="&#xd6;" 
d="M174 778v124h104v-124h-104zM342 778v124h104v-124h-104zM310 -12c-179 0 -264 147 -264 362s87 362 264 362c180 0 264 -147 264 -362s-86 -362 -264 -362zM310 89c106 0 144 106 144 261s-38 261 -144 261s-144 -106 -144 -261s38 -261 144 -261z" />
    <glyph glyph-name="Udieresis" unicode="&#xdc;" 
d="M174 778v124h104v-124h-104zM342 778v124h104v-124h-104zM548 700v-476c0 -154 -106 -236 -237 -236s-239 82 -239 236v476h118v-476c0 -93 54 -135 121 -135c66 0 120 42 120 135v476h117z" />
    <glyph glyph-name="aacute" unicode="&#xe1;" 
d="M352 726h104l-95 -150h-100zM568 0h-56c-36 0 -90 12 -102 66c-33 -50 -86 -78 -156 -78c-118 0 -175 72 -175 148c0 91 62 140 152 155l141 24c25 4 30 20 30 35c0 22 -13 79 -97 79c-82 0 -103 -50 -109 -84l-104 12c11 73 75 158 217 158c145 0 201 -88 201 -181v-205
c0 -25 8 -38 36 -38h22v-91zM187 145c0 -41 27 -71 86 -71c73 0 131 56 131 143v25l-143 -24c-55 -9 -74 -39 -74 -73z" />
    <glyph glyph-name="agrave" unicode="&#xe0;" 
d="M266 726l91 -150h-102l-94 150h105zM568 0h-56c-36 0 -90 12 -102 66c-33 -50 -86 -78 -156 -78c-118 0 -175 72 -175 148c0 91 62 140 152 155l141 24c25 4 30 20 30 35c0 22 -13 79 -97 79c-82 0 -103 -50 -109 -84l-104 12c11 73 75 158 217 158
c145 0 201 -88 201 -181v-205c0 -25 8 -38 36 -38h22v-91zM187 145c0 -41 27 -71 86 -71c73 0 131 56 131 143v25l-143 -24c-55 -9 -74 -39 -74 -73z" />
    <glyph glyph-name="acircumflex" unicode="&#xe2;" 
d="M254 726h108l100 -150h-100l-54 85l-56 -85h-97zM568 0h-56c-36 0 -90 12 -102 66c-33 -50 -86 -78 -156 -78c-118 0 -175 72 -175 148c0 91 62 140 152 155l141 24c25 4 30 20 30 35c0 22 -13 79 -97 79c-82 0 -103 -50 -109 -84l-104 12c11 73 75 158 217 158
c145 0 201 -88 201 -181v-205c0 -25 8 -38 36 -38h22v-91zM187 145c0 -41 27 -71 86 -71c73 0 131 56 131 143v25l-143 -24c-55 -9 -74 -39 -74 -73z" />
    <glyph glyph-name="adieresis" unicode="&#xe4;" 
d="M172 578v124h104v-124h-104zM340 578v124h104v-124h-104zM568 0h-56c-36 0 -90 12 -102 66c-33 -50 -86 -78 -156 -78c-118 0 -175 72 -175 148c0 91 62 140 152 155l141 24c25 4 30 20 30 35c0 22 -13 79 -97 79c-82 0 -103 -50 -109 -84l-104 12c11 73 75 158 217 158
c145 0 201 -88 201 -181v-205c0 -25 8 -38 36 -38h22v-91zM187 145c0 -41 27 -71 86 -71c73 0 131 56 131 143v25l-143 -24c-55 -9 -74 -39 -74 -73z" />
    <glyph glyph-name="atilde" unicode="&#xe3;" 
d="M361 677c16 0 22 8 22 32h76c1 -69 -18 -116 -77 -116c-48 0 -82 33 -118 33c-21 0 -29 -16 -30 -36h-77c3 65 25 119 91 119c48 0 86 -32 113 -32zM568 0h-56c-36 0 -90 12 -102 66c-33 -50 -86 -78 -156 -78c-118 0 -175 72 -175 148c0 91 62 140 152 155l141 24
c25 4 30 20 30 35c0 22 -13 79 -97 79c-82 0 -103 -50 -109 -84l-104 12c11 73 75 158 217 158c145 0 201 -88 201 -181v-205c0 -25 8 -38 36 -38h22v-91zM187 145c0 -41 27 -71 86 -71c73 0 131 56 131 143v25l-143 -24c-55 -9 -74 -39 -74 -73z" />
    <glyph glyph-name="aring" unicode="&#xe5;" 
d="M308 790c76 0 121 -50 121 -109c0 -58 -44 -109 -121 -109c-78 0 -121 51 -121 109c0 59 43 109 121 109zM308 737c-36 0 -52 -25 -52 -55c0 -32 16 -56 52 -56c35 0 52 24 52 56c0 30 -17 55 -52 55zM568 0h-56c-36 0 -90 12 -102 66c-33 -50 -86 -78 -156 -78
c-118 0 -175 72 -175 148c0 91 62 140 152 155l141 24c25 4 30 20 30 35c0 22 -13 79 -97 79c-82 0 -103 -50 -109 -84l-104 12c11 73 75 158 217 158c145 0 201 -88 201 -181v-205c0 -25 8 -38 36 -38h22v-91zM187 145c0 -41 27 -71 86 -71c73 0 131 56 131 143v25
l-143 -24c-55 -9 -74 -39 -74 -73z" />
    <glyph glyph-name="ccedilla" unicode="&#xe7;" 
d="M323 81c71 0 111 42 120 107l105 -13c-15 -106 -89 -176 -199 -186l-27 -36c59 -3 94 -38 94 -88c0 -57 -39 -97 -111 -97c-66 0 -102 35 -107 85l71 2c3 -18 15 -30 36 -30c25 0 37 18 37 38c0 21 -14 37 -38 37c-13 0 -26 -5 -35 -17l-44 31l56 77
c-132 17 -202 122 -202 259c0 153 88 265 243 265c131 0 213 -70 230 -189l-110 -12c-11 68 -49 109 -120 109c-92 0 -130 -75 -130 -173c0 -97 40 -169 131 -169z" />
    <glyph glyph-name="eacute" unicode="&#xe9;" 
d="M363 726h104l-95 -150h-100zM322 76c74 0 103 39 117 87l98 -21c-25 -107 -115 -154 -215 -154c-164 0 -248 99 -248 264c0 153 94 263 245 263c143 0 229 -97 229 -247v-44h-365c7 -98 53 -148 139 -148zM318 428c-76 0 -121 -43 -133 -128h251c-7 91 -50 128 -118 128z
" />
    <glyph glyph-name="egrave" unicode="&#xe8;" 
d="M277 726l91 -150h-102l-94 150h105zM322 76c74 0 103 39 117 87l98 -21c-25 -107 -115 -154 -215 -154c-164 0 -248 99 -248 264c0 153 94 263 245 263c143 0 229 -97 229 -247v-44h-365c7 -98 53 -148 139 -148zM318 428c-76 0 -121 -43 -133 -128h251
c-7 91 -50 128 -118 128z" />
    <glyph glyph-name="ecircumflex" unicode="&#xea;" 
d="M265 726h108l100 -150h-100l-54 85l-56 -85h-97zM322 76c74 0 103 39 117 87l98 -21c-25 -107 -115 -154 -215 -154c-164 0 -248 99 -248 264c0 153 94 263 245 263c143 0 229 -97 229 -247v-44h-365c7 -98 53 -148 139 -148zM318 428c-76 0 -121 -43 -133 -128h251
c-7 91 -50 128 -118 128z" />
    <glyph glyph-name="edieresis" unicode="&#xeb;" 
d="M183 578v124h104v-124h-104zM351 578v124h104v-124h-104zM322 76c74 0 103 39 117 87l98 -21c-25 -107 -115 -154 -215 -154c-164 0 -248 99 -248 264c0 153 94 263 245 263c143 0 229 -97 229 -247v-44h-365c7 -98 53 -148 139 -148zM318 428c-76 0 -121 -43 -133 -128
h251c-7 91 -50 128 -118 128z" />
    <glyph glyph-name="iacute" unicode="&#xed;" 
d="M347 726h104l-95 -150h-100zM93 89h179v325h-179v89h289v-414h178v-89h-467v89z" />
    <glyph glyph-name="igrave" unicode="&#xec;" 
d="M261 726l91 -150h-102l-94 150h105zM93 89h179v325h-179v89h289v-414h178v-89h-467v89z" />
    <glyph glyph-name="icircumflex" unicode="&#xee;" 
d="M192 726h108l100 -150h-100l-54 85l-56 -85h-97zM93 89h179v325h-179v89h289v-414h178v-89h-467v89z" />
    <glyph glyph-name="idieresis" unicode="&#xef;" 
d="M122 578v124h104v-124h-104zM290 578v124h104v-124h-104zM93 89h179v325h-179v89h289v-414h178v-89h-467v89z" />
    <glyph glyph-name="ntilde" unicode="&#xf1;" 
d="M374 677c16 0 22 8 22 32h76c1 -69 -18 -116 -77 -116c-48 0 -82 33 -118 33c-21 0 -29 -16 -30 -36h-77c3 65 25 119 91 119c48 0 86 -32 113 -32zM536 0h-110v307c0 74 -38 115 -106 115c-78 0 -119 -50 -119 -141v-281h-110v503h105v-60c31 43 80 72 153 72
c128 0 187 -86 187 -190v-325z" />
    <glyph glyph-name="oacute" unicode="&#xf3;" 
d="M354 726h104l-95 -150h-100zM310 515c158 0 251 -112 251 -264c0 -151 -95 -263 -251 -263c-159 0 -250 112 -250 263c0 152 93 264 250 264zM310 425c-94 0 -138 -75 -138 -174c0 -98 44 -172 138 -172s139 74 139 172c0 99 -45 174 -139 174z" />
    <glyph glyph-name="ograve" unicode="&#xf2;" 
d="M268 726l91 -150h-102l-94 150h105zM310 515c158 0 251 -112 251 -264c0 -151 -95 -263 -251 -263c-159 0 -250 112 -250 263c0 152 93 264 250 264zM310 425c-94 0 -138 -75 -138 -174c0 -98 44 -172 138 -172s139 74 139 172c0 99 -45 174 -139 174z" />
    <glyph glyph-name="ocircumflex" unicode="&#xf4;" 
d="M256 726h108l100 -150h-100l-54 85l-56 -85h-97zM310 515c158 0 251 -112 251 -264c0 -151 -95 -263 -251 -263c-159 0 -250 112 -250 263c0 152 93 264 250 264zM310 425c-94 0 -138 -75 -138 -174c0 -98 44 -172 138 -172s139 74 139 172c0 99 -45 174 -139 174z" />
    <glyph glyph-name="odieresis" unicode="&#xf6;" 
d="M174 578v124h104v-124h-104zM342 578v124h104v-124h-104zM310 515c158 0 251 -112 251 -264c0 -151 -95 -263 -251 -263c-159 0 -250 112 -250 263c0 152 93 264 250 264zM310 425c-94 0 -138 -75 -138 -174c0 -98 44 -172 138 -172s139 74 139 172
c0 99 -45 174 -139 174z" />
    <glyph glyph-name="otilde" unicode="&#xf5;" 
d="M363 677c16 0 22 8 22 32h76c1 -69 -18 -116 -77 -116c-48 0 -82 33 -118 33c-21 0 -29 -16 -30 -36h-77c3 65 25 119 91 119c48 0 86 -32 113 -32zM310 515c158 0 251 -112 251 -264c0 -151 -95 -263 -251 -263c-159 0 -250 112 -250 263c0 152 93 264 250 264zM310 425
c-94 0 -138 -75 -138 -174c0 -98 44 -172 138 -172s139 74 139 172c0 99 -45 174 -139 174z" />
    <glyph glyph-name="uacute" unicode="&#xfa;" 
d="M350 726h104l-95 -150h-100zM524 0h-105v59c-31 -43 -78 -71 -148 -71c-125 0 -182 86 -182 190v325h110v-307c0 -74 37 -114 101 -114c74 0 114 49 114 140v281h110v-503z" />
    <glyph glyph-name="ugrave" unicode="&#xf9;" 
d="M264 726l91 -150h-102l-94 150h105zM524 0h-105v59c-31 -43 -78 -71 -148 -71c-125 0 -182 86 -182 190v325h110v-307c0 -74 37 -114 101 -114c74 0 114 49 114 140v281h110v-503z" />
    <glyph glyph-name="ucircumflex" unicode="&#xfb;" 
d="M252 726h108l100 -150h-100l-54 85l-56 -85h-97zM524 0h-105v59c-31 -43 -78 -71 -148 -71c-125 0 -182 86 -182 190v325h110v-307c0 -74 37 -114 101 -114c74 0 114 49 114 140v281h110v-503z" />
    <glyph glyph-name="udieresis" unicode="&#xfc;" 
d="M170 578v124h104v-124h-104zM338 578v124h104v-124h-104zM524 0h-105v59c-31 -43 -78 -71 -148 -71c-125 0 -182 86 -182 190v325h110v-307c0 -74 37 -114 101 -114c74 0 114 49 114 140v281h110v-503z" />
    <glyph glyph-name="dagger" unicode="&#x2020;" 
d="M365 0h-110v411h-170v92h170v197h110v-197h170v-92h-170v-411z" />
    <glyph glyph-name="degree" unicode="&#xb0;" 
d="M312 706c95 0 170 -75 170 -169c0 -95 -75 -172 -170 -172s-174 77 -174 172c0 94 79 169 174 169zM311 623c-49 0 -84 -37 -84 -86c0 -51 36 -87 84 -87s84 37 84 87c0 48 -36 86 -84 86z" />
    <glyph glyph-name="cent" unicode="&#xa2;" 
d="M153 -84l39 105c-74 43 -113 127 -113 229c0 153 88 265 243 265c18 0 36 -1 52 -4l30 81h75l-38 -102c62 -30 100 -87 111 -164l-110 -12c-5 34 -17 61 -37 79l-114 -309c10 -2 20 -3 32 -3c71 0 111 42 120 107l105 -13c-16 -114 -101 -187 -226 -187
c-23 0 -45 2 -65 7l-29 -79h-75zM192 250c0 -53 12 -98 37 -129l112 301c-6 1 -12 1 -19 1c-92 0 -130 -75 -130 -173z" />
    <glyph glyph-name="sterling" unicode="&#xa3;" 
d="M55 287v83h62l-1 3c-12 35 -25 72 -25 126c0 104 67 213 237 213c130 0 217 -76 235 -214l-111 -25c-13 104 -63 146 -129 146c-87 0 -117 -63 -117 -119c0 -44 8 -68 20 -109l6 -21h185v-83h-161l5 -19c20 -76 5 -133 -26 -171h330v-97h-496v79c49 13 116 64 88 155
l-16 53h-86z" />
    <glyph glyph-name="section" unicode="&#xa7;" 
d="M529 -9c0 -89 -69 -188 -226 -188c-154 0 -225 98 -235 200l117 17c10 -99 61 -127 121 -127c87 0 109 53 109 91c0 56 -34 78 -80 91l-123 35c-100 28 -158 73 -158 163c0 53 26 101 76 137c-23 27 -39 64 -39 114c0 89 71 188 229 188c153 0 222 -98 232 -200l-117 -17
c-10 99 -61 127 -121 127c-87 0 -109 -53 -109 -91c0 -56 34 -78 80 -91l123 -35c100 -28 158 -73 158 -163c0 -53 -26 -102 -76 -138c23 -27 39 -63 39 -113zM251 205l108 -30c20 -6 42 -14 63 -25c29 22 39 49 39 73c0 52 -32 70 -92 87l-108 30c-20 6 -42 14 -63 25
c-29 -22 -40 -49 -40 -73c0 -52 32 -70 93 -87z" />
    <glyph glyph-name="bullet" unicode="&#x2022;" 
d="M202 469h216v-219h-216v219z" />
    <glyph glyph-name="paragraph" unicode="&#xb6;" 
d="M365 700v-885h-96v418h-10c-133 0 -219 112 -219 238c0 125 93 229 228 229h97zM548 700v-885h-96v885h96z" />
    <glyph glyph-name="germandbls" unicode="&#xdf;" 
d="M311 619c-100 0 -125 -83 -125 -151v-468h-110v474c0 115 65 238 237 238c139 0 211 -78 211 -172c0 -64 -36 -120 -94 -150c81 -28 129 -98 129 -177c0 -117 -86 -213 -234 -213h-55v91h50c85 0 127 58 127 130c0 59 -41 110 -122 110h-55v90h36c69 0 109 48 109 109
c0 49 -34 89 -104 89z" />
    <glyph glyph-name="registered" unicode="&#xae;" 
d="M310 712c179 0 273 -161 273 -361s-94 -363 -273 -363s-273 163 -273 363s94 361 273 361zM310 649c-134 0 -203 -134 -203 -298c0 -165 69 -299 203 -299c133 0 203 134 203 299c0 164 -70 298 -203 298zM440 178h-87l-5 84c-2 35 -22 43 -54 43h-22v-127h-87v350h139
c75 0 119 -46 119 -99c0 -38 -19 -71 -54 -90c27 -11 43 -34 46 -77zM307 459h-35v-86h35c34 0 49 21 49 47c0 23 -15 39 -49 39z" />
    <glyph glyph-name="copyright" unicode="&#xa9;" 
d="M310 712c179 0 273 -161 273 -361s-94 -363 -273 -363s-273 163 -273 363s94 361 273 361zM310 649c-134 0 -203 -134 -203 -298c0 -165 69 -299 203 -299c133 0 203 134 203 299c0 164 -70 298 -203 298zM311 240c35 0 53 24 58 65l91 -10c-12 -84 -66 -137 -151 -137
c-100 0 -156 81 -156 191c0 111 58 192 158 192c88 0 138 -51 150 -138l-92 -8c-6 42 -23 65 -58 65c-44 0 -64 -47 -64 -111s20 -109 64 -109z" />
    <glyph glyph-name="trademark" unicode="&#x2122;" 
d="M297 700h92l48 -150l48 150h90v-350h-71v240l-42 -132h-52l-45 133v-241h-68v350zM32 700h224v-71h-68v-279h-87v279h-69v71z" />
    <glyph glyph-name="acute" unicode="&#xb4;" 
d="M305 726h104l-95 -150h-100z" />
    <glyph glyph-name="dieresis" unicode="&#xa8;" 
d="M174 578v124h104v-124h-104zM342 578v124h104v-124h-104z" />
    <glyph glyph-name="notequal" unicode="&#x2260;" 
d="M137 114l43 80h-96v94h146l65 124h-211v94h261l43 80h91l-43 -80h104v-94h-154l-65 -124h219v-94h-269l-43 -80h-91z" />
    <glyph glyph-name="AE" unicode="&#xc6;" 
d="M132 0h-120l217 700h355v-100h-158v-196h129v-97h-129v-207h168v-100h-286v157h-130zM206 252h102v350z" />
    <glyph glyph-name="Oslash" unicode="&#xd8;" 
d="M39 -40l72 129c-43 63 -65 154 -65 261c0 215 87 362 264 362c51 0 95 -12 131 -34l35 62h105l-72 -128c44 -64 65 -154 65 -262c0 -215 -86 -362 -264 -362c-51 0 -95 12 -131 35l-35 -63h-105zM166 350c0 -56 5 -105 16 -145l210 375c-21 20 -48 31 -82 31
c-106 0 -144 -106 -144 -261zM310 89c106 0 144 106 144 261c0 55 -5 104 -16 145l-210 -375c21 -20 48 -31 82 -31z" />
    <glyph glyph-name="infinity" unicode="&#x221e;" 
d="M598 350c0 -99 -61 -161 -144 -161c-53 0 -103 37 -148 92c-43 -60 -90 -92 -140 -92c-83 0 -144 62 -144 161s61 161 144 161c51 0 103 -34 146 -91c43 57 91 91 142 91c83 0 144 -62 144 -161zM119 350c0 -44 24 -69 58 -69c35 0 66 32 90 67c-25 37 -55 71 -90 71
c-34 0 -58 -25 -58 -69zM443 419c-35 0 -67 -31 -91 -65c24 -39 55 -73 91 -73c34 0 58 25 58 69s-24 69 -58 69z" />
    <glyph glyph-name="plusminus" unicode="&#xb1;" 
d="M261 222v175h-175v95h175v174h99v-174h174v-95h-174v-175h-99zM86 124h447v-91h-447v91z" />
    <glyph glyph-name="lessequal" unicode="&#x2264;" 
d="M87 484l447 186v-111l-302 -119l302 -118v-112l-447 186v88zM86 124h448v-91h-448v91z" />
    <glyph glyph-name="greaterequal" unicode="&#x2265;" 
d="M533 484v-88l-447 -186v112l302 118l-302 119v111zM534 124v-91h-448v91h448z" />
    <glyph glyph-name="yen" unicode="&#xa5;" 
d="M83 146v76h169v50l-7 12h-162v76h121l-186 340h126l167 -313l169 313h123l-189 -340h124v-76h-166l-3 -6v-56h169v-76h-169v-146h-117v146h-169z" />
    <glyph glyph-name="mu" unicode="&#xb5;" 
d="M528 0h-106v59c-30 -43 -78 -71 -147 -71c-33 0 -61 8 -82 22l9 -88v-107h-110v688h110v-307c0 -74 37 -114 101 -114c74 0 115 49 115 140v281h110v-503z" />
    <glyph glyph-name="partialdiff" unicode="&#x2202;" 
d="M64 205c0 126 88 217 218 217c54 0 120 -18 162 -71c-7 162 -41 268 -173 268c-62 0 -114 -31 -142 -50l-46 73c36 29 105 70 197 70c279 0 276 -308 276 -412c0 -198 -106 -312 -260 -312c-140 0 -232 88 -232 217zM302 77c81 0 131 64 131 136c0 80 -65 117 -122 117
c-87 0 -134 -54 -134 -127c0 -78 51 -126 125 -126z" />
    <glyph glyph-name="summation" unicode="&#x2211;" 
d="M55 0v72l176 286l-177 257v85h503v-97h-361l159 -240l-157 -266h369v-97h-512z" />
    <glyph glyph-name="product" unicode="&#x220f;" 
d="M586 700v-99h-85v-601h-116v601h-151v-601h-116v601h-84v99h552z" />
    <glyph glyph-name="pi" unicode="&#x3c0;" 
d="M583 503v-89h-74v-414h-110v414h-178v-414h-110v414h-74v89h546z" />
    <glyph glyph-name="integral" unicode="&#x222b;" 
d="M255 -10v548c0 86 43 162 168 162h99v-96h-92c-54 0 -65 -39 -65 -79v-548c0 -86 -43 -162 -168 -162h-99v96h92c54 0 65 39 65 79z" />
    <glyph glyph-name="ordfeminine" unicode="&#xaa;" 
d="M504 309h-47c-28 0 -72 8 -85 49c-25 -37 -65 -58 -118 -58c-92 0 -138 55 -138 114c0 72 50 108 118 119l104 17c19 3 24 14 24 26c0 17 -9 55 -65 55c-57 0 -72 -35 -76 -60l-93 10c8 59 60 125 172 125c116 0 160 -69 160 -142v-146c0 -17 5 -27 25 -27h19v-82z
M214 424c0 -29 19 -50 59 -50c48 0 90 37 90 98v17l-96 -16c-39 -6 -53 -26 -53 -49z" />
    <glyph glyph-name="ordmasculine" unicode="&#xba;" 
d="M310 706c127 0 199 -86 199 -204c0 -117 -76 -202 -199 -202c-127 0 -199 85 -199 202c0 118 75 204 199 204zM310 627c-67 0 -98 -55 -98 -125s31 -123 98 -123s98 53 98 123s-31 125 -98 125z" />
    <glyph glyph-name="Omega" unicode="&#x2126;" 
d="M46 91h118c-83 58 -125 158 -125 289c0 189 93 332 271 332s271 -143 271 -332c0 -131 -48 -230 -126 -289h119v-91h-219v114c71 42 110 134 110 263c0 135 -56 235 -155 235c-100 0 -155 -100 -155 -235c0 -130 39 -221 109 -262v-115h-218v91z" />
    <glyph glyph-name="ae" unicode="&#xe6;" 
d="M219 314c24 7 30 20 30 36c0 22 -8 79 -58 79c-51 0 -62 -50 -68 -84l-91 12c11 73 55 158 157 158c64 0 101 -33 120 -79c28 50 72 79 130 79c107 0 162 -97 162 -235v-56h-252c4 -98 30 -148 87 -148c42 0 63 45 70 87l88 -21c-20 -103 -79 -154 -158 -154
c-80 0 -123 36 -151 102c-20 -65 -68 -102 -130 -102c-94 0 -138 72 -138 145c0 96 57 137 142 163zM433 428c-48 0 -76 -40 -83 -128h153c0 89 -27 128 -70 128zM113 143c0 -40 17 -69 57 -69c43 0 81 49 81 131v41l-77 -24c-45 -14 -61 -42 -61 -79z" />
    <glyph glyph-name="oslash" unicode="&#xf8;" 
d="M153 -44h-93l70 102c-45 47 -70 115 -70 193c0 152 93 264 250 264c45 0 84 -9 118 -25l40 58h93l-71 -103c46 -47 71 -115 71 -194c0 -151 -95 -263 -251 -263c-45 0 -84 9 -118 25zM310 425c-94 0 -138 -75 -138 -174c0 -41 8 -78 23 -106l182 264
c-19 10 -41 16 -67 16zM449 251c0 41 -8 78 -24 107l-181 -264c19 -10 41 -15 66 -15c94 0 139 74 139 172z" />
    <glyph glyph-name="questiondown" unicode="&#xbf;" 
d="M381 564h-133v136h133v-136zM188 183c0 -54 33 -98 108 -98c73 0 141 41 147 172l109 -18c-2 -160 -117 -251 -260 -251c-160 0 -225 94 -225 190c0 100 74 156 131 205c53 44 63 56 65 120h105c0 -96 -11 -117 -94 -188c-54 -45 -86 -75 -86 -132z" />
    <glyph glyph-name="exclamdown" unicode="&#xa1;" 
d="M244 564v136h133v-136h-133zM247 0v120l22 383h82l22 -383v-120h-126z" />
    <glyph glyph-name="logicalnot" unicode="&#xac;" 
d="M82 398h456v-275h-98v180h-358v95z" />
    <glyph glyph-name="radical" unicode="&#x221a;" 
d="M48 460h172l97 -320l152 560h113l-205 -700h-124l-117 360h-88v100z" />
    <glyph glyph-name="florin" unicode="&#x192;" 
d="M221 -11l45 365h-143v82h154l12 102c10 86 44 162 169 162h110v-92h-99c-59 0 -64 -40 -70 -82l-12 -90h158v-82h-168l-47 -377c-11 -86 -43 -162 -169 -162h-108v92h98c58 0 65 40 70 82z" />
    <glyph glyph-name="approxequal" unicode="&#x2248;" 
d="M424 379c-65 0 -151 59 -197 59c-38 0 -47 -29 -49 -60h-90c-2 90 42 160 128 160c68 0 146 -60 191 -60c34 0 36 26 36 60h89c5 -97 -33 -159 -108 -159zM424 165c-65 0 -151 59 -197 59c-38 0 -47 -29 -49 -60h-90c-2 90 42 160 128 160c68 0 146 -60 191 -60
c34 0 36 26 36 60h89c5 -97 -33 -159 -108 -159z" />
    <glyph glyph-name="Delta" unicode="&#x2206;" 
d="M33 82l216 618h124l214 -618v-82h-554v82zM155 97h303l-151 475z" />
    <glyph glyph-name="guillemotleft" unicode="&#xab;" 
d="M207 68l-124 205l124 205h116l-120 -205l120 -205h-116zM421 68l-124 205l124 205h116l-120 -205l120 -205h-116z" />
    <glyph glyph-name="guillemotright" unicode="&#xbb;" 
d="M413 477l124 -205l-124 -205h-116l120 205l-120 205h116zM199 477l124 -205l-124 -205h-116l120 205l-120 205h116z" />
    <glyph glyph-name="ellipsis" unicode="&#x2026;" 
d="M53 127h124v-127h-124v127zM248 127h124v-127h-124v127zM443 127h124v-127h-124v127z" />
    <glyph glyph-name="Agrave" unicode="&#xc0;" 
d="M267 926l91 -150h-102l-94 150h105zM142 0h-118l224 700h126l222 -700h-126l-43 150h-240zM308 559l-92 -311h182z" />
    <glyph glyph-name="Atilde" unicode="&#xc3;" 
d="M361 877c16 0 22 8 22 32h76c1 -69 -18 -116 -77 -116c-48 0 -82 33 -118 33c-21 0 -29 -16 -30 -36h-77c3 65 25 119 91 119c48 0 86 -32 113 -32zM142 0h-118l224 700h126l222 -700h-126l-43 150h-240zM308 559l-92 -311h182z" />
    <glyph glyph-name="Otilde" unicode="&#xd5;" 
d="M361 877c16 0 22 8 22 32h76c1 -69 -18 -116 -77 -116c-48 0 -82 33 -118 33c-21 0 -29 -16 -30 -36h-77c3 65 25 119 91 119c48 0 86 -32 113 -32zM310 -12c-179 0 -264 147 -264 362s87 362 264 362c180 0 264 -147 264 -362s-86 -362 -264 -362zM310 89
c106 0 144 106 144 261s-38 261 -144 261s-144 -106 -144 -261s38 -261 144 -261z" />
    <glyph glyph-name="OE" unicode="&#x152;" 
d="M32 351c0 209 96 349 263 349h289v-100h-158v-196h135v-97h-135v-207h168v-100h-299c-166 0 -263 146 -263 351zM295 101h20v498h-20c-98 0 -151 -101 -151 -248s53 -250 151 -250z" />
    <glyph glyph-name="oe" unicode="&#x153;" 
d="M593 142c-19 -103 -79 -154 -158 -154c-65 0 -105 27 -132 74c-28 -49 -68 -74 -116 -74c-112 0 -173 112 -173 263c0 152 63 264 173 264c52 0 93 -24 121 -75c30 49 71 75 130 75c107 0 162 -97 162 -235v-56h-251c3 -98 29 -148 86 -148c44 0 64 45 70 87zM433 428
c-48 0 -76 -40 -83 -128h152c0 89 -26 128 -69 128zM193 425c-52 0 -76 -68 -76 -174c0 -104 24 -172 76 -172c50 0 72 68 72 172c0 106 -22 174 -72 174z" />
    <glyph glyph-name="endash" unicode="&#x2013;" 
d="M88 318h444v-90h-444v90z" />
    <glyph glyph-name="emdash" unicode="&#x2014;" 
d="M11 318h598v-90h-598v90z" />
    <glyph glyph-name="quotedblleft" unicode="&#x201c;" 
d="M181 700h108l-53 -256h-120zM393 700h108l-53 -256h-120z" />
    <glyph glyph-name="quotedblright" unicode="&#x201d;" 
d="M439 444h-108l53 256h120zM227 444h-108l53 256h120z" />
    <glyph glyph-name="quoteleft" unicode="&#x2018;" 
d="M287 700h108l-53 -256h-120z" />
    <glyph glyph-name="quoteright" unicode="&#x2019;" 
d="M333 444h-108l53 256h120z" />
    <glyph glyph-name="divide" unicode="&#xf7;" 
d="M253 605h115v-116h-115v116zM83 398h455v-95h-455v95zM253 212h115v-117h-115v117z" />
    <glyph glyph-name="lozenge" unicode="&#x25ca;" 
d="M53 364l213 336h89l212 -336l-208 -364h-97zM178 363l132 -245l132 245l-132 220z" />
    <glyph glyph-name="ydieresis" unicode="&#xff;" 
d="M177 578v124h104v-124h-104zM345 578v124h104v-124h-104zM51 503h116l146 -369l147 369h110l-222 -547c-39 -97 -80 -141 -186 -141h-86v91h86c49 0 68 20 82 55l14 36z" />
    <glyph glyph-name="Ydieresis" unicode="&#x178;" 
d="M174 778v124h104v-124h-104zM342 778v124h104v-124h-104zM18 700h126l167 -313l169 313h123l-234 -422v-278h-117v272z" />
    <glyph glyph-name="fraction" unicode="&#x2044;" 
d="M353 400l164 300h82l-166 -300h-80zM21 0l166 300h80l-164 -300h-82z" />
    <glyph glyph-name="currency" unicode="&#xa4;" 
d="M56 169l95 95c-15 26 -23 56 -23 87s8 61 22 87l-94 94l68 67l93 -93c27 16 59 26 93 26s65 -10 92 -27l94 94l68 -67l-95 -95c15 -25 23 -55 23 -86s-9 -61 -23 -87l95 -95l-68 -67l-94 94c-27 -16 -59 -26 -92 -26c-34 0 -66 9 -93 26l-93 -94zM400 351
c0 51 -40 92 -90 92c-51 0 -91 -41 -91 -92c0 -52 40 -93 91 -93c50 0 90 41 90 93z" />
    <glyph glyph-name="guilsinglleft" unicode="&#x2039;" 
d="M314 68l-124 205l124 205h116l-120 -205l120 -205h-116z" />
    <glyph glyph-name="guilsinglright" unicode="&#x203a;" 
d="M306 477l124 -205l-124 -205h-116l120 205l-120 205h116z" />
    <glyph glyph-name="daggerdbl" unicode="&#x2021;" 
d="M365 0h-110v198h-170v93h170v120h-170v92h170v197h110v-197h170v-92h-170v-120h170v-93h-170v-198z" />
    <glyph glyph-name="periodcentered" unicode="&#xb7;" 
d="M239 432h141v-143h-141v143z" />
    <glyph glyph-name="quotesinglbase" unicode="&#x201a;" 
d="M333 -110h-108l53 256h120z" />
    <glyph glyph-name="quotedblbase" unicode="&#x201e;" 
d="M439 -110h-108l53 256h120zM227 -110h-108l53 256h120z" />
    <glyph glyph-name="perthousand" unicode="&#x2030;" 
d="M164 415c-86 0 -122 70 -122 145c0 76 36 146 122 146s122 -70 122 -146c0 -75 -36 -145 -122 -145zM164 475c39 0 48 44 48 85s-9 85 -48 85s-47 -44 -47 -85s8 -85 47 -85zM53 346l514 166v-64l-514 -166v64zM164 -6c-86 0 -122 70 -122 145c0 76 36 146 122 146
s123 -70 123 -146c0 -75 -37 -145 -123 -145zM455 -6c-84 0 -121 70 -121 145c0 76 37 146 121 146c87 0 123 -70 123 -146c0 -75 -36 -145 -123 -145zM164 55c39 0 48 43 48 84c0 42 -9 85 -48 85s-47 -43 -47 -85c0 -41 8 -84 47 -84zM455 55c40 0 48 43 48 84
c0 42 -8 85 -48 85c-38 0 -46 -43 -46 -85c0 -41 8 -84 46 -84z" />
    <glyph glyph-name="Acircumflex" unicode="&#xc2;" 
d="M256 926h108l100 -150h-100l-54 85l-56 -85h-97zM142 0h-118l224 700h126l222 -700h-126l-43 150h-240zM308 559l-92 -311h182z" />
    <glyph glyph-name="Ecircumflex" unicode="&#xca;" 
d="M268 926h108l100 -150h-100l-54 85l-56 -85h-97zM93 700h458v-100h-341v-196h301v-97h-301v-207h351v-100h-468v700z" />
    <glyph glyph-name="Aacute" unicode="&#xc1;" 
d="M352 926h104l-95 -150h-100zM142 0h-118l224 700h126l222 -700h-126l-43 150h-240zM308 559l-92 -311h182z" />
    <glyph glyph-name="Edieresis" unicode="&#xcb;" 
d="M186 778v124h104v-124h-104zM354 778v124h104v-124h-104zM93 700h458v-100h-341v-196h301v-97h-301v-207h351v-100h-468v700z" />
    <glyph glyph-name="Egrave" unicode="&#xc8;" 
d="M279 926l91 -150h-102l-94 150h105zM93 700h458v-100h-341v-196h301v-97h-301v-207h351v-100h-468v700z" />
    <glyph glyph-name="Iacute" unicode="&#xcd;" 
d="M351 926h104l-95 -150h-100zM78 96h174v508h-174v96h464v-96h-173v-508h173v-96h-464v96z" />
    <glyph glyph-name="Icircumflex" unicode="&#xce;" 
d="M256 926h108l100 -150h-100l-54 85l-56 -85h-97zM78 96h174v508h-174v96h464v-96h-173v-508h173v-96h-464v96z" />
    <glyph glyph-name="Idieresis" unicode="&#xcf;" 
d="M174 778v124h104v-124h-104zM342 778v124h104v-124h-104zM78 96h174v508h-174v96h464v-96h-173v-508h173v-96h-464v96z" />
    <glyph glyph-name="Igrave" unicode="&#xcc;" 
d="M266 926l91 -150h-102l-94 150h105zM78 96h174v508h-174v96h464v-96h-173v-508h173v-96h-464v96z" />
    <glyph glyph-name="Oacute" unicode="&#xd3;" 
d="M351 926h104l-95 -150h-100zM310 -12c-179 0 -264 147 -264 362s87 362 264 362c180 0 264 -147 264 -362s-86 -362 -264 -362zM310 89c106 0 144 106 144 261s-38 261 -144 261s-144 -106 -144 -261s38 -261 144 -261z" />
    <glyph glyph-name="Ocircumflex" unicode="&#xd4;" 
d="M256 926h108l100 -150h-100l-54 85l-56 -85h-97zM310 -12c-179 0 -264 147 -264 362s87 362 264 362c180 0 264 -147 264 -362s-86 -362 -264 -362zM310 89c106 0 144 106 144 261s-38 261 -144 261s-144 -106 -144 -261s38 -261 144 -261z" />
    <glyph glyph-name="Ograve" unicode="&#xd2;" 
d="M266 926l91 -150h-102l-94 150h105zM310 -12c-179 0 -264 147 -264 362s87 362 264 362c180 0 264 -147 264 -362s-86 -362 -264 -362zM310 89c106 0 144 106 144 261s-38 261 -144 261s-144 -106 -144 -261s38 -261 144 -261z" />
    <glyph glyph-name="Uacute" unicode="&#xda;" 
d="M351 926h104l-95 -150h-100zM548 700v-476c0 -154 -106 -236 -237 -236s-239 82 -239 236v476h118v-476c0 -93 54 -135 121 -135c66 0 120 42 120 135v476h117z" />
    <glyph glyph-name="Ucircumflex" unicode="&#xdb;" 
d="M256 926h108l100 -150h-100l-54 85l-56 -85h-97zM548 700v-476c0 -154 -106 -236 -237 -236s-239 82 -239 236v476h118v-476c0 -93 54 -135 121 -135c66 0 120 42 120 135v476h117z" />
    <glyph glyph-name="Ugrave" unicode="&#xd9;" 
d="M266 926l91 -150h-102l-94 150h105zM548 700v-476c0 -154 -106 -236 -237 -236s-239 82 -239 236v476h118v-476c0 -93 54 -135 121 -135c66 0 120 42 120 135v476h117z" />
    <glyph glyph-name="dotlessi" unicode="&#x131;" 
d="M93 89h179v325h-179v89h289v-414h178v-89h-467v89z" />
    <glyph glyph-name="circumflex" unicode="&#x2c6;" 
d="M256 726h108l100 -150h-100l-54 85l-56 -85h-97z" />
    <glyph glyph-name="tilde" unicode="&#x2dc;" 
d="M363 677c16 0 22 8 22 32h76c1 -69 -18 -116 -77 -116c-48 0 -82 33 -118 33c-21 0 -29 -16 -30 -36h-77c3 65 25 119 91 119c48 0 86 -32 113 -32z" />
    <glyph glyph-name="macron" unicode="&#xaf;" 
d="M183 605v81h254v-81h-254z" />
    <glyph glyph-name="breve" unicode="&#x2d8;" 
d="M311 644c39 0 59 28 59 79h81c0 -71 -31 -151 -141 -151s-141 80 -140 151h82c0 -50 19 -79 59 -79z" />
    <glyph glyph-name="dotaccent" unicode="&#x2d9;" 
d="M253 578v124h114v-124h-114z" />
    <glyph glyph-name="ring" unicode="&#x2da;" 
d="M310 790c76 0 121 -50 121 -109c0 -58 -44 -109 -121 -109c-78 0 -121 51 -121 109c0 59 43 109 121 109zM310 737c-36 0 -52 -25 -52 -55c0 -32 16 -56 52 -56c35 0 52 24 52 56c0 30 -17 55 -52 55z" />
    <glyph glyph-name="cedilla" unicode="&#xb8;" 
d="M419 -135c0 -57 -39 -97 -111 -97c-66 0 -102 35 -107 85l71 2c3 -18 15 -30 36 -30c25 0 37 18 37 38c0 21 -14 37 -38 37c-13 0 -26 -5 -35 -17l-44 31l74 101l67 -2l-44 -60c59 -3 94 -38 94 -88z" />
    <glyph glyph-name="hungarumlaut" unicode="&#x2dd;" 
d="M222 726h101l-93 -150h-96zM389 726h100l-103 -150h-98z" />
    <glyph glyph-name="ogonek" unicode="&#x2db;" 
d="M326 -232c-63 0 -103 40 -103 90c0 63 40 104 115 159l59 -17c-60 -52 -89 -85 -89 -119c0 -29 19 -36 44 -36c11 0 23 2 36 7v-71c-14 -7 -33 -13 -62 -13z" />
    <glyph glyph-name="caron" unicode="&#x2c7;" 
d="M364 576h-108l-100 150h100l54 -85l56 85h97z" />
    <glyph glyph-name="uni00A0" unicode="&#xa0;" 
 />
    <glyph glyph-name="Amacron" unicode="&#x100;" 
d="M183 805v81h254v-81h-254zM142 0h-118l224 700h126l222 -700h-126l-43 150h-240zM308 559l-92 -311h182z" />
    <glyph glyph-name="Abreve" unicode="&#x102;" 
d="M311 844c39 0 59 28 59 79h81c0 -71 -31 -151 -141 -151s-141 80 -140 151h82c0 -50 19 -79 59 -79zM142 0h-118l224 700h126l222 -700h-126l-43 150h-240zM308 559l-92 -311h182z" />
    <glyph glyph-name="Aogonek" unicode="&#x104;" 
d="M142 0h-118l224 700h126l222 -700c-60 -52 -89 -85 -89 -119c0 -29 19 -36 44 -36c11 0 23 2 36 7v-71c-14 -7 -33 -13 -62 -13c-63 0 -103 40 -103 90c0 56 32 95 92 142h-44l-43 150h-240zM308 559l-92 -311h182z" />
    <glyph glyph-name="Cacute" unicode="&#x106;" 
d="M358 926h104l-95 -150h-100zM567 454l-116 -16c-15 104 -52 172 -135 172c-104 0 -143 -105 -143 -260s39 -260 143 -260c81 0 118 69 133 161l114 -15c-23 -154 -108 -248 -247 -248c-179 0 -262 147 -262 362s85 362 262 362c145 0 230 -95 251 -258z" />
    <glyph glyph-name="Ccircumflex" unicode="&#x108;" 
d="M263 926h108l100 -150h-100l-54 85l-56 -85h-97zM567 454l-116 -16c-15 104 -52 172 -135 172c-104 0 -143 -105 -143 -260s39 -260 143 -260c81 0 118 69 133 161l114 -15c-23 -154 -108 -248 -247 -248c-179 0 -262 147 -262 362s85 362 262 362
c145 0 230 -95 251 -258z" />
    <glyph glyph-name="Cdotaccent" unicode="&#x10a;" 
d="M260 778v124h114v-124h-114zM567 454l-116 -16c-15 104 -52 172 -135 172c-104 0 -143 -105 -143 -260s39 -260 143 -260c81 0 118 69 133 161l114 -15c-23 -154 -108 -248 -247 -248c-179 0 -262 147 -262 362s85 362 262 362c145 0 230 -95 251 -258z" />
    <glyph glyph-name="Ccaron" unicode="&#x10c;" 
d="M370 776h-108l-100 150h100l54 -85l56 85h97zM567 454l-116 -16c-15 104 -52 172 -135 172c-104 0 -143 -105 -143 -260s39 -260 143 -260c81 0 118 69 133 161l114 -15c-23 -154 -108 -248 -247 -248c-179 0 -262 147 -262 362s85 362 262 362c145 0 230 -95 251 -258z
" />
    <glyph glyph-name="Dcaron" unicode="&#x10e;" 
d="M344 776h-108l-100 150h100l54 -85l56 85h97zM73 700h196c193 0 305 -137 305 -340c0 -210 -113 -360 -305 -360h-196v700zM271 599h-80v-498h80c118 0 183 107 183 259c0 142 -65 239 -183 239z" />
    <glyph glyph-name="Emacron" unicode="&#x112;" 
d="M195 805v81h254v-81h-254zM93 700h458v-100h-341v-196h301v-97h-301v-207h351v-100h-468v700z" />
    <glyph glyph-name="Ebreve" unicode="&#x114;" 
d="M322 844c39 0 59 28 59 79h81c0 -71 -31 -151 -141 -151s-141 80 -140 151h82c0 -50 19 -79 59 -79zM93 700h458v-100h-341v-196h301v-97h-301v-207h351v-100h-468v700z" />
    <glyph glyph-name="Edotaccent" unicode="&#x116;" 
d="M265 778v124h114v-124h-114zM93 700h458v-100h-341v-196h301v-97h-301v-207h351v-100h-468v700z" />
    <glyph glyph-name="Eogonek" unicode="&#x118;" 
d="M490 -232c-63 0 -103 40 -103 90c0 56 32 95 92 142h-386v700h458v-100h-341v-196h301v-97h-301v-207h351v-100c-60 -52 -89 -85 -89 -119c0 -29 19 -36 44 -36c11 0 23 2 36 7v-71c-14 -7 -33 -13 -62 -13z" />
    <glyph glyph-name="Ecaron" unicode="&#x11a;" 
d="M376 776h-108l-100 150h100l54 -85l56 85h97zM93 700h458v-100h-341v-196h301v-97h-301v-207h351v-100h-468v700z" />
    <glyph glyph-name="Gcircumflex" unicode="&#x11c;" 
d="M255 926h108l100 -150h-100l-54 85l-56 -85h-97zM46 346c0 217 92 366 267 366c131 0 208 -78 238 -222l-116 -20c-19 94 -56 141 -123 141c-103 0 -145 -108 -145 -265c0 -148 51 -256 150 -256c96 0 133 79 133 159v37h-120v93h226v-379h-103v68
c-29 -49 -81 -80 -153 -80c-167 0 -254 151 -254 358z" />
    <glyph glyph-name="Gbreve" unicode="&#x11e;" 
d="M309 844c39 0 59 28 59 79h81c0 -71 -31 -151 -141 -151s-141 80 -140 151h82c0 -50 19 -79 59 -79zM46 346c0 217 92 366 267 366c131 0 208 -78 238 -222l-116 -20c-19 94 -56 141 -123 141c-103 0 -145 -108 -145 -265c0 -148 51 -256 150 -256c96 0 133 79 133 159
v37h-120v93h226v-379h-103v68c-29 -49 -81 -80 -153 -80c-167 0 -254 151 -254 358z" />
    <glyph glyph-name="Gdotaccent" unicode="&#x120;" 
d="M252 778v124h114v-124h-114zM46 346c0 217 92 366 267 366c131 0 208 -78 238 -222l-116 -20c-19 94 -56 141 -123 141c-103 0 -145 -108 -145 -265c0 -148 51 -256 150 -256c96 0 133 79 133 159v37h-120v93h226v-379h-103v68c-29 -49 -81 -80 -153 -80
c-167 0 -254 151 -254 358z" />
    <glyph glyph-name="uni0122" unicode="&#x122;" 
d="M46 346c0 217 92 366 267 366c131 0 208 -78 238 -222l-116 -20c-19 94 -56 141 -123 141c-103 0 -145 -108 -145 -265c0 -148 51 -256 150 -256c96 0 133 79 133 159v37h-120v93h226v-379h-103v68c-29 -49 -81 -80 -153 -80c-167 0 -254 151 -254 358zM256 -66h98
l-52 -160h-92z" />
    <glyph glyph-name="Hcircumflex" unicode="&#x124;" 
d="M255 926h108l100 -150h-100l-54 85l-56 -85h-97zM73 700h117v-291h240v291h117v-700h-117v307h-240v-307h-117v700z" />
    <glyph glyph-name="Itilde" unicode="&#x128;" 
d="M361 877c16 0 22 8 22 32h76c1 -69 -18 -116 -77 -116c-48 0 -82 33 -118 33c-21 0 -29 -16 -30 -36h-77c3 65 25 119 91 119c48 0 86 -32 113 -32zM78 96h174v508h-174v96h464v-96h-173v-508h173v-96h-464v96z" />
    <glyph glyph-name="Imacron" unicode="&#x12a;" 
d="M183 805v81h254v-81h-254zM78 96h174v508h-174v96h464v-96h-173v-508h173v-96h-464v96z" />
    <glyph glyph-name="Iogonek" unicode="&#x12e;" 
d="M78 96h174v508h-174v96h464v-96h-173v-508h173v-96c-59 -52 -88 -85 -88 -119c0 -29 19 -36 44 -36c11 0 23 2 36 7v-71c-14 -7 -33 -13 -62 -13c-63 0 -103 40 -103 90c0 56 32 95 92 142h-383v96z" />
    <glyph glyph-name="Idotaccent" unicode="&#x130;" 
d="M253 778v124h114v-124h-114zM78 96h174v508h-174v96h464v-96h-173v-508h173v-96h-464v96z" />
    <glyph glyph-name="Jcircumflex" unicode="&#x134;" 
d="M345 926h108l100 -150h-100l-54 85l-56 -85h-97zM206 700h329v-471c0 -156 -76 -241 -229 -241c-154 0 -232 87 -232 242v26l116 22v-46c0 -96 35 -145 115 -145s113 48 113 137v377h-212v99z" />
    <glyph glyph-name="uni0136" unicode="&#x136;" 
d="M611 0h-138l-200 303l-82 -96v-207h-118v700h118v-342l275 342h136l-250 -308zM280 -66h98l-52 -160h-92z" />
    <glyph glyph-name="Lacute" unicode="&#x139;" 
d="M197 926h104l-95 -150h-100zM97 700h118v-599h356v-101h-474v700z" />
    <glyph glyph-name="uni013B" unicode="&#x13b;" 
d="M97 700h118v-599h356v-101h-474v700zM284 -66h98l-52 -160h-92z" />
    <glyph glyph-name="Lcaron" unicode="&#x13d;" 
d="M97 700h118v-599h356v-101h-474v700zM295 700h90l-37 -168h-85z" />
    <glyph glyph-name="Nacute" unicode="&#x143;" 
d="M351 926h104l-95 -150h-100zM73 700h128l234 -458v458h112v-700h-102l-260 510v-510h-112v700z" />
    <glyph glyph-name="uni0145" unicode="&#x145;" 
d="M73 700h128l234 -458v458h112v-700h-102l-260 510v-510h-112v700zM260 -66h98l-52 -160h-92z" />
    <glyph glyph-name="Ncaron" unicode="&#x147;" 
d="M364 776h-108l-100 150h100l54 -85l56 85h97zM73 700h128l234 -458v458h112v-700h-102l-260 510v-510h-112v700z" />
    <glyph glyph-name="Omacron" unicode="&#x14c;" 
d="M183 805v81h254v-81h-254zM310 -12c-179 0 -264 147 -264 362s87 362 264 362c180 0 264 -147 264 -362s-86 -362 -264 -362zM310 89c106 0 144 106 144 261s-38 261 -144 261s-144 -106 -144 -261s38 -261 144 -261z" />
    <glyph glyph-name="Obreve" unicode="&#x14e;" 
d="M311 844c39 0 59 28 59 79h81c0 -71 -31 -151 -141 -151s-141 80 -140 151h82c0 -50 19 -79 59 -79zM310 -12c-179 0 -264 147 -264 362s87 362 264 362c180 0 264 -147 264 -362s-86 -362 -264 -362zM310 89c106 0 144 106 144 261s-38 261 -144 261
s-144 -106 -144 -261s38 -261 144 -261z" />
    <glyph glyph-name="Ohungarumlaut" unicode="&#x150;" 
d="M270 926h101l-93 -150h-96zM437 926h100l-103 -150h-98zM310 -12c-179 0 -264 147 -264 362s87 362 264 362c180 0 264 -147 264 -362s-86 -362 -264 -362zM310 89c106 0 144 106 144 261s-38 261 -144 261s-144 -106 -144 -261s38 -261 144 -261z" />
    <glyph glyph-name="Racute" unicode="&#x154;" 
d="M338 926h104l-95 -150h-100zM561 0h-117l-10 178c-4 68 -52 88 -123 88h-121v-266h-117v700h246c156 0 242 -90 242 -195c0 -78 -41 -146 -112 -183c60 -20 98 -64 102 -144zM310 601h-120v-238h119c85 0 133 57 133 130c0 58 -41 108 -132 108z" />
    <glyph glyph-name="uni0156" unicode="&#x156;" 
d="M561 0h-117l-10 178c-4 68 -52 88 -123 88h-121v-266h-117v700h246c156 0 242 -90 242 -195c0 -78 -41 -146 -112 -183c60 -20 98 -64 102 -144zM310 601h-120v-238h119c85 0 133 57 133 130c0 58 -41 108 -132 108zM267 -66h98l-52 -160h-92z" />
    <glyph glyph-name="Rcaron" unicode="&#x158;" 
d="M350 776h-108l-100 150h100l54 -85l56 85h97zM561 0h-117l-10 178c-4 68 -52 88 -123 88h-121v-266h-117v700h246c156 0 242 -90 242 -195c0 -78 -41 -146 -112 -183c60 -20 98 -64 102 -144zM310 601h-120v-238h119c85 0 133 57 133 130c0 58 -41 108 -132 108z" />
    <glyph glyph-name="Sacute" unicode="&#x15a;" 
d="M349 926h104l-95 -150h-100zM574 204c0 -109 -83 -216 -250 -216c-170 0 -275 88 -278 229l117 13c4 -101 67 -147 161 -147c102 0 131 64 131 111c0 60 -35 84 -107 99l-91 19c-89 19 -190 65 -190 201c0 94 77 199 240 199c171 0 244 -99 254 -204l-119 -13
c-11 94 -68 122 -136 122c-97 0 -122 -57 -122 -99c0 -61 35 -88 95 -100l108 -21c119 -23 187 -82 187 -193z" />
    <glyph glyph-name="Scircumflex" unicode="&#x15c;" 
d="M253 926h108l100 -150h-100l-54 85l-56 -85h-97zM574 204c0 -109 -83 -216 -250 -216c-170 0 -275 88 -278 229l117 13c4 -101 67 -147 161 -147c102 0 131 64 131 111c0 60 -35 84 -107 99l-91 19c-89 19 -190 65 -190 201c0 94 77 199 240 199c171 0 244 -99 254 -204
l-119 -13c-11 94 -68 122 -136 122c-97 0 -122 -57 -122 -99c0 -61 35 -88 95 -100l108 -21c119 -23 187 -82 187 -193z" />
    <glyph glyph-name="Scedilla" unicode="&#x15e;" 
d="M419 -135c0 -57 -39 -97 -111 -97c-66 0 -102 35 -107 85l71 2c3 -18 15 -30 36 -30c25 0 37 18 37 38c0 21 -14 37 -38 37c-13 0 -26 -5 -35 -17l-44 31l56 76c-147 13 -235 98 -238 227l117 13c4 -101 67 -147 161 -147c102 0 131 64 131 111c0 60 -35 84 -107 99
l-91 19c-89 19 -190 65 -190 201c0 94 77 199 240 199c171 0 244 -99 254 -204l-119 -13c-11 94 -68 122 -136 122c-97 0 -122 -57 -122 -99c0 -61 35 -88 95 -100l108 -21c119 -23 187 -82 187 -193c0 -103 -74 -204 -223 -215l-26 -36c59 -3 94 -38 94 -88z" />
    <glyph glyph-name="uni0218" unicode="&#x218;" 
d="M574 204c0 -109 -83 -216 -250 -216c-170 0 -275 88 -278 229l117 13c4 -101 67 -147 161 -147c102 0 131 64 131 111c0 60 -35 84 -107 99l-91 19c-89 19 -190 65 -190 201c0 94 77 199 240 199c171 0 244 -99 254 -204l-119 -13c-11 94 -68 122 -136 122
c-97 0 -122 -57 -122 -99c0 -61 35 -88 95 -100l108 -21c119 -23 187 -82 187 -193zM274 -66h98l-52 -160h-92z" />
    <glyph glyph-name="uni0162" unicode="&#x162;" 
d="M405 -135c0 -57 -39 -97 -111 -97c-66 0 -102 35 -107 85l71 2c3 -18 15 -30 36 -30c25 0 37 18 37 38c0 21 -14 37 -38 37c-13 0 -26 -5 -35 -17l-44 31l63 86h-25v599h-213v101h542v-101h-212v-599h-24l-34 -47c59 -3 94 -38 94 -88z" />
    <glyph glyph-name="Tcaron" unicode="&#x164;" 
d="M364 776h-108l-100 150h100l54 -85l56 85h97zM39 700h542v-101h-212v-599h-117v599h-213v101z" />
    <glyph glyph-name="uni021A" unicode="&#x21a;" 
d="M39 700h542v-101h-212v-599h-117v599h-213v101zM260 -66h98l-52 -160h-92z" />
    <glyph glyph-name="Utilde" unicode="&#x168;" 
d="M361 877c16 0 22 8 22 32h76c1 -69 -18 -116 -77 -116c-48 0 -82 33 -118 33c-21 0 -29 -16 -30 -36h-77c3 65 25 119 91 119c48 0 86 -32 113 -32zM548 700v-476c0 -154 -106 -236 -237 -236s-239 82 -239 236v476h118v-476c0 -93 54 -135 121 -135c66 0 120 42 120 135
v476h117z" />
    <glyph glyph-name="Umacron" unicode="&#x16a;" 
d="M183 805v81h254v-81h-254zM548 700v-476c0 -154 -106 -236 -237 -236s-239 82 -239 236v476h118v-476c0 -93 54 -135 121 -135c66 0 120 42 120 135v476h117z" />
    <glyph glyph-name="Ubreve" unicode="&#x16c;" 
d="M311 844c39 0 59 28 59 79h81c0 -71 -31 -151 -141 -151s-141 80 -140 151h82c0 -50 19 -79 59 -79zM548 700v-476c0 -154 -106 -236 -237 -236s-239 82 -239 236v476h118v-476c0 -93 54 -135 121 -135c66 0 120 42 120 135v476h117z" />
    <glyph glyph-name="Uring" unicode="&#x16e;" 
d="M310 990c76 0 121 -50 121 -109c0 -58 -44 -109 -121 -109c-78 0 -121 51 -121 109c0 59 43 109 121 109zM310 937c-36 0 -52 -25 -52 -55c0 -32 16 -56 52 -56c35 0 52 24 52 56c0 30 -17 55 -52 55zM548 700v-476c0 -154 -106 -236 -237 -236s-239 82 -239 236v476h118
v-476c0 -93 54 -135 121 -135c66 0 120 42 120 135v476h117z" />
    <glyph glyph-name="Uhungarumlaut" unicode="&#x170;" 
d="M270 926h101l-93 -150h-96zM437 926h100l-103 -150h-98zM548 700v-476c0 -154 -106 -236 -237 -236s-239 82 -239 236v476h118v-476c0 -93 54 -135 121 -135c66 0 120 42 120 135v476h117z" />
    <glyph glyph-name="Uogonek" unicode="&#x172;" 
d="M548 224c0 -81 -30 -141 -75 -181c-53 -47 -105 -78 -105 -151c0 -35 22 -47 50 -47c12 0 23 2 36 7v-71c-14 -7 -32 -13 -61 -13c-67 0 -109 41 -109 95c0 51 20 87 57 127c-10 -1 -20 -2 -30 -2c-131 0 -239 82 -239 236v476h118v-476c0 -93 54 -135 121 -135
c66 0 120 42 120 135v476h117v-476z" />
    <glyph glyph-name="Wcircumflex" unicode="&#x174;" 
d="M256 926h108l100 -150h-100l-54 85l-56 -85h-97zM18 700h112l57 -495l78 355h95l79 -356l56 496h107l-93 -700h-109l-90 413l-89 -413h-110z" />
    <glyph glyph-name="Wgrave" unicode="&#x1e80;" 
d="M266 926l91 -150h-102l-94 150h105zM18 700h112l57 -495l78 355h95l79 -356l56 496h107l-93 -700h-109l-90 413l-89 -413h-110z" />
    <glyph glyph-name="Wacute" unicode="&#x1e82;" 
d="M351 926h104l-95 -150h-100zM18 700h112l57 -495l78 355h95l79 -356l56 496h107l-93 -700h-109l-90 413l-89 -413h-110z" />
    <glyph glyph-name="Wdieresis" unicode="&#x1e84;" 
d="M174 778v124h104v-124h-104zM342 778v124h104v-124h-104zM18 700h112l57 -495l78 355h95l79 -356l56 496h107l-93 -700h-109l-90 413l-89 -413h-110z" />
    <glyph glyph-name="Ycircumflex" unicode="&#x176;" 
d="M256 926h108l100 -150h-100l-54 85l-56 -85h-97zM18 700h126l167 -313l169 313h123l-234 -422v-278h-117v272z" />
    <glyph glyph-name="Ygrave" unicode="&#x1ef2;" 
d="M268 926l91 -150h-102l-94 150h105zM18 700h126l167 -313l169 313h123l-234 -422v-278h-117v272z" />
    <glyph glyph-name="Zacute" unicode="&#x179;" 
d="M357 926h104l-95 -150h-100zM579 100v-100h-525v89l365 511h-352v100h498v-89l-366 -511h380z" />
    <glyph glyph-name="Zdotaccent" unicode="&#x17b;" 
d="M258 778v124h114v-124h-114zM579 100v-100h-525v89l365 511h-352v100h498v-89l-366 -511h380z" />
    <glyph glyph-name="Dcroat" unicode="&#x110;" 
d="M16 394h69v306h184c194 0 305 -137 305 -340c0 -210 -112 -360 -305 -360h-184v304h-69v90zM271 599h-69v-205h142v-90h-142v-203h69c118 0 183 107 183 259c0 142 -65 239 -183 239z" />
    <glyph glyph-name="Hbar" unicode="&#x126;" 
d="M22 592h51v108h117v-108h240v108h117v-108h51v-82h-51v-510h-117v307h-240v-307h-117v510h-51v82zM190 409h240v101h-240v-101z" />
    <glyph glyph-name="IJ" unicode="&#x132;" 
d="M74 700h117v-300h-117v300zM541 700v-472c0 -155 -75 -240 -231 -240c-157 0 -235 87 -235 240v28l115 22v-50c0 -94 37 -141 119 -141c81 0 114 47 114 133v480h118z" />
    <glyph glyph-name="Ldot" unicode="&#x13f;" 
d="M97 700h118v-599h356v-101h-474v700zM400 437h133v-136h-133v136z" />
    <glyph glyph-name="Tbar" unicode="&#x166;" 
d="M68 386h184v213h-213v101h542v-101h-212v-213h184v-89h-184v-297h-117v297h-184v89z" />
    <glyph glyph-name="uni1E9E" unicode="&#x1e9e;" 
d="M590 213c0 -124 -89 -213 -231 -213h-110v100h103c85 0 127 48 127 115c0 60 -35 97 -100 97c-22 0 -44 -9 -57 -19l-64 55l158 257c-22 3 -55 6 -82 6c-119 0 -160 -76 -160 -192v-419h-114v425c0 186 96 287 266 287c76 0 142 -8 206 -19v-88l-128 -203
c114 0 186 -78 186 -189z" />
    <glyph glyph-name="uni0394" unicode="&#x394;" 
d="M33 82l216 618h124l214 -618v-82h-554v82zM155 97h303l-151 475z" />
    <glyph glyph-name="uni03A9" unicode="&#x3a9;" 
d="M46 91h118c-83 58 -125 158 -125 289c0 189 93 332 271 332s271 -143 271 -332c0 -131 -48 -230 -126 -289h119v-91h-219v114c71 42 110 134 110 263c0 135 -56 235 -155 235c-100 0 -155 -100 -155 -235c0 -130 39 -221 109 -262v-115h-218v91z" />
    <glyph glyph-name="amacron" unicode="&#x101;" 
d="M181 605v81h254v-81h-254zM568 0h-56c-36 0 -90 12 -102 66c-33 -50 -86 -78 -156 -78c-118 0 -175 72 -175 148c0 91 62 140 152 155l141 24c25 4 30 20 30 35c0 22 -13 79 -97 79c-82 0 -103 -50 -109 -84l-104 12c11 73 75 158 217 158c145 0 201 -88 201 -181v-205
c0 -25 8 -38 36 -38h22v-91zM187 145c0 -41 27 -71 86 -71c73 0 131 56 131 143v25l-143 -24c-55 -9 -74 -39 -74 -73z" />
    <glyph glyph-name="abreve" unicode="&#x103;" 
d="M309 644c39 0 59 28 59 79h81c0 -71 -31 -151 -141 -151s-141 80 -140 151h82c0 -50 19 -79 59 -79zM568 0h-56c-36 0 -90 12 -102 66c-33 -50 -86 -78 -156 -78c-118 0 -175 72 -175 148c0 91 62 140 152 155l141 24c25 4 30 20 30 35c0 22 -13 79 -97 79
c-82 0 -103 -50 -109 -84l-104 12c11 73 75 158 217 158c145 0 201 -88 201 -181v-205c0 -25 8 -38 36 -38h22v-91zM187 145c0 -41 27 -71 86 -71c73 0 131 56 131 143v25l-143 -24c-55 -9 -74 -39 -74 -73z" />
    <glyph glyph-name="aogonek" unicode="&#x105;" 
d="M497 -232c-63 0 -103 40 -103 90c0 57 33 96 95 144c-33 5 -69 21 -79 64c-33 -50 -86 -78 -156 -78c-118 0 -175 72 -175 148c0 91 62 140 152 155l141 24c25 4 30 20 30 35c0 22 -13 79 -97 79c-82 0 -103 -50 -109 -84l-104 12c11 73 75 158 217 158
c145 0 201 -88 201 -181v-205c0 -25 8 -38 36 -38h22v-91c-60 -52 -89 -85 -89 -119c0 -29 19 -36 44 -36c11 0 23 2 36 7v-71c-14 -7 -33 -13 -62 -13zM187 145c0 -41 27 -71 86 -71c73 0 131 56 131 143v25l-143 -24c-55 -9 -74 -39 -74 -73z" />
    <glyph glyph-name="cacute" unicode="&#x107;" 
d="M365 726h104l-95 -150h-100zM323 81c71 0 111 42 120 107l105 -13c-16 -114 -101 -187 -226 -187c-158 0 -243 111 -243 262c0 153 88 265 243 265c131 0 213 -70 230 -189l-110 -12c-11 68 -49 109 -120 109c-92 0 -130 -75 -130 -173c0 -97 40 -169 131 -169z" />
    <glyph glyph-name="ccircumflex" unicode="&#x109;" 
d="M267 726h108l100 -150h-100l-54 85l-56 -85h-97zM323 81c71 0 111 42 120 107l105 -13c-16 -114 -101 -187 -226 -187c-158 0 -243 111 -243 262c0 153 88 265 243 265c131 0 213 -70 230 -189l-110 -12c-11 68 -49 109 -120 109c-92 0 -130 -75 -130 -173
c0 -97 40 -169 131 -169z" />
    <glyph glyph-name="cdotaccent" unicode="&#x10b;" 
d="M264 578v124h114v-124h-114zM323 81c71 0 111 42 120 107l105 -13c-16 -114 -101 -187 -226 -187c-158 0 -243 111 -243 262c0 153 88 265 243 265c131 0 213 -70 230 -189l-110 -12c-11 68 -49 109 -120 109c-92 0 -130 -75 -130 -173c0 -97 40 -169 131 -169z" />
    <glyph glyph-name="ccaron" unicode="&#x10d;" 
d="M376 576h-108l-100 150h100l54 -85l56 85h97zM323 81c71 0 111 42 120 107l105 -13c-16 -114 -101 -187 -226 -187c-158 0 -243 111 -243 262c0 153 88 265 243 265c131 0 213 -70 230 -189l-110 -12c-11 68 -49 109 -120 109c-92 0 -130 -75 -130 -173
c0 -97 40 -169 131 -169z" />
    <glyph glyph-name="dcaron" unicode="&#x10f;" 
d="M235 -12c-123 0 -198 104 -198 260c0 155 74 267 198 267c61 0 105 -29 135 -75v260h102v-700h-98v72c-30 -51 -75 -84 -139 -84zM551 700h87l-37 -168h-81zM255 81c74 0 117 71 117 171c0 97 -43 170 -117 170s-114 -72 -114 -170s40 -171 114 -171z" />
    <glyph glyph-name="emacron" unicode="&#x113;" 
d="M192 605v81h254v-81h-254zM322 76c74 0 103 39 117 87l98 -21c-25 -107 -115 -154 -215 -154c-164 0 -248 99 -248 264c0 153 94 263 245 263c143 0 229 -97 229 -247v-44h-365c7 -98 53 -148 139 -148zM318 428c-76 0 -121 -43 -133 -128h251c-7 91 -50 128 -118 128z
" />
    <glyph glyph-name="ebreve" unicode="&#x115;" 
d="M320 644c39 0 59 28 59 79h81c0 -71 -31 -151 -141 -151s-141 80 -140 151h82c0 -50 19 -79 59 -79zM322 76c74 0 103 39 117 87l98 -21c-25 -107 -115 -154 -215 -154c-164 0 -248 99 -248 264c0 153 94 263 245 263c143 0 229 -97 229 -247v-44h-365
c7 -98 53 -148 139 -148zM318 428c-76 0 -121 -43 -133 -128h251c-7 91 -50 128 -118 128z" />
    <glyph glyph-name="edotaccent" unicode="&#x117;" 
d="M262 578v124h114v-124h-114zM322 76c74 0 103 39 117 87l98 -21c-25 -107 -115 -154 -215 -154c-164 0 -248 99 -248 264c0 153 94 263 245 263c143 0 229 -97 229 -247v-44h-365c7 -98 53 -148 139 -148zM318 428c-76 0 -121 -43 -133 -128h251c-7 91 -50 128 -118 128z
" />
    <glyph glyph-name="eogonek" unicode="&#x119;" 
d="M74 252c0 153 94 263 245 263c143 0 229 -97 229 -247v-44h-365c7 -98 53 -148 139 -148c74 0 103 39 117 87l98 -21c-18 -71 -52 -98 -86 -123c-45 -32 -91 -61 -91 -123c0 -40 23 -51 54 -51c11 0 20 2 32 7v-70c-14 -8 -33 -13 -62 -13c-66 0 -108 44 -108 99
c0 46 18 82 58 121c-5 -1 -9 -1 -13 -1c-163 0 -247 99 -247 264zM318 428c-76 0 -121 -43 -133 -128h251c-7 91 -50 128 -118 128z" />
    <glyph glyph-name="ecaron" unicode="&#x11b;" 
d="M374 576h-108l-100 150h100l54 -85l56 85h97zM322 76c74 0 103 39 117 87l98 -21c-25 -107 -115 -154 -215 -154c-164 0 -248 99 -248 264c0 153 94 263 245 263c143 0 229 -97 229 -247v-44h-365c7 -98 53 -148 139 -148zM318 428c-76 0 -121 -43 -133 -128h251
c-7 91 -50 128 -118 128z" />
    <glyph glyph-name="gcircumflex" unicode="&#x11d;" 
d="M252 726h108l100 -150h-100l-54 85l-56 -85h-97zM282 31c-135 0 -218 96 -218 241c0 140 82 243 218 243c68 0 119 -26 153 -70v58h105v-476c0 -115 -62 -224 -234 -224c-164 0 -226 87 -234 169l110 12c7 -34 25 -91 125 -91c108 0 123 82 123 136v73
c-32 -43 -82 -71 -148 -71zM306 123c78 0 126 62 126 150c0 85 -49 150 -126 150c-88 0 -129 -63 -129 -150s41 -150 129 -150z" />
    <glyph glyph-name="gbreve" unicode="&#x11f;" 
d="M307 644c39 0 59 28 59 79h81c0 -71 -31 -151 -141 -151s-141 80 -140 151h82c0 -50 19 -79 59 -79zM282 31c-135 0 -218 96 -218 241c0 140 82 243 218 243c68 0 119 -26 153 -70v58h105v-476c0 -115 -62 -224 -234 -224c-164 0 -226 87 -234 169l110 12
c7 -34 25 -91 125 -91c108 0 123 82 123 136v73c-32 -43 -82 -71 -148 -71zM306 123c78 0 126 62 126 150c0 85 -49 150 -126 150c-88 0 -129 -63 -129 -150s41 -150 129 -150z" />
    <glyph glyph-name="gdotaccent" unicode="&#x121;" 
d="M249 578v124h114v-124h-114zM282 31c-135 0 -218 96 -218 241c0 140 82 243 218 243c68 0 119 -26 153 -70v58h105v-476c0 -115 -62 -224 -234 -224c-164 0 -226 87 -234 169l110 12c7 -34 25 -91 125 -91c108 0 123 82 123 136v73c-32 -43 -82 -71 -148 -71zM306 123
c78 0 126 62 126 150c0 85 -49 150 -126 150c-88 0 -129 -63 -129 -150s41 -150 129 -150z" />
    <glyph glyph-name="uni0123" unicode="&#x123;" 
d="M366 576h-105l59 146h92zM282 31c-135 0 -218 96 -218 241c0 140 82 243 218 243c68 0 119 -26 153 -70v58h105v-476c0 -115 -62 -224 -234 -224c-164 0 -226 87 -234 169l110 12c7 -34 25 -91 125 -91c108 0 123 82 123 136v73c-32 -43 -82 -71 -148 -71zM306 123
c78 0 126 62 126 150c0 85 -49 150 -126 150c-88 0 -129 -63 -129 -150s41 -150 129 -150z" />
    <glyph glyph-name="hcircumflex" unicode="&#x125;" 
d="M91 911h108l100 -150h-100l-54 85l-56 -85h-97zM536 0h-110v307c0 74 -38 115 -106 115c-78 0 -119 -50 -119 -141v-281h-110v700h110v-252c30 41 78 67 148 67c128 0 187 -86 187 -190v-325z" />
    <glyph glyph-name="itilde" unicode="&#x129;" 
d="M297 677c16 0 22 8 22 32h76c1 -69 -18 -116 -77 -116c-48 0 -82 33 -118 33c-21 0 -29 -16 -30 -36h-77c3 65 25 119 91 119c48 0 86 -32 113 -32zM93 89h179v325h-179v89h289v-414h178v-89h-467v89z" />
    <glyph glyph-name="imacron" unicode="&#x12b;" 
d="M127 605v81h254v-81h-254zM93 89h179v325h-179v89h289v-414h178v-89h-467v89z" />
    <glyph glyph-name="iogonek" unicode="&#x12f;" 
d="M262 734h120v-148h-120v148zM93 89h179v325h-179v89h289v-414h178v-89c-60 -52 -89 -85 -89 -119c0 -29 19 -36 44 -36c11 0 23 2 36 7v-71c-14 -7 -33 -13 -62 -13c-63 0 -103 40 -103 90c0 56 32 95 92 142h-385v89z" />
    <glyph glyph-name="jcircumflex" unicode="&#x135;" 
d="M234 726h108l100 -150h-100l-54 85l-56 -85h-97zM460 503v-507c0 -108 -44 -181 -173 -181h-190v91h185c59 0 68 39 68 96v412h-251v89h361z" />
    <glyph glyph-name="uni0137" unicode="&#x137;" 
d="M590 0h-132l-164 243l-92 -87v-156h-110v700h110v-415l228 218h137l-193 -187zM279 -66h98l-52 -160h-92z" />
    <glyph glyph-name="lacute" unicode="&#x13a;" 
d="M356 911h104l-95 -150h-100zM93 89h179v522h-179v89h289v-611h178v-89h-467v89z" />
    <glyph glyph-name="uni013C" unicode="&#x13c;" 
d="M93 89h179v522h-179v89h289v-611h178v-89h-467v89zM277 -66h98l-52 -160h-92z" />
    <glyph glyph-name="lcaron" unicode="&#x13e;" 
d="M93 89h179v522h-179v89h289v-611h178v-89h-467v89zM462 700h90l-37 -168h-85z" />
    <glyph glyph-name="nacute" unicode="&#x144;" 
d="M364 726h104l-95 -150h-100zM536 0h-110v307c0 74 -38 115 -106 115c-78 0 -119 -50 -119 -141v-281h-110v503h105v-60c31 43 80 72 153 72c128 0 187 -86 187 -190v-325z" />
    <glyph glyph-name="uni0146" unicode="&#x146;" 
d="M536 0h-110v307c0 74 -38 115 -106 115c-78 0 -119 -50 -119 -141v-281h-110v503h105v-60c31 43 80 72 153 72c128 0 187 -86 187 -190v-325zM263 -66h98l-52 -160h-92z" />
    <glyph glyph-name="ncaron" unicode="&#x148;" 
d="M375 576h-108l-100 150h100l54 -85l56 85h97zM536 0h-110v307c0 74 -38 115 -106 115c-78 0 -119 -50 -119 -141v-281h-110v503h105v-60c31 43 80 72 153 72c128 0 187 -86 187 -190v-325z" />
    <glyph glyph-name="omacron" unicode="&#x14d;" 
d="M183 605v81h254v-81h-254zM310 515c158 0 251 -112 251 -264c0 -151 -95 -263 -251 -263c-159 0 -250 112 -250 263c0 152 93 264 250 264zM310 425c-94 0 -138 -75 -138 -174c0 -98 44 -172 138 -172s139 74 139 172c0 99 -45 174 -139 174z" />
    <glyph glyph-name="obreve" unicode="&#x14f;" 
d="M311 644c39 0 59 28 59 79h81c0 -71 -31 -151 -141 -151s-141 80 -140 151h82c0 -50 19 -79 59 -79zM310 515c158 0 251 -112 251 -264c0 -151 -95 -263 -251 -263c-159 0 -250 112 -250 263c0 152 93 264 250 264zM310 425c-94 0 -138 -75 -138 -174
c0 -98 44 -172 138 -172s139 74 139 172c0 99 -45 174 -139 174z" />
    <glyph glyph-name="ohungarumlaut" unicode="&#x151;" 
d="M270 726h101l-93 -150h-96zM437 726h100l-103 -150h-98zM310 515c158 0 251 -112 251 -264c0 -151 -95 -263 -251 -263c-159 0 -250 112 -250 263c0 152 93 264 250 264zM310 425c-94 0 -138 -75 -138 -174c0 -98 44 -172 138 -172s139 74 139 172c0 99 -45 174 -139 174
z" />
    <glyph glyph-name="racute" unicode="&#x155;" 
d="M362 726h104l-95 -150h-100zM73 89h149v325h-149v89h255v-84c30 54 77 84 140 84h97v-101h-101c-82 0 -132 -63 -132 -185v-128h188v-89h-447v89z" />
    <glyph glyph-name="uni0157" unicode="&#x157;" 
d="M73 89h149v325h-149v89h255v-84c30 54 77 84 140 84h97v-101h-101c-82 0 -132 -63 -132 -185v-128h188v-89h-447v89zM227 -66h98l-52 -160h-92z" />
    <glyph glyph-name="rcaron" unicode="&#x159;" 
d="M373 576h-108l-100 150h100l54 -85l56 85h97zM73 89h149v325h-149v89h255v-84c30 54 77 84 140 84h97v-101h-101c-82 0 -132 -63 -132 -185v-128h188v-89h-447v89z" />
    <glyph glyph-name="sacute" unicode="&#x15b;" 
d="M354 726h104l-95 -150h-100zM537 152c0 -94 -69 -164 -220 -164c-164 0 -227 83 -233 165l110 13c7 -63 49 -94 127 -94c84 0 106 34 106 73c0 36 -33 51 -88 61l-75 13c-75 13 -163 40 -163 145c0 79 68 151 212 151c155 0 204 -84 215 -155l-101 -13
c-11 47 -42 85 -119 85c-81 0 -102 -34 -102 -61c0 -38 30 -50 82 -59l83 -15c102 -18 166 -54 166 -145z" />
    <glyph glyph-name="scircumflex" unicode="&#x15d;" 
d="M257 726h108l100 -150h-100l-54 85l-56 -85h-97zM537 152c0 -94 -69 -164 -220 -164c-164 0 -227 83 -233 165l110 13c7 -63 49 -94 127 -94c84 0 106 34 106 73c0 36 -33 51 -88 61l-75 13c-75 13 -163 40 -163 145c0 79 68 151 212 151c155 0 204 -84 215 -155
l-101 -13c-11 47 -42 85 -119 85c-81 0 -102 -34 -102 -61c0 -38 30 -50 82 -59l83 -15c102 -18 166 -54 166 -145z" />
    <glyph glyph-name="scedilla" unicode="&#x15f;" 
d="M415 -135c0 -57 -39 -97 -111 -97c-66 0 -102 35 -107 85l71 2c3 -18 15 -30 36 -30c25 0 37 18 37 38c0 21 -14 37 -38 37c-13 0 -26 -5 -35 -17l-44 31l55 76c-136 11 -189 88 -195 163l110 13c7 -63 49 -94 127 -94c84 0 106 34 106 73c0 36 -33 51 -88 61l-75 13
c-75 13 -163 40 -163 145c0 79 68 151 212 151c155 0 204 -84 215 -155l-101 -13c-11 47 -42 85 -119 85c-81 0 -102 -34 -102 -61c0 -38 30 -50 82 -59l83 -15c102 -18 166 -54 166 -145c0 -87 -60 -154 -190 -163l-26 -36c59 -3 94 -38 94 -88z" />
    <glyph glyph-name="uni0219" unicode="&#x219;" 
d="M537 152c0 -94 -69 -164 -220 -164c-164 0 -227 83 -233 165l110 13c7 -63 49 -94 127 -94c84 0 106 34 106 73c0 36 -33 51 -88 61l-75 13c-75 13 -163 40 -163 145c0 79 68 151 212 151c155 0 204 -84 215 -155l-101 -13c-11 47 -42 85 -119 85
c-81 0 -102 -34 -102 -61c0 -38 30 -50 82 -59l83 -15c102 -18 166 -54 166 -145zM270 -66h98l-52 -160h-92z" />
    <glyph glyph-name="uni0163" unicode="&#x163;" 
d="M54 414v89h156v158h110v-158h224v-89h-224v-255c0 -47 12 -67 59 -67h161v-92h-143l-34 -47c59 -3 94 -38 94 -88c0 -57 -39 -97 -111 -97c-66 0 -102 35 -107 85l71 2c3 -18 15 -30 36 -30c25 0 37 18 37 38c0 21 -14 37 -38 37c-13 0 -26 -5 -35 -17l-44 31l64 88
c-85 9 -120 62 -120 141v271h-156z" />
    <glyph glyph-name="tcaron" unicode="&#x165;" 
d="M401 725h90l-37 -168h-85zM54 414v89h156v158h110v-158h224v-89h-224v-255c0 -47 12 -67 59 -67h161v-92h-180c-107 0 -150 55 -150 143v271h-156z" />
    <glyph glyph-name="uni021B" unicode="&#x21b;" 
d="M54 414v89h156v158h110v-158h224v-89h-224v-255c0 -47 12 -67 59 -67h161v-92h-180c-107 0 -150 55 -150 143v271h-156zM246 -66h98l-52 -160h-92z" />
    <glyph glyph-name="utilde" unicode="&#x169;" 
d="M359 677c16 0 22 8 22 32h76c1 -69 -18 -116 -77 -116c-48 0 -82 33 -118 33c-21 0 -29 -16 -30 -36h-77c3 65 25 119 91 119c48 0 86 -32 113 -32zM524 0h-105v59c-31 -43 -78 -71 -148 -71c-125 0 -182 86 -182 190v325h110v-307c0 -74 37 -114 101 -114
c74 0 114 49 114 140v281h110v-503z" />
    <glyph glyph-name="umacron" unicode="&#x16b;" 
d="M179 605v81h254v-81h-254zM524 0h-105v59c-31 -43 -78 -71 -148 -71c-125 0 -182 86 -182 190v325h110v-307c0 -74 37 -114 101 -114c74 0 114 49 114 140v281h110v-503z" />
    <glyph glyph-name="ubreve" unicode="&#x16d;" 
d="M307 644c39 0 59 28 59 79h81c0 -71 -31 -151 -141 -151s-141 80 -140 151h82c0 -50 19 -79 59 -79zM524 0h-105v59c-31 -43 -78 -71 -148 -71c-125 0 -182 86 -182 190v325h110v-307c0 -74 37 -114 101 -114c74 0 114 49 114 140v281h110v-503z" />
    <glyph glyph-name="uring" unicode="&#x16f;" 
d="M306 790c76 0 121 -50 121 -109c0 -58 -44 -109 -121 -109c-78 0 -121 51 -121 109c0 59 43 109 121 109zM306 737c-36 0 -52 -25 -52 -55c0 -32 16 -56 52 -56c35 0 52 24 52 56c0 30 -17 55 -52 55zM524 0h-105v59c-31 -43 -78 -71 -148 -71c-125 0 -182 86 -182 190
v325h110v-307c0 -74 37 -114 101 -114c74 0 114 49 114 140v281h110v-503z" />
    <glyph glyph-name="uhungarumlaut" unicode="&#x171;" 
d="M266 726h101l-93 -150h-96zM433 726h100l-103 -150h-98zM524 0h-105v59c-31 -43 -78 -71 -148 -71c-125 0 -182 86 -182 190v325h110v-307c0 -74 37 -114 101 -114c74 0 114 49 114 140v281h110v-503z" />
    <glyph glyph-name="uogonek" unicode="&#x173;" 
d="M454 -232c-63 0 -103 40 -103 90c0 56 32 95 92 142h-24v59c-31 -43 -78 -71 -148 -71c-125 0 -182 86 -182 190v325h110v-307c0 -74 37 -114 101 -114c74 0 114 49 114 140v281h110v-503c-59 -52 -88 -85 -88 -119c0 -29 19 -36 44 -36c11 0 23 2 36 7v-71
c-14 -7 -33 -13 -62 -13z" />
    <glyph glyph-name="wcircumflex" unicode="&#x175;" 
d="M256 726h108l100 -150h-100l-54 85l-56 -85h-97zM24 503h100l59 -352l90 352h78l92 -349l60 349h93l-96 -503h-93l-95 358l-95 -358h-98z" />
    <glyph glyph-name="wgrave" unicode="&#x1e81;" 
d="M269 726l91 -150h-102l-94 150h105zM24 503h100l59 -352l90 352h78l92 -349l60 349h93l-96 -503h-93l-95 358l-95 -358h-98z" />
    <glyph glyph-name="wacute" unicode="&#x1e83;" 
d="M355 726h104l-95 -150h-100zM24 503h100l59 -352l90 352h78l92 -349l60 349h93l-96 -503h-93l-95 358l-95 -358h-98z" />
    <glyph glyph-name="wdieresis" unicode="&#x1e85;" 
d="M174 578v124h104v-124h-104zM342 578v124h104v-124h-104zM24 503h100l59 -352l90 352h78l92 -349l60 349h93l-96 -503h-93l-95 358l-95 -358h-98z" />
    <glyph glyph-name="ycircumflex" unicode="&#x177;" 
d="M259 726h108l100 -150h-100l-54 85l-56 -85h-97zM51 503h116l146 -369l147 369h110l-222 -547c-39 -97 -80 -141 -186 -141h-86v91h86c49 0 68 20 82 55l14 36z" />
    <glyph glyph-name="ygrave" unicode="&#x1ef3;" 
d="M271 726l91 -150h-102l-94 150h105zM51 503h116l146 -369l147 369h110l-222 -547c-39 -97 -80 -141 -186 -141h-86v91h86c49 0 68 20 82 55l14 36z" />
    <glyph glyph-name="zacute" unicode="&#x17a;" 
d="M355 726h104l-95 -150h-100zM535 91v-91h-450v80l306 332h-291v91h424v-83l-303 -329h314z" />
    <glyph glyph-name="zdotaccent" unicode="&#x17c;" 
d="M255 578v124h114v-124h-114zM535 91v-91h-450v80l306 332h-291v91h424v-83l-303 -329h314z" />
    <glyph glyph-name="dcroat" unicode="&#x111;" 
d="M278 -12c-139 0 -225 104 -225 260c0 155 85 267 225 267c70 0 122 -29 157 -75v124h-168v74h168v62h110v-62h51v-74h-51v-564h-106v72c-34 -51 -87 -84 -161 -84zM299 81c87 0 138 71 138 171c0 97 -52 170 -138 170s-133 -72 -133 -170s47 -171 133 -171z" />
    <glyph glyph-name="hbar" unicode="&#x127;" 
d="M536 0h-110v307c0 74 -38 115 -106 115c-78 0 -119 -50 -119 -141v-281h-110v564h-51v74h51v62h110v-62h167v-74h-167v-116c30 41 78 67 148 67c128 0 187 -86 187 -190v-325z" />
    <glyph glyph-name="ij" unicode="&#x133;" 
d="M409 717h116v-135h-116v135zM101 717h116v-135h-116v135zM214 503v-503h-110v503h110zM522 503v-511c0 -106 -43 -177 -168 -177h-93v91h87c56 0 64 38 64 92v505h110z" />
    <glyph glyph-name="kgreenlandic" unicode="&#x138;" 
d="M590 0h-132l-164 243l-92 -87v-156h-110v503h110v-218l228 218h137l-193 -187z" />
    <glyph glyph-name="ldot" unicode="&#x140;" 
d="M93 89h179v522h-179v89h289v-611h178v-89h-467v89zM570 437h133v-136h-133v136z" />
    <glyph glyph-name="napostrophe" unicode="&#x149;" 
d="M81 729h98l-52 -160h-92zM536 0h-110v307c0 74 -38 115 -106 115c-78 0 -119 -50 -119 -141v-281h-110v503h105v-60c31 43 80 72 153 72c128 0 187 -86 187 -190v-325z" />
    <glyph glyph-name="tbar" unicode="&#x167;" 
d="M109 333h99v81h-156v89h156v158h110v-158h224v-89h-224v-81h127v-80h-127v-94c0 -47 12 -67 59 -67h161v-92h-180c-107 0 -150 55 -150 143v110h-99v80z" />
    <glyph glyph-name="longs" unicode="&#x17f;" 
d="M90 89h142v325h-156v89h156v35c0 86 44 162 168 162h162v-91h-154c-55 0 -66 -39 -66 -79v-441h175v-89h-427v89z" />
    <glyph glyph-name="uni0237" unicode="&#x237;" 
d="M460 503v-507c0 -108 -44 -181 -173 -181h-190v91h185c59 0 68 39 68 96v412h-251v89h361z" />
    <glyph glyph-name="uni03BC" unicode="&#x3bc;" 
d="M528 0h-106v59c-30 -43 -78 -71 -147 -71c-33 0 -61 8 -82 22l9 -88v-107h-110v688h110v-307c0 -74 37 -114 101 -114c74 0 115 49 115 140v281h110v-503z" />
    <glyph glyph-name="uni02C9" unicode="&#x2c9;" 
d="M183 605v81h254v-81h-254z" />
    <glyph glyph-name="uni2153" unicode="&#x2153;" 
d="M353 400l164 300h82l-166 -300h-80zM43 428h97v166c-11 -4 -24 -7 -38 -7h-64v61h63c45 0 46 37 46 52h67v-272h82v-61h-253v61zM451 143h-30v52h26c33 0 44 22 44 44c0 25 -20 38 -47 38c-33 0 -63 -19 -61 -65l-68 14c0 75 62 112 133 112c76 0 120 -39 120 -90
c0 -28 -12 -57 -45 -73c40 -14 56 -43 56 -77c0 -62 -50 -105 -130 -105c-68 0 -142 32 -141 111l74 13c-1 -47 28 -63 63 -63c33 0 57 16 57 48c0 20 -12 41 -51 41zM21 0l166 300h80l-164 -300h-82z" />
    <glyph glyph-name="uni2154" unicode="&#x2154;" 
d="M290 429v-61h-263v59l120 99c32 27 54 49 54 78c0 24 -17 41 -46 41c-28 0 -60 -16 -56 -73l-73 9c-4 90 64 126 132 126c82 0 121 -47 121 -99c0 -50 -37 -90 -83 -126l-67 -53h161zM353 400l164 300h82l-166 -300h-80zM451 143h-30v52h26c33 0 44 22 44 44
c0 25 -20 38 -47 38c-33 0 -63 -19 -61 -65l-68 14c0 75 62 112 133 112c76 0 120 -39 120 -90c0 -28 -12 -57 -45 -73c40 -14 56 -43 56 -77c0 -62 -50 -105 -130 -105c-68 0 -142 32 -141 111l74 13c-1 -47 28 -63 63 -63c33 0 57 16 57 48c0 20 -12 41 -51 41zM21 0
l166 300h80l-164 -300h-82z" />
    <glyph glyph-name="uni2155" unicode="&#x2155;" 
d="M353 400l164 300h82l-166 -300h-80zM43 428h97v166c-11 -4 -24 -7 -38 -7h-64v61h63c45 0 46 37 46 52h67v-272h82v-61h-253v61zM591 110c0 -63 -46 -117 -135 -117c-69 0 -128 33 -137 89l74 11c5 -27 30 -41 62 -41c37 0 61 20 61 56c0 33 -24 50 -58 50
c-28 0 -52 -10 -69 -27l-54 24l27 177h203v-61h-148l-13 -76c18 11 40 19 69 19c78 0 118 -46 118 -104zM21 0l166 300h80l-164 -300h-82z" />
    <glyph glyph-name="uni2156" unicode="&#x2156;" 
d="M290 429v-61h-263v59l120 99c32 27 54 49 54 78c0 24 -17 41 -46 41c-28 0 -60 -16 -56 -73l-73 9c-4 90 64 126 132 126c82 0 121 -47 121 -99c0 -50 -37 -90 -83 -126l-67 -53h161zM353 400l164 300h82l-166 -300h-80zM591 110c0 -63 -46 -117 -135 -117
c-69 0 -128 33 -137 89l74 11c5 -27 30 -41 62 -41c37 0 61 20 61 56c0 33 -24 50 -58 50c-28 0 -52 -10 -69 -27l-54 24l27 177h203v-61h-148l-13 -76c18 11 40 19 69 19c78 0 118 -46 118 -104zM21 0l166 300h80l-164 -300h-82z" />
    <glyph glyph-name="uni2157" unicode="&#x2157;" 
d="M165 512h-30v52h26c33 0 44 22 44 44c0 25 -20 38 -47 38c-33 0 -63 -19 -61 -65l-68 14c0 75 62 112 133 112c76 0 120 -39 120 -90c0 -28 -12 -57 -45 -73c40 -14 56 -43 56 -77c0 -62 -50 -105 -130 -105c-68 0 -142 32 -141 111l74 13c-1 -47 28 -63 63 -63
c33 0 57 16 57 48c0 20 -12 41 -51 41zM353 400l164 300h82l-166 -300h-80zM591 110c0 -63 -46 -117 -135 -117c-69 0 -128 33 -137 89l74 11c5 -27 30 -41 62 -41c37 0 61 20 61 56c0 33 -24 50 -58 50c-28 0 -52 -10 -69 -27l-54 24l27 177h203v-61h-148l-13 -76
c18 11 40 19 69 19c78 0 118 -46 118 -104zM21 0l166 300h80l-164 -300h-82z" />
    <glyph glyph-name="uni2158" unicode="&#x2158;" 
d="M16 493l147 207h101v-200h51v-62h-51v-71h-74v71h-174v55zM353 400l164 300h82l-166 -300h-80zM190 500v135l-98 -135h98zM591 110c0 -63 -46 -117 -135 -117c-69 0 -128 33 -137 89l74 11c5 -27 30 -41 62 -41c37 0 61 20 61 56c0 33 -24 50 -58 50
c-28 0 -52 -10 -69 -27l-54 24l27 177h203v-61h-148l-13 -76c18 11 40 19 69 19c78 0 118 -46 118 -104zM21 0l166 300h80l-164 -300h-82z" />
    <glyph glyph-name="uni2159" unicode="&#x2159;" 
d="M353 400l164 300h82l-166 -300h-80zM43 428h97v166c-11 -4 -24 -7 -38 -7h-64v61h63c45 0 46 37 46 52h67v-272h82v-61h-253v61zM589 109c0 -66 -52 -116 -129 -116c-86 0 -142 51 -142 167c0 123 62 178 144 178c57 0 109 -26 121 -88l-72 -10c-7 26 -23 39 -52 39
c-48 0 -66 -46 -68 -97c21 22 52 32 81 32c68 0 117 -39 117 -105zM21 0l166 300h80l-164 -300h-82zM457 49c36 0 59 24 59 55c0 35 -23 55 -58 55c-37 0 -59 -23 -59 -55c0 -31 23 -55 58 -55z" />
    <glyph glyph-name="uni215A" unicode="&#x215a;" 
d="M296 478c0 -63 -46 -117 -135 -117c-69 0 -128 33 -137 89l74 11c5 -27 30 -41 62 -41c37 0 61 20 61 56c0 33 -24 50 -58 50c-28 0 -52 -10 -69 -27l-54 24l27 177h203v-61h-148l-13 -76c18 11 40 19 69 19c78 0 118 -46 118 -104zM353 400l164 300h82l-166 -300h-80z
M589 109c0 -66 -52 -116 -129 -116c-86 0 -142 51 -142 167c0 123 62 178 144 178c57 0 109 -26 121 -88l-72 -10c-7 26 -23 39 -52 39c-48 0 -66 -46 -68 -97c21 22 52 32 81 32c68 0 117 -39 117 -105zM21 0l166 300h80l-164 -300h-82zM457 49c36 0 59 24 59 55
c0 35 -23 55 -58 55c-37 0 -59 -23 -59 -55c0 -31 23 -55 58 -55z" />
    <glyph glyph-name="uni215B" unicode="&#x215b;" 
d="M353 400l164 300h82l-166 -300h-80zM43 428h97v166c-11 -4 -24 -7 -38 -7h-64v61h63c45 0 46 37 46 52h67v-272h82v-61h-253v61zM588 93c0 -56 -50 -100 -138 -100c-91 0 -139 44 -139 100c0 31 14 64 60 82c-39 16 -49 47 -49 73c0 49 45 90 128 90
c84 0 127 -41 127 -90c0 -26 -10 -56 -48 -72c47 -18 59 -52 59 -83zM21 0l166 300h80l-164 -300h-82zM450 200c39 0 54 24 54 42c0 27 -23 42 -54 42c-33 0 -55 -15 -55 -42c0 -18 15 -42 55 -42zM450 147c-45 0 -64 -23 -64 -49c0 -28 19 -51 64 -51c43 0 63 23 63 51
c0 26 -20 49 -63 49z" />
    <glyph glyph-name="uni215C" unicode="&#x215c;" 
d="M165 512h-30v52h26c33 0 44 22 44 44c0 25 -20 38 -47 38c-33 0 -63 -19 -61 -65l-68 14c0 75 62 112 133 112c76 0 120 -39 120 -90c0 -28 -12 -57 -45 -73c40 -14 56 -43 56 -77c0 -62 -50 -105 -130 -105c-68 0 -142 32 -141 111l74 13c-1 -47 28 -63 63 -63
c33 0 57 16 57 48c0 20 -12 41 -51 41zM353 400l164 300h82l-166 -300h-80zM588 93c0 -56 -50 -100 -138 -100c-91 0 -139 44 -139 100c0 31 14 64 60 82c-39 16 -49 47 -49 73c0 49 45 90 128 90c84 0 127 -41 127 -90c0 -26 -10 -56 -48 -72c47 -18 59 -52 59 -83zM21 0
l166 300h80l-164 -300h-82zM450 200c39 0 54 24 54 42c0 27 -23 42 -54 42c-33 0 -55 -15 -55 -42c0 -18 15 -42 55 -42zM450 147c-45 0 -64 -23 -64 -49c0 -28 19 -51 64 -51c43 0 63 23 63 51c0 26 -20 49 -63 49z" />
    <glyph glyph-name="uni215D" unicode="&#x215d;" 
d="M353 400l164 300h82l-166 -300h-80zM296 478c0 -63 -46 -117 -135 -117c-69 0 -128 33 -137 89l74 11c5 -27 30 -41 62 -41c37 0 61 20 61 56c0 33 -24 50 -58 50c-28 0 -52 -10 -69 -27l-54 24l27 177h203v-61h-148l-13 -76c18 11 40 19 69 19c78 0 118 -46 118 -104z
M588 93c0 -56 -50 -100 -138 -100c-91 0 -139 44 -139 100c0 31 14 64 60 82c-39 16 -49 47 -49 73c0 49 45 90 128 90c84 0 127 -41 127 -90c0 -26 -10 -56 -48 -72c47 -18 59 -52 59 -83zM21 0l166 300h80l-164 -300h-82zM450 200c39 0 54 24 54 42c0 27 -23 42 -54 42
c-33 0 -55 -15 -55 -42c0 -18 15 -42 55 -42zM450 147c-45 0 -64 -23 -64 -49c0 -28 19 -51 64 -51c43 0 63 23 63 51c0 26 -20 49 -63 49z" />
    <glyph glyph-name="uni215E" unicode="&#x215e;" 
d="M32 588v112h273v-52c-81 -80 -113 -128 -113 -235v-46h-74v46c0 99 34 162 97 224h-119v-49h-64zM353 400l164 300h82l-166 -300h-80zM588 93c0 -56 -50 -100 -138 -100c-91 0 -139 44 -139 100c0 31 14 64 60 82c-39 16 -49 47 -49 73c0 49 45 90 128 90
c84 0 127 -41 127 -90c0 -26 -10 -56 -48 -72c47 -18 59 -52 59 -83zM21 0l166 300h80l-164 -300h-82zM450 200c39 0 54 24 54 42c0 27 -23 42 -54 42c-33 0 -55 -15 -55 -42c0 -18 15 -42 55 -42zM450 147c-45 0 -64 -23 -64 -49c0 -28 19 -51 64 -51c43 0 63 23 63 51
c0 26 -20 49 -63 49z" />
    <glyph glyph-name="uni215F" unicode="&#x215f;" 
d="M353 400l164 300h82l-166 -300h-80zM43 428h97v166c-11 -4 -24 -7 -38 -7h-64v61h63c45 0 46 37 46 52h67v-272h82v-61h-253v61zM21 0l166 300h80l-164 -300h-82z" />
    <glyph glyph-name="uni2460" unicode="&#x2460;" 
d="M309 615c146 0 266 -120 266 -264c0 -147 -120 -266 -266 -266c-145 0 -264 119 -264 266c0 144 119 264 264 264zM309 557c-114 0 -201 -93 -201 -206c0 -116 87 -208 201 -208c115 0 203 92 203 208c0 113 -88 206 -203 206zM207 262h80v137c-9 -4 -19 -6 -31 -6h-52
v50h51c37 0 39 31 39 43h54v-224h68v-50h-209v50z" />
    <glyph glyph-name="uni2461" unicode="&#x2461;" 
d="M309 615c146 0 266 -120 266 -264c0 -147 -120 -266 -266 -266c-145 0 -264 119 -264 266c0 144 119 264 264 264zM309 557c-114 0 -201 -93 -201 -206c0 -116 87 -208 201 -208c115 0 203 92 203 208c0 113 -88 206 -203 206zM419 262v-50h-217v48l100 82
c27 22 44 40 44 65c0 19 -14 33 -38 33c-23 0 -50 -13 -46 -60l-60 8c-4 74 52 103 108 103c68 0 100 -38 100 -82c0 -41 -31 -73 -68 -103l-55 -44h132z" />
    <glyph glyph-name="uni2462" unicode="&#x2462;" 
d="M309 615c146 0 266 -120 266 -264c0 -147 -120 -266 -266 -266c-145 0 -264 119 -264 266c0 144 119 264 264 264zM309 557c-114 0 -201 -93 -201 -206c0 -116 87 -208 201 -208c115 0 203 92 203 208c0 113 -88 206 -203 206zM313 330h-24v44h21c27 0 36 18 36 35
c0 21 -17 32 -39 32c-27 0 -51 -15 -50 -54l-56 12c0 62 51 92 110 92c63 0 98 -32 98 -74c0 -23 -10 -47 -37 -60c33 -12 46 -36 46 -63c0 -51 -41 -87 -107 -87c-56 0 -117 26 -115 91l61 11c-1 -39 23 -51 51 -51s47 12 47 39c0 17 -9 33 -42 33z" />
    <glyph glyph-name="uni2463" unicode="&#x2463;" 
d="M309 615c146 0 266 -120 266 -264c0 -147 -120 -266 -266 -266c-145 0 -264 119 -264 266c0 144 119 264 264 264zM309 557c-114 0 -201 -93 -201 -206c0 -116 87 -208 201 -208c115 0 203 92 203 208c0 113 -88 206 -203 206zM171 316l121 170h83v-165h42v-51h-42v-58
h-61v58h-143v46zM314 321v112l-80 -112h80z" />
    <glyph glyph-name="uni2464" unicode="&#x2464;" 
d="M309 615c146 0 266 -120 266 -264c0 -147 -120 -266 -266 -266c-145 0 -264 119 -264 266c0 144 119 264 264 264zM309 557c-114 0 -201 -93 -201 -206c0 -116 87 -208 201 -208c115 0 203 92 203 208c0 113 -88 206 -203 206zM417 304c0 -53 -37 -97 -111 -97
c-56 0 -105 27 -113 74l62 9c4 -23 24 -35 51 -35c30 0 49 17 49 47c0 27 -19 41 -47 41c-23 0 -43 -8 -57 -22l-45 20l23 145h167v-50h-122l-10 -62c14 9 33 15 56 15c64 0 97 -38 97 -85z" />
    <glyph glyph-name="uni2465" unicode="&#x2465;" 
d="M309 615c146 0 266 -120 266 -264c0 -147 -120 -266 -266 -266c-145 0 -264 119 -264 266c0 144 119 264 264 264zM309 557c-114 0 -201 -93 -201 -206c0 -116 87 -208 201 -208c115 0 203 92 203 208c0 113 -88 206 -203 206zM416 302c0 -54 -42 -95 -105 -95
c-71 0 -117 42 -117 137c0 102 51 147 118 147c47 0 90 -21 99 -72l-58 -9c-7 22 -20 32 -43 32c-40 0 -55 -37 -56 -79c17 18 43 26 66 26c56 0 96 -32 96 -87zM308 253c29 0 48 20 48 45c0 30 -18 46 -47 46c-31 0 -49 -19 -49 -46c0 -25 19 -45 48 -45z" />
    <glyph glyph-name="uni2466" unicode="&#x2466;" 
d="M309 615c146 0 266 -120 266 -264c0 -147 -120 -266 -266 -266c-145 0 -264 119 -264 266c0 144 119 264 264 264zM309 557c-114 0 -201 -93 -201 -206c0 -116 87 -208 201 -208c115 0 203 92 203 208c0 113 -88 206 -203 206zM199 394v92h225v-42
c-66 -66 -92 -106 -92 -194v-38h-62v38c0 81 29 134 81 185h-98v-41h-54z" />
    <glyph glyph-name="uni2467" unicode="&#x2467;" 
d="M309 615c146 0 266 -120 266 -264c0 -147 -120 -266 -266 -266c-145 0 -264 119 -264 266c0 144 119 264 264 264zM309 557c-114 0 -201 -93 -201 -206c0 -116 87 -208 201 -208c115 0 203 92 203 208c0 113 -88 206 -203 206zM422 290c0 -46 -41 -83 -114 -83
c-75 0 -114 37 -114 83c0 25 12 52 50 67c-33 13 -41 38 -41 60c0 40 37 74 105 74c69 0 105 -34 105 -74c0 -22 -8 -46 -39 -59c38 -15 48 -43 48 -68zM308 378c33 0 45 20 45 34c0 23 -19 35 -45 35c-27 0 -45 -12 -45 -35c0 -14 12 -34 45 -34zM308 334
c-36 0 -52 -19 -52 -41s16 -41 52 -41s53 19 53 41s-17 41 -53 41z" />
    <glyph glyph-name="uni2468" unicode="&#x2468;" 
d="M309 615c146 0 266 -120 266 -264c0 -147 -120 -266 -266 -266c-145 0 -264 119 -264 266c0 144 119 264 264 264zM309 557c-114 0 -201 -93 -201 -206c0 -116 87 -208 201 -208c115 0 203 92 203 208c0 113 -88 206 -203 206zM200 396c0 54 42 95 105 95
c71 0 117 -42 117 -137c0 -101 -51 -147 -118 -147c-47 0 -90 22 -99 73l58 8c7 -21 20 -32 43 -32c40 0 55 38 56 80c-17 -18 -43 -27 -66 -27c-56 0 -96 33 -96 87zM308 445c-29 0 -48 -19 -48 -45c0 -29 18 -45 48 -45s48 19 48 45s-19 45 -48 45z" />
    <glyph glyph-name="uni24EA" unicode="&#x24ea;" 
d="M309 615c146 0 266 -120 266 -264c0 -147 -120 -266 -266 -266c-145 0 -264 119 -264 266c0 144 119 264 264 264zM309 557c-114 0 -201 -93 -201 -206c0 -116 87 -208 201 -208c115 0 203 92 203 208c0 113 -88 206 -203 206zM309 207c-76 0 -111 60 -111 142
s36 142 111 142c77 0 113 -60 113 -142s-37 -142 -113 -142zM309 258c40 0 52 35 52 91s-13 92 -52 92c-37 0 -50 -36 -50 -92s13 -91 50 -91z" />
    <glyph glyph-name="uni24FF" unicode="&#x24ff;" 
d="M311 615c145 0 264 -120 264 -264c0 -147 -119 -266 -264 -266c-146 0 -266 119 -266 266c0 144 120 264 266 264zM309 207c76 0 113 60 113 142s-36 142 -113 142c-75 0 -111 -60 -111 -142s35 -142 111 -142zM309 258c-37 0 -50 35 -50 91s13 92 50 92
c39 0 52 -36 52 -92s-12 -91 -52 -91z" />
    <glyph glyph-name="uni2776" unicode="&#x2776;" 
d="M311 615c145 0 264 -120 264 -264c0 -147 -119 -266 -264 -266c-146 0 -266 119 -266 266c0 144 120 264 266 264zM207 262v-50h209v50h-68v224h-54c0 -12 -2 -43 -39 -43h-51v-50h52c12 0 22 2 31 6v-137h-80z" />
    <glyph glyph-name="uni2777" unicode="&#x2777;" 
d="M311 615c145 0 264 -120 264 -264c0 -147 -119 -266 -264 -266c-146 0 -266 119 -266 266c0 144 120 264 266 264zM419 262h-132l55 44c37 30 68 62 68 103c0 44 -32 82 -100 82c-56 0 -112 -29 -108 -103l60 -8c-4 47 23 60 46 60c24 0 38 -14 38 -33
c0 -25 -17 -43 -44 -65l-100 -82v-48h217v50z" />
    <glyph glyph-name="uni2778" unicode="&#x2778;" 
d="M311 615c145 0 264 -120 264 -264c0 -147 -119 -266 -264 -266c-146 0 -266 119 -266 266c0 144 120 264 266 264zM313 330c33 0 42 -16 42 -33c0 -27 -19 -39 -47 -39s-52 12 -51 51l-61 -11c-2 -65 59 -91 115 -91c66 0 107 36 107 87c0 27 -13 51 -46 63
c27 13 37 37 37 60c0 42 -35 74 -98 74c-59 0 -110 -30 -110 -92l56 -12c-1 39 23 54 50 54c22 0 39 -11 39 -32c0 -17 -9 -35 -36 -35h-21v-44h24z" />
    <glyph glyph-name="uni2779" unicode="&#x2779;" 
d="M311 615c145 0 264 -120 264 -264c0 -147 -119 -266 -264 -266c-146 0 -266 119 -266 266c0 144 120 264 266 264zM171 316v-46h143v-58h61v58h42v51h-42v165h-83zM314 321h-80l80 112v-112z" />
    <glyph glyph-name="uni277A" unicode="&#x277a;" 
d="M311 615c145 0 264 -120 264 -264c0 -147 -119 -266 -264 -266c-146 0 -266 119 -266 266c0 144 120 264 266 264zM417 304c0 47 -33 85 -97 85c-23 0 -42 -6 -56 -15l10 62h122v50h-167l-23 -145l45 -20c14 14 34 22 57 22c28 0 47 -14 47 -41c0 -30 -19 -47 -49 -47
c-27 0 -47 12 -51 35l-62 -9c8 -47 57 -74 113 -74c74 0 111 44 111 97z" />
    <glyph glyph-name="uni277B" unicode="&#x277b;" 
d="M311 615c145 0 264 -120 264 -264c0 -147 -119 -266 -264 -266c-146 0 -266 119 -266 266c0 144 120 264 266 264zM416 302c0 55 -40 87 -96 87c-23 0 -49 -8 -66 -26c1 42 16 79 56 79c23 0 36 -10 43 -32l58 9c-9 51 -52 72 -99 72c-67 0 -118 -45 -118 -147
c0 -95 46 -137 117 -137c63 0 105 41 105 95zM308 253c-29 0 -48 20 -48 45c0 27 18 46 49 46c29 0 47 -16 47 -46c0 -25 -19 -45 -48 -45z" />
    <glyph glyph-name="uni277C" unicode="&#x277c;" 
d="M311 615c145 0 264 -120 264 -264c0 -147 -119 -266 -264 -266c-146 0 -266 119 -266 266c0 144 120 264 266 264zM199 394h54v41h98c-52 -51 -81 -104 -81 -185v-38h62v38c0 88 26 128 92 194v42h-225v-92z" />
    <glyph glyph-name="uni277D" unicode="&#x277d;" 
d="M311 615c145 0 264 -120 264 -264c0 -147 -119 -266 -264 -266c-146 0 -266 119 -266 266c0 144 120 264 266 264zM422 290c0 25 -10 53 -48 68c31 13 39 37 39 59c0 40 -36 74 -105 74c-68 0 -105 -34 -105 -74c0 -22 8 -47 41 -60c-38 -15 -50 -42 -50 -67
c0 -46 39 -83 114 -83c73 0 114 37 114 83zM308 378c-33 0 -45 20 -45 34c0 23 18 35 45 35c26 0 45 -12 45 -35c0 -14 -12 -34 -45 -34zM308 334c36 0 53 -19 53 -41s-17 -41 -53 -41s-52 19 -52 41s16 41 52 41z" />
    <glyph glyph-name="uni277E" unicode="&#x277e;" 
d="M311 615c145 0 264 -120 264 -264c0 -147 -119 -266 -264 -266c-146 0 -266 119 -266 266c0 144 120 264 266 264zM200 396c0 -54 40 -87 96 -87c23 0 49 9 66 27c-1 -42 -16 -80 -56 -80c-23 0 -36 11 -43 32l-58 -8c9 -51 52 -73 99 -73c67 0 118 46 118 147
c0 95 -46 137 -117 137c-63 0 -105 -41 -105 -95zM308 445c29 0 48 -19 48 -45s-18 -45 -48 -45s-48 16 -48 45c0 26 19 45 48 45z" />
    <glyph glyph-name="uni2113" unicode="&#x2113;" 
d="M114 196l-42 78l117 70v183c0 114 63 185 169 185c90 0 147 -62 147 -145c0 -97 -61 -172 -176 -245l-30 -19v-133c0 -40 11 -79 66 -79h123v-91h-139c-118 0 -160 70 -160 166v75zM299 539v-128c70 49 107 89 107 155c0 34 -18 58 -50 58c-36 0 -57 -28 -57 -85z" />
    <glyph glyph-name="arrowleft" unicode="&#x2190;" 
d="M243 80l-51 128c-36 91 -112 97 -177 97v91c65 0 140 5 177 97l51 128h97l-50 -133c-13 -35 -27 -64 -52 -87h367v-102h-366c24 -22 38 -51 51 -86l50 -133h-97z" />
    <glyph glyph-name="arrowup" unicode="&#x2191;" 
d="M40 433l128 51c93 37 97 112 97 177h91c0 -65 4 -140 97 -177l128 -51v-97l-133 50c-35 13 -63 27 -86 50v-395h-101v398c-23 -25 -53 -40 -88 -53l-133 -50v97z" />
    <glyph glyph-name="arrowright" unicode="&#x2192;" 
d="M377 80h-97l50 133c13 35 27 64 51 86h-366v102h367c-25 23 -39 52 -52 87l-50 133h97l51 -128c37 -92 112 -97 177 -97v-91c-65 0 -141 -6 -177 -97z" />
    <glyph glyph-name="arrowdown" unicode="&#x2193;" 
d="M40 268v97l133 -50c35 -13 65 -28 88 -53v398h101v-395c23 23 51 37 86 50l133 50v-97l-128 -51c-93 -37 -97 -112 -97 -177h-91c0 65 -4 140 -97 177z" />
    <glyph glyph-name="uni2215" unicode="&#x2215;" 
d="M353 400l164 300h82l-166 -300h-80zM21 0l166 300h80l-164 -300h-82z" />
    <glyph glyph-name="uni2219" unicode="&#x2219;" 
d="M202 469h216v-219h-216v219z" />
    <glyph glyph-name="franc" unicode="&#x20a3;" 
d="M57 700h271v-100h-159v-204h119v-100h-119v-296h-112v700zM340 503h101v-84c30 54 74 84 132 84h23v-102h-26c-76 0 -124 -63 -124 -186v-215h-106v503z" />
    <glyph glyph-name="Euro" unicode="&#x20ac;" 
d="M33 238v75h56c-1 12 -1 24 -1 37v26h-55v76h62c24 158 107 260 253 260c135 0 218 -85 243 -234l-115 -21c-17 93 -52 153 -127 153c-78 0 -120 -61 -135 -158h129v-76h-136v-26c0 -13 0 -25 1 -37h135v-75h-127c17 -91 58 -148 133 -148c76 0 109 63 126 145l112 -19
c-26 -142 -108 -228 -240 -228c-144 0 -225 98 -250 250h-64z" />
    <glyph glyph-name="estimated" unicode="&#x212e;" 
d="M311 44c78 0 138 45 186 114l42 -34c-57 -80 -133 -136 -229 -136c-160 0 -284 163 -284 362c0 205 124 362 284 362s284 -147 284 -383h-425v-212c39 -47 83 -73 142 -73zM310 655c-58 0 -104 -23 -141 -69v-198h278v201c-36 42 -78 66 -137 66z" />
    <glyph glyph-name="uni2196" unicode="&#x2196;" 
d="M58 218l55 127c40 92 -11 147 -57 193l64 65c46 -46 104 -97 194 -57l127 56l69 -70l-129 -58c-35 -16 -67 -26 -100 -25l283 -283l-72 -72l-281 281c1 -32 -11 -63 -26 -96l-58 -130z" />
    <glyph glyph-name="uni2197" unicode="&#x2197;" 
d="M562 218l-69 -69l-58 130c-15 33 -27 64 -26 96l-281 -281l-72 72l283 283c-33 -1 -65 9 -100 25l-129 58l69 70l127 -56c90 -40 148 11 194 57l64 -65c-46 -46 -97 -101 -57 -193z" />
    <glyph glyph-name="uni2198" unicode="&#x2198;" 
d="M562 483l-55 -127c-40 -92 11 -147 57 -193l-64 -65c-46 46 -104 97 -194 57l-127 -56l-69 70l129 58c35 16 67 26 100 25l-283 283l72 72l281 -281c-1 32 11 63 26 96l58 130z" />
    <glyph glyph-name="uni2199" unicode="&#x2199;" 
d="M58 483l69 69l58 -130c15 -33 27 -64 26 -96l281 281l72 -72l-283 -283c33 1 65 -9 100 -25l129 -58l-69 -70l-127 56c-90 40 -148 -11 -194 -57l-64 65c46 46 97 101 57 193z" />
    <glyph glyph-name="circleblack" unicode="&#x25cf;" 
d="M311 615c145 0 264 -120 264 -264c0 -147 -119 -266 -264 -266c-146 0 -266 119 -266 266c0 144 120 264 266 264z" />
    <glyph glyph-name="circlehalfleftblack" unicode="&#x25d0;" 
d="M309 615c146 0 266 -120 266 -264c0 -147 -120 -266 -266 -266c-145 0 -264 119 -264 266c0 144 119 264 264 264zM309 557v-414c115 0 203 92 203 208c0 113 -88 206 -203 206z" />
    <glyph glyph-name="circlehalfrightblack" unicode="&#x25d1;" 
d="M311 615c145 0 264 -120 264 -264c0 -147 -119 -266 -264 -266c-146 0 -266 119 -266 266c0 144 120 264 266 264zM311 557c-115 0 -203 -93 -203 -206c0 -116 88 -208 203 -208v414z" />
    <glyph glyph-name="starblack" unicode="&#x2605;" 
d="M309 642l83 -207h223l-187 -133l89 -244l-208 139l-207 -139l90 244l-186 133h223z" />
    <glyph glyph-name="starwhite" unicode="&#x2606;" 
d="M309 642l83 -207h223l-187 -133l89 -244l-208 139l-207 -139l90 244l-186 133h223zM309 266l102 -65l-48 122l89 61h-99l-44 104l-41 -104h-100l88 -61l-46 -122z" />
    <glyph glyph-name="checkbox" unicode="&#x2610;" 
d="M67 107v485h486v-485h-486zM131 167h358v365h-358v-365z" />
    <glyph glyph-name="checkboxchekced" unicode="&#x2611;" 
d="M190 387l60 27l44 -91l183 413h71l-66 -144h71v-485h-486v485h292l-26 -60h-202v-365h358v365h-34l-133 -296h-57z" />
    <glyph glyph-name="peace" unicode="&#x262e;" 
d="M309 615c146 0 266 -120 266 -264c0 -147 -120 -266 -266 -266c-145 0 -264 119 -264 266c0 144 119 264 264 264zM108 351c0 -38 10 -74 27 -105l144 143v166c-98 -15 -171 -101 -171 -204zM342 389l143 -143c17 31 27 67 27 105c0 102 -72 188 -170 203v-165zM279 307
l-108 -108c29 -28 66 -47 108 -54v162zM342 306v-160c42 6 78 25 107 53z" />
    <glyph glyph-name="frowningfacewhite" unicode="&#x2639;" 
d="M309 615c146 0 266 -120 266 -264c0 -147 -120 -266 -266 -266c-145 0 -264 119 -264 266c0 144 119 264 264 264zM309 557c-114 0 -201 -93 -201 -206c0 -116 87 -208 201 -208c115 0 203 92 203 208c0 113 -88 206 -203 206zM227 357c-28 0 -51 23 -51 51
c0 27 23 51 51 51c27 0 49 -24 49 -51c0 -28 -22 -51 -49 -51zM394 357c-28 0 -50 23 -50 51c0 27 22 51 50 51s50 -24 50 -51c0 -28 -22 -51 -50 -51zM310 318c65 0 111 -37 129 -75l-44 -29c-18 30 -40 53 -85 53s-67 -23 -85 -53l-44 29c18 38 64 75 129 75z" />
    <glyph glyph-name="smilingfacewhite" unicode="&#x263a;" 
d="M309 615c146 0 266 -120 266 -264c0 -147 -120 -266 -266 -266c-145 0 -264 119 -264 266c0 144 119 264 264 264zM309 557c-114 0 -201 -93 -201 -206c0 -116 87 -208 201 -208c115 0 203 92 203 208c0 113 -88 206 -203 206zM227 357c-28 0 -51 23 -51 51
c0 27 23 51 51 51c27 0 49 -24 49 -51c0 -28 -22 -51 -49 -51zM394 357c-28 0 -50 23 -50 51c0 27 22 51 50 51s50 -24 50 -51c0 -28 -22 -51 -50 -51zM310 202c-65 0 -111 37 -129 75l44 29c18 -30 40 -53 85 -53s67 23 85 53l44 -29c-18 -38 -64 -75 -129 -75z" />
    <glyph glyph-name="smilingfaceblack" unicode="&#x263b;" 
d="M309 615c146 0 266 -120 266 -264c0 -147 -120 -266 -266 -266c-145 0 -264 119 -264 266c0 144 119 264 264 264zM227 357c27 0 49 23 49 51c0 27 -22 51 -49 51c-28 0 -51 -24 -51 -51c0 -28 23 -51 51 -51zM394 357c28 0 50 23 50 51c0 27 -22 51 -50 51
s-50 -24 -50 -51c0 -28 22 -51 50 -51zM310 197c65 0 111 36 129 75l-44 28c-18 -29 -40 -52 -85 -52s-67 23 -85 52l-44 -28c18 -39 64 -75 129 -75z" />
    <glyph glyph-name="heartblack" unicode="&#x2665;" 
d="M310 102c-128 64 -266 205 -266 342c0 60 28 146 136 146c50 0 100 -27 130 -80c30 53 80 80 130 80c108 0 136 -86 136 -146c0 -137 -138 -278 -266 -342z" />
    <glyph glyph-name="flagwhite" unicode="&#x2690;" 
d="M67 594h64v-46c33 15 69 28 115 28c107 -1 137 -51 307 -51v-306c-139 -6 -198 51 -307 52c-41 -1 -83 -17 -115 -34v-177h-64v534zM246 330c90 -1 143 -41 243 -50v187c-100 4 -156 48 -243 49c-43 -1 -83 -16 -115 -32v-181c33 15 70 27 115 27z" />
    <glyph glyph-name="flagblack" unicode="&#x2691;" 
d="M67 594h64v-46c33 15 69 28 115 28c107 -1 137 -51 307 -51v-306c-139 -6 -198 51 -307 52c-41 -1 -83 -17 -115 -34v-177h-64v534z" />
    <glyph glyph-name="dngb:spokedasteriskeight" unicode="&#x2733;" 
d="M118 199l123 123h-174v55h174l-123 123l42 42l121 -121v171h58v-172l122 122l42 -42l-123 -123h173v-55h-173l123 -123l-42 -42l-122 122v-172h-58v171l-121 -121z" />
    <glyph glyph-name="uni2B1B" unicode="&#x2b1b;" 
d="M67 107v485h486v-485h-486z" />
    <glyph glyph-name="uni2B55" unicode="&#x2b55;" 
d="M309 615c146 0 266 -120 266 -264c0 -147 -120 -266 -266 -266c-145 0 -264 119 -264 266c0 144 119 264 264 264zM309 557c-114 0 -201 -93 -201 -206c0 -116 87 -208 201 -208c115 0 203 92 203 208c0 113 -88 206 -203 206z" />
    <glyph glyph-name="uni00AD" unicode="&#xad;" 
d="M131 321h358v-97h-358v97z" />
    <glyph glyph-name="commaaccent" unicode="&#xf6c3;" 
d="M284 -66h98l-52 -160h-92z" />
    <glyph glyph-name="uniF8FF" unicode="&#xf8ff;" 
d="M555 321h-491v18h491v-18zM281 240h-12v18h12v21h22v-21h13v-18h-13v-59h-22v59zM423 258l1 -6c4 4 10 8 19 8c17 0 26 -11 26 -30v-20c0 -19 -9 -31 -26 -31c-8 0 -13 3 -17 7v-35h-22v107h19zM173 181h-22v77h18l1 -6c4 4 11 8 19 8c11 0 17 -4 21 -12c5 8 12 12 21 12
c18 0 26 -11 26 -28v-51h-22v49c0 6 -3 11 -10 11c-6 0 -10 -4 -10 -10v-50h-22v49c0 6 -3 11 -10 11c-6 0 -10 -5 -10 -11v-49zM114 208h22c0 -18 -13 -29 -32 -29c-18 0 -32 12 -32 33v17c0 20 14 31 32 31c19 0 32 -11 32 -31v-13h-42v-7c0 -7 4 -12 10 -12
c7 0 10 4 10 11zM525 208h22c0 -17 -13 -28 -32 -28c-18 0 -32 12 -32 32v17c0 19 14 31 32 31c19 0 32 -12 32 -31v-13h-42v-7c0 -7 4 -12 10 -12c7 0 10 4 10 11zM392 258l-33 -107h-21l9 27l-25 80h24l12 -48l12 48h22zM94 232v-1h20v1c0 6 -3 11 -10 11
c-6 0 -10 -5 -10 -11zM505 232v-1h20v1c0 6 -3 11 -10 11c-6 0 -10 -5 -10 -11zM436 241c-6 0 -10 -5 -10 -11v-20c0 -6 4 -11 10 -11c7 0 11 5 11 11v20c0 6 -4 11 -11 11zM239 121h-14v10h14v21h12v-21h15v-10h-15v-67h-12v67zM200 81h12v-2c0 -16 -12 -26 -29 -26
s-29 11 -29 28v22c0 18 12 30 29 30s29 -12 29 -30v-12h-46v-10c0 -10 5 -17 17 -17s17 7 17 14v3zM87 54h-12v77h9l1 -9c5 7 13 11 22 11c17 0 27 -11 27 -29v-50h-12v50c0 10 -6 18 -18 18c-11 0 -17 -8 -17 -19v-49zM166 103v-2h34v2c0 11 -6 19 -17 19
c-12 0 -17 -8 -17 -19zM46 53c-4 0 -8 4 -8 8s4 8 8 8c5 0 8 -4 8 -8s-3 -8 -8 -8zM555 0h-491v8h491v-8z" />
    <glyph glyph-name="uni20B9" unicode="&#x20b9;" 
d="M74 258v94h154c66 0 109 37 124 90h-278v75h282c-10 50 -51 89 -128 89h-154v94h491v-76h-134c27 -30 43 -67 46 -107h88v-75h-95c-14 -55 -50 -102 -104 -129c60 -21 97 -64 102 -143l10 -170h-117l-10 170c-4 68 -52 88 -123 88h-154z" />
    <glyph glyph-name="u1F5F7" unicode="&#x1f5f7;" 
d="M67 107v485h486v-485h-486zM131 167h358v365h-358v-365zM195 188l-43 43l116 119l-116 118l45 42l114 -116l113 116l45 -42l-116 -118l116 -119l-43 -43l-115 118z" />
    <glyph glyph-name="u1F78B" unicode="&#x1f78b;" 
d="M310 615c145 0 265 -120 265 -264c0 -147 -120 -266 -265 -266s-265 119 -265 266c0 144 120 264 265 264zM310 564c-119 0 -209 -95 -209 -213c0 -119 90 -215 209 -215s209 96 209 215c0 118 -90 213 -209 213zM310 507c86 0 157 -70 157 -156
c0 -87 -71 -157 -157 -157s-156 70 -156 157c0 86 70 156 156 156zM310 455c-58 0 -102 -46 -102 -104s44 -106 102 -106s103 48 103 106s-45 104 -103 104zM311 297c-30 0 -53 24 -53 53s23 53 53 53c28 0 52 -24 52 -53s-24 -53 -52 -53z" />
    <glyph glyph-name="zero.numerator" unicode="&#xf661;" 
d="M309 301c-109 0 -159 85 -159 203c0 117 52 203 159 203c110 0 161 -86 161 -203c0 -118 -53 -203 -161 -203zM309 373c56 0 74 51 74 131s-19 131 -74 131c-54 0 -72 -51 -72 -131s18 -131 72 -131z" />
    <glyph glyph-name="one.numerator" unicode="&#xf662;" 
d="M162 380h114v195c-13 -5 -28 -8 -44 -8h-75v71h73c53 0 55 44 55 62h78v-320h97v-72h-298v72z" />
    <glyph glyph-name="two.numerator" unicode="&#xf663;" 
d="M466 380v-72h-310v69l142 117c38 32 63 57 63 92c0 28 -20 48 -54 48c-33 0 -71 -19 -66 -86l-86 11c-5 106 75 148 155 148c97 0 143 -55 143 -117c0 -59 -44 -105 -98 -148l-78 -62h189z" />
    <glyph glyph-name="three.numerator" unicode="&#xf664;" 
d="M319 477h-35v62h30c39 0 52 26 52 51c0 30 -24 45 -56 45c-38 0 -73 -22 -71 -77l-80 17c0 88 73 132 156 132c90 0 141 -46 141 -106c0 -33 -14 -67 -53 -86c47 -17 66 -51 66 -90c0 -73 -59 -124 -153 -124c-80 0 -167 37 -165 130l87 16c-1 -56 33 -74 74 -74
c39 0 67 18 67 56c0 24 -14 48 -60 48z" />
    <glyph glyph-name="four.numerator" unicode="&#xf665;" 
d="M134 456l173 244h119v-236h60v-73h-60v-83h-87v83h-205v65zM339 464v159l-115 -159h115z" />
    <glyph glyph-name="five.numerator" unicode="&#xf666;" 
d="M470 439c0 -75 -53 -138 -158 -138c-81 0 -151 39 -162 105l88 13c6 -32 35 -49 73 -49c43 0 71 24 71 66c0 39 -28 59 -68 59c-33 0 -61 -12 -81 -32l-64 29l32 208h239v-72h-174l-15 -89c21 13 47 22 81 22c91 0 138 -54 138 -122z" />
    <glyph glyph-name="six.numerator" unicode="&#xf667;" 
d="M469 437c0 -77 -61 -136 -151 -136c-101 0 -167 60 -167 196c0 145 73 210 169 210c67 0 128 -31 142 -104l-84 -12c-9 31 -28 46 -61 46c-57 0 -78 -54 -80 -114c24 26 61 38 95 38c80 0 137 -46 137 -124zM314 367c42 0 69 28 69 64c0 42 -26 65 -68 65
c-43 0 -69 -27 -69 -65c0 -36 27 -64 68 -64z" />
    <glyph glyph-name="seven.numerator" unicode="&#xf668;" 
d="M149 568v132h321v-61c-95 -94 -132 -151 -132 -277v-54h-88v54c0 116 41 191 115 264h-140v-58h-76z" />
    <glyph glyph-name="eight.numerator" unicode="&#xf669;" 
d="M473 419c0 -66 -59 -118 -163 -118c-107 0 -163 52 -163 118c0 36 17 75 71 96c-46 19 -58 55 -58 86c0 57 53 106 150 106c99 0 150 -49 150 -106c0 -31 -12 -66 -56 -85c55 -21 69 -61 69 -97zM310 545c47 0 64 28 64 49c0 32 -27 49 -64 49c-38 0 -64 -17 -64 -49
c0 -21 17 -49 64 -49zM310 482c-52 0 -75 -27 -75 -58c0 -32 23 -59 75 -59c51 0 75 27 75 59c0 31 -24 58 -75 58z" />
    <glyph glyph-name="nine.numerator" unicode="&#xf66a;" 
d="M151 571c0 77 61 136 151 136c101 0 167 -60 167 -196c0 -145 -73 -210 -169 -210c-67 0 -128 31 -142 104l84 12c9 -31 28 -46 61 -46c57 0 78 54 80 114c-24 -26 -61 -38 -95 -38c-80 0 -137 46 -137 124zM306 641c-42 0 -69 -28 -69 -64c0 -42 26 -65 68 -65
c43 0 69 27 69 65c0 36 -27 64 -68 64z" />
    <glyph glyph-name="zero.denominator" unicode="&#xf655;" 
d="M309 -7c-109 0 -159 85 -159 203c0 117 52 203 159 203c110 0 161 -86 161 -203c0 -118 -53 -203 -161 -203zM309 65c56 0 74 51 74 131s-19 131 -74 131c-54 0 -72 -51 -72 -131s18 -131 72 -131z" />
    <glyph glyph-name="one.denominator" unicode="&#xf656;" 
d="M162 72h114v195c-13 -5 -28 -8 -44 -8h-75v71h73c53 0 55 44 55 62h78v-320h97v-72h-298v72z" />
    <glyph glyph-name="two.denominator" unicode="&#xf657;" 
d="M466 72v-72h-310v69l142 117c38 32 63 57 63 92c0 28 -20 48 -54 48c-33 0 -71 -19 -66 -86l-86 11c-5 106 75 148 155 148c97 0 143 -55 143 -117c0 -59 -44 -105 -98 -148l-78 -62h189z" />
    <glyph glyph-name="three.denominator" unicode="&#xf658;" 
d="M319 169h-35v62h30c39 0 52 26 52 51c0 30 -24 45 -56 45c-38 0 -73 -22 -71 -77l-80 17c0 88 73 132 156 132c90 0 141 -46 141 -106c0 -33 -14 -67 -53 -86c47 -17 66 -51 66 -90c0 -73 -59 -124 -153 -124c-80 0 -167 37 -165 130l87 16c-1 -56 33 -74 74 -74
c39 0 67 18 67 56c0 24 -14 48 -60 48z" />
    <glyph glyph-name="four.denominator" unicode="&#xf659;" 
d="M134 148l173 244h119v-236h60v-73h-60v-83h-87v83h-205v65zM339 156v159l-115 -159h115z" />
    <glyph glyph-name="five.denominator" unicode="&#xf65a;" 
d="M470 131c0 -75 -53 -138 -158 -138c-81 0 -151 39 -162 105l88 13c6 -32 35 -49 73 -49c43 0 71 24 71 66c0 39 -28 59 -68 59c-33 0 -61 -12 -81 -32l-64 29l32 208h239v-72h-174l-15 -89c21 13 47 22 81 22c91 0 138 -54 138 -122z" />
    <glyph glyph-name="six.denominator" unicode="&#xf65b;" 
d="M469 129c0 -77 -61 -136 -151 -136c-101 0 -167 60 -167 196c0 145 73 210 169 210c67 0 128 -31 142 -104l-84 -12c-9 31 -28 46 -61 46c-57 0 -78 -54 -80 -114c24 26 61 38 95 38c80 0 137 -46 137 -124zM314 59c42 0 69 28 69 64c0 42 -26 65 -68 65
c-43 0 -69 -27 -69 -65c0 -36 27 -64 68 -64z" />
    <glyph glyph-name="seven.denominator" unicode="&#xf65c;" 
d="M149 260v132h321v-61c-95 -94 -132 -151 -132 -277v-54h-88v54c0 116 41 191 115 264h-140v-58h-76z" />
    <glyph glyph-name="eight.denominator" unicode="&#xf65d;" 
d="M473 111c0 -66 -59 -118 -163 -118c-107 0 -163 52 -163 118c0 36 17 75 71 96c-46 19 -58 55 -58 86c0 57 53 106 150 106c99 0 150 -49 150 -106c0 -31 -12 -66 -56 -85c55 -21 69 -61 69 -97zM310 237c47 0 64 28 64 49c0 32 -27 49 -64 49c-38 0 -64 -17 -64 -49
c0 -21 17 -49 64 -49zM310 174c-52 0 -75 -27 -75 -58c0 -32 23 -59 75 -59c51 0 75 27 75 59c0 31 -24 58 -75 58z" />
    <glyph glyph-name="nine.denominator" unicode="&#xf65e;" 
d="M151 263c0 77 61 136 151 136c101 0 167 -60 167 -196c0 -145 -73 -210 -169 -210c-67 0 -128 31 -142 104l84 12c9 -31 28 -46 61 -46c57 0 78 54 80 114c-24 -26 -61 -38 -95 -38c-80 0 -137 46 -137 124zM306 333c-42 0 -69 -28 -69 -64c0 -42 26 -65 68 -65
c43 0 69 27 69 65c0 36 -27 64 -68 64z" />
    <glyph glyph-name="caron.salt" 
d="M281 700h90l-37 -168h-85z" />
    <glyph glyph-name="commaaccent.salt" 
d="M340 587h-105l59 146h92z" />
    <glyph glyph-name="acute.case" 
d="M305 926h104l-95 -150h-100z" />
    <glyph glyph-name="grave.case" 
d="M316 926l91 -150h-102l-94 150h105z" />
    <glyph glyph-name="hungarumlaut.case" 
d="M222 926h101l-93 -150h-96zM389 926h100l-103 -150h-98z" />
    <glyph glyph-name="circumflex.case" 
d="M256 926h108l100 -150h-100l-54 85l-56 -85h-97z" />
    <glyph glyph-name="caron.case" 
d="M364 776h-108l-100 150h100l54 -85l56 85h97z" />
    <glyph glyph-name="breve.case" 
d="M311 844c39 0 59 28 59 79h81c0 -71 -31 -151 -141 -151s-141 80 -140 151h82c0 -50 19 -79 59 -79z" />
    <glyph glyph-name="tilde.case" 
d="M363 877c16 0 22 8 22 32h76c1 -69 -18 -116 -77 -116c-48 0 -82 33 -118 33c-21 0 -29 -16 -30 -36h-77c3 65 25 119 91 119c48 0 86 -32 113 -32z" />
    <glyph glyph-name="macron.case" 
d="M183 805v81h254v-81h-254z" />
    <glyph glyph-name="dieresis.case" 
d="M174 778v124h104v-124h-104zM342 778v124h104v-124h-104z" />
    <glyph glyph-name="dotaccent.case" 
d="M253 778v124h114v-124h-114z" />
    <glyph glyph-name="ring.case" 
d="M310 990c76 0 121 -50 121 -109c0 -58 -44 -109 -121 -109c-78 0 -121 51 -121 109c0 59 43 109 121 109zM310 937c-36 0 -52 -25 -52 -55c0 -32 16 -56 52 -56c35 0 52 24 52 56c0 30 -17 55 -52 55z" />
    <glyph glyph-name="zero.inferior" unicode="&#x2080;" 
d="M309 -164c-109 0 -159 85 -159 203c0 117 52 203 159 203c110 0 161 -86 161 -203c0 -118 -53 -203 -161 -203zM309 -92c56 0 74 51 74 131s-19 131 -74 131c-54 0 -72 -51 -72 -131s18 -131 72 -131z" />
    <glyph glyph-name="one.inferior" unicode="&#x2081;" 
d="M162 -85h114v195c-13 -5 -28 -8 -44 -8h-75v71h73c53 0 55 44 55 62h78v-320h97v-72h-298v72z" />
    <glyph glyph-name="two.inferior" unicode="&#x2082;" 
d="M466 -85v-72h-310v69l142 117c38 32 63 57 63 92c0 28 -20 48 -54 48c-33 0 -71 -19 -66 -86l-86 11c-5 106 75 148 155 148c97 0 143 -55 143 -117c0 -59 -44 -105 -98 -148l-78 -62h189z" />
    <glyph glyph-name="three.inferior" unicode="&#x2083;" 
d="M319 12h-35v62h30c39 0 52 26 52 51c0 30 -24 45 -56 45c-38 0 -73 -22 -71 -77l-80 17c0 88 73 132 156 132c90 0 141 -46 141 -106c0 -33 -14 -67 -53 -86c47 -17 66 -51 66 -90c0 -73 -59 -124 -153 -124c-80 0 -167 37 -165 130l87 16c-1 -56 33 -74 74 -74
c39 0 67 18 67 56c0 24 -14 48 -60 48z" />
    <glyph glyph-name="four.inferior" unicode="&#x2084;" 
d="M134 -9l173 244h119v-236h60v-73h-60v-83h-87v83h-205v65zM339 -1v159l-115 -159h115z" />
    <glyph glyph-name="five.inferior" unicode="&#x2085;" 
d="M470 -26c0 -75 -53 -138 -158 -138c-81 0 -151 39 -162 105l88 13c6 -32 35 -49 73 -49c43 0 71 24 71 66c0 39 -28 59 -68 59c-33 0 -61 -12 -81 -32l-64 29l32 208h239v-72h-174l-15 -89c21 13 47 22 81 22c91 0 138 -54 138 -122z" />
    <glyph glyph-name="six.inferior" unicode="&#x2086;" 
d="M469 -28c0 -77 -61 -136 -151 -136c-101 0 -167 60 -167 196c0 145 73 210 169 210c67 0 128 -31 142 -104l-84 -12c-9 31 -28 46 -61 46c-57 0 -78 -54 -80 -114c24 26 61 38 95 38c80 0 137 -46 137 -124zM314 -98c42 0 69 28 69 64c0 42 -26 65 -68 65
c-43 0 -69 -27 -69 -65c0 -36 27 -64 68 -64z" />
    <glyph glyph-name="seven.inferior" unicode="&#x2087;" 
d="M149 103v132h321v-61c-95 -94 -132 -151 -132 -277v-54h-88v54c0 116 41 191 115 264h-140v-58h-76z" />
    <glyph glyph-name="eight.inferior" unicode="&#x2088;" 
d="M473 -46c0 -66 -59 -118 -163 -118c-107 0 -163 52 -163 118c0 36 17 75 71 96c-46 19 -58 55 -58 86c0 57 53 106 150 106c99 0 150 -49 150 -106c0 -31 -12 -66 -56 -85c55 -21 69 -61 69 -97zM310 80c47 0 64 28 64 49c0 32 -27 49 -64 49c-38 0 -64 -17 -64 -49
c0 -21 17 -49 64 -49zM310 17c-52 0 -75 -27 -75 -58c0 -32 23 -59 75 -59c51 0 75 27 75 59c0 31 -24 58 -75 58z" />
    <glyph glyph-name="nine.inferior" unicode="&#x2089;" 
d="M151 106c0 77 61 136 151 136c101 0 167 -60 167 -196c0 -145 -73 -210 -169 -210c-67 0 -128 31 -142 104l84 12c9 -31 28 -46 61 -46c57 0 78 54 80 114c-24 -26 -61 -38 -95 -38c-80 0 -137 46 -137 124zM306 176c-42 0 -69 -28 -69 -64c0 -42 26 -65 68 -65
c43 0 69 27 69 65c0 36 -27 64 -68 64z" />
    <glyph glyph-name="zero.superior" unicode="&#x2070;" 
d="M309 458c-109 0 -159 85 -159 203c0 117 52 203 159 203c110 0 161 -86 161 -203c0 -118 -53 -203 -161 -203zM309 530c56 0 74 51 74 131s-19 131 -74 131c-54 0 -72 -51 -72 -131s18 -131 72 -131z" />
    <glyph glyph-name="four.superior" unicode="&#x2074;" 
d="M134 613l173 244h119v-236h60v-73h-60v-83h-87v83h-205v65zM339 621v159l-115 -159h115z" />
    <glyph glyph-name="five.superior" unicode="&#x2075;" 
d="M470 596c0 -75 -53 -138 -158 -138c-81 0 -151 39 -162 105l88 13c6 -32 35 -49 73 -49c43 0 71 24 71 66c0 39 -28 59 -68 59c-33 0 -61 -12 -81 -32l-64 29l32 208h239v-72h-174l-15 -89c21 13 47 22 81 22c91 0 138 -54 138 -122z" />
    <glyph glyph-name="six.superior" unicode="&#x2076;" 
d="M469 594c0 -77 -61 -136 -151 -136c-101 0 -167 60 -167 196c0 145 73 210 169 210c67 0 128 -31 142 -104l-84 -12c-9 31 -28 46 -61 46c-57 0 -78 -54 -80 -114c24 26 61 38 95 38c80 0 137 -46 137 -124zM314 524c42 0 69 28 69 64c0 42 -26 65 -68 65
c-43 0 -69 -27 -69 -65c0 -36 27 -64 68 -64z" />
    <glyph glyph-name="seven.superior" unicode="&#x2077;" 
d="M149 725v132h321v-61c-95 -94 -132 -151 -132 -277v-54h-88v54c0 116 41 191 115 264h-140v-58h-76z" />
    <glyph glyph-name="eight.superior" unicode="&#x2078;" 
d="M473 576c0 -66 -59 -118 -163 -118c-107 0 -163 52 -163 118c0 36 17 75 71 96c-46 19 -58 55 -58 86c0 57 53 106 150 106c99 0 150 -49 150 -106c0 -31 -12 -66 -56 -85c55 -21 69 -61 69 -97zM310 702c47 0 64 28 64 49c0 32 -27 49 -64 49c-38 0 -64 -17 -64 -49
c0 -21 17 -49 64 -49zM310 639c-52 0 -75 -27 -75 -58c0 -32 23 -59 75 -59c51 0 75 27 75 59c0 31 -24 58 -75 58z" />
    <glyph glyph-name="nine.superior" unicode="&#x2079;" 
d="M151 728c0 77 61 136 151 136c101 0 167 -60 167 -196c0 -145 -73 -210 -169 -210c-67 0 -128 31 -142 104l84 12c9 -31 28 -46 61 -46c57 0 78 54 80 114c-24 -26 -61 -38 -95 -38c-80 0 -137 46 -137 124zM306 798c-42 0 -69 -28 -69 -64c0 -42 26 -65 68 -65
c43 0 69 27 69 65c0 36 -27 64 -68 64z" />
    <glyph glyph-name="a.alt2" 
d="M278 -12c-139 0 -225 104 -225 260c0 155 85 267 225 267c70 0 122 -29 157 -75v63h110v-503h-106v72c-34 -51 -87 -84 -161 -84zM299 81c87 0 138 71 138 171c0 97 -52 170 -138 170s-133 -72 -133 -170s47 -171 133 -171z" />
    <glyph glyph-name="agrave.alt2" 
d="M263 726l91 -150h-102l-94 150h105zM278 -12c-139 0 -225 104 -225 260c0 155 85 267 225 267c70 0 122 -29 157 -75v63h110v-503h-106v72c-34 -51 -87 -84 -161 -84zM299 81c87 0 138 71 138 171c0 97 -52 170 -138 170s-133 -72 -133 -170s47 -171 133 -171z" />
    <glyph glyph-name="aacute.alt2" 
d="M353 726h104l-95 -150h-100zM278 -12c-139 0 -225 104 -225 260c0 155 85 267 225 267c70 0 122 -29 157 -75v63h110v-503h-106v72c-34 -51 -87 -84 -161 -84zM299 81c87 0 138 71 138 171c0 97 -52 170 -138 170s-133 -72 -133 -170s47 -171 133 -171z" />
    <glyph glyph-name="acircumflex.alt2" 
d="M252 726h108l100 -150h-100l-54 85l-56 -85h-97zM278 -12c-139 0 -225 104 -225 260c0 155 85 267 225 267c70 0 122 -29 157 -75v63h110v-503h-106v72c-34 -51 -87 -84 -161 -84zM299 81c87 0 138 71 138 171c0 97 -52 170 -138 170s-133 -72 -133 -170
s47 -171 133 -171z" />
    <glyph glyph-name="atilde.alt2" 
d="M359 677c16 0 22 8 22 32h76c1 -69 -18 -116 -77 -116c-48 0 -82 33 -118 33c-21 0 -29 -16 -30 -36h-77c3 65 25 119 91 119c48 0 86 -32 113 -32zM278 -12c-139 0 -225 104 -225 260c0 155 85 267 225 267c70 0 122 -29 157 -75v63h110v-503h-106v72
c-34 -51 -87 -84 -161 -84zM299 81c87 0 138 71 138 171c0 97 -52 170 -138 170s-133 -72 -133 -170s47 -171 133 -171z" />
    <glyph glyph-name="adieresis.alt2" 
d="M170 578v124h104v-124h-104zM338 578v124h104v-124h-104zM278 -12c-139 0 -225 104 -225 260c0 155 85 267 225 267c70 0 122 -29 157 -75v63h110v-503h-106v72c-34 -51 -87 -84 -161 -84zM299 81c87 0 138 71 138 171c0 97 -52 170 -138 170s-133 -72 -133 -170
s47 -171 133 -171z" />
    <glyph glyph-name="aring.alt2" 
d="M306 790c76 0 121 -50 121 -109c0 -58 -44 -109 -121 -109c-78 0 -121 51 -121 109c0 59 43 109 121 109zM306 737c-36 0 -52 -25 -52 -55c0 -32 16 -56 52 -56c35 0 52 24 52 56c0 30 -17 55 -52 55zM278 -12c-139 0 -225 104 -225 260c0 155 85 267 225 267
c70 0 122 -29 157 -75v63h110v-503h-106v72c-34 -51 -87 -84 -161 -84zM299 81c87 0 138 71 138 171c0 97 -52 170 -138 170s-133 -72 -133 -170s47 -171 133 -171z" />
    <glyph glyph-name="amacron.alt2" 
d="M179 605v81h254v-81h-254zM278 -12c-139 0 -225 104 -225 260c0 155 85 267 225 267c70 0 122 -29 157 -75v63h110v-503h-106v72c-34 -51 -87 -84 -161 -84zM299 81c87 0 138 71 138 171c0 97 -52 170 -138 170s-133 -72 -133 -170s47 -171 133 -171z" />
    <glyph glyph-name="abreve.alt2" 
d="M307 644c39 0 59 28 59 79h81c0 -71 -31 -151 -141 -151s-141 80 -140 151h82c0 -50 19 -79 59 -79zM278 -12c-139 0 -225 104 -225 260c0 155 85 267 225 267c70 0 122 -29 157 -75v63h110v-503h-106v72c-34 -51 -87 -84 -161 -84zM299 81c87 0 138 71 138 171
c0 97 -52 170 -138 170s-133 -72 -133 -170s47 -171 133 -171z" />
    <glyph glyph-name="aogonek.alt2" 
d="M278 -12c-139 0 -225 104 -225 260c0 155 85 267 225 267c70 0 122 -29 157 -75v63h110v-503c-60 -52 -89 -85 -89 -119c0 -29 19 -36 44 -36c11 0 23 2 36 7v-71c-14 -7 -33 -13 -62 -13c-63 0 -103 40 -103 90c0 56 32 95 92 142h-24v72c-34 -51 -87 -84 -161 -84z
M299 81c87 0 138 71 138 171c0 97 -52 170 -138 170s-133 -72 -133 -170s47 -171 133 -171z" />
    <glyph glyph-name="a.alt" 
d="M319 429c-87 0 -109 -50 -116 -84l-104 12c11 73 78 158 224 158c149 0 207 -88 207 -181v-334h-101v66c-33 -50 -89 -78 -161 -78c-122 0 -182 72 -182 148c0 91 63 141 152 155l154 24c25 4 30 20 30 35c0 22 -15 79 -103 79zM194 145c0 -41 30 -71 92 -71
c74 0 138 53 138 143v25l-149 -24c-60 -10 -81 -39 -81 -73z" />
    <glyph glyph-name="agrave.alt" 
d="M281 726l91 -150h-102l-94 150h105zM319 429c-87 0 -109 -50 -116 -84l-104 12c11 73 78 158 224 158c149 0 207 -88 207 -181v-334h-101v66c-33 -50 -89 -78 -161 -78c-122 0 -182 72 -182 148c0 91 63 141 152 155l154 24c25 4 30 20 30 35c0 22 -15 79 -103 79z
M194 145c0 -41 30 -71 92 -71c74 0 138 53 138 143v25l-149 -24c-60 -10 -81 -39 -81 -73z" />
    <glyph glyph-name="aacute.alt" 
d="M367 726h104l-95 -150h-100zM319 429c-87 0 -109 -50 -116 -84l-104 12c11 73 78 158 224 158c149 0 207 -88 207 -181v-334h-101v66c-33 -50 -89 -78 -161 -78c-122 0 -182 72 -182 148c0 91 63 141 152 155l154 24c25 4 30 20 30 35c0 22 -15 79 -103 79zM194 145
c0 -41 30 -71 92 -71c74 0 138 53 138 143v25l-149 -24c-60 -10 -81 -39 -81 -73z" />
    <glyph glyph-name="acircumflex.alt" 
d="M269 726h108l100 -150h-100l-54 85l-56 -85h-97zM319 429c-87 0 -109 -50 -116 -84l-104 12c11 73 78 158 224 158c149 0 207 -88 207 -181v-334h-101v66c-33 -50 -89 -78 -161 -78c-122 0 -182 72 -182 148c0 91 63 141 152 155l154 24c25 4 30 20 30 35
c0 22 -15 79 -103 79zM194 145c0 -41 30 -71 92 -71c74 0 138 53 138 143v25l-149 -24c-60 -10 -81 -39 -81 -73z" />
    <glyph glyph-name="atilde.alt" 
d="M376 677c16 0 22 8 22 32h76c1 -69 -18 -116 -77 -116c-48 0 -82 33 -118 33c-21 0 -29 -16 -30 -36h-77c3 65 25 119 91 119c48 0 86 -32 113 -32zM319 429c-87 0 -109 -50 -116 -84l-104 12c11 73 78 158 224 158c149 0 207 -88 207 -181v-334h-101v66
c-33 -50 -89 -78 -161 -78c-122 0 -182 72 -182 148c0 91 63 141 152 155l154 24c25 4 30 20 30 35c0 22 -15 79 -103 79zM194 145c0 -41 30 -71 92 -71c74 0 138 53 138 143v25l-149 -24c-60 -10 -81 -39 -81 -73z" />
    <glyph glyph-name="adieresis.alt" 
d="M187 578v124h104v-124h-104zM355 578v124h104v-124h-104zM319 429c-87 0 -109 -50 -116 -84l-104 12c11 73 78 158 224 158c149 0 207 -88 207 -181v-334h-101v66c-33 -50 -89 -78 -161 -78c-122 0 -182 72 -182 148c0 91 63 141 152 155l154 24c25 4 30 20 30 35
c0 22 -15 79 -103 79zM194 145c0 -41 30 -71 92 -71c74 0 138 53 138 143v25l-149 -24c-60 -10 -81 -39 -81 -73z" />
    <glyph glyph-name="aring.alt" 
d="M323 790c76 0 121 -50 121 -109c0 -58 -44 -109 -121 -109c-78 0 -121 51 -121 109c0 59 43 109 121 109zM323 737c-36 0 -52 -25 -52 -55c0 -32 16 -56 52 -56c35 0 52 24 52 56c0 30 -17 55 -52 55zM319 429c-87 0 -109 -50 -116 -84l-104 12c11 73 78 158 224 158
c149 0 207 -88 207 -181v-334h-101v66c-33 -50 -89 -78 -161 -78c-122 0 -182 72 -182 148c0 91 63 141 152 155l154 24c25 4 30 20 30 35c0 22 -15 79 -103 79zM194 145c0 -41 30 -71 92 -71c74 0 138 53 138 143v25l-149 -24c-60 -10 -81 -39 -81 -73z" />
    <glyph glyph-name="amacron.alt" 
d="M196 605v81h254v-81h-254zM319 429c-87 0 -109 -50 -116 -84l-104 12c11 73 78 158 224 158c149 0 207 -88 207 -181v-334h-101v66c-33 -50 -89 -78 -161 -78c-122 0 -182 72 -182 148c0 91 63 141 152 155l154 24c25 4 30 20 30 35c0 22 -15 79 -103 79zM194 145
c0 -41 30 -71 92 -71c74 0 138 53 138 143v25l-149 -24c-60 -10 -81 -39 -81 -73z" />
    <glyph glyph-name="abreve.alt" 
d="M324 644c39 0 59 28 59 79h81c0 -71 -31 -151 -141 -151s-141 80 -140 151h82c0 -50 19 -79 59 -79zM319 429c-87 0 -109 -50 -116 -84l-104 12c11 73 78 158 224 158c149 0 207 -88 207 -181v-334h-101v66c-33 -50 -89 -78 -161 -78c-122 0 -182 72 -182 148
c0 91 63 141 152 155l154 24c25 4 30 20 30 35c0 22 -15 79 -103 79zM194 145c0 -41 30 -71 92 -71c74 0 138 53 138 143v25l-149 -24c-60 -10 -81 -39 -81 -73z" />
    <glyph glyph-name="aogonek.alt" 
d="M459 -232c-63 0 -103 40 -103 90c0 56 32 95 92 142h-19v66c-33 -50 -89 -78 -161 -78c-122 0 -182 72 -182 148c0 91 63 141 152 155l154 24c25 4 30 20 30 35c0 22 -15 79 -103 79c-87 0 -109 -50 -116 -84l-104 12c11 73 78 158 224 158c149 0 207 -88 207 -181v-334
c-60 -52 -89 -85 -89 -119c0 -29 19 -36 44 -36c11 0 23 2 36 7v-71c-14 -7 -33 -13 -62 -13zM194 145c0 -41 30 -71 92 -71c74 0 138 53 138 143v25l-149 -24c-60 -10 -81 -39 -81 -73z" />
    <glyph glyph-name="y.alt" 
d="M50 503h116l147 -370l147 370h110l-275 -688h-109l71 178z" />
    <glyph glyph-name="yacute.alt" 
d="M357 726h104l-95 -150h-100zM50 503h116l147 -370l147 370h110l-275 -688h-109l71 178z" />
    <glyph glyph-name="ydieresis.alt" 
d="M177 578v124h104v-124h-104zM345 578v124h104v-124h-104zM50 503h116l147 -370l147 370h110l-275 -688h-109l71 178z" />
    <glyph glyph-name="ycircumflex.alt" 
d="M260 726h108l100 -150h-100l-54 85l-56 -85h-97zM50 503h116l147 -370l147 370h110l-275 -688h-109l71 178z" />
    <glyph glyph-name="ygrave.alt" 
d="M271 726l91 -150h-102l-94 150h105zM50 503h116l147 -370l147 370h110l-275 -688h-109l71 178z" />
    <glyph glyph-name="oslash.alt" 
d="M178 -40h-117l68 97c-45 48 -70 116 -70 194c0 152 93 264 250 264c36 0 68 -6 97 -16l37 53h119l-74 -105c46 -48 72 -116 72 -196c0 -151 -95 -263 -251 -263c-37 0 -70 6 -99 17zM309 425c-94 0 -138 -75 -138 -174c0 -98 44 -172 138 -172s139 74 139 172
c0 99 -45 174 -139 174z" />
    <glyph glyph-name="one.alt" 
d="M90 590h159c88 0 89 78 89 110h114v-700h-117v511c-22 -13 -48 -19 -80 -19h-165v98z" />
    <glyph glyph-name="dollar.alt" 
d="M366 -133h-99v125c-126 19 -203 103 -206 226l114 12c3 -104 61 -151 145 -151c98 0 124 62 124 107c0 66 -34 84 -112 108l-65 20c-81 25 -184 66 -184 205c0 82 57 174 184 190v124h99v-126c117 -21 171 -109 180 -200l-115 -12c-11 98 -61 126 -122 126
c-92 0 -117 -56 -117 -98c0 -65 38 -85 100 -104l74 -23c124 -39 193 -85 193 -202c0 -95 -65 -187 -193 -203v-124z" />
    <glyph glyph-name="cent.alt" 
d="M135 -83l42 112c-66 45 -100 125 -100 221c0 153 88 265 243 265c13 0 25 -1 37 -2l29 80h101l-40 -107c57 -31 92 -86 103 -160l-110 -12c-11 68 -49 109 -120 109c-92 0 -130 -75 -130 -173c0 -97 40 -169 131 -169c71 0 111 42 120 107l105 -13
c-16 -114 -101 -187 -226 -187c-19 0 -38 2 -55 5l-29 -76h-101z" />
    <glyph glyph-name="linea" horiz-adv-x="0" 
d="M-4 980h8v-1210h-8v1210z" />
  </font>
</defs>
</svg>
