<svg width="40" height="40" viewBox="0 0 40 40" fill="none" xmlns="http://www.w3.org/2000/svg">
    <path d="M21.45 25.1166L17.2167 20.9333L17.2667 20.8833C20.1667 17.65 22.2334 13.9333 23.45 9.99998H28.3334V6.66665H16.6667V3.33331H13.3334V6.66665H1.66669V9.98331H20.2834C19.1667 13.2 17.4 16.25 15 18.9166C13.45 17.2 12.1667 15.3166 11.15 13.3333H7.81669C9.03335 16.05 10.7 18.6166 12.7834 20.9333L4.30002 29.3L6.66669 31.6666L15 23.3333L20.1834 28.5166L21.45 25.1166ZM30.8334 16.6666H27.5L20 36.6666H23.3334L25.2 31.6666H33.1167L35 36.6666H38.3334L30.8334 16.6666ZM26.4667 28.3333L29.1667 21.1166L31.8667 28.3333H26.4667Z" fill="#FFFFFF"/>
</svg>
