<svg width="24" height="24" viewBox="0 0 24 24" fill="none" xmlns="http://www.w3.org/2000/svg">
    <path fill-rule="evenodd" clip-rule="evenodd" d="M11.9999 0C5.37341 0 0 5.50827 0 12.3038C0 17.7402 3.43834 22.3519 8.20626 23.9791C8.80578 24.0932 9.02596 23.7122 9.02596 23.3872C9.02596 23.0938 9.01483 22.1246 9.00966 21.0965C5.67128 21.8407 4.96684 19.6448 4.96684 19.6448C4.42097 18.2226 3.63447 17.8445 3.63447 17.8445C2.54552 17.0808 3.71654 17.0967 3.71654 17.0967C4.92133 17.1833 5.55602 18.3646 5.55602 18.3646C6.6263 20.2452 8.36325 19.7016 9.04801 19.3874C9.15572 18.5922 9.4667 18.0492 9.80988 17.742C7.14454 17.4313 4.34248 16.3761 4.34248 11.6616C4.34248 10.3183 4.81145 9.22072 5.57908 8.35888C5.45428 8.04919 5.04354 6.79778 5.69512 5.10302C5.69512 5.10302 6.7026 4.77234 8.99575 6.36421C9.95315 6.09139 10.9799 5.95427 11.9999 5.94958C13.0193 5.95427 14.0466 6.09098 15.0058 6.3638C17.2962 4.77193 18.3025 5.10261 18.3025 5.10261C18.9557 6.79717 18.5449 8.04878 18.4203 8.35847C19.1897 9.22032 19.6553 10.3179 19.6553 11.6612C19.6553 16.3869 16.8481 17.4272 14.176 17.732C14.6066 18.1138 14.9901 18.8628 14.9901 20.0105C14.9901 21.6568 14.9762 22.9817 14.9762 23.387C14.9762 23.7144 15.1924 24.098 15.8005 23.9772C20.5656 22.3485 24 17.7381 24 12.3038C23.9998 5.50868 18.627 0 11.9999 0Z" fill="#FFFFFF"/>
    <path d="M4.5451 17.2293C4.51867 17.2889 4.42488 17.3068 4.33943 17.266C4.252 17.2271 4.20331 17.1458 4.23153 17.086C4.25736 17.0244 4.35135 17.0075 4.43819 17.0486C4.52562 17.0878 4.5753 17.1698 4.5449 17.2295L4.5451 17.2293ZM5.03115 17.7715C4.97412 17.8246 4.86225 17.8 4.78634 17.7159C4.70765 17.6324 4.69294 17.5206 4.75116 17.4667C4.81038 17.4139 4.91888 17.4389 4.99757 17.5224C5.07586 17.607 5.09136 17.7179 5.03135 17.7717L5.03115 17.7715ZM5.50449 18.4625C5.43096 18.5137 5.31054 18.4658 5.23622 18.3591C5.1627 18.2522 5.1627 18.1241 5.23821 18.073C5.31233 18.0217 5.43096 18.068 5.50647 18.1737C5.5796 18.282 5.5796 18.4104 5.50449 18.4625ZM6.15249 19.1303C6.08692 19.2029 5.94662 19.1834 5.84409 19.0846C5.73937 18.9879 5.71016 18.8502 5.77593 18.7778C5.8427 18.7051 5.98358 18.7254 6.08672 18.8235C6.19144 18.9201 6.22303 19.058 6.15289 19.1301L6.15249 19.1303ZM7.0467 19.518C7.01749 19.612 6.88276 19.6547 6.74664 19.6146C6.61092 19.5735 6.5221 19.4636 6.54992 19.3686C6.57774 19.2738 6.71346 19.2295 6.85037 19.2722C6.98609 19.3132 7.07492 19.4225 7.0467 19.518ZM8.02894 19.5898C8.03232 19.6887 7.91706 19.7706 7.77459 19.7726C7.63092 19.776 7.51467 19.6957 7.51328 19.5983C7.51328 19.4984 7.62615 19.4175 7.76962 19.4147C7.9121 19.4121 8.02914 19.4916 8.02914 19.5896L8.02894 19.5898ZM8.94262 19.4344C8.95971 19.5308 8.86056 19.6299 8.71887 19.6563C8.57977 19.6822 8.45061 19.6222 8.43273 19.5266C8.41564 19.4276 8.51658 19.3285 8.65568 19.3028C8.79756 19.2784 8.92474 19.3364 8.94262 19.4344Z" fill="#FFFFFF"/>
</svg>
