<svg width="24" height="24" viewBox="0 0 24 24" fill="none" xmlns="http://www.w3.org/2000/svg">
    <circle cx="12" cy="12" r="11.5" stroke="#FFFFFF"/>
    <path d="M7.23789 16.649C7.04337 16.845 7.04337 17.1628 7.23789 17.3588C7.4324 17.5548 7.74777 17.5548 7.94229 17.3588L7.23789 16.649ZM17.3576 7.66336C17.3576 7.38617 17.1346 7.16146 16.8595 7.16146H12.3768C12.1017 7.16146 11.8787 7.38617 11.8787 7.66336C11.8787 7.94056 12.1017 8.16527 12.3768 8.16527L16.3615 8.16527V12.1805C16.3615 12.4577 16.5845 12.6824 16.8595 12.6824C17.1346 12.6824 17.3576 12.4577 17.3576 12.1805V7.66336ZM7.94229 17.3588L17.2117 8.01827L16.5073 7.30846L7.23789 16.649L7.94229 17.3588Z" fill="#FFFFFF"/>
</svg>
